# Tiled2Unity generated file. Do not modify by hand.
# Wavefront file for 'TOCOE_mesh_0009.obj'

# Vertices (Count = 620)
v -29 -1 0
v -30 -1 0
v -30 0 0
v -29 0 0
v -28 -1 0
v -29 -1 0
v -29 0 0
v -28 0 0
v -27 -1 0
v -28 -1 0
v -28 0 0
v -27 0 0
v -26 -1 0
v -27 -1 0
v -27 0 0
v -26 0 0
v -25 -1 0
v -26 -1 0
v -26 0 0
v -25 0 0
v -24 -1 0
v -25 -1 0
v -25 0 0
v -24 0 0
v -23 -1 0
v -24 -1 0
v -24 0 0
v -23 0 0
v -22 -1 0
v -23 -1 0
v -23 0 0
v -22 0 0
v -21 -1 0
v -22 -1 0
v -22 0 0
v -21 0 0
v -20 -1 0
v -21 -1 0
v -21 0 0
v -20 0 0
v -19 -1 0
v -20 -1 0
v -20 0 0
v -19 0 0
v -18 -1 0
v -19 -1 0
v -19 0 0
v -18 0 0
v -17 -1 0
v -18 -1 0
v -18 0 0
v -17 0 0
v -16 -1 0
v -17 -1 0
v -17 0 0
v -16 0 0
v -15 -1 0
v -16 -1 0
v -16 0 0
v -15 0 0
v -14 -1 0
v -15 -1 0
v -15 0 0
v -14 0 0
v -13 -1 0
v -14 -1 0
v -14 0 0
v -13 0 0
v -12 -1 0
v -13 -1 0
v -13 0 0
v -12 0 0
v -11 -1 0
v -12 -1 0
v -12 0 0
v -11 0 0
v -10 -1 0
v -11 -1 0
v -11 0 0
v -10 0 0
v -29 -2 0
v -30 -2 0
v -30 -1 0
v -29 -1 0
v -29 -3 0
v -30 -3 0
v -30 -2 0
v -29 -2 0
v -29 -4 0
v -30 -4 0
v -30 -3 0
v -29 -3 0
v -29 -5 0
v -30 -5 0
v -30 -4 0
v -29 -4 0
v -29 -6 0
v -30 -6 0
v -30 -5 0
v -29 -5 0
v -28 -6 0
v -29 -6 0
v -29 -5 0
v -28 -5 0
v -27 -6 0
v -28 -6 0
v -28 -5 0
v -27 -5 0
v -26 -6 0
v -27 -6 0
v -27 -5 0
v -26 -5 0
v -25 -6 0
v -26 -6 0
v -26 -5 0
v -25 -5 0
v -29 -7 0
v -30 -7 0
v -30 -6 0
v -29 -6 0
v -28 -7 0
v -29 -7 0
v -29 -6 0
v -28 -6 0
v -27 -7 0
v -28 -7 0
v -28 -6 0
v -27 -6 0
v -26 -7 0
v -27 -7 0
v -27 -6 0
v -26 -6 0
v -29 -8 0
v -30 -8 0
v -30 -7 0
v -29 -7 0
v -28 -8 0
v -29 -8 0
v -29 -7 0
v -28 -7 0
v -27 -8 0
v -28 -8 0
v -28 -7 0
v -27 -7 0
v -26 -8 0
v -27 -8 0
v -27 -7 0
v -26 -7 0
v -29 -9 0
v -30 -9 0
v -30 -8 0
v -29 -8 0
v -28 -9 0
v -29 -9 0
v -29 -8 0
v -28 -8 0
v -27 -9 0
v -28 -9 0
v -28 -8 0
v -27 -8 0
v -26 -9 0
v -27 -9 0
v -27 -8 0
v -26 -8 0
v -29 -10 0
v -30 -10 0
v -30 -9 0
v -29 -9 0
v -28 -10 0
v -29 -10 0
v -29 -9 0
v -28 -9 0
v -27 -10 0
v -28 -10 0
v -28 -9 0
v -27 -9 0
v -26 -10 0
v -27 -10 0
v -27 -9 0
v -26 -9 0
v -29 -11 0
v -30 -11 0
v -30 -10 0
v -29 -10 0
v -28 -11 0
v -29 -11 0
v -29 -10 0
v -28 -10 0
v -27 -11 0
v -28 -11 0
v -28 -10 0
v -27 -10 0
v -26 -11 0
v -27 -11 0
v -27 -10 0
v -26 -10 0
v -29 -12 0
v -30 -12 0
v -30 -11 0
v -29 -11 0
v -28 -12 0
v -29 -12 0
v -29 -11 0
v -28 -11 0
v -27 -12 0
v -28 -12 0
v -28 -11 0
v -27 -11 0
v -26 -12 0
v -27 -12 0
v -27 -11 0
v -26 -11 0
v -29 -13 0
v -30 -13 0
v -30 -12 0
v -29 -12 0
v -28 -13 0
v -29 -13 0
v -29 -12 0
v -28 -12 0
v -27 -13 0
v -28 -13 0
v -28 -12 0
v -27 -12 0
v -26 -13 0
v -27 -13 0
v -27 -12 0
v -26 -12 0
v -29 -14 0
v -30 -14 0
v -30 -13 0
v -29 -13 0
v -28 -14 0
v -29 -14 0
v -29 -13 0
v -28 -13 0
v -27 -14 0
v -28 -14 0
v -28 -13 0
v -27 -13 0
v -26 -14 0
v -27 -14 0
v -27 -13 0
v -26 -13 0
v -29 -15 0
v -30 -15 0
v -30 -14 0
v -29 -14 0
v -28 -15 0
v -29 -15 0
v -29 -14 0
v -28 -14 0
v -27 -15 0
v -28 -15 0
v -28 -14 0
v -27 -14 0
v -26 -15 0
v -27 -15 0
v -27 -14 0
v -26 -14 0
v -29 -16 0
v -30 -16 0
v -30 -15 0
v -29 -15 0
v -28 -16 0
v -29 -16 0
v -29 -15 0
v -28 -15 0
v -27 -16 0
v -28 -16 0
v -28 -15 0
v -27 -15 0
v -26 -16 0
v -27 -16 0
v -27 -15 0
v -26 -15 0
v -29 -17 0
v -30 -17 0
v -30 -16 0
v -29 -16 0
v -28 -17 0
v -29 -17 0
v -29 -16 0
v -28 -16 0
v -27 -17 0
v -28 -17 0
v -28 -16 0
v -27 -16 0
v -26 -17 0
v -27 -17 0
v -27 -16 0
v -26 -16 0
v -29 -18 0
v -30 -18 0
v -30 -17 0
v -29 -17 0
v -28 -18 0
v -29 -18 0
v -29 -17 0
v -28 -17 0
v -27 -18 0
v -28 -18 0
v -28 -17 0
v -27 -17 0
v -26 -18 0
v -27 -18 0
v -27 -17 0
v -26 -17 0
v -29 -19 0
v -30 -19 0
v -30 -18 0
v -29 -18 0
v -28 -19 0
v -29 -19 0
v -29 -18 0
v -28 -18 0
v -27 -19 0
v -28 -19 0
v -28 -18 0
v -27 -18 0
v -26 -19 0
v -27 -19 0
v -27 -18 0
v -26 -18 0
v -29 -20 0
v -30 -20 0
v -30 -19 0
v -29 -19 0
v -28 -20 0
v -29 -20 0
v -29 -19 0
v -28 -19 0
v -27 -20 0
v -28 -20 0
v -28 -19 0
v -27 -19 0
v -26 -20 0
v -27 -20 0
v -27 -19 0
v -26 -19 0
v -29 -21 0
v -30 -21 0
v -30 -20 0
v -29 -20 0
v -28 -21 0
v -29 -21 0
v -29 -20 0
v -28 -20 0
v -27 -21 0
v -28 -21 0
v -28 -20 0
v -27 -20 0
v -26 -21 0
v -27 -21 0
v -27 -20 0
v -26 -20 0
v -29 -22 0
v -30 -22 0
v -30 -21 0
v -29 -21 0
v -28 -22 0
v -29 -22 0
v -29 -21 0
v -28 -21 0
v -27 -22 0
v -28 -22 0
v -28 -21 0
v -27 -21 0
v -26 -22 0
v -27 -22 0
v -27 -21 0
v -26 -21 0
v -29 -23 0
v -30 -23 0
v -30 -22 0
v -29 -22 0
v -28 -23 0
v -29 -23 0
v -29 -22 0
v -28 -22 0
v -27 -23 0
v -28 -23 0
v -28 -22 0
v -27 -22 0
v -26 -23 0
v -27 -23 0
v -27 -22 0
v -26 -22 0
v -29 -24 0
v -30 -24 0
v -30 -23 0
v -29 -23 0
v -28 -24 0
v -29 -24 0
v -29 -23 0
v -28 -23 0
v -27 -24 0
v -28 -24 0
v -28 -23 0
v -27 -23 0
v -26 -24 0
v -27 -24 0
v -27 -23 0
v -26 -23 0
v -29 -25 0
v -30 -25 0
v -30 -24 0
v -29 -24 0
v -28 -25 0
v -29 -25 0
v -29 -24 0
v -28 -24 0
v -27 -25 0
v -28 -25 0
v -28 -24 0
v -27 -24 0
v -26 -25 0
v -27 -25 0
v -27 -24 0
v -26 -24 0
v -29 -26 0
v -30 -26 0
v -30 -25 0
v -29 -25 0
v -28 -26 0
v -29 -26 0
v -29 -25 0
v -28 -25 0
v -27 -26 0
v -28 -26 0
v -28 -25 0
v -27 -25 0
v -26 -26 0
v -27 -26 0
v -27 -25 0
v -26 -25 0
v -25 -26 0
v -26 -26 0
v -26 -25 0
v -25 -25 0
v -24 -26 0
v -25 -26 0
v -25 -25 0
v -24 -25 0
v -23 -26 0
v -24 -26 0
v -24 -25 0
v -23 -25 0
v -22 -26 0
v -23 -26 0
v -23 -25 0
v -22 -25 0
v -21 -26 0
v -22 -26 0
v -22 -25 0
v -21 -25 0
v -20 -26 0
v -21 -26 0
v -21 -25 0
v -20 -25 0
v -29 -27 0
v -30 -27 0
v -30 -26 0
v -29 -26 0
v -28 -27 0
v -29 -27 0
v -29 -26 0
v -28 -26 0
v -27 -27 0
v -28 -27 0
v -28 -26 0
v -27 -26 0
v -26 -27 0
v -27 -27 0
v -27 -26 0
v -26 -26 0
v -25 -27 0
v -26 -27 0
v -26 -26 0
v -25 -26 0
v -24 -27 0
v -25 -27 0
v -25 -26 0
v -24 -26 0
v -23 -27 0
v -24 -27 0
v -24 -26 0
v -23 -26 0
v -22 -27 0
v -23 -27 0
v -23 -26 0
v -22 -26 0
v -21 -27 0
v -22 -27 0
v -22 -26 0
v -21 -26 0
v -20 -27 0
v -21 -27 0
v -21 -26 0
v -20 -26 0
v -29 -28 0
v -30 -28 0
v -30 -27 0
v -29 -27 0
v -28 -28 0
v -29 -28 0
v -29 -27 0
v -28 -27 0
v -27 -28 0
v -28 -28 0
v -28 -27 0
v -27 -27 0
v -26 -28 0
v -27 -28 0
v -27 -27 0
v -26 -27 0
v -25 -28 0
v -26 -28 0
v -26 -27 0
v -25 -27 0
v -24 -28 0
v -25 -28 0
v -25 -27 0
v -24 -27 0
v -23 -28 0
v -24 -28 0
v -24 -27 0
v -23 -27 0
v -22 -28 0
v -23 -28 0
v -23 -27 0
v -22 -27 0
v -21 -28 0
v -22 -28 0
v -22 -27 0
v -21 -27 0
v -20 -28 0
v -21 -28 0
v -21 -27 0
v -20 -27 0
v -29 -29 0
v -30 -29 0
v -30 -28 0
v -29 -28 0
v -28 -29 0
v -29 -29 0
v -29 -28 0
v -28 -28 0
v -27 -29 0
v -28 -29 0
v -28 -28 0
v -27 -28 0
v -26 -29 0
v -27 -29 0
v -27 -28 0
v -26 -28 0
v -25 -29 0
v -26 -29 0
v -26 -28 0
v -25 -28 0
v -24 -29 0
v -25 -29 0
v -25 -28 0
v -24 -28 0
v -23 -29 0
v -24 -29 0
v -24 -28 0
v -23 -28 0
v -22 -29 0
v -23 -29 0
v -23 -28 0
v -22 -28 0
v -21 -29 0
v -22 -29 0
v -22 -28 0
v -21 -28 0
v -20 -29 0
v -21 -29 0
v -21 -28 0
v -20 -28 0
v -29 -30 0
v -30 -30 0
v -30 -29 0
v -29 -29 0
v -28 -30 0
v -29 -30 0
v -29 -29 0
v -28 -29 0
v -27 -30 0
v -28 -30 0
v -28 -29 0
v -27 -29 0
v -26 -30 0
v -27 -30 0
v -27 -29 0
v -26 -29 0
v -25 -30 0
v -26 -30 0
v -26 -29 0
v -25 -29 0
v -24 -30 0
v -25 -30 0
v -25 -29 0
v -24 -29 0
v -23 -30 0
v -24 -30 0
v -24 -29 0
v -23 -29 0
v -22 -30 0
v -23 -30 0
v -23 -29 0
v -22 -29 0
v -21 -30 0
v -22 -30 0
v -22 -29 0
v -21 -29 0
v -20 -30 0
v -21 -30 0
v -21 -29 0
v -20 -29 0

# Texture cooridinates (Count = 22)
vt 0.6 0.9722222
vt 0.625 0.9722222
vt 0.625 1
vt 0.6 1
vt 0.575 0.9722222
vt 0.575 1
vt 0.55 0.9722222
vt 0.55 1
vt 0.6 0.9444444
vt 0.625 0.9444444
vt 0.575 0.9444444
vt 0.725 0.9722222
vt 0.75 0.9722222
vt 0.75 1
vt 0.725 1
vt 0.725 0.9444444
vt 0.75 0.9444444
vt 0.6 0.9166667
vt 0.625 0.9166667
vt 0.575 0.9166667
vt 0.55 0.9166667
vt 0.55 0.9444444

# Normal
vn 0 0 -1

# Mesh description
g TOCOE_mesh_0009

# Faces
f 1/1/1 2/2/1 3/3/1 4/4/1
f 5/5/1 6/1/1 7/4/1 8/6/1
f 9/5/1 10/1/1 11/4/1 12/6/1
f 13/5/1 14/1/1 15/4/1 16/6/1
f 17/5/1 18/1/1 19/4/1 20/6/1
f 21/5/1 22/1/1 23/4/1 24/6/1
f 25/5/1 26/1/1 27/4/1 28/6/1
f 29/5/1 30/1/1 31/4/1 32/6/1
f 33/5/1 34/1/1 35/4/1 36/6/1
f 37/5/1 38/1/1 39/4/1 40/6/1
f 41/5/1 42/1/1 43/4/1 44/6/1
f 45/5/1 46/1/1 47/4/1 48/6/1
f 49/5/1 50/1/1 51/4/1 52/6/1
f 53/5/1 54/1/1 55/4/1 56/6/1
f 57/5/1 58/1/1 59/4/1 60/6/1
f 61/5/1 62/1/1 63/4/1 64/6/1
f 65/5/1 66/1/1 67/4/1 68/6/1
f 69/5/1 70/1/1 71/4/1 72/6/1
f 73/5/1 74/1/1 75/4/1 76/6/1
f 77/7/1 78/5/1 79/6/1 80/8/1
f 81/9/1 82/10/1 83/2/1 84/1/1
f 85/9/1 86/10/1 87/2/1 88/1/1
f 89/9/1 90/10/1 91/2/1 92/1/1
f 93/9/1 94/10/1 95/2/1 96/1/1
f 97/9/1 98/10/1 99/2/1 100/1/1
f 101/11/1 102/9/1 103/1/1 104/5/1
f 105/11/1 106/9/1 107/1/1 108/5/1
f 109/11/1 110/9/1 111/1/1 112/5/1
f 113/12/1 114/13/1 115/14/1 116/15/1
f 117/9/1 118/10/1 119/2/1 120/1/1
f 121/11/1 122/9/1 123/1/1 124/5/1
f 125/11/1 126/9/1 127/1/1 128/5/1
f 129/11/1 130/9/1 131/1/1 132/5/1
f 133/9/1 134/10/1 135/2/1 136/1/1
f 137/11/1 138/9/1 139/1/1 140/5/1
f 141/11/1 142/9/1 143/1/1 144/5/1
f 145/11/1 146/9/1 147/1/1 148/5/1
f 149/9/1 150/10/1 151/2/1 152/1/1
f 153/11/1 154/9/1 155/1/1 156/5/1
f 157/11/1 158/9/1 159/1/1 160/5/1
f 161/11/1 162/9/1 163/1/1 164/5/1
f 165/9/1 166/10/1 167/2/1 168/1/1
f 169/11/1 170/9/1 171/1/1 172/5/1
f 173/11/1 174/9/1 175/1/1 176/5/1
f 177/11/1 178/9/1 179/1/1 180/5/1
f 181/9/1 182/10/1 183/2/1 184/1/1
f 185/11/1 186/9/1 187/1/1 188/5/1
f 189/11/1 190/9/1 191/1/1 192/5/1
f 193/11/1 194/9/1 195/1/1 196/5/1
f 197/9/1 198/10/1 199/2/1 200/1/1
f 201/11/1 202/9/1 203/1/1 204/5/1
f 205/11/1 206/9/1 207/1/1 208/5/1
f 209/11/1 210/9/1 211/1/1 212/5/1
f 213/9/1 214/10/1 215/2/1 216/1/1
f 217/11/1 218/9/1 219/1/1 220/5/1
f 221/11/1 222/9/1 223/1/1 224/5/1
f 225/11/1 226/9/1 227/1/1 228/5/1
f 229/9/1 230/10/1 231/2/1 232/1/1
f 233/11/1 234/9/1 235/1/1 236/5/1
f 237/11/1 238/9/1 239/1/1 240/5/1
f 241/11/1 242/9/1 243/1/1 244/5/1
f 245/9/1 246/10/1 247/2/1 248/1/1
f 249/11/1 250/9/1 251/1/1 252/5/1
f 253/11/1 254/9/1 255/1/1 256/5/1
f 257/11/1 258/9/1 259/1/1 260/5/1
f 261/9/1 262/10/1 263/2/1 264/1/1
f 265/11/1 266/9/1 267/1/1 268/5/1
f 269/11/1 270/9/1 271/1/1 272/5/1
f 273/11/1 274/9/1 275/1/1 276/5/1
f 277/9/1 278/10/1 279/2/1 280/1/1
f 281/11/1 282/9/1 283/1/1 284/5/1
f 285/11/1 286/9/1 287/1/1 288/5/1
f 289/11/1 290/9/1 291/1/1 292/5/1
f 293/9/1 294/10/1 295/2/1 296/1/1
f 297/11/1 298/9/1 299/1/1 300/5/1
f 301/11/1 302/9/1 303/1/1 304/5/1
f 305/11/1 306/9/1 307/1/1 308/5/1
f 309/9/1 310/10/1 311/2/1 312/1/1
f 313/11/1 314/9/1 315/1/1 316/5/1
f 317/11/1 318/9/1 319/1/1 320/5/1
f 321/11/1 322/9/1 323/1/1 324/5/1
f 325/9/1 326/10/1 327/2/1 328/1/1
f 329/11/1 330/9/1 331/1/1 332/5/1
f 333/11/1 334/9/1 335/1/1 336/5/1
f 337/11/1 338/9/1 339/1/1 340/5/1
f 341/11/1 342/9/1 343/1/1 344/5/1
f 345/11/1 346/9/1 347/1/1 348/5/1
f 349/11/1 350/9/1 351/1/1 352/5/1
f 353/11/1 354/9/1 355/1/1 356/5/1
f 357/11/1 358/9/1 359/1/1 360/5/1
f 361/11/1 362/9/1 363/1/1 364/5/1
f 365/11/1 366/9/1 367/1/1 368/5/1
f 369/11/1 370/9/1 371/1/1 372/5/1
f 373/11/1 374/9/1 375/1/1 376/5/1
f 377/11/1 378/9/1 379/1/1 380/5/1
f 381/11/1 382/9/1 383/1/1 384/5/1
f 385/11/1 386/9/1 387/1/1 388/5/1
f 389/11/1 390/9/1 391/1/1 392/5/1
f 393/11/1 394/9/1 395/1/1 396/5/1
f 397/11/1 398/9/1 399/1/1 400/5/1
f 401/11/1 402/9/1 403/1/1 404/5/1
f 405/9/1 406/10/1 407/2/1 408/1/1
f 409/11/1 410/9/1 411/1/1 412/5/1
f 413/11/1 414/9/1 415/1/1 416/5/1
f 417/11/1 418/9/1 419/1/1 420/5/1
f 421/9/1 422/10/1 423/2/1 424/1/1
f 425/11/1 426/9/1 427/1/1 428/5/1
f 429/11/1 430/9/1 431/1/1 432/5/1
f 433/11/1 434/9/1 435/1/1 436/5/1
f 437/16/1 438/17/1 439/13/1 440/12/1
f 441/5/1 442/1/1 443/4/1 444/6/1
f 445/5/1 446/1/1 447/4/1 448/6/1
f 449/5/1 450/1/1 451/4/1 452/6/1
f 453/5/1 454/1/1 455/4/1 456/6/1
f 457/7/1 458/5/1 459/6/1 460/8/1
f 461/9/1 462/10/1 463/2/1 464/1/1
f 465/11/1 466/9/1 467/1/1 468/5/1
f 469/11/1 470/9/1 471/1/1 472/5/1
f 473/11/1 474/9/1 475/1/1 476/5/1
f 477/11/1 478/9/1 479/1/1 480/5/1
f 481/11/1 482/9/1 483/1/1 484/5/1
f 485/11/1 486/9/1 487/1/1 488/5/1
f 489/11/1 490/9/1 491/1/1 492/5/1
f 493/11/1 494/9/1 495/1/1 496/5/1
f 497/11/1 498/9/1 499/1/1 500/5/1
f 501/9/1 502/10/1 503/2/1 504/1/1
f 505/11/1 506/9/1 507/1/1 508/5/1
f 509/11/1 510/9/1 511/1/1 512/5/1
f 513/11/1 514/9/1 515/1/1 516/5/1
f 517/11/1 518/9/1 519/1/1 520/5/1
f 521/11/1 522/9/1 523/1/1 524/5/1
f 525/11/1 526/9/1 527/1/1 528/5/1
f 529/11/1 530/9/1 531/1/1 532/5/1
f 533/11/1 534/9/1 535/1/1 536/5/1
f 537/11/1 538/9/1 539/1/1 540/5/1
f 541/9/1 542/10/1 543/2/1 544/1/1
f 545/11/1 546/9/1 547/1/1 548/5/1
f 549/11/1 550/9/1 551/1/1 552/5/1
f 553/11/1 554/9/1 555/1/1 556/5/1
f 557/11/1 558/9/1 559/1/1 560/5/1
f 561/11/1 562/9/1 563/1/1 564/5/1
f 565/11/1 566/9/1 567/1/1 568/5/1
f 569/11/1 570/9/1 571/1/1 572/5/1
f 573/11/1 574/9/1 575/1/1 576/5/1
f 577/11/1 578/9/1 579/1/1 580/5/1
f 581/18/1 582/19/1 583/10/1 584/9/1
f 585/20/1 586/18/1 587/9/1 588/11/1
f 589/20/1 590/18/1 591/9/1 592/11/1
f 593/20/1 594/18/1 595/9/1 596/11/1
f 597/20/1 598/18/1 599/9/1 600/11/1
f 601/20/1 602/18/1 603/9/1 604/11/1
f 605/20/1 606/18/1 607/9/1 608/11/1
f 609/20/1 610/18/1 611/9/1 612/11/1
f 613/20/1 614/18/1 615/9/1 616/11/1
f 617/21/1 618/20/1 619/11/1 620/22/1

