# Tiled2Unity generated file. Do not modify by hand.
# Wavefront file for 'CIEROOM3_mesh_0004.obj'

# Vertices (Count = 220)
v -17 -2 0
v -18 -2 0
v -18 -1 0
v -17 -1 0
v -16 -2 0
v -17 -2 0
v -17 -1 0
v -16 -1 0
v -15 -2 0
v -16 -2 0
v -16 -1 0
v -15 -1 0
v -14 -2 0
v -15 -2 0
v -15 -1 0
v -14 -1 0
v -13 -2 0
v -14 -2 0
v -14 -1 0
v -13 -1 0
v -12 -2 0
v -13 -2 0
v -13 -1 0
v -12 -1 0
v -11 -2 0
v -12 -2 0
v -12 -1 0
v -11 -1 0
v -2 -2 0
v -3 -2 0
v -3 -1 0
v -2 -1 0
v -17 -3 0
v -18 -3 0
v -18 -2 0
v -17 -2 0
v -16 -3 0
v -17 -3 0
v -17 -2 0
v -16 -2 0
v -15 -3 0
v -16 -3 0
v -16 -2 0
v -15 -2 0
v -14 -3 0
v -15 -3 0
v -15 -2 0
v -14 -2 0
v -13 -3 0
v -14 -3 0
v -14 -2 0
v -13 -2 0
v -12 -3 0
v -13 -3 0
v -13 -2 0
v -12 -2 0
v -11 -3 0
v -12 -3 0
v -12 -2 0
v -11 -2 0
v -2 -3 0
v -3 -3 0
v -3 -2 0
v -2 -2 0
v -17 -4 0
v -18 -4 0
v -18 -3 0
v -17 -3 0
v -16 -4 0
v -17 -4 0
v -17 -3 0
v -16 -3 0
v -15 -4 0
v -16 -4 0
v -16 -3 0
v -15 -3 0
v -14 -4 0
v -15 -4 0
v -15 -3 0
v -14 -3 0
v -13 -4 0
v -14 -4 0
v -14 -3 0
v -13 -3 0
v -12 -4 0
v -13 -4 0
v -13 -3 0
v -12 -3 0
v -12 -6 0
v -13 -6 0
v -13 -5 0
v -12 -5 0
v -10 -6 0
v -11 -6 0
v -11 -5 0
v -10 -5 0
v -8 -6 0
v -9 -6 0
v -9 -5 0
v -8 -5 0
v -6 -6 0
v -7 -6 0
v -7 -5 0
v -6 -5 0
v -12 -7 0
v -13 -7 0
v -13 -6 0
v -12 -6 0
v -10 -7 0
v -11 -7 0
v -11 -6 0
v -10 -6 0
v -8 -7 0
v -9 -7 0
v -9 -6 0
v -8 -6 0
v -6 -7 0
v -7 -7 0
v -7 -6 0
v -6 -6 0
v -12 -8 0
v -13 -8 0
v -13 -7 0
v -12 -7 0
v -10 -8 0
v -11 -8 0
v -11 -7 0
v -10 -7 0
v -8 -8 0
v -9 -8 0
v -9 -7 0
v -8 -7 0
v -6 -8 0
v -7 -8 0
v -7 -7 0
v -6 -7 0
v -17 -9 0
v -18 -9 0
v -18 -8 0
v -17 -8 0
v -16 -9 0
v -17 -9 0
v -17 -8 0
v -16 -8 0
v -15 -9 0
v -16 -9 0
v -16 -8 0
v -15 -8 0
v -17 -10 0
v -18 -10 0
v -18 -9 0
v -17 -9 0
v -16 -10 0
v -17 -10 0
v -17 -9 0
v -16 -9 0
v -15 -10 0
v -16 -10 0
v -16 -9 0
v -15 -9 0
v -17 -11 0
v -18 -11 0
v -18 -10 0
v -17 -10 0
v -16 -11 0
v -17 -11 0
v -17 -10 0
v -16 -10 0
v -15 -11 0
v -16 -11 0
v -16 -10 0
v -15 -10 0
v -12 -13 0
v -13 -13 0
v -13 -12 0
v -12 -12 0
v -10 -13 0
v -11 -13 0
v -11 -12 0
v -10 -12 0
v -8 -13 0
v -9 -13 0
v -9 -12 0
v -8 -12 0
v -6 -13 0
v -7 -13 0
v -7 -12 0
v -6 -12 0
v -12 -14 0
v -13 -14 0
v -13 -13 0
v -12 -13 0
v -10 -14 0
v -11 -14 0
v -11 -13 0
v -10 -13 0
v -8 -14 0
v -9 -14 0
v -9 -13 0
v -8 -13 0
v -6 -14 0
v -7 -14 0
v -7 -13 0
v -6 -13 0
v -12 -15 0
v -13 -15 0
v -13 -14 0
v -12 -14 0
v -10 -15 0
v -11 -15 0
v -11 -14 0
v -10 -14 0
v -8 -15 0
v -9 -15 0
v -9 -14 0
v -8 -14 0
v -6 -15 0
v -7 -15 0
v -7 -14 0
v -6 -14 0

# Texture cooridinates (Count = 72)
vt 0.3 0.68
vt 0.325 0.68
vt 0.325 0.72
vt 0.3 0.72
vt 0.275 0.68
vt 0.275 0.72
vt 0.25 0.68
vt 0.25 0.72
vt 0.05 0.48
vt 0.075 0.48
vt 0.075 0.52
vt 0.05 0.52
vt 0.025 0.48
vt 0.025 0.52
vt 0 0.48
vt 0 0.52
vt 0.1 0.36
vt 0.125 0.36
vt 0.125 0.4
vt 0.1 0.4
vt 0.3 0.64
vt 0.325 0.64
vt 0.275 0.64
vt 0.25 0.64
vt 0.125 0.48
vt 0.15 0.48
vt 0.15 0.52
vt 0.125 0.52
vt 0.1 0.48
vt 0.1 0.52
vt 0.1 0.32
vt 0.125 0.32
vt 0.3 0.6
vt 0.325 0.6
vt 0.275 0.6
vt 0.25 0.6
vt 0.125 0.44
vt 0.15 0.44
vt 0.1 0.44
vt 0.075 0.44
vt 0.4 0.8
vt 0.425 0.8
vt 0.425 0.84
vt 0.4 0.84
vt 0.4 0.76
vt 0.425 0.76
vt 0.4 0.72
vt 0.425 0.72
vt 0.45 0.8
vt 0.475 0.8
vt 0.475 0.84
vt 0.45 0.84
vt 0.3 0.92
vt 0.325 0.92
vt 0.325 0.96
vt 0.3 0.96
vt 0.25 0.92
vt 0.275 0.92
vt 0.275 0.96
vt 0.25 0.96
vt 0.45 0.76
vt 0.475 0.76
vt 0.3 0.88
vt 0.325 0.88
vt 0.25 0.88
vt 0.275 0.88
vt 0.45 0.72
vt 0.475 0.72
vt 0.3 0.84
vt 0.325 0.84
vt 0.25 0.84
vt 0.275 0.84

# Normal
vn 0 0 -1

# Mesh description
g CIEROOM3_mesh_0004

# Faces
f 1/1/1 2/2/1 3/3/1 4/4/1
f 5/5/1 6/1/1 7/4/1 8/6/1
f 9/7/1 10/5/1 11/6/1 12/8/1
f 13/9/1 14/10/1 15/11/1 16/12/1
f 17/13/1 18/9/1 19/12/1 20/14/1
f 21/15/1 22/13/1 23/14/1 24/16/1
f 25/17/1 26/18/1 27/19/1 28/20/1
f 29/17/1 30/18/1 31/19/1 32/20/1
f 33/21/1 34/22/1 35/2/1 36/1/1
f 37/23/1 38/21/1 39/1/1 40/5/1
f 41/24/1 42/23/1 43/5/1 44/7/1
f 45/25/1 46/26/1 47/27/1 48/28/1
f 49/29/1 50/25/1 51/28/1 52/30/1
f 53/10/1 54/29/1 55/30/1 56/11/1
f 57/31/1 58/32/1 59/18/1 60/17/1
f 61/31/1 62/32/1 63/18/1 64/17/1
f 65/33/1 66/34/1 67/22/1 68/21/1
f 69/35/1 70/33/1 71/21/1 72/23/1
f 73/36/1 74/35/1 75/23/1 76/24/1
f 77/37/1 78/38/1 79/26/1 80/25/1
f 81/39/1 82/37/1 83/25/1 84/29/1
f 85/40/1 86/39/1 87/29/1 88/10/1
f 89/41/1 90/42/1 91/43/1 92/44/1
f 93/41/1 94/42/1 95/43/1 96/44/1
f 97/41/1 98/42/1 99/43/1 100/44/1
f 101/41/1 102/42/1 103/43/1 104/44/1
f 105/45/1 106/46/1 107/42/1 108/41/1
f 109/45/1 110/46/1 111/42/1 112/41/1
f 113/45/1 114/46/1 115/42/1 116/41/1
f 117/45/1 118/46/1 119/42/1 120/41/1
f 121/47/1 122/48/1 123/46/1 124/45/1
f 125/47/1 126/48/1 127/46/1 128/45/1
f 129/47/1 130/48/1 131/46/1 132/45/1
f 133/47/1 134/48/1 135/46/1 136/45/1
f 137/49/1 138/50/1 139/51/1 140/52/1
f 141/53/1 142/54/1 143/55/1 144/56/1
f 145/57/1 146/58/1 147/59/1 148/60/1
f 149/61/1 150/62/1 151/50/1 152/49/1
f 153/63/1 154/64/1 155/54/1 156/53/1
f 157/65/1 158/66/1 159/58/1 160/57/1
f 161/67/1 162/68/1 163/62/1 164/61/1
f 165/69/1 166/70/1 167/64/1 168/63/1
f 169/71/1 170/72/1 171/66/1 172/65/1
f 173/41/1 174/42/1 175/43/1 176/44/1
f 177/41/1 178/42/1 179/43/1 180/44/1
f 181/41/1 182/42/1 183/43/1 184/44/1
f 185/41/1 186/42/1 187/43/1 188/44/1
f 189/45/1 190/46/1 191/42/1 192/41/1
f 193/45/1 194/46/1 195/42/1 196/41/1
f 197/45/1 198/46/1 199/42/1 200/41/1
f 201/45/1 202/46/1 203/42/1 204/41/1
f 205/47/1 206/48/1 207/46/1 208/45/1
f 209/47/1 210/48/1 211/46/1 212/45/1
f 213/47/1 214/48/1 215/46/1 216/45/1
f 217/47/1 218/48/1 219/46/1 220/45/1

