# Tiled2Unity generated file. Do not modify by hand.
# Wavefront file for 'LOBBY_mesh_0007.obj'

# Vertices (Count = 64)
v -26 -7 0
v -27 -7 0
v -27 -6 0
v -26 -6 0
v -25 -7 0
v -26 -7 0
v -26 -6 0
v -25 -6 0
v -4 -7 0
v -5 -7 0
v -5 -6 0
v -4 -6 0
v -3 -7 0
v -4 -7 0
v -4 -6 0
v -3 -6 0
v -26 -8 0
v -27 -8 0
v -27 -7 0
v -26 -7 0
v -25 -8 0
v -26 -8 0
v -26 -7 0
v -25 -7 0
v -4 -8 0
v -5 -8 0
v -5 -7 0
v -4 -7 0
v -3 -8 0
v -4 -8 0
v -4 -7 0
v -3 -7 0
v -26 -9 0
v -27 -9 0
v -27 -8 0
v -26 -8 0
v -25 -9 0
v -26 -9 0
v -26 -8 0
v -25 -8 0
v -4 -9 0
v -5 -9 0
v -5 -8 0
v -4 -8 0
v -3 -9 0
v -4 -9 0
v -4 -8 0
v -3 -8 0
v -26 -10 0
v -27 -10 0
v -27 -9 0
v -26 -9 0
v -25 -10 0
v -26 -10 0
v -26 -9 0
v -25 -9 0
v -4 -10 0
v -5 -10 0
v -5 -9 0
v -4 -9 0
v -3 -10 0
v -4 -10 0
v -4 -9 0
v -3 -9 0

# Texture cooridinates (Count = 25)
vt 0.9375 0.7727273
vt 1 0.7727273
vt 1 0.8181818
vt 0.9375 0.8181818
vt 0.875 0.7727273
vt 0.875 0.8181818
vt 0.8125 0.7727273
vt 0.8125 0.8181818
vt 0.75 0.7727273
vt 0.75 0.8181818
vt 0.9375 0.7272727
vt 1 0.7272727
vt 0.875 0.7272727
vt 0.8125 0.7272727
vt 0.75 0.7272727
vt 0.9375 0.6818182
vt 1 0.6818182
vt 0.875 0.6818182
vt 0.8125 0.6818182
vt 0.75 0.6818182
vt 0.9375 0.6363636
vt 1 0.6363636
vt 0.875 0.6363636
vt 0.8125 0.6363636
vt 0.75 0.6363636

# Normal
vn 0 0 -1

# Mesh description
g LOBBY_mesh_0007

# Faces
f 1/1/1 2/2/1 3/3/1 4/4/1
f 5/5/1 6/1/1 7/4/1 8/6/1
f 9/7/1 10/5/1 11/6/1 12/8/1
f 13/9/1 14/7/1 15/8/1 16/10/1
f 17/11/1 18/12/1 19/2/1 20/1/1
f 21/13/1 22/11/1 23/1/1 24/5/1
f 25/14/1 26/13/1 27/5/1 28/7/1
f 29/15/1 30/14/1 31/7/1 32/9/1
f 33/16/1 34/17/1 35/12/1 36/11/1
f 37/18/1 38/16/1 39/11/1 40/13/1
f 41/19/1 42/18/1 43/13/1 44/14/1
f 45/20/1 46/19/1 47/14/1 48/15/1
f 49/21/1 50/22/1 51/17/1 52/16/1
f 53/23/1 54/21/1 55/16/1 56/18/1
f 57/24/1 58/23/1 59/18/1 60/19/1
f 61/25/1 62/24/1 63/19/1 64/20/1

