# Tiled2Unity generated file. Do not modify by hand.
# Wavefront file for 'LOBBY_mesh_0009.obj'

# Vertices (Count = 96)
v -19 -4 0
v -20 -4 0
v -20 -3 0
v -19 -3 0
v -18 -4 0
v -19 -4 0
v -19 -3 0
v -18 -3 0
v -19 -5 0
v -20 -5 0
v -20 -4 0
v -19 -4 0
v -18 -5 0
v -19 -5 0
v -19 -4 0
v -18 -4 0
v -19 -6 0
v -20 -6 0
v -20 -5 0
v -19 -5 0
v -18 -6 0
v -19 -6 0
v -19 -5 0
v -18 -5 0
v -19 -7 0
v -20 -7 0
v -20 -6 0
v -19 -6 0
v -18 -7 0
v -19 -7 0
v -19 -6 0
v -18 -6 0
v -26 -10 0
v -27 -10 0
v -27 -9 0
v -26 -9 0
v -25 -10 0
v -26 -10 0
v -26 -9 0
v -25 -9 0
v -4 -10 0
v -5 -10 0
v -5 -9 0
v -4 -9 0
v -3 -10 0
v -4 -10 0
v -4 -9 0
v -3 -9 0
v -26 -11 0
v -27 -11 0
v -27 -10 0
v -26 -10 0
v -25 -11 0
v -26 -11 0
v -26 -10 0
v -25 -10 0
v -4 -11 0
v -5 -11 0
v -5 -10 0
v -4 -10 0
v -3 -11 0
v -4 -11 0
v -4 -10 0
v -3 -10 0
v -26 -12 0
v -27 -12 0
v -27 -11 0
v -26 -11 0
v -25 -12 0
v -26 -12 0
v -26 -11 0
v -25 -11 0
v -4 -12 0
v -5 -12 0
v -5 -11 0
v -4 -11 0
v -3 -12 0
v -4 -12 0
v -4 -11 0
v -3 -11 0
v -26 -13 0
v -27 -13 0
v -27 -12 0
v -26 -12 0
v -25 -13 0
v -26 -13 0
v -26 -12 0
v -25 -12 0
v -4 -13 0
v -5 -13 0
v -5 -12 0
v -4 -12 0
v -3 -13 0
v -4 -13 0
v -4 -12 0
v -3 -12 0

# Texture cooridinates (Count = 25)
vt 0.8125 0.7727273
vt 0.875 0.7727273
vt 0.875 0.8181818
vt 0.8125 0.8181818
vt 0.75 0.7727273
vt 0.75 0.8181818
vt 0.8125 0.7272727
vt 0.875 0.7272727
vt 0.75 0.7272727
vt 0.8125 0.6818182
vt 0.875 0.6818182
vt 0.75 0.6818182
vt 0.8125 0.6363636
vt 0.875 0.6363636
vt 0.75 0.6363636
vt 0.9375 0.7727273
vt 1 0.7727273
vt 1 0.8181818
vt 0.9375 0.8181818
vt 0.9375 0.7272727
vt 1 0.7272727
vt 0.9375 0.6818182
vt 1 0.6818182
vt 0.9375 0.6363636
vt 1 0.6363636

# Normal
vn 0 0 -1

# Mesh description
g LOBBY_mesh_0009

# Faces
f 1/1/1 2/2/1 3/3/1 4/4/1
f 5/5/1 6/1/1 7/4/1 8/6/1
f 9/7/1 10/8/1 11/2/1 12/1/1
f 13/9/1 14/7/1 15/1/1 16/5/1
f 17/10/1 18/11/1 19/8/1 20/7/1
f 21/12/1 22/10/1 23/7/1 24/9/1
f 25/13/1 26/14/1 27/11/1 28/10/1
f 29/15/1 30/13/1 31/10/1 32/12/1
f 33/16/1 34/17/1 35/18/1 36/19/1
f 37/2/1 38/16/1 39/19/1 40/3/1
f 41/1/1 42/2/1 43/3/1 44/4/1
f 45/5/1 46/1/1 47/4/1 48/6/1
f 49/20/1 50/21/1 51/17/1 52/16/1
f 53/8/1 54/20/1 55/16/1 56/2/1
f 57/7/1 58/8/1 59/2/1 60/1/1
f 61/9/1 62/7/1 63/1/1 64/5/1
f 65/22/1 66/23/1 67/21/1 68/20/1
f 69/11/1 70/22/1 71/20/1 72/8/1
f 73/10/1 74/11/1 75/8/1 76/7/1
f 77/12/1 78/10/1 79/7/1 80/9/1
f 81/24/1 82/25/1 83/23/1 84/22/1
f 85/14/1 86/24/1 87/22/1 88/11/1
f 89/13/1 90/14/1 91/11/1 92/10/1
f 93/15/1 94/13/1 95/10/1 96/12/1

