# Tiled2Unity generated file. Do not modify by hand.
# Wavefront file for 'LOBBY_mesh_0006.obj'

# Vertices (Count = 32)
v -16 -4 0
v -17 -4 0
v -17 -3 0
v -16 -3 0
v -13 -4 0
v -14 -4 0
v -14 -3 0
v -13 -3 0
v -16 -5 0
v -17 -5 0
v -17 -4 0
v -16 -4 0
v -13 -5 0
v -14 -5 0
v -14 -4 0
v -13 -4 0
v -16 -6 0
v -17 -6 0
v -17 -5 0
v -16 -5 0
v -13 -6 0
v -14 -6 0
v -14 -5 0
v -13 -5 0
v -16 -7 0
v -17 -7 0
v -17 -6 0
v -16 -6 0
v -13 -7 0
v -14 -7 0
v -14 -6 0
v -13 -6 0

# Texture cooridinates (Count = 12)
vt 0.5 0.4166667
vt 0.525 0.4166667
vt 0.525 0.4444444
vt 0.5 0.4444444
vt 0.45 0.4166667
vt 0.475 0.4166667
vt 0.475 0.4444444
vt 0.45 0.4444444
vt 0.5 0.3888889
vt 0.525 0.3888889
vt 0.45 0.3888889
vt 0.475 0.3888889

# Normal
vn 0 0 -1

# Mesh description
g LOBBY_mesh_0006

# Faces
f 1/1/1 2/2/1 3/3/1 4/4/1
f 5/5/1 6/6/1 7/7/1 8/8/1
f 9/1/1 10/2/1 11/3/1 12/4/1
f 13/5/1 14/6/1 15/7/1 16/8/1
f 17/1/1 18/2/1 19/3/1 20/4/1
f 21/5/1 22/6/1 23/7/1 24/8/1
f 25/9/1 26/10/1 27/2/1 28/1/1
f 29/11/1 30/12/1 31/6/1 32/5/1

