# Tiled2Unity generated file. Do not modify by hand.
# Wavefront file for 'CIEROOM1_mesh_0002.obj'

# Vertices (Count = 1108)
v -19 -1 0
v -20 -1 0
v -20 0 0
v -19 0 0
v -18 -1 0
v -19 -1 0
v -19 0 0
v -18 0 0
v -17 -1 0
v -18 -1 0
v -18 0 0
v -17 0 0
v -16 -1 0
v -17 -1 0
v -17 0 0
v -16 0 0
v -15 -1 0
v -16 -1 0
v -16 0 0
v -15 0 0
v -14 -1 0
v -15 -1 0
v -15 0 0
v -14 0 0
v -13 -1 0
v -14 -1 0
v -14 0 0
v -13 0 0
v -12 -1 0
v -13 -1 0
v -13 0 0
v -12 0 0
v -11 -1 0
v -12 -1 0
v -12 0 0
v -11 0 0
v -10 -1 0
v -11 -1 0
v -11 0 0
v -10 0 0
v -9 -1 0
v -10 -1 0
v -10 0 0
v -9 0 0
v -8 -1 0
v -9 -1 0
v -9 0 0
v -8 0 0
v -7 -1 0
v -8 -1 0
v -8 0 0
v -7 0 0
v -6 -1 0
v -7 -1 0
v -7 0 0
v -6 0 0
v -5 -1 0
v -6 -1 0
v -6 0 0
v -5 0 0
v -4 -1 0
v -5 -1 0
v -5 0 0
v -4 0 0
v -3 -1 0
v -4 -1 0
v -4 0 0
v -3 0 0
v -2 -1 0
v -3 -1 0
v -3 0 0
v -2 0 0
v -1 -1 0
v -2 -1 0
v -2 0 0
v -1 0 0
v 0 -1 0
v -1 -1 0
v -1 0 0
v 0 0 0
v -19 -2 0
v -20 -2 0
v -20 -1 0
v -19 -1 0
v -18 -2 0
v -19 -2 0
v -19 -1 0
v -18 -1 0
v -17 -2 0
v -18 -2 0
v -18 -1 0
v -17 -1 0
v -16 -2 0
v -17 -2 0
v -17 -1 0
v -16 -1 0
v -15 -2 0
v -16 -2 0
v -16 -1 0
v -15 -1 0
v -14 -2 0
v -15 -2 0
v -15 -1 0
v -14 -1 0
v -13 -2 0
v -14 -2 0
v -14 -1 0
v -13 -1 0
v -12 -2 0
v -13 -2 0
v -13 -1 0
v -12 -1 0
v -11 -2 0
v -12 -2 0
v -12 -1 0
v -11 -1 0
v -10 -2 0
v -11 -2 0
v -11 -1 0
v -10 -1 0
v -9 -2 0
v -10 -2 0
v -10 -1 0
v -9 -1 0
v -8 -2 0
v -9 -2 0
v -9 -1 0
v -8 -1 0
v -7 -2 0
v -8 -2 0
v -8 -1 0
v -7 -1 0
v -6 -2 0
v -7 -2 0
v -7 -1 0
v -6 -1 0
v -5 -2 0
v -6 -2 0
v -6 -1 0
v -5 -1 0
v -4 -2 0
v -5 -2 0
v -5 -1 0
v -4 -1 0
v -3 -2 0
v -4 -2 0
v -4 -1 0
v -3 -1 0
v -2 -2 0
v -3 -2 0
v -3 -1 0
v -2 -1 0
v -1 -2 0
v -2 -2 0
v -2 -1 0
v -1 -1 0
v 0 -2 0
v -1 -2 0
v -1 -1 0
v 0 -1 0
v -19 -3 0
v -20 -3 0
v -20 -2 0
v -19 -2 0
v -18 -3 0
v -19 -3 0
v -19 -2 0
v -18 -2 0
v -17 -3 0
v -18 -3 0
v -18 -2 0
v -17 -2 0
v -16 -3 0
v -17 -3 0
v -17 -2 0
v -16 -2 0
v -15 -3 0
v -16 -3 0
v -16 -2 0
v -15 -2 0
v -14 -3 0
v -15 -3 0
v -15 -2 0
v -14 -2 0
v -13 -3 0
v -14 -3 0
v -14 -2 0
v -13 -2 0
v -12 -3 0
v -13 -3 0
v -13 -2 0
v -12 -2 0
v -11 -3 0
v -12 -3 0
v -12 -2 0
v -11 -2 0
v -10 -3 0
v -11 -3 0
v -11 -2 0
v -10 -2 0
v -9 -3 0
v -10 -3 0
v -10 -2 0
v -9 -2 0
v -8 -3 0
v -9 -3 0
v -9 -2 0
v -8 -2 0
v -7 -3 0
v -8 -3 0
v -8 -2 0
v -7 -2 0
v -6 -3 0
v -7 -3 0
v -7 -2 0
v -6 -2 0
v -5 -3 0
v -6 -3 0
v -6 -2 0
v -5 -2 0
v -4 -3 0
v -5 -3 0
v -5 -2 0
v -4 -2 0
v -3 -3 0
v -4 -3 0
v -4 -2 0
v -3 -2 0
v -2 -3 0
v -3 -3 0
v -3 -2 0
v -2 -2 0
v -1 -3 0
v -2 -3 0
v -2 -2 0
v -1 -2 0
v 0 -3 0
v -1 -3 0
v -1 -2 0
v 0 -2 0
v -19 -4 0
v -20 -4 0
v -20 -3 0
v -19 -3 0
v -18 -4 0
v -19 -4 0
v -19 -3 0
v -18 -3 0
v -17 -4 0
v -18 -4 0
v -18 -3 0
v -17 -3 0
v -16 -4 0
v -17 -4 0
v -17 -3 0
v -16 -3 0
v -15 -4 0
v -16 -4 0
v -16 -3 0
v -15 -3 0
v -14 -4 0
v -15 -4 0
v -15 -3 0
v -14 -3 0
v -13 -4 0
v -14 -4 0
v -14 -3 0
v -13 -3 0
v -12 -4 0
v -13 -4 0
v -13 -3 0
v -12 -3 0
v -11 -4 0
v -12 -4 0
v -12 -3 0
v -11 -3 0
v -10 -4 0
v -11 -4 0
v -11 -3 0
v -10 -3 0
v -9 -4 0
v -10 -4 0
v -10 -3 0
v -9 -3 0
v -8 -4 0
v -9 -4 0
v -9 -3 0
v -8 -3 0
v -7 -4 0
v -8 -4 0
v -8 -3 0
v -7 -3 0
v -6 -4 0
v -7 -4 0
v -7 -3 0
v -6 -3 0
v -5 -4 0
v -6 -4 0
v -6 -3 0
v -5 -3 0
v -4 -4 0
v -5 -4 0
v -5 -3 0
v -4 -3 0
v -3 -4 0
v -4 -4 0
v -4 -3 0
v -3 -3 0
v -2 -4 0
v -3 -4 0
v -3 -3 0
v -2 -3 0
v -1 -4 0
v -2 -4 0
v -2 -3 0
v -1 -3 0
v 0 -4 0
v -1 -4 0
v -1 -3 0
v 0 -3 0
v -19 -5 0
v -20 -5 0
v -20 -4 0
v -19 -4 0
v -18 -5 0
v -19 -5 0
v -19 -4 0
v -18 -4 0
v -17 -5 0
v -18 -5 0
v -18 -4 0
v -17 -4 0
v -9 -5 0
v -10 -5 0
v -10 -4 0
v -9 -4 0
v -2 -5 0
v -3 -5 0
v -3 -4 0
v -2 -4 0
v -1 -5 0
v -2 -5 0
v -2 -4 0
v -1 -4 0
v 0 -5 0
v -1 -5 0
v -1 -4 0
v 0 -4 0
v -19 -6 0
v -20 -6 0
v -20 -5 0
v -19 -5 0
v -18 -6 0
v -19 -6 0
v -19 -5 0
v -18 -5 0
v -17 -6 0
v -18 -6 0
v -18 -5 0
v -17 -5 0
v -9 -6 0
v -10 -6 0
v -10 -5 0
v -9 -5 0
v -2 -6 0
v -3 -6 0
v -3 -5 0
v -2 -5 0
v -1 -6 0
v -2 -6 0
v -2 -5 0
v -1 -5 0
v 0 -6 0
v -1 -6 0
v -1 -5 0
v 0 -5 0
v -19 -7 0
v -20 -7 0
v -20 -6 0
v -19 -6 0
v -18 -7 0
v -19 -7 0
v -19 -6 0
v -18 -6 0
v -17 -7 0
v -18 -7 0
v -18 -6 0
v -17 -6 0
v -9 -7 0
v -10 -7 0
v -10 -6 0
v -9 -6 0
v -2 -7 0
v -3 -7 0
v -3 -6 0
v -2 -6 0
v -1 -7 0
v -2 -7 0
v -2 -6 0
v -1 -6 0
v 0 -7 0
v -1 -7 0
v -1 -6 0
v 0 -6 0
v -19 -8 0
v -20 -8 0
v -20 -7 0
v -19 -7 0
v -18 -8 0
v -19 -8 0
v -19 -7 0
v -18 -7 0
v -17 -8 0
v -18 -8 0
v -18 -7 0
v -17 -7 0
v -2 -8 0
v -3 -8 0
v -3 -7 0
v -2 -7 0
v -1 -8 0
v -2 -8 0
v -2 -7 0
v -1 -7 0
v 0 -8 0
v -1 -8 0
v -1 -7 0
v 0 -7 0
v -19 -9 0
v -20 -9 0
v -20 -8 0
v -19 -8 0
v -18 -9 0
v -19 -9 0
v -19 -8 0
v -18 -8 0
v -17 -9 0
v -18 -9 0
v -18 -8 0
v -17 -8 0
v -2 -9 0
v -3 -9 0
v -3 -8 0
v -2 -8 0
v -1 -9 0
v -2 -9 0
v -2 -8 0
v -1 -8 0
v 0 -9 0
v -1 -9 0
v -1 -8 0
v 0 -8 0
v -19 -10 0
v -20 -10 0
v -20 -9 0
v -19 -9 0
v -18 -10 0
v -19 -10 0
v -19 -9 0
v -18 -9 0
v -17 -10 0
v -18 -10 0
v -18 -9 0
v -17 -9 0
v -15 -10 0
v -16 -10 0
v -16 -9 0
v -15 -9 0
v -14 -10 0
v -15 -10 0
v -15 -9 0
v -14 -9 0
v -13 -10 0
v -14 -10 0
v -14 -9 0
v -13 -9 0
v -12 -10 0
v -13 -10 0
v -13 -9 0
v -12 -9 0
v -11 -10 0
v -12 -10 0
v -12 -9 0
v -11 -9 0
v -8 -10 0
v -9 -10 0
v -9 -9 0
v -8 -9 0
v -7 -10 0
v -8 -10 0
v -8 -9 0
v -7 -9 0
v -6 -10 0
v -7 -10 0
v -7 -9 0
v -6 -9 0
v -5 -10 0
v -6 -10 0
v -6 -9 0
v -5 -9 0
v -4 -10 0
v -5 -10 0
v -5 -9 0
v -4 -9 0
v -2 -10 0
v -3 -10 0
v -3 -9 0
v -2 -9 0
v -1 -10 0
v -2 -10 0
v -2 -9 0
v -1 -9 0
v 0 -10 0
v -1 -10 0
v -1 -9 0
v 0 -9 0
v -19 -11 0
v -20 -11 0
v -20 -10 0
v -19 -10 0
v -18 -11 0
v -19 -11 0
v -19 -10 0
v -18 -10 0
v -17 -11 0
v -18 -11 0
v -18 -10 0
v -17 -10 0
v -15 -11 0
v -16 -11 0
v -16 -10 0
v -15 -10 0
v -14 -11 0
v -15 -11 0
v -15 -10 0
v -14 -10 0
v -13 -11 0
v -14 -11 0
v -14 -10 0
v -13 -10 0
v -12 -11 0
v -13 -11 0
v -13 -10 0
v -12 -10 0
v -11 -11 0
v -12 -11 0
v -12 -10 0
v -11 -10 0
v -8 -11 0
v -9 -11 0
v -9 -10 0
v -8 -10 0
v -7 -11 0
v -8 -11 0
v -8 -10 0
v -7 -10 0
v -6 -11 0
v -7 -11 0
v -7 -10 0
v -6 -10 0
v -5 -11 0
v -6 -11 0
v -6 -10 0
v -5 -10 0
v -4 -11 0
v -5 -11 0
v -5 -10 0
v -4 -10 0
v -2 -11 0
v -3 -11 0
v -3 -10 0
v -2 -10 0
v -1 -11 0
v -2 -11 0
v -2 -10 0
v -1 -10 0
v 0 -11 0
v -1 -11 0
v -1 -10 0
v 0 -10 0
v -19 -12 0
v -20 -12 0
v -20 -11 0
v -19 -11 0
v -18 -12 0
v -19 -12 0
v -19 -11 0
v -18 -11 0
v -17 -12 0
v -18 -12 0
v -18 -11 0
v -17 -11 0
v -15 -12 0
v -16 -12 0
v -16 -11 0
v -15 -11 0
v -14 -12 0
v -15 -12 0
v -15 -11 0
v -14 -11 0
v -13 -12 0
v -14 -12 0
v -14 -11 0
v -13 -11 0
v -12 -12 0
v -13 -12 0
v -13 -11 0
v -12 -11 0
v -11 -12 0
v -12 -12 0
v -12 -11 0
v -11 -11 0
v -8 -12 0
v -9 -12 0
v -9 -11 0
v -8 -11 0
v -7 -12 0
v -8 -12 0
v -8 -11 0
v -7 -11 0
v -6 -12 0
v -7 -12 0
v -7 -11 0
v -6 -11 0
v -5 -12 0
v -6 -12 0
v -6 -11 0
v -5 -11 0
v -4 -12 0
v -5 -12 0
v -5 -11 0
v -4 -11 0
v -2 -12 0
v -3 -12 0
v -3 -11 0
v -2 -11 0
v -1 -12 0
v -2 -12 0
v -2 -11 0
v -1 -11 0
v 0 -12 0
v -1 -12 0
v -1 -11 0
v 0 -11 0
v -19 -13 0
v -20 -13 0
v -20 -12 0
v -19 -12 0
v -18 -13 0
v -19 -13 0
v -19 -12 0
v -18 -12 0
v -17 -13 0
v -18 -13 0
v -18 -12 0
v -17 -12 0
v -2 -13 0
v -3 -13 0
v -3 -12 0
v -2 -12 0
v -1 -13 0
v -2 -13 0
v -2 -12 0
v -1 -12 0
v 0 -13 0
v -1 -13 0
v -1 -12 0
v 0 -12 0
v -19 -14 0
v -20 -14 0
v -20 -13 0
v -19 -13 0
v -18 -14 0
v -19 -14 0
v -19 -13 0
v -18 -13 0
v -17 -14 0
v -18 -14 0
v -18 -13 0
v -17 -13 0
v -2 -14 0
v -3 -14 0
v -3 -13 0
v -2 -13 0
v -1 -14 0
v -2 -14 0
v -2 -13 0
v -1 -13 0
v 0 -14 0
v -1 -14 0
v -1 -13 0
v 0 -13 0
v -19 -15 0
v -20 -15 0
v -20 -14 0
v -19 -14 0
v -18 -15 0
v -19 -15 0
v -19 -14 0
v -18 -14 0
v -17 -15 0
v -18 -15 0
v -18 -14 0
v -17 -14 0
v -2 -15 0
v -3 -15 0
v -3 -14 0
v -2 -14 0
v -1 -15 0
v -2 -15 0
v -2 -14 0
v -1 -14 0
v 0 -15 0
v -1 -15 0
v -1 -14 0
v 0 -14 0
v -19 -16 0
v -20 -16 0
v -20 -15 0
v -19 -15 0
v -18 -16 0
v -19 -16 0
v -19 -15 0
v -18 -15 0
v -17 -16 0
v -18 -16 0
v -18 -15 0
v -17 -15 0
v -2 -16 0
v -3 -16 0
v -3 -15 0
v -2 -15 0
v -1 -16 0
v -2 -16 0
v -2 -15 0
v -1 -15 0
v 0 -16 0
v -1 -16 0
v -1 -15 0
v 0 -15 0
v -19 -17 0
v -20 -17 0
v -20 -16 0
v -19 -16 0
v -2 -17 0
v -3 -17 0
v -3 -16 0
v -2 -16 0
v -1 -17 0
v -2 -17 0
v -2 -16 0
v -1 -16 0
v 0 -17 0
v -1 -17 0
v -1 -16 0
v 0 -16 0
v -19 -18 0
v -20 -18 0
v -20 -17 0
v -19 -17 0
v -2 -18 0
v -3 -18 0
v -3 -17 0
v -2 -17 0
v -1 -18 0
v -2 -18 0
v -2 -17 0
v -1 -17 0
v 0 -18 0
v -1 -18 0
v -1 -17 0
v 0 -17 0
v -19 -19 0
v -20 -19 0
v -20 -18 0
v -19 -18 0
v -18 -19 0
v -19 -19 0
v -19 -18 0
v -18 -18 0
v -17 -19 0
v -18 -19 0
v -18 -18 0
v -17 -18 0
v -2 -19 0
v -3 -19 0
v -3 -18 0
v -2 -18 0
v -1 -19 0
v -2 -19 0
v -2 -18 0
v -1 -18 0
v 0 -19 0
v -1 -19 0
v -1 -18 0
v 0 -18 0
v -19 -20 0
v -20 -20 0
v -20 -19 0
v -19 -19 0
v -18 -20 0
v -19 -20 0
v -19 -19 0
v -18 -19 0
v -17 -20 0
v -18 -20 0
v -18 -19 0
v -17 -19 0
v -2 -20 0
v -3 -20 0
v -3 -19 0
v -2 -19 0
v -1 -20 0
v -2 -20 0
v -2 -19 0
v -1 -19 0
v 0 -20 0
v -1 -20 0
v -1 -19 0
v 0 -19 0
v -19 -21 0
v -20 -21 0
v -20 -20 0
v -19 -20 0
v -18 -21 0
v -19 -21 0
v -19 -20 0
v -18 -20 0
v -17 -21 0
v -18 -21 0
v -18 -20 0
v -17 -20 0
v -2 -21 0
v -3 -21 0
v -3 -20 0
v -2 -20 0
v -1 -21 0
v -2 -21 0
v -2 -20 0
v -1 -20 0
v 0 -21 0
v -1 -21 0
v -1 -20 0
v 0 -20 0
v -19 -22 0
v -20 -22 0
v -20 -21 0
v -19 -21 0
v -18 -22 0
v -19 -22 0
v -19 -21 0
v -18 -21 0
v -17 -22 0
v -18 -22 0
v -18 -21 0
v -17 -21 0
v -2 -22 0
v -3 -22 0
v -3 -21 0
v -2 -21 0
v -1 -22 0
v -2 -22 0
v -2 -21 0
v -1 -21 0
v 0 -22 0
v -1 -22 0
v -1 -21 0
v 0 -21 0
v -19 -23 0
v -20 -23 0
v -20 -22 0
v -19 -22 0
v -18 -23 0
v -19 -23 0
v -19 -22 0
v -18 -22 0
v -17 -23 0
v -18 -23 0
v -18 -22 0
v -17 -22 0
v -16 -23 0
v -17 -23 0
v -17 -22 0
v -16 -22 0
v -15 -23 0
v -16 -23 0
v -16 -22 0
v -15 -22 0
v -14 -23 0
v -15 -23 0
v -15 -22 0
v -14 -22 0
v -13 -23 0
v -14 -23 0
v -14 -22 0
v -13 -22 0
v -12 -23 0
v -13 -23 0
v -13 -22 0
v -12 -22 0
v -11 -23 0
v -12 -23 0
v -12 -22 0
v -11 -22 0
v -10 -23 0
v -11 -23 0
v -11 -22 0
v -10 -22 0
v -9 -23 0
v -10 -23 0
v -10 -22 0
v -9 -22 0
v -8 -23 0
v -9 -23 0
v -9 -22 0
v -8 -22 0
v -7 -23 0
v -8 -23 0
v -8 -22 0
v -7 -22 0
v -6 -23 0
v -7 -23 0
v -7 -22 0
v -6 -22 0
v -5 -23 0
v -6 -23 0
v -6 -22 0
v -5 -22 0
v -4 -23 0
v -5 -23 0
v -5 -22 0
v -4 -22 0
v -3 -23 0
v -4 -23 0
v -4 -22 0
v -3 -22 0
v -2 -23 0
v -3 -23 0
v -3 -22 0
v -2 -22 0
v -1 -23 0
v -2 -23 0
v -2 -22 0
v -1 -22 0
v 0 -23 0
v -1 -23 0
v -1 -22 0
v 0 -22 0
v -19 -24 0
v -20 -24 0
v -20 -23 0
v -19 -23 0
v -18 -24 0
v -19 -24 0
v -19 -23 0
v -18 -23 0
v -17 -24 0
v -18 -24 0
v -18 -23 0
v -17 -23 0
v -16 -24 0
v -17 -24 0
v -17 -23 0
v -16 -23 0
v -15 -24 0
v -16 -24 0
v -16 -23 0
v -15 -23 0
v -14 -24 0
v -15 -24 0
v -15 -23 0
v -14 -23 0
v -13 -24 0
v -14 -24 0
v -14 -23 0
v -13 -23 0
v -12 -24 0
v -13 -24 0
v -13 -23 0
v -12 -23 0
v -11 -24 0
v -12 -24 0
v -12 -23 0
v -11 -23 0
v -10 -24 0
v -11 -24 0
v -11 -23 0
v -10 -23 0
v -9 -24 0
v -10 -24 0
v -10 -23 0
v -9 -23 0
v -8 -24 0
v -9 -24 0
v -9 -23 0
v -8 -23 0
v -7 -24 0
v -8 -24 0
v -8 -23 0
v -7 -23 0
v -6 -24 0
v -7 -24 0
v -7 -23 0
v -6 -23 0
v -5 -24 0
v -6 -24 0
v -6 -23 0
v -5 -23 0
v -4 -24 0
v -5 -24 0
v -5 -23 0
v -4 -23 0
v -3 -24 0
v -4 -24 0
v -4 -23 0
v -3 -23 0
v -2 -24 0
v -3 -24 0
v -3 -23 0
v -2 -23 0
v -1 -24 0
v -2 -24 0
v -2 -23 0
v -1 -23 0
v 0 -24 0
v -1 -24 0
v -1 -23 0
v 0 -23 0
v -19 -25 0
v -20 -25 0
v -20 -24 0
v -19 -24 0
v -18 -25 0
v -19 -25 0
v -19 -24 0
v -18 -24 0
v -17 -25 0
v -18 -25 0
v -18 -24 0
v -17 -24 0
v -16 -25 0
v -17 -25 0
v -17 -24 0
v -16 -24 0
v -15 -25 0
v -16 -25 0
v -16 -24 0
v -15 -24 0
v -14 -25 0
v -15 -25 0
v -15 -24 0
v -14 -24 0
v -13 -25 0
v -14 -25 0
v -14 -24 0
v -13 -24 0
v -12 -25 0
v -13 -25 0
v -13 -24 0
v -12 -24 0
v -11 -25 0
v -12 -25 0
v -12 -24 0
v -11 -24 0
v -10 -25 0
v -11 -25 0
v -11 -24 0
v -10 -24 0
v -9 -25 0
v -10 -25 0
v -10 -24 0
v -9 -24 0
v -8 -25 0
v -9 -25 0
v -9 -24 0
v -8 -24 0
v -7 -25 0
v -8 -25 0
v -8 -24 0
v -7 -24 0
v -6 -25 0
v -7 -25 0
v -7 -24 0
v -6 -24 0
v -5 -25 0
v -6 -25 0
v -6 -24 0
v -5 -24 0
v -4 -25 0
v -5 -25 0
v -5 -24 0
v -4 -24 0
v -3 -25 0
v -4 -25 0
v -4 -24 0
v -3 -24 0
v -2 -25 0
v -3 -25 0
v -3 -24 0
v -2 -24 0
v -1 -25 0
v -2 -25 0
v -2 -24 0
v -1 -24 0
v 0 -25 0
v -1 -25 0
v -1 -24 0
v 0 -24 0

# Texture cooridinates (Count = 37)
vt 0.05 0.92
vt 0.075 0.92
vt 0.075 0.96
vt 0.05 0.96
vt 0.125 0.96
vt 0.15 0.96
vt 0.15 1
vt 0.125 1
vt 0.05 0.88
vt 0.075 0.88
vt 0.1 0.96
vt 0.1 1
vt 0.025 0.92
vt 0.025 0.96
vt 0.375 0.8
vt 0.4 0.8
vt 0.4 0.84
vt 0.375 0.84
vt 0.1 0.92
vt 0.375 0.76
vt 0.4 0.76
vt 0.375 0.72
vt 0.4 0.72
vt 0.425 0.8
vt 0.45 0.8
vt 0.45 0.84
vt 0.425 0.84
vt 0.425 0.76
vt 0.45 0.76
vt 0.425 0.72
vt 0.45 0.72
vt 0.025 0.88
vt 0.075 1
vt 0.05 1
vt 0.025 1
vt 0.125 0.92
vt 0.15 0.92

# Normal
vn 0 0 -1

# Mesh description
g CIEROOM1_mesh_0002

# Faces
f 1/1/1 2/2/1 3/3/1 4/4/1
f 5/1/1 6/2/1 7/3/1 8/4/1
f 9/1/1 10/2/1 11/3/1 12/4/1
f 13/1/1 14/2/1 15/3/1 16/4/1
f 17/1/1 18/2/1 19/3/1 20/4/1
f 21/1/1 22/2/1 23/3/1 24/4/1
f 25/1/1 26/2/1 27/3/1 28/4/1
f 29/1/1 30/2/1 31/3/1 32/4/1
f 33/1/1 34/2/1 35/3/1 36/4/1
f 37/1/1 38/2/1 39/3/1 40/4/1
f 41/1/1 42/2/1 43/3/1 44/4/1
f 45/1/1 46/2/1 47/3/1 48/4/1
f 49/1/1 50/2/1 51/3/1 52/4/1
f 53/1/1 54/2/1 55/3/1 56/4/1
f 57/1/1 58/2/1 59/3/1 60/4/1
f 61/1/1 62/2/1 63/3/1 64/4/1
f 65/1/1 66/2/1 67/3/1 68/4/1
f 69/1/1 70/2/1 71/3/1 72/4/1
f 73/1/1 74/2/1 75/3/1 76/4/1
f 77/1/1 78/2/1 79/3/1 80/4/1
f 81/1/1 82/2/1 83/3/1 84/4/1
f 85/1/1 86/2/1 87/3/1 88/4/1
f 89/1/1 90/2/1 91/3/1 92/4/1
f 93/1/1 94/2/1 95/3/1 96/4/1
f 97/1/1 98/2/1 99/3/1 100/4/1
f 101/1/1 102/2/1 103/3/1 104/4/1
f 105/1/1 106/2/1 107/3/1 108/4/1
f 109/1/1 110/2/1 111/3/1 112/4/1
f 113/1/1 114/2/1 115/3/1 116/4/1
f 117/1/1 118/2/1 119/3/1 120/4/1
f 121/1/1 122/2/1 123/3/1 124/4/1
f 125/1/1 126/2/1 127/3/1 128/4/1
f 129/1/1 130/2/1 131/3/1 132/4/1
f 133/1/1 134/2/1 135/3/1 136/4/1
f 137/1/1 138/2/1 139/3/1 140/4/1
f 141/1/1 142/2/1 143/3/1 144/4/1
f 145/1/1 146/2/1 147/3/1 148/4/1
f 149/1/1 150/2/1 151/3/1 152/4/1
f 153/1/1 154/2/1 155/3/1 156/4/1
f 157/1/1 158/2/1 159/3/1 160/4/1
f 161/1/1 162/2/1 163/3/1 164/4/1
f 165/1/1 166/2/1 167/3/1 168/4/1
f 169/1/1 170/2/1 171/3/1 172/4/1
f 173/1/1 174/2/1 175/3/1 176/4/1
f 177/1/1 178/2/1 179/3/1 180/4/1
f 181/1/1 182/2/1 183/3/1 184/4/1
f 185/1/1 186/2/1 187/3/1 188/4/1
f 189/1/1 190/2/1 191/3/1 192/4/1
f 193/1/1 194/2/1 195/3/1 196/4/1
f 197/1/1 198/2/1 199/3/1 200/4/1
f 201/1/1 202/2/1 203/3/1 204/4/1
f 205/1/1 206/2/1 207/3/1 208/4/1
f 209/1/1 210/2/1 211/3/1 212/4/1
f 213/1/1 214/2/1 215/3/1 216/4/1
f 217/1/1 218/2/1 219/3/1 220/4/1
f 221/1/1 222/2/1 223/3/1 224/4/1
f 225/1/1 226/2/1 227/3/1 228/4/1
f 229/1/1 230/2/1 231/3/1 232/4/1
f 233/1/1 234/2/1 235/3/1 236/4/1
f 237/1/1 238/2/1 239/3/1 240/4/1
f 241/1/1 242/2/1 243/3/1 244/4/1
f 245/1/1 246/2/1 247/3/1 248/4/1
f 249/5/1 250/6/1 251/7/1 252/8/1
f 253/9/1 254/10/1 255/2/1 256/1/1
f 257/9/1 258/10/1 259/2/1 260/1/1
f 261/9/1 262/10/1 263/2/1 264/1/1
f 265/9/1 266/10/1 267/2/1 268/1/1
f 269/9/1 270/10/1 271/2/1 272/1/1
f 273/9/1 274/10/1 275/2/1 276/1/1
f 277/9/1 278/10/1 279/2/1 280/1/1
f 281/9/1 282/10/1 283/2/1 284/1/1
f 285/9/1 286/10/1 287/2/1 288/1/1
f 289/9/1 290/10/1 291/2/1 292/1/1
f 293/9/1 294/10/1 295/2/1 296/1/1
f 297/9/1 298/10/1 299/2/1 300/1/1
f 301/9/1 302/10/1 303/2/1 304/1/1
f 305/9/1 306/10/1 307/2/1 308/1/1
f 309/11/1 310/5/1 311/8/1 312/12/1
f 313/1/1 314/2/1 315/3/1 316/4/1
f 317/1/1 318/2/1 319/3/1 320/4/1
f 321/1/1 322/2/1 323/3/1 324/4/1
f 325/1/1 326/2/1 327/3/1 328/4/1
f 329/13/1 330/1/1 331/4/1 332/14/1
f 333/15/1 334/16/1 335/17/1 336/18/1
f 337/2/1 338/19/1 339/11/1 340/3/1
f 341/1/1 342/2/1 343/3/1 344/4/1
f 345/1/1 346/2/1 347/3/1 348/4/1
f 349/1/1 350/2/1 351/3/1 352/4/1
f 353/1/1 354/2/1 355/3/1 356/4/1
f 357/13/1 358/1/1 359/4/1 360/14/1
f 361/20/1 362/21/1 363/16/1 364/15/1
f 365/2/1 366/19/1 367/11/1 368/3/1
f 369/1/1 370/2/1 371/3/1 372/4/1
f 373/1/1 374/2/1 375/3/1 376/4/1
f 377/1/1 378/2/1 379/3/1 380/4/1
f 381/1/1 382/2/1 383/3/1 384/4/1
f 385/13/1 386/1/1 387/4/1 388/14/1
f 389/22/1 390/23/1 391/21/1 392/20/1
f 393/2/1 394/19/1 395/11/1 396/3/1
f 397/1/1 398/2/1 399/3/1 400/4/1
f 401/1/1 402/2/1 403/3/1 404/4/1
f 405/1/1 406/2/1 407/3/1 408/4/1
f 409/1/1 410/2/1 411/3/1 412/4/1
f 413/13/1 414/1/1 415/4/1 416/14/1
f 417/2/1 418/19/1 419/11/1 420/3/1
f 421/1/1 422/2/1 423/3/1 424/4/1
f 425/1/1 426/2/1 427/3/1 428/4/1
f 429/1/1 430/2/1 431/3/1 432/4/1
f 433/1/1 434/2/1 435/3/1 436/4/1
f 437/13/1 438/1/1 439/4/1 440/14/1
f 441/2/1 442/19/1 443/11/1 444/3/1
f 445/1/1 446/2/1 447/3/1 448/4/1
f 449/1/1 450/2/1 451/3/1 452/4/1
f 453/1/1 454/2/1 455/3/1 456/4/1
f 457/1/1 458/2/1 459/3/1 460/4/1
f 461/13/1 462/1/1 463/4/1 464/14/1
f 465/24/1 466/25/1 467/26/1 468/27/1
f 469/24/1 470/25/1 471/26/1 472/27/1
f 473/24/1 474/25/1 475/26/1 476/27/1
f 477/24/1 478/25/1 479/26/1 480/27/1
f 481/24/1 482/25/1 483/26/1 484/27/1
f 485/24/1 486/25/1 487/26/1 488/27/1
f 489/24/1 490/25/1 491/26/1 492/27/1
f 493/24/1 494/25/1 495/26/1 496/27/1
f 497/24/1 498/25/1 499/26/1 500/27/1
f 501/24/1 502/25/1 503/26/1 504/27/1
f 505/2/1 506/19/1 507/11/1 508/3/1
f 509/1/1 510/2/1 511/3/1 512/4/1
f 513/1/1 514/2/1 515/3/1 516/4/1
f 517/1/1 518/2/1 519/3/1 520/4/1
f 521/1/1 522/2/1 523/3/1 524/4/1
f 525/13/1 526/1/1 527/4/1 528/14/1
f 529/28/1 530/29/1 531/25/1 532/24/1
f 533/28/1 534/29/1 535/25/1 536/24/1
f 537/28/1 538/29/1 539/25/1 540/24/1
f 541/28/1 542/29/1 543/25/1 544/24/1
f 545/28/1 546/29/1 547/25/1 548/24/1
f 549/28/1 550/29/1 551/25/1 552/24/1
f 553/28/1 554/29/1 555/25/1 556/24/1
f 557/28/1 558/29/1 559/25/1 560/24/1
f 561/28/1 562/29/1 563/25/1 564/24/1
f 565/28/1 566/29/1 567/25/1 568/24/1
f 569/2/1 570/19/1 571/11/1 572/3/1
f 573/1/1 574/2/1 575/3/1 576/4/1
f 577/1/1 578/2/1 579/3/1 580/4/1
f 581/1/1 582/2/1 583/3/1 584/4/1
f 585/1/1 586/2/1 587/3/1 588/4/1
f 589/13/1 590/1/1 591/4/1 592/14/1
f 593/30/1 594/31/1 595/29/1 596/28/1
f 597/30/1 598/31/1 599/29/1 600/28/1
f 601/30/1 602/31/1 603/29/1 604/28/1
f 605/30/1 606/31/1 607/29/1 608/28/1
f 609/30/1 610/31/1 611/29/1 612/28/1
f 613/30/1 614/31/1 615/29/1 616/28/1
f 617/30/1 618/31/1 619/29/1 620/28/1
f 621/30/1 622/31/1 623/29/1 624/28/1
f 625/30/1 626/31/1 627/29/1 628/28/1
f 629/30/1 630/31/1 631/29/1 632/28/1
f 633/2/1 634/19/1 635/11/1 636/3/1
f 637/1/1 638/2/1 639/3/1 640/4/1
f 641/1/1 642/2/1 643/3/1 644/4/1
f 645/1/1 646/2/1 647/3/1 648/4/1
f 649/1/1 650/2/1 651/3/1 652/4/1
f 653/13/1 654/1/1 655/4/1 656/14/1
f 657/2/1 658/19/1 659/11/1 660/3/1
f 661/1/1 662/2/1 663/3/1 664/4/1
f 665/1/1 666/2/1 667/3/1 668/4/1
f 669/1/1 670/2/1 671/3/1 672/4/1
f 673/1/1 674/2/1 675/3/1 676/4/1
f 677/13/1 678/1/1 679/4/1 680/14/1
f 681/2/1 682/19/1 683/11/1 684/3/1
f 685/1/1 686/2/1 687/3/1 688/4/1
f 689/1/1 690/2/1 691/3/1 692/4/1
f 693/1/1 694/2/1 695/3/1 696/4/1
f 697/1/1 698/2/1 699/3/1 700/4/1
f 701/13/1 702/1/1 703/4/1 704/14/1
f 705/2/1 706/19/1 707/11/1 708/3/1
f 709/1/1 710/2/1 711/3/1 712/4/1
f 713/1/1 714/2/1 715/3/1 716/4/1
f 717/1/1 718/2/1 719/3/1 720/4/1
f 721/9/1 722/10/1 723/2/1 724/1/1
f 725/32/1 726/9/1 727/1/1 728/13/1
f 729/2/1 730/19/1 731/11/1 732/3/1
f 733/1/1 734/2/1 735/3/1 736/4/1
f 737/1/1 738/2/1 739/3/1 740/4/1
f 741/1/1 742/2/1 743/3/1 744/4/1
f 745/2/1 746/19/1 747/11/1 748/3/1
f 749/1/1 750/2/1 751/3/1 752/4/1
f 753/1/1 754/2/1 755/3/1 756/4/1
f 757/1/1 758/2/1 759/3/1 760/4/1
f 761/2/1 762/19/1 763/11/1 764/3/1
f 765/1/1 766/2/1 767/3/1 768/4/1
f 769/1/1 770/2/1 771/3/1 772/4/1
f 773/1/1 774/2/1 775/3/1 776/4/1
f 777/4/1 778/3/1 779/33/1 780/34/1
f 781/14/1 782/4/1 783/34/1 784/35/1
f 785/2/1 786/19/1 787/11/1 788/3/1
f 789/1/1 790/2/1 791/3/1 792/4/1
f 793/1/1 794/2/1 795/3/1 796/4/1
f 797/1/1 798/2/1 799/3/1 800/4/1
f 801/1/1 802/2/1 803/3/1 804/4/1
f 805/13/1 806/1/1 807/4/1 808/14/1
f 809/2/1 810/19/1 811/11/1 812/3/1
f 813/1/1 814/2/1 815/3/1 816/4/1
f 817/1/1 818/2/1 819/3/1 820/4/1
f 821/1/1 822/2/1 823/3/1 824/4/1
f 825/1/1 826/2/1 827/3/1 828/4/1
f 829/13/1 830/1/1 831/4/1 832/14/1
f 833/2/1 834/19/1 835/11/1 836/3/1
f 837/1/1 838/2/1 839/3/1 840/4/1
f 841/1/1 842/2/1 843/3/1 844/4/1
f 845/1/1 846/2/1 847/3/1 848/4/1
f 849/1/1 850/2/1 851/3/1 852/4/1
f 853/13/1 854/1/1 855/4/1 856/14/1
f 857/2/1 858/19/1 859/11/1 860/3/1
f 861/1/1 862/2/1 863/3/1 864/4/1
f 865/1/1 866/2/1 867/3/1 868/4/1
f 869/1/1 870/2/1 871/3/1 872/4/1
f 873/1/1 874/2/1 875/3/1 876/4/1
f 877/36/1 878/37/1 879/6/1 880/5/1
f 881/4/1 882/3/1 883/33/1 884/34/1
f 885/4/1 886/3/1 887/33/1 888/34/1
f 889/4/1 890/3/1 891/33/1 892/34/1
f 893/4/1 894/3/1 895/33/1 896/34/1
f 897/4/1 898/3/1 899/33/1 900/34/1
f 901/4/1 902/3/1 903/33/1 904/34/1
f 905/4/1 906/3/1 907/33/1 908/34/1
f 909/4/1 910/3/1 911/33/1 912/34/1
f 913/4/1 914/3/1 915/33/1 916/34/1
f 917/4/1 918/3/1 919/33/1 920/34/1
f 921/4/1 922/3/1 923/33/1 924/34/1
f 925/4/1 926/3/1 927/33/1 928/34/1
f 929/4/1 930/3/1 931/33/1 932/34/1
f 933/4/1 934/3/1 935/33/1 936/34/1
f 937/19/1 938/36/1 939/5/1 940/11/1
f 941/1/1 942/2/1 943/3/1 944/4/1
f 945/1/1 946/2/1 947/3/1 948/4/1
f 949/1/1 950/2/1 951/3/1 952/4/1
f 953/1/1 954/2/1 955/3/1 956/4/1
f 957/1/1 958/2/1 959/3/1 960/4/1
f 961/1/1 962/2/1 963/3/1 964/4/1
f 965/1/1 966/2/1 967/3/1 968/4/1
f 969/1/1 970/2/1 971/3/1 972/4/1
f 973/1/1 974/2/1 975/3/1 976/4/1
f 977/1/1 978/2/1 979/3/1 980/4/1
f 981/1/1 982/2/1 983/3/1 984/4/1
f 985/1/1 986/2/1 987/3/1 988/4/1
f 989/1/1 990/2/1 991/3/1 992/4/1
f 993/1/1 994/2/1 995/3/1 996/4/1
f 997/1/1 998/2/1 999/3/1 1000/4/1
f 1001/1/1 1002/2/1 1003/3/1 1004/4/1
f 1005/1/1 1006/2/1 1007/3/1 1008/4/1
f 1009/1/1 1010/2/1 1011/3/1 1012/4/1
f 1013/1/1 1014/2/1 1015/3/1 1016/4/1
f 1017/1/1 1018/2/1 1019/3/1 1020/4/1
f 1021/1/1 1022/2/1 1023/3/1 1024/4/1
f 1025/1/1 1026/2/1 1027/3/1 1028/4/1
f 1029/1/1 1030/2/1 1031/3/1 1032/4/1
f 1033/1/1 1034/2/1 1035/3/1 1036/4/1
f 1037/1/1 1038/2/1 1039/3/1 1040/4/1
f 1041/1/1 1042/2/1 1043/3/1 1044/4/1
f 1045/1/1 1046/2/1 1047/3/1 1048/4/1
f 1049/1/1 1050/2/1 1051/3/1 1052/4/1
f 1053/1/1 1054/2/1 1055/3/1 1056/4/1
f 1057/1/1 1058/2/1 1059/3/1 1060/4/1
f 1061/1/1 1062/2/1 1063/3/1 1064/4/1
f 1065/1/1 1066/2/1 1067/3/1 1068/4/1
f 1069/1/1 1070/2/1 1071/3/1 1072/4/1
f 1073/1/1 1074/2/1 1075/3/1 1076/4/1
f 1077/1/1 1078/2/1 1079/3/1 1080/4/1
f 1081/1/1 1082/2/1 1083/3/1 1084/4/1
f 1085/1/1 1086/2/1 1087/3/1 1088/4/1
f 1089/1/1 1090/2/1 1091/3/1 1092/4/1
f 1093/1/1 1094/2/1 1095/3/1 1096/4/1
f 1097/1/1 1098/2/1 1099/3/1 1100/4/1
f 1101/1/1 1102/2/1 1103/3/1 1104/4/1
f 1105/1/1 1106/2/1 1107/3/1 1108/4/1

