# Tiled2Unity generated file. Do not modify by hand.
# Wavefront file for 'CIE_mesh_0003.obj'

# Vertices (Count = 1080)
v -22 -9 0
v -23 -9 0
v -23 -8 0
v -22 -8 0
v -21 -9 0
v -22 -9 0
v -22 -8 0
v -21 -8 0
v -20 -9 0
v -21 -9 0
v -21 -8 0
v -20 -8 0
v -19 -9 0
v -20 -9 0
v -20 -8 0
v -19 -8 0
v -18 -9 0
v -19 -9 0
v -19 -8 0
v -18 -8 0
v -17 -9 0
v -18 -9 0
v -18 -8 0
v -17 -8 0
v -12 -9 0
v -13 -9 0
v -13 -8 0
v -12 -8 0
v -11 -9 0
v -12 -9 0
v -12 -8 0
v -11 -8 0
v -10 -9 0
v -11 -9 0
v -11 -8 0
v -10 -8 0
v -9 -9 0
v -10 -9 0
v -10 -8 0
v -9 -8 0
v -8 -9 0
v -9 -9 0
v -9 -8 0
v -8 -8 0
v -7 -9 0
v -8 -9 0
v -8 -8 0
v -7 -8 0
v -22 -10 0
v -23 -10 0
v -23 -9 0
v -22 -9 0
v -7 -10 0
v -8 -10 0
v -8 -9 0
v -7 -9 0
v -22 -11 0
v -23 -11 0
v -23 -10 0
v -22 -10 0
v -7 -11 0
v -8 -11 0
v -8 -10 0
v -7 -10 0
v -22 -12 0
v -23 -12 0
v -23 -11 0
v -22 -11 0
v -19 -12 0
v -20 -12 0
v -20 -11 0
v -19 -11 0
v -18 -12 0
v -19 -12 0
v -19 -11 0
v -18 -11 0
v -17 -12 0
v -18 -12 0
v -18 -11 0
v -17 -11 0
v -16 -12 0
v -17 -12 0
v -17 -11 0
v -16 -11 0
v -15 -12 0
v -16 -12 0
v -16 -11 0
v -15 -11 0
v -14 -12 0
v -15 -12 0
v -15 -11 0
v -14 -11 0
v -13 -12 0
v -14 -12 0
v -14 -11 0
v -13 -11 0
v -12 -12 0
v -13 -12 0
v -13 -11 0
v -12 -11 0
v -11 -12 0
v -12 -12 0
v -12 -11 0
v -11 -11 0
v -10 -12 0
v -11 -12 0
v -11 -11 0
v -10 -11 0
v -7 -12 0
v -8 -12 0
v -8 -11 0
v -7 -11 0
v -22 -13 0
v -23 -13 0
v -23 -12 0
v -22 -12 0
v -19 -13 0
v -20 -13 0
v -20 -12 0
v -19 -12 0
v -18 -13 0
v -19 -13 0
v -19 -12 0
v -18 -12 0
v -17 -13 0
v -18 -13 0
v -18 -12 0
v -17 -12 0
v -16 -13 0
v -17 -13 0
v -17 -12 0
v -16 -12 0
v -15 -13 0
v -16 -13 0
v -16 -12 0
v -15 -12 0
v -14 -13 0
v -15 -13 0
v -15 -12 0
v -14 -12 0
v -13 -13 0
v -14 -13 0
v -14 -12 0
v -13 -12 0
v -12 -13 0
v -13 -13 0
v -13 -12 0
v -12 -12 0
v -11 -13 0
v -12 -13 0
v -12 -12 0
v -11 -12 0
v -10 -13 0
v -11 -13 0
v -11 -12 0
v -10 -12 0
v -7 -13 0
v -8 -13 0
v -8 -12 0
v -7 -12 0
v -22 -14 0
v -23 -14 0
v -23 -13 0
v -22 -13 0
v -19 -14 0
v -20 -14 0
v -20 -13 0
v -19 -13 0
v -18 -14 0
v -19 -14 0
v -19 -13 0
v -18 -13 0
v -17 -14 0
v -18 -14 0
v -18 -13 0
v -17 -13 0
v -16 -14 0
v -17 -14 0
v -17 -13 0
v -16 -13 0
v -15 -14 0
v -16 -14 0
v -16 -13 0
v -15 -13 0
v -14 -14 0
v -15 -14 0
v -15 -13 0
v -14 -13 0
v -13 -14 0
v -14 -14 0
v -14 -13 0
v -13 -13 0
v -12 -14 0
v -13 -14 0
v -13 -13 0
v -12 -13 0
v -11 -14 0
v -12 -14 0
v -12 -13 0
v -11 -13 0
v -10 -14 0
v -11 -14 0
v -11 -13 0
v -10 -13 0
v -7 -14 0
v -8 -14 0
v -8 -13 0
v -7 -13 0
v -22 -15 0
v -23 -15 0
v -23 -14 0
v -22 -14 0
v -19 -15 0
v -20 -15 0
v -20 -14 0
v -19 -14 0
v -18 -15 0
v -19 -15 0
v -19 -14 0
v -18 -14 0
v -17 -15 0
v -18 -15 0
v -18 -14 0
v -17 -14 0
v -16 -15 0
v -17 -15 0
v -17 -14 0
v -16 -14 0
v -15 -15 0
v -16 -15 0
v -16 -14 0
v -15 -14 0
v -14 -15 0
v -15 -15 0
v -15 -14 0
v -14 -14 0
v -13 -15 0
v -14 -15 0
v -14 -14 0
v -13 -14 0
v -12 -15 0
v -13 -15 0
v -13 -14 0
v -12 -14 0
v -11 -15 0
v -12 -15 0
v -12 -14 0
v -11 -14 0
v -10 -15 0
v -11 -15 0
v -11 -14 0
v -10 -14 0
v -7 -15 0
v -8 -15 0
v -8 -14 0
v -7 -14 0
v -22 -16 0
v -23 -16 0
v -23 -15 0
v -22 -15 0
v -19 -16 0
v -20 -16 0
v -20 -15 0
v -19 -15 0
v -18 -16 0
v -19 -16 0
v -19 -15 0
v -18 -15 0
v -17 -16 0
v -18 -16 0
v -18 -15 0
v -17 -15 0
v -16 -16 0
v -17 -16 0
v -17 -15 0
v -16 -15 0
v -15 -16 0
v -16 -16 0
v -16 -15 0
v -15 -15 0
v -14 -16 0
v -15 -16 0
v -15 -15 0
v -14 -15 0
v -13 -16 0
v -14 -16 0
v -14 -15 0
v -13 -15 0
v -12 -16 0
v -13 -16 0
v -13 -15 0
v -12 -15 0
v -11 -16 0
v -12 -16 0
v -12 -15 0
v -11 -15 0
v -10 -16 0
v -11 -16 0
v -11 -15 0
v -10 -15 0
v -7 -16 0
v -8 -16 0
v -8 -15 0
v -7 -15 0
v -22 -17 0
v -23 -17 0
v -23 -16 0
v -22 -16 0
v -19 -17 0
v -20 -17 0
v -20 -16 0
v -19 -16 0
v -18 -17 0
v -19 -17 0
v -19 -16 0
v -18 -16 0
v -17 -17 0
v -18 -17 0
v -18 -16 0
v -17 -16 0
v -16 -17 0
v -17 -17 0
v -17 -16 0
v -16 -16 0
v -15 -17 0
v -16 -17 0
v -16 -16 0
v -15 -16 0
v -14 -17 0
v -15 -17 0
v -15 -16 0
v -14 -16 0
v -13 -17 0
v -14 -17 0
v -14 -16 0
v -13 -16 0
v -12 -17 0
v -13 -17 0
v -13 -16 0
v -12 -16 0
v -11 -17 0
v -12 -17 0
v -12 -16 0
v -11 -16 0
v -10 -17 0
v -11 -17 0
v -11 -16 0
v -10 -16 0
v -7 -17 0
v -8 -17 0
v -8 -16 0
v -7 -16 0
v -22 -18 0
v -23 -18 0
v -23 -17 0
v -22 -17 0
v -19 -18 0
v -20 -18 0
v -20 -17 0
v -19 -17 0
v -18 -18 0
v -19 -18 0
v -19 -17 0
v -18 -17 0
v -17 -18 0
v -18 -18 0
v -18 -17 0
v -17 -17 0
v -16 -18 0
v -17 -18 0
v -17 -17 0
v -16 -17 0
v -15 -18 0
v -16 -18 0
v -16 -17 0
v -15 -17 0
v -14 -18 0
v -15 -18 0
v -15 -17 0
v -14 -17 0
v -13 -18 0
v -14 -18 0
v -14 -17 0
v -13 -17 0
v -12 -18 0
v -13 -18 0
v -13 -17 0
v -12 -17 0
v -11 -18 0
v -12 -18 0
v -12 -17 0
v -11 -17 0
v -10 -18 0
v -11 -18 0
v -11 -17 0
v -10 -17 0
v -7 -18 0
v -8 -18 0
v -8 -17 0
v -7 -17 0
v -22 -19 0
v -23 -19 0
v -23 -18 0
v -22 -18 0
v -19 -19 0
v -20 -19 0
v -20 -18 0
v -19 -18 0
v -18 -19 0
v -19 -19 0
v -19 -18 0
v -18 -18 0
v -17 -19 0
v -18 -19 0
v -18 -18 0
v -17 -18 0
v -16 -19 0
v -17 -19 0
v -17 -18 0
v -16 -18 0
v -15 -19 0
v -16 -19 0
v -16 -18 0
v -15 -18 0
v -14 -19 0
v -15 -19 0
v -15 -18 0
v -14 -18 0
v -13 -19 0
v -14 -19 0
v -14 -18 0
v -13 -18 0
v -12 -19 0
v -13 -19 0
v -13 -18 0
v -12 -18 0
v -11 -19 0
v -12 -19 0
v -12 -18 0
v -11 -18 0
v -10 -19 0
v -11 -19 0
v -11 -18 0
v -10 -18 0
v -7 -19 0
v -8 -19 0
v -8 -18 0
v -7 -18 0
v -22 -20 0
v -23 -20 0
v -23 -19 0
v -22 -19 0
v -19 -20 0
v -20 -20 0
v -20 -19 0
v -19 -19 0
v -18 -20 0
v -19 -20 0
v -19 -19 0
v -18 -19 0
v -17 -20 0
v -18 -20 0
v -18 -19 0
v -17 -19 0
v -16 -20 0
v -17 -20 0
v -17 -19 0
v -16 -19 0
v -15 -20 0
v -16 -20 0
v -16 -19 0
v -15 -19 0
v -14 -20 0
v -15 -20 0
v -15 -19 0
v -14 -19 0
v -13 -20 0
v -14 -20 0
v -14 -19 0
v -13 -19 0
v -12 -20 0
v -13 -20 0
v -13 -19 0
v -12 -19 0
v -11 -20 0
v -12 -20 0
v -12 -19 0
v -11 -19 0
v -10 -20 0
v -11 -20 0
v -11 -19 0
v -10 -19 0
v -7 -20 0
v -8 -20 0
v -8 -19 0
v -7 -19 0
v -22 -21 0
v -23 -21 0
v -23 -20 0
v -22 -20 0
v -19 -21 0
v -20 -21 0
v -20 -20 0
v -19 -20 0
v -18 -21 0
v -19 -21 0
v -19 -20 0
v -18 -20 0
v -17 -21 0
v -18 -21 0
v -18 -20 0
v -17 -20 0
v -16 -21 0
v -17 -21 0
v -17 -20 0
v -16 -20 0
v -15 -21 0
v -16 -21 0
v -16 -20 0
v -15 -20 0
v -14 -21 0
v -15 -21 0
v -15 -20 0
v -14 -20 0
v -13 -21 0
v -14 -21 0
v -14 -20 0
v -13 -20 0
v -12 -21 0
v -13 -21 0
v -13 -20 0
v -12 -20 0
v -11 -21 0
v -12 -21 0
v -12 -20 0
v -11 -20 0
v -10 -21 0
v -11 -21 0
v -11 -20 0
v -10 -20 0
v -7 -21 0
v -8 -21 0
v -8 -20 0
v -7 -20 0
v -22 -22 0
v -23 -22 0
v -23 -21 0
v -22 -21 0
v -19 -22 0
v -20 -22 0
v -20 -21 0
v -19 -21 0
v -18 -22 0
v -19 -22 0
v -19 -21 0
v -18 -21 0
v -17 -22 0
v -18 -22 0
v -18 -21 0
v -17 -21 0
v -16 -22 0
v -17 -22 0
v -17 -21 0
v -16 -21 0
v -15 -22 0
v -16 -22 0
v -16 -21 0
v -15 -21 0
v -14 -22 0
v -15 -22 0
v -15 -21 0
v -14 -21 0
v -13 -22 0
v -14 -22 0
v -14 -21 0
v -13 -21 0
v -12 -22 0
v -13 -22 0
v -13 -21 0
v -12 -21 0
v -11 -22 0
v -12 -22 0
v -12 -21 0
v -11 -21 0
v -10 -22 0
v -11 -22 0
v -11 -21 0
v -10 -21 0
v -7 -22 0
v -8 -22 0
v -8 -21 0
v -7 -21 0
v -22 -23 0
v -23 -23 0
v -23 -22 0
v -22 -22 0
v -19 -23 0
v -20 -23 0
v -20 -22 0
v -19 -22 0
v -18 -23 0
v -19 -23 0
v -19 -22 0
v -18 -22 0
v -17 -23 0
v -18 -23 0
v -18 -22 0
v -17 -22 0
v -16 -23 0
v -17 -23 0
v -17 -22 0
v -16 -22 0
v -15 -23 0
v -16 -23 0
v -16 -22 0
v -15 -22 0
v -14 -23 0
v -15 -23 0
v -15 -22 0
v -14 -22 0
v -13 -23 0
v -14 -23 0
v -14 -22 0
v -13 -22 0
v -12 -23 0
v -13 -23 0
v -13 -22 0
v -12 -22 0
v -11 -23 0
v -12 -23 0
v -12 -22 0
v -11 -22 0
v -10 -23 0
v -11 -23 0
v -11 -22 0
v -10 -22 0
v -7 -23 0
v -8 -23 0
v -8 -22 0
v -7 -22 0
v -22 -24 0
v -23 -24 0
v -23 -23 0
v -22 -23 0
v -19 -24 0
v -20 -24 0
v -20 -23 0
v -19 -23 0
v -18 -24 0
v -19 -24 0
v -19 -23 0
v -18 -23 0
v -17 -24 0
v -18 -24 0
v -18 -23 0
v -17 -23 0
v -16 -24 0
v -17 -24 0
v -17 -23 0
v -16 -23 0
v -15 -24 0
v -16 -24 0
v -16 -23 0
v -15 -23 0
v -14 -24 0
v -15 -24 0
v -15 -23 0
v -14 -23 0
v -13 -24 0
v -14 -24 0
v -14 -23 0
v -13 -23 0
v -12 -24 0
v -13 -24 0
v -13 -23 0
v -12 -23 0
v -11 -24 0
v -12 -24 0
v -12 -23 0
v -11 -23 0
v -10 -24 0
v -11 -24 0
v -11 -23 0
v -10 -23 0
v -7 -24 0
v -8 -24 0
v -8 -23 0
v -7 -23 0
v -22 -25 0
v -23 -25 0
v -23 -24 0
v -22 -24 0
v -19 -25 0
v -20 -25 0
v -20 -24 0
v -19 -24 0
v -18 -25 0
v -19 -25 0
v -19 -24 0
v -18 -24 0
v -17 -25 0
v -18 -25 0
v -18 -24 0
v -17 -24 0
v -16 -25 0
v -17 -25 0
v -17 -24 0
v -16 -24 0
v -15 -25 0
v -16 -25 0
v -16 -24 0
v -15 -24 0
v -14 -25 0
v -15 -25 0
v -15 -24 0
v -14 -24 0
v -13 -25 0
v -14 -25 0
v -14 -24 0
v -13 -24 0
v -12 -25 0
v -13 -25 0
v -13 -24 0
v -12 -24 0
v -11 -25 0
v -12 -25 0
v -12 -24 0
v -11 -24 0
v -10 -25 0
v -11 -25 0
v -11 -24 0
v -10 -24 0
v -7 -25 0
v -8 -25 0
v -8 -24 0
v -7 -24 0
v -22 -26 0
v -23 -26 0
v -23 -25 0
v -22 -25 0
v -19 -26 0
v -20 -26 0
v -20 -25 0
v -19 -25 0
v -18 -26 0
v -19 -26 0
v -19 -25 0
v -18 -25 0
v -17 -26 0
v -18 -26 0
v -18 -25 0
v -17 -25 0
v -16 -26 0
v -17 -26 0
v -17 -25 0
v -16 -25 0
v -15 -26 0
v -16 -26 0
v -16 -25 0
v -15 -25 0
v -14 -26 0
v -15 -26 0
v -15 -25 0
v -14 -25 0
v -13 -26 0
v -14 -26 0
v -14 -25 0
v -13 -25 0
v -12 -26 0
v -13 -26 0
v -13 -25 0
v -12 -25 0
v -11 -26 0
v -12 -26 0
v -12 -25 0
v -11 -25 0
v -10 -26 0
v -11 -26 0
v -11 -25 0
v -10 -25 0
v -7 -26 0
v -8 -26 0
v -8 -25 0
v -7 -25 0
v -22 -27 0
v -23 -27 0
v -23 -26 0
v -22 -26 0
v -19 -27 0
v -20 -27 0
v -20 -26 0
v -19 -26 0
v -18 -27 0
v -19 -27 0
v -19 -26 0
v -18 -26 0
v -17 -27 0
v -18 -27 0
v -18 -26 0
v -17 -26 0
v -16 -27 0
v -17 -27 0
v -17 -26 0
v -16 -26 0
v -15 -27 0
v -16 -27 0
v -16 -26 0
v -15 -26 0
v -14 -27 0
v -15 -27 0
v -15 -26 0
v -14 -26 0
v -13 -27 0
v -14 -27 0
v -14 -26 0
v -13 -26 0
v -12 -27 0
v -13 -27 0
v -13 -26 0
v -12 -26 0
v -11 -27 0
v -12 -27 0
v -12 -26 0
v -11 -26 0
v -10 -27 0
v -11 -27 0
v -11 -26 0
v -10 -26 0
v -7 -27 0
v -8 -27 0
v -8 -26 0
v -7 -26 0
v -22 -28 0
v -23 -28 0
v -23 -27 0
v -22 -27 0
v -7 -28 0
v -8 -28 0
v -8 -27 0
v -7 -27 0
v -22 -29 0
v -23 -29 0
v -23 -28 0
v -22 -28 0
v -7 -29 0
v -8 -29 0
v -8 -28 0
v -7 -28 0
v -22 -30 0
v -23 -30 0
v -23 -29 0
v -22 -29 0
v -7 -30 0
v -8 -30 0
v -8 -29 0
v -7 -29 0
v -22 -31 0
v -23 -31 0
v -23 -30 0
v -22 -30 0
v -7 -31 0
v -8 -31 0
v -8 -30 0
v -7 -30 0
v -22 -32 0
v -23 -32 0
v -23 -31 0
v -22 -31 0
v -7 -32 0
v -8 -32 0
v -8 -31 0
v -7 -31 0
v -22 -33 0
v -23 -33 0
v -23 -32 0
v -22 -32 0
v -7 -33 0
v -8 -33 0
v -8 -32 0
v -7 -32 0
v -22 -34 0
v -23 -34 0
v -23 -33 0
v -22 -33 0
v -7 -34 0
v -8 -34 0
v -8 -33 0
v -7 -33 0
v -22 -35 0
v -23 -35 0
v -23 -34 0
v -22 -34 0
v -7 -35 0
v -8 -35 0
v -8 -34 0
v -7 -34 0
v -22 -36 0
v -23 -36 0
v -23 -35 0
v -22 -35 0
v -7 -36 0
v -8 -36 0
v -8 -35 0
v -7 -35 0
v -22 -37 0
v -23 -37 0
v -23 -36 0
v -22 -36 0
v -7 -37 0
v -8 -37 0
v -8 -36 0
v -7 -36 0
v -22 -38 0
v -23 -38 0
v -23 -37 0
v -22 -37 0
v -7 -38 0
v -8 -38 0
v -8 -37 0
v -7 -37 0
v -22 -39 0
v -23 -39 0
v -23 -38 0
v -22 -38 0
v -7 -39 0
v -8 -39 0
v -8 -38 0
v -7 -38 0
v -22 -40 0
v -23 -40 0
v -23 -39 0
v -22 -39 0
v -7 -40 0
v -8 -40 0
v -8 -39 0
v -7 -39 0
v -22 -41 0
v -23 -41 0
v -23 -40 0
v -22 -40 0
v -7 -41 0
v -8 -41 0
v -8 -40 0
v -7 -40 0
v -22 -42 0
v -23 -42 0
v -23 -41 0
v -22 -41 0
v -7 -42 0
v -8 -42 0
v -8 -41 0
v -7 -41 0
v -22 -43 0
v -23 -43 0
v -23 -42 0
v -22 -42 0
v -7 -43 0
v -8 -43 0
v -8 -42 0
v -7 -42 0
v -22 -44 0
v -23 -44 0
v -23 -43 0
v -22 -43 0
v -7 -44 0
v -8 -44 0
v -8 -43 0
v -7 -43 0
v -22 -45 0
v -23 -45 0
v -23 -44 0
v -22 -44 0
v -7 -45 0
v -8 -45 0
v -8 -44 0
v -7 -44 0
v -22 -46 0
v -23 -46 0
v -23 -45 0
v -22 -45 0
v -7 -46 0
v -8 -46 0
v -8 -45 0
v -7 -45 0
v -22 -47 0
v -23 -47 0
v -23 -46 0
v -22 -46 0
v -7 -47 0
v -8 -47 0
v -8 -46 0
v -7 -46 0
v -22 -48 0
v -23 -48 0
v -23 -47 0
v -22 -47 0
v -7 -48 0
v -8 -48 0
v -8 -47 0
v -7 -47 0
v -22 -49 0
v -23 -49 0
v -23 -48 0
v -22 -48 0
v -7 -49 0
v -8 -49 0
v -8 -48 0
v -7 -48 0
v -22 -50 0
v -23 -50 0
v -23 -49 0
v -22 -49 0
v -7 -50 0
v -8 -50 0
v -8 -49 0
v -7 -49 0
v -22 -51 0
v -23 -51 0
v -23 -50 0
v -22 -50 0
v -7 -51 0
v -8 -51 0
v -8 -50 0
v -7 -50 0
v -22 -52 0
v -23 -52 0
v -23 -51 0
v -22 -51 0
v -7 -52 0
v -8 -52 0
v -8 -51 0
v -7 -51 0
v -22 -53 0
v -23 -53 0
v -23 -52 0
v -22 -52 0
v -21 -53 0
v -22 -53 0
v -22 -52 0
v -21 -52 0
v -20 -53 0
v -21 -53 0
v -21 -52 0
v -20 -52 0
v -19 -53 0
v -20 -53 0
v -20 -52 0
v -19 -52 0
v -18 -53 0
v -19 -53 0
v -19 -52 0
v -18 -52 0
v -17 -53 0
v -18 -53 0
v -18 -52 0
v -17 -52 0
v -12 -53 0
v -13 -53 0
v -13 -52 0
v -12 -52 0
v -11 -53 0
v -12 -53 0
v -12 -52 0
v -11 -52 0
v -10 -53 0
v -11 -53 0
v -11 -52 0
v -10 -52 0
v -9 -53 0
v -10 -53 0
v -10 -52 0
v -9 -52 0
v -8 -53 0
v -9 -53 0
v -9 -52 0
v -8 -52 0
v -7 -53 0
v -8 -53 0
v -8 -52 0
v -7 -52 0

# Texture cooridinates (Count = 21)
vt 0.075 0.5
vt 0.1 0.5
vt 0.1 0.5277778
vt 0.075 0.5277778
vt 0.125 0.5
vt 0.125 0.5277778
vt 0 0.4444444
vt 0.025 0.4444444
vt 0.025 0.4722222
vt 0 0.4722222
vt 0.05 0.4444444
vt 0.05 0.4722222
vt 0.05 0.5
vt 0.05 0.5277778
vt 0.1 0.4722222
vt 0.125 0.4722222
vt 0.075 0.7777778
vt 0.1 0.7777778
vt 0.1 0.8055556
vt 0.075 0.8055556
vt 0.075 0.4722222

# Normal
vn 0 0 -1

# Mesh description
g CIE_mesh_0003

# Faces
f 1/1/1 2/2/1 3/3/1 4/4/1
f 5/2/1 6/5/1 7/6/1 8/3/1
f 9/2/1 10/5/1 11/6/1 12/3/1
f 13/2/1 14/5/1 15/6/1 16/3/1
f 17/2/1 18/5/1 19/6/1 20/3/1
f 21/7/1 22/8/1 23/9/1 24/10/1
f 25/8/1 26/11/1 27/12/1 28/9/1
f 29/2/1 30/5/1 31/6/1 32/3/1
f 33/2/1 34/5/1 35/6/1 36/3/1
f 37/2/1 38/5/1 39/6/1 40/3/1
f 41/2/1 42/5/1 43/6/1 44/3/1
f 45/13/1 46/1/1 47/4/1 48/14/1
f 49/15/1 50/16/1 51/5/1 52/2/1
f 53/15/1 54/16/1 55/5/1 56/2/1
f 57/15/1 58/16/1 59/5/1 60/2/1
f 61/15/1 62/16/1 63/5/1 64/2/1
f 65/15/1 66/16/1 67/5/1 68/2/1
f 69/17/1 70/18/1 71/19/1 72/20/1
f 73/17/1 74/18/1 75/19/1 76/20/1
f 77/17/1 78/18/1 79/19/1 80/20/1
f 81/17/1 82/18/1 83/19/1 84/20/1
f 85/17/1 86/18/1 87/19/1 88/20/1
f 89/17/1 90/18/1 91/19/1 92/20/1
f 93/17/1 94/18/1 95/19/1 96/20/1
f 97/17/1 98/18/1 99/19/1 100/20/1
f 101/17/1 102/18/1 103/19/1 104/20/1
f 105/17/1 106/18/1 107/19/1 108/20/1
f 109/15/1 110/16/1 111/5/1 112/2/1
f 113/15/1 114/16/1 115/5/1 116/2/1
f 117/17/1 118/18/1 119/19/1 120/20/1
f 121/17/1 122/18/1 123/19/1 124/20/1
f 125/17/1 126/18/1 127/19/1 128/20/1
f 129/17/1 130/18/1 131/19/1 132/20/1
f 133/17/1 134/18/1 135/19/1 136/20/1
f 137/17/1 138/18/1 139/19/1 140/20/1
f 141/17/1 142/18/1 143/19/1 144/20/1
f 145/17/1 146/18/1 147/19/1 148/20/1
f 149/17/1 150/18/1 151/19/1 152/20/1
f 153/17/1 154/18/1 155/19/1 156/20/1
f 157/15/1 158/16/1 159/5/1 160/2/1
f 161/15/1 162/16/1 163/5/1 164/2/1
f 165/17/1 166/18/1 167/19/1 168/20/1
f 169/17/1 170/18/1 171/19/1 172/20/1
f 173/17/1 174/18/1 175/19/1 176/20/1
f 177/17/1 178/18/1 179/19/1 180/20/1
f 181/17/1 182/18/1 183/19/1 184/20/1
f 185/17/1 186/18/1 187/19/1 188/20/1
f 189/17/1 190/18/1 191/19/1 192/20/1
f 193/17/1 194/18/1 195/19/1 196/20/1
f 197/17/1 198/18/1 199/19/1 200/20/1
f 201/17/1 202/18/1 203/19/1 204/20/1
f 205/15/1 206/16/1 207/5/1 208/2/1
f 209/15/1 210/16/1 211/5/1 212/2/1
f 213/17/1 214/18/1 215/19/1 216/20/1
f 217/17/1 218/18/1 219/19/1 220/20/1
f 221/17/1 222/18/1 223/19/1 224/20/1
f 225/17/1 226/18/1 227/19/1 228/20/1
f 229/17/1 230/18/1 231/19/1 232/20/1
f 233/17/1 234/18/1 235/19/1 236/20/1
f 237/17/1 238/18/1 239/19/1 240/20/1
f 241/17/1 242/18/1 243/19/1 244/20/1
f 245/17/1 246/18/1 247/19/1 248/20/1
f 249/17/1 250/18/1 251/19/1 252/20/1
f 253/15/1 254/16/1 255/5/1 256/2/1
f 257/15/1 258/16/1 259/5/1 260/2/1
f 261/17/1 262/18/1 263/19/1 264/20/1
f 265/17/1 266/18/1 267/19/1 268/20/1
f 269/17/1 270/18/1 271/19/1 272/20/1
f 273/17/1 274/18/1 275/19/1 276/20/1
f 277/17/1 278/18/1 279/19/1 280/20/1
f 281/17/1 282/18/1 283/19/1 284/20/1
f 285/17/1 286/18/1 287/19/1 288/20/1
f 289/17/1 290/18/1 291/19/1 292/20/1
f 293/17/1 294/18/1 295/19/1 296/20/1
f 297/17/1 298/18/1 299/19/1 300/20/1
f 301/15/1 302/16/1 303/5/1 304/2/1
f 305/15/1 306/16/1 307/5/1 308/2/1
f 309/17/1 310/18/1 311/19/1 312/20/1
f 313/17/1 314/18/1 315/19/1 316/20/1
f 317/17/1 318/18/1 319/19/1 320/20/1
f 321/17/1 322/18/1 323/19/1 324/20/1
f 325/17/1 326/18/1 327/19/1 328/20/1
f 329/17/1 330/18/1 331/19/1 332/20/1
f 333/17/1 334/18/1 335/19/1 336/20/1
f 337/17/1 338/18/1 339/19/1 340/20/1
f 341/17/1 342/18/1 343/19/1 344/20/1
f 345/17/1 346/18/1 347/19/1 348/20/1
f 349/15/1 350/16/1 351/5/1 352/2/1
f 353/15/1 354/16/1 355/5/1 356/2/1
f 357/17/1 358/18/1 359/19/1 360/20/1
f 361/17/1 362/18/1 363/19/1 364/20/1
f 365/17/1 366/18/1 367/19/1 368/20/1
f 369/17/1 370/18/1 371/19/1 372/20/1
f 373/17/1 374/18/1 375/19/1 376/20/1
f 377/17/1 378/18/1 379/19/1 380/20/1
f 381/17/1 382/18/1 383/19/1 384/20/1
f 385/17/1 386/18/1 387/19/1 388/20/1
f 389/17/1 390/18/1 391/19/1 392/20/1
f 393/17/1 394/18/1 395/19/1 396/20/1
f 397/15/1 398/16/1 399/5/1 400/2/1
f 401/15/1 402/16/1 403/5/1 404/2/1
f 405/17/1 406/18/1 407/19/1 408/20/1
f 409/17/1 410/18/1 411/19/1 412/20/1
f 413/17/1 414/18/1 415/19/1 416/20/1
f 417/17/1 418/18/1 419/19/1 420/20/1
f 421/17/1 422/18/1 423/19/1 424/20/1
f 425/17/1 426/18/1 427/19/1 428/20/1
f 429/17/1 430/18/1 431/19/1 432/20/1
f 433/17/1 434/18/1 435/19/1 436/20/1
f 437/17/1 438/18/1 439/19/1 440/20/1
f 441/17/1 442/18/1 443/19/1 444/20/1
f 445/15/1 446/16/1 447/5/1 448/2/1
f 449/15/1 450/16/1 451/5/1 452/2/1
f 453/17/1 454/18/1 455/19/1 456/20/1
f 457/17/1 458/18/1 459/19/1 460/20/1
f 461/17/1 462/18/1 463/19/1 464/20/1
f 465/17/1 466/18/1 467/19/1 468/20/1
f 469/17/1 470/18/1 471/19/1 472/20/1
f 473/17/1 474/18/1 475/19/1 476/20/1
f 477/17/1 478/18/1 479/19/1 480/20/1
f 481/17/1 482/18/1 483/19/1 484/20/1
f 485/17/1 486/18/1 487/19/1 488/20/1
f 489/17/1 490/18/1 491/19/1 492/20/1
f 493/15/1 494/16/1 495/5/1 496/2/1
f 497/15/1 498/16/1 499/5/1 500/2/1
f 501/17/1 502/18/1 503/19/1 504/20/1
f 505/17/1 506/18/1 507/19/1 508/20/1
f 509/17/1 510/18/1 511/19/1 512/20/1
f 513/17/1 514/18/1 515/19/1 516/20/1
f 517/17/1 518/18/1 519/19/1 520/20/1
f 521/17/1 522/18/1 523/19/1 524/20/1
f 525/17/1 526/18/1 527/19/1 528/20/1
f 529/17/1 530/18/1 531/19/1 532/20/1
f 533/17/1 534/18/1 535/19/1 536/20/1
f 537/17/1 538/18/1 539/19/1 540/20/1
f 541/15/1 542/16/1 543/5/1 544/2/1
f 545/15/1 546/16/1 547/5/1 548/2/1
f 549/17/1 550/18/1 551/19/1 552/20/1
f 553/17/1 554/18/1 555/19/1 556/20/1
f 557/17/1 558/18/1 559/19/1 560/20/1
f 561/17/1 562/18/1 563/19/1 564/20/1
f 565/17/1 566/18/1 567/19/1 568/20/1
f 569/17/1 570/18/1 571/19/1 572/20/1
f 573/17/1 574/18/1 575/19/1 576/20/1
f 577/17/1 578/18/1 579/19/1 580/20/1
f 581/17/1 582/18/1 583/19/1 584/20/1
f 585/17/1 586/18/1 587/19/1 588/20/1
f 589/15/1 590/16/1 591/5/1 592/2/1
f 593/15/1 594/16/1 595/5/1 596/2/1
f 597/17/1 598/18/1 599/19/1 600/20/1
f 601/17/1 602/18/1 603/19/1 604/20/1
f 605/17/1 606/18/1 607/19/1 608/20/1
f 609/17/1 610/18/1 611/19/1 612/20/1
f 613/17/1 614/18/1 615/19/1 616/20/1
f 617/17/1 618/18/1 619/19/1 620/20/1
f 621/17/1 622/18/1 623/19/1 624/20/1
f 625/17/1 626/18/1 627/19/1 628/20/1
f 629/17/1 630/18/1 631/19/1 632/20/1
f 633/17/1 634/18/1 635/19/1 636/20/1
f 637/15/1 638/16/1 639/5/1 640/2/1
f 641/15/1 642/16/1 643/5/1 644/2/1
f 645/17/1 646/18/1 647/19/1 648/20/1
f 649/17/1 650/18/1 651/19/1 652/20/1
f 653/17/1 654/18/1 655/19/1 656/20/1
f 657/17/1 658/18/1 659/19/1 660/20/1
f 661/17/1 662/18/1 663/19/1 664/20/1
f 665/17/1 666/18/1 667/19/1 668/20/1
f 669/17/1 670/18/1 671/19/1 672/20/1
f 673/17/1 674/18/1 675/19/1 676/20/1
f 677/17/1 678/18/1 679/19/1 680/20/1
f 681/17/1 682/18/1 683/19/1 684/20/1
f 685/15/1 686/16/1 687/5/1 688/2/1
f 689/15/1 690/16/1 691/5/1 692/2/1
f 693/17/1 694/18/1 695/19/1 696/20/1
f 697/17/1 698/18/1 699/19/1 700/20/1
f 701/17/1 702/18/1 703/19/1 704/20/1
f 705/17/1 706/18/1 707/19/1 708/20/1
f 709/17/1 710/18/1 711/19/1 712/20/1
f 713/17/1 714/18/1 715/19/1 716/20/1
f 717/17/1 718/18/1 719/19/1 720/20/1
f 721/17/1 722/18/1 723/19/1 724/20/1
f 725/17/1 726/18/1 727/19/1 728/20/1
f 729/17/1 730/18/1 731/19/1 732/20/1
f 733/15/1 734/16/1 735/5/1 736/2/1
f 737/15/1 738/16/1 739/5/1 740/2/1
f 741/17/1 742/18/1 743/19/1 744/20/1
f 745/17/1 746/18/1 747/19/1 748/20/1
f 749/17/1 750/18/1 751/19/1 752/20/1
f 753/17/1 754/18/1 755/19/1 756/20/1
f 757/17/1 758/18/1 759/19/1 760/20/1
f 761/17/1 762/18/1 763/19/1 764/20/1
f 765/17/1 766/18/1 767/19/1 768/20/1
f 769/17/1 770/18/1 771/19/1 772/20/1
f 773/17/1 774/18/1 775/19/1 776/20/1
f 777/17/1 778/18/1 779/19/1 780/20/1
f 781/15/1 782/16/1 783/5/1 784/2/1
f 785/15/1 786/16/1 787/5/1 788/2/1
f 789/17/1 790/18/1 791/19/1 792/20/1
f 793/17/1 794/18/1 795/19/1 796/20/1
f 797/17/1 798/18/1 799/19/1 800/20/1
f 801/17/1 802/18/1 803/19/1 804/20/1
f 805/17/1 806/18/1 807/19/1 808/20/1
f 809/17/1 810/18/1 811/19/1 812/20/1
f 813/17/1 814/18/1 815/19/1 816/20/1
f 817/17/1 818/18/1 819/19/1 820/20/1
f 821/17/1 822/18/1 823/19/1 824/20/1
f 825/17/1 826/18/1 827/19/1 828/20/1
f 829/15/1 830/16/1 831/5/1 832/2/1
f 833/15/1 834/16/1 835/5/1 836/2/1
f 837/15/1 838/16/1 839/5/1 840/2/1
f 841/15/1 842/16/1 843/5/1 844/2/1
f 845/15/1 846/16/1 847/5/1 848/2/1
f 849/15/1 850/16/1 851/5/1 852/2/1
f 853/15/1 854/16/1 855/5/1 856/2/1
f 857/15/1 858/16/1 859/5/1 860/2/1
f 861/15/1 862/16/1 863/5/1 864/2/1
f 865/15/1 866/16/1 867/5/1 868/2/1
f 869/15/1 870/16/1 871/5/1 872/2/1
f 873/15/1 874/16/1 875/5/1 876/2/1
f 877/15/1 878/16/1 879/5/1 880/2/1
f 881/15/1 882/16/1 883/5/1 884/2/1
f 885/15/1 886/16/1 887/5/1 888/2/1
f 889/15/1 890/16/1 891/5/1 892/2/1
f 893/15/1 894/16/1 895/5/1 896/2/1
f 897/15/1 898/16/1 899/5/1 900/2/1
f 901/15/1 902/16/1 903/5/1 904/2/1
f 905/15/1 906/16/1 907/5/1 908/2/1
f 909/15/1 910/16/1 911/5/1 912/2/1
f 913/15/1 914/16/1 915/5/1 916/2/1
f 917/15/1 918/16/1 919/5/1 920/2/1
f 921/15/1 922/16/1 923/5/1 924/2/1
f 925/15/1 926/16/1 927/5/1 928/2/1
f 929/15/1 930/16/1 931/5/1 932/2/1
f 933/15/1 934/16/1 935/5/1 936/2/1
f 937/15/1 938/16/1 939/5/1 940/2/1
f 941/15/1 942/16/1 943/5/1 944/2/1
f 945/15/1 946/16/1 947/5/1 948/2/1
f 949/15/1 950/16/1 951/5/1 952/2/1
f 953/15/1 954/16/1 955/5/1 956/2/1
f 957/15/1 958/16/1 959/5/1 960/2/1
f 961/15/1 962/16/1 963/5/1 964/2/1
f 965/15/1 966/16/1 967/5/1 968/2/1
f 969/15/1 970/16/1 971/5/1 972/2/1
f 973/15/1 974/16/1 975/5/1 976/2/1
f 977/15/1 978/16/1 979/5/1 980/2/1
f 981/15/1 982/16/1 983/5/1 984/2/1
f 985/15/1 986/16/1 987/5/1 988/2/1
f 989/15/1 990/16/1 991/5/1 992/2/1
f 993/15/1 994/16/1 995/5/1 996/2/1
f 997/15/1 998/16/1 999/5/1 1000/2/1
f 1001/15/1 1002/16/1 1003/5/1 1004/2/1
f 1005/15/1 1006/16/1 1007/5/1 1008/2/1
f 1009/15/1 1010/16/1 1011/5/1 1012/2/1
f 1013/15/1 1014/16/1 1015/5/1 1016/2/1
f 1017/15/1 1018/16/1 1019/5/1 1020/2/1
f 1021/15/1 1022/16/1 1023/5/1 1024/2/1
f 1025/15/1 1026/16/1 1027/5/1 1028/2/1
f 1029/15/1 1030/16/1 1031/5/1 1032/2/1
f 1033/21/1 1034/15/1 1035/2/1 1036/1/1
f 1037/2/1 1038/5/1 1039/6/1 1040/3/1
f 1041/2/1 1042/5/1 1043/6/1 1044/3/1
f 1045/2/1 1046/5/1 1047/6/1 1048/3/1
f 1049/2/1 1050/5/1 1051/6/1 1052/3/1
f 1053/7/1 1054/8/1 1055/9/1 1056/10/1
f 1057/8/1 1058/11/1 1059/12/1 1060/9/1
f 1061/2/1 1062/5/1 1063/6/1 1064/3/1
f 1065/2/1 1066/5/1 1067/6/1 1068/3/1
f 1069/2/1 1070/5/1 1071/6/1 1072/3/1
f 1073/2/1 1074/5/1 1075/6/1 1076/3/1
f 1077/12/1 1078/21/1 1079/1/1 1080/13/1

