# Tiled2Unity generated file. Do not modify by hand.
# Wavefront file for 'CIE_mesh_0004.obj'

# Vertices (Count = 72)
v -7 -2 0
v -8 -2 0
v -8 -1 0
v -7 -1 0
v -4 -2 0
v -5 -2 0
v -5 -1 0
v -4 -1 0
v -7 -3 0
v -8 -3 0
v -8 -2 0
v -7 -2 0
v -4 -3 0
v -5 -3 0
v -5 -2 0
v -4 -2 0
v -7 -4 0
v -8 -4 0
v -8 -3 0
v -7 -3 0
v -4 -4 0
v -5 -4 0
v -5 -3 0
v -4 -3 0
v -28 -6 0
v -29 -6 0
v -29 -5 0
v -28 -5 0
v -27 -6 0
v -28 -6 0
v -28 -5 0
v -27 -5 0
v -28 -9 0
v -29 -9 0
v -29 -8 0
v -28 -8 0
v -27 -9 0
v -28 -9 0
v -28 -8 0
v -27 -8 0
v -2 -19 0
v -3 -19 0
v -3 -18 0
v -2 -18 0
v -1 -19 0
v -2 -19 0
v -2 -18 0
v -1 -18 0
v -2 -22 0
v -3 -22 0
v -3 -21 0
v -2 -21 0
v -1 -22 0
v -2 -22 0
v -2 -21 0
v -1 -21 0
v -28 -28 0
v -29 -28 0
v -29 -27 0
v -28 -27 0
v -27 -28 0
v -28 -28 0
v -28 -27 0
v -27 -27 0
v -28 -31 0
v -29 -31 0
v -29 -30 0
v -28 -30 0
v -27 -31 0
v -28 -31 0
v -28 -30 0
v -27 -30 0

# Texture cooridinates (Count = 16)
vt 0.025 0.92
vt 0.05 0.92
vt 0.05 0.96
vt 0.025 0.96
vt 0.075 0.92
vt 0.1 0.92
vt 0.1 0.96
vt 0.075 0.96
vt 0.025 0.88
vt 0.05 0.88
vt 0.075 0.88
vt 0.1 0.88
vt 0.075 1
vt 0.05 1
vt 0.025 1
vt 0.1 1

# Normal
vn 0 0 -1

# Mesh description
g CIE_mesh_0004

# Faces
f 1/1/1 2/2/1 3/3/1 4/4/1
f 5/5/1 6/6/1 7/7/1 8/8/1
f 9/1/1 10/2/1 11/3/1 12/4/1
f 13/5/1 14/6/1 15/7/1 16/8/1
f 17/9/1 18/10/1 19/2/1 20/1/1
f 21/11/1 22/12/1 23/6/1 24/5/1
f 25/10/1 26/11/1 27/5/1 28/2/1
f 29/9/1 30/10/1 31/2/1 32/1/1
f 33/3/1 34/8/1 35/13/1 36/14/1
f 37/4/1 38/3/1 39/14/1 40/15/1
f 41/11/1 42/12/1 43/6/1 44/5/1
f 45/10/1 46/11/1 47/5/1 48/2/1
f 49/8/1 50/7/1 51/16/1 52/13/1
f 53/3/1 54/8/1 55/13/1 56/14/1
f 57/10/1 58/11/1 59/5/1 60/2/1
f 61/9/1 62/10/1 63/2/1 64/1/1
f 65/3/1 66/8/1 67/13/1 68/14/1
f 69/4/1 70/3/1 71/14/1 72/15/1

