# Tiled2Unity generated file. Do not modify by hand.
# Wavefront file for 'LOBBY1_mesh_0004.obj'

# Vertices (Count = 352)
v -23 -10 0
v -24 -10 0
v -24 -9 0
v -23 -9 0
v -22 -10 0
v -23 -10 0
v -23 -9 0
v -22 -9 0
v -18 -10 0
v -19 -10 0
v -19 -9 0
v -18 -9 0
v -17 -10 0
v -18 -10 0
v -18 -9 0
v -17 -9 0
v -12 -10 0
v -13 -10 0
v -13 -9 0
v -12 -9 0
v -11 -10 0
v -12 -10 0
v -12 -9 0
v -11 -9 0
v -7 -10 0
v -8 -10 0
v -8 -9 0
v -7 -9 0
v -6 -10 0
v -7 -10 0
v -7 -9 0
v -6 -9 0
v -23 -11 0
v -24 -11 0
v -24 -10 0
v -23 -10 0
v -22 -11 0
v -23 -11 0
v -23 -10 0
v -22 -10 0
v -18 -11 0
v -19 -11 0
v -19 -10 0
v -18 -10 0
v -17 -11 0
v -18 -11 0
v -18 -10 0
v -17 -10 0
v -12 -11 0
v -13 -11 0
v -13 -10 0
v -12 -10 0
v -11 -11 0
v -12 -11 0
v -12 -10 0
v -11 -10 0
v -7 -11 0
v -8 -11 0
v -8 -10 0
v -7 -10 0
v -6 -11 0
v -7 -11 0
v -7 -10 0
v -6 -10 0
v -23 -12 0
v -24 -12 0
v -24 -11 0
v -23 -11 0
v -22 -12 0
v -23 -12 0
v -23 -11 0
v -22 -11 0
v -18 -12 0
v -19 -12 0
v -19 -11 0
v -18 -11 0
v -17 -12 0
v -18 -12 0
v -18 -11 0
v -17 -11 0
v -12 -12 0
v -13 -12 0
v -13 -11 0
v -12 -11 0
v -11 -12 0
v -12 -12 0
v -12 -11 0
v -11 -11 0
v -7 -12 0
v -8 -12 0
v -8 -11 0
v -7 -11 0
v -6 -12 0
v -7 -12 0
v -7 -11 0
v -6 -11 0
v -23 -13 0
v -24 -13 0
v -24 -12 0
v -23 -12 0
v -22 -13 0
v -23 -13 0
v -23 -12 0
v -22 -12 0
v -21 -13 0
v -22 -13 0
v -22 -12 0
v -21 -12 0
v -20 -13 0
v -21 -13 0
v -21 -12 0
v -20 -12 0
v -19 -13 0
v -20 -13 0
v -20 -12 0
v -19 -12 0
v -18 -13 0
v -19 -13 0
v -19 -12 0
v -18 -12 0
v -17 -13 0
v -18 -13 0
v -18 -12 0
v -17 -12 0
v -12 -13 0
v -13 -13 0
v -13 -12 0
v -12 -12 0
v -11 -13 0
v -12 -13 0
v -12 -12 0
v -11 -12 0
v -10 -13 0
v -11 -13 0
v -11 -12 0
v -10 -12 0
v -9 -13 0
v -10 -13 0
v -10 -12 0
v -9 -12 0
v -8 -13 0
v -9 -13 0
v -9 -12 0
v -8 -12 0
v -7 -13 0
v -8 -13 0
v -8 -12 0
v -7 -12 0
v -6 -13 0
v -7 -13 0
v -7 -12 0
v -6 -12 0
v -21 -14 0
v -22 -14 0
v -22 -13 0
v -21 -13 0
v -20 -14 0
v -21 -14 0
v -21 -13 0
v -20 -13 0
v -19 -14 0
v -20 -14 0
v -20 -13 0
v -19 -13 0
v -10 -14 0
v -11 -14 0
v -11 -13 0
v -10 -13 0
v -9 -14 0
v -10 -14 0
v -10 -13 0
v -9 -13 0
v -8 -14 0
v -9 -14 0
v -9 -13 0
v -8 -13 0
v -23 -18 0
v -24 -18 0
v -24 -17 0
v -23 -17 0
v -22 -18 0
v -23 -18 0
v -23 -17 0
v -22 -17 0
v -18 -18 0
v -19 -18 0
v -19 -17 0
v -18 -17 0
v -17 -18 0
v -18 -18 0
v -18 -17 0
v -17 -17 0
v -12 -18 0
v -13 -18 0
v -13 -17 0
v -12 -17 0
v -11 -18 0
v -12 -18 0
v -12 -17 0
v -11 -17 0
v -7 -18 0
v -8 -18 0
v -8 -17 0
v -7 -17 0
v -6 -18 0
v -7 -18 0
v -7 -17 0
v -6 -17 0
v -23 -19 0
v -24 -19 0
v -24 -18 0
v -23 -18 0
v -22 -19 0
v -23 -19 0
v -23 -18 0
v -22 -18 0
v -18 -19 0
v -19 -19 0
v -19 -18 0
v -18 -18 0
v -17 -19 0
v -18 -19 0
v -18 -18 0
v -17 -18 0
v -12 -19 0
v -13 -19 0
v -13 -18 0
v -12 -18 0
v -11 -19 0
v -12 -19 0
v -12 -18 0
v -11 -18 0
v -7 -19 0
v -8 -19 0
v -8 -18 0
v -7 -18 0
v -6 -19 0
v -7 -19 0
v -7 -18 0
v -6 -18 0
v -23 -20 0
v -24 -20 0
v -24 -19 0
v -23 -19 0
v -22 -20 0
v -23 -20 0
v -23 -19 0
v -22 -19 0
v -18 -20 0
v -19 -20 0
v -19 -19 0
v -18 -19 0
v -17 -20 0
v -18 -20 0
v -18 -19 0
v -17 -19 0
v -12 -20 0
v -13 -20 0
v -13 -19 0
v -12 -19 0
v -11 -20 0
v -12 -20 0
v -12 -19 0
v -11 -19 0
v -7 -20 0
v -8 -20 0
v -8 -19 0
v -7 -19 0
v -6 -20 0
v -7 -20 0
v -7 -19 0
v -6 -19 0
v -23 -21 0
v -24 -21 0
v -24 -20 0
v -23 -20 0
v -22 -21 0
v -23 -21 0
v -23 -20 0
v -22 -20 0
v -21 -21 0
v -22 -21 0
v -22 -20 0
v -21 -20 0
v -20 -21 0
v -21 -21 0
v -21 -20 0
v -20 -20 0
v -19 -21 0
v -20 -21 0
v -20 -20 0
v -19 -20 0
v -18 -21 0
v -19 -21 0
v -19 -20 0
v -18 -20 0
v -17 -21 0
v -18 -21 0
v -18 -20 0
v -17 -20 0
v -12 -21 0
v -13 -21 0
v -13 -20 0
v -12 -20 0
v -11 -21 0
v -12 -21 0
v -12 -20 0
v -11 -20 0
v -10 -21 0
v -11 -21 0
v -11 -20 0
v -10 -20 0
v -9 -21 0
v -10 -21 0
v -10 -20 0
v -9 -20 0
v -8 -21 0
v -9 -21 0
v -9 -20 0
v -8 -20 0
v -7 -21 0
v -8 -21 0
v -8 -20 0
v -7 -20 0
v -6 -21 0
v -7 -21 0
v -7 -20 0
v -6 -20 0
v -21 -22 0
v -22 -22 0
v -22 -21 0
v -21 -21 0
v -20 -22 0
v -21 -22 0
v -21 -21 0
v -20 -21 0
v -19 -22 0
v -20 -22 0
v -20 -21 0
v -19 -21 0
v -10 -22 0
v -11 -22 0
v -11 -21 0
v -10 -21 0
v -9 -22 0
v -10 -22 0
v -10 -21 0
v -9 -21 0
v -8 -22 0
v -9 -22 0
v -9 -21 0
v -8 -21 0

# Texture cooridinates (Count = 37)
vt 0.8125 0.7727273
vt 0.875 0.7727273
vt 0.875 0.8181818
vt 0.8125 0.8181818
vt 0.75 0.7727273
vt 0.75 0.8181818
vt 0.9375 0.7727273
vt 1 0.7727273
vt 1 0.8181818
vt 0.9375 0.8181818
vt 0.8125 0.7272727
vt 0.875 0.7272727
vt 0.75 0.7272727
vt 0.9375 0.7272727
vt 1 0.7272727
vt 0.8125 0.6818182
vt 0.875 0.6818182
vt 0.75 0.6818182
vt 0.9375 0.6818182
vt 1 0.6818182
vt 0.8125 0.6363636
vt 0.875 0.6363636
vt 0.75 0.6363636
vt 0.6875 0.7727273
vt 0.6875 0.8181818
vt 0.5625 0.7727273
vt 0.625 0.7727273
vt 0.625 0.8181818
vt 0.5625 0.8181818
vt 0.5 0.7727273
vt 0.5 0.8181818
vt 0.9375 0.6363636
vt 1 0.6363636
vt 0.6875 0.7272727
vt 0.5625 0.7272727
vt 0.625 0.7272727
vt 0.5 0.7272727

# Normal
vn 0 0 -1

# Mesh description
g LOBBY1_mesh_0004

# Faces
f 1/1/1 2/2/1 3/3/1 4/4/1
f 5/5/1 6/1/1 7/4/1 8/6/1
f 9/7/1 10/8/1 11/9/1 12/10/1
f 13/2/1 14/7/1 15/10/1 16/3/1
f 17/1/1 18/2/1 19/3/1 20/4/1
f 21/5/1 22/1/1 23/4/1 24/6/1
f 25/7/1 26/8/1 27/9/1 28/10/1
f 29/2/1 30/7/1 31/10/1 32/3/1
f 33/11/1 34/12/1 35/2/1 36/1/1
f 37/13/1 38/11/1 39/1/1 40/5/1
f 41/14/1 42/15/1 43/8/1 44/7/1
f 45/12/1 46/14/1 47/7/1 48/2/1
f 49/11/1 50/12/1 51/2/1 52/1/1
f 53/13/1 54/11/1 55/1/1 56/5/1
f 57/14/1 58/15/1 59/8/1 60/7/1
f 61/12/1 62/14/1 63/7/1 64/2/1
f 65/16/1 66/17/1 67/12/1 68/11/1
f 69/18/1 70/16/1 71/11/1 72/13/1
f 73/19/1 74/20/1 75/15/1 76/14/1
f 77/17/1 78/19/1 79/14/1 80/12/1
f 81/16/1 82/17/1 83/12/1 84/11/1
f 85/18/1 86/16/1 87/11/1 88/13/1
f 89/19/1 90/20/1 91/15/1 92/14/1
f 93/17/1 94/19/1 95/14/1 96/12/1
f 97/21/1 98/22/1 99/17/1 100/16/1
f 101/23/1 102/21/1 103/16/1 104/18/1
f 105/24/1 106/5/1 107/6/1 108/25/1
f 109/26/1 110/27/1 111/28/1 112/29/1
f 113/30/1 114/26/1 115/29/1 116/31/1
f 117/32/1 118/33/1 119/20/1 120/19/1
f 121/22/1 122/32/1 123/19/1 124/17/1
f 125/21/1 126/22/1 127/17/1 128/16/1
f 129/23/1 130/21/1 131/16/1 132/18/1
f 133/24/1 134/5/1 135/6/1 136/25/1
f 137/26/1 138/27/1 139/28/1 140/29/1
f 141/30/1 142/26/1 143/29/1 144/31/1
f 145/32/1 146/33/1 147/20/1 148/19/1
f 149/22/1 150/32/1 151/19/1 152/17/1
f 153/34/1 154/13/1 155/5/1 156/24/1
f 157/35/1 158/36/1 159/27/1 160/26/1
f 161/37/1 162/35/1 163/26/1 164/30/1
f 165/34/1 166/13/1 167/5/1 168/24/1
f 169/35/1 170/36/1 171/27/1 172/26/1
f 173/37/1 174/35/1 175/26/1 176/30/1
f 177/1/1 178/2/1 179/3/1 180/4/1
f 181/5/1 182/1/1 183/4/1 184/6/1
f 185/7/1 186/8/1 187/9/1 188/10/1
f 189/2/1 190/7/1 191/10/1 192/3/1
f 193/1/1 194/2/1 195/3/1 196/4/1
f 197/5/1 198/1/1 199/4/1 200/6/1
f 201/7/1 202/8/1 203/9/1 204/10/1
f 205/2/1 206/7/1 207/10/1 208/3/1
f 209/11/1 210/12/1 211/2/1 212/1/1
f 213/13/1 214/11/1 215/1/1 216/5/1
f 217/14/1 218/15/1 219/8/1 220/7/1
f 221/12/1 222/14/1 223/7/1 224/2/1
f 225/11/1 226/12/1 227/2/1 228/1/1
f 229/13/1 230/11/1 231/1/1 232/5/1
f 233/14/1 234/15/1 235/8/1 236/7/1
f 237/12/1 238/14/1 239/7/1 240/2/1
f 241/16/1 242/17/1 243/12/1 244/11/1
f 245/18/1 246/16/1 247/11/1 248/13/1
f 249/19/1 250/20/1 251/15/1 252/14/1
f 253/17/1 254/19/1 255/14/1 256/12/1
f 257/16/1 258/17/1 259/12/1 260/11/1
f 261/18/1 262/16/1 263/11/1 264/13/1
f 265/19/1 266/20/1 267/15/1 268/14/1
f 269/17/1 270/19/1 271/14/1 272/12/1
f 273/21/1 274/22/1 275/17/1 276/16/1
f 277/23/1 278/21/1 279/16/1 280/18/1
f 281/24/1 282/5/1 283/6/1 284/25/1
f 285/26/1 286/27/1 287/28/1 288/29/1
f 289/30/1 290/26/1 291/29/1 292/31/1
f 293/32/1 294/33/1 295/20/1 296/19/1
f 297/22/1 298/32/1 299/19/1 300/17/1
f 301/21/1 302/22/1 303/17/1 304/16/1
f 305/23/1 306/21/1 307/16/1 308/18/1
f 309/24/1 310/5/1 311/6/1 312/25/1
f 313/26/1 314/27/1 315/28/1 316/29/1
f 317/30/1 318/26/1 319/29/1 320/31/1
f 321/32/1 322/33/1 323/20/1 324/19/1
f 325/22/1 326/32/1 327/19/1 328/17/1
f 329/34/1 330/13/1 331/5/1 332/24/1
f 333/35/1 334/36/1 335/27/1 336/26/1
f 337/37/1 338/35/1 339/26/1 340/30/1
f 341/34/1 342/13/1 343/5/1 344/24/1
f 345/35/1 346/36/1 347/27/1 348/26/1
f 349/37/1 350/35/1 351/26/1 352/30/1

