# Tiled2Unity generated file. Do not modify by hand.
# Wavefront file for 'COEROOM4_mesh_0004.obj'

# Vertices (Count = 524)
v -26 -5 0
v -27 -5 0
v -27 -4 0
v -26 -4 0
v -25 -5 0
v -26 -5 0
v -26 -4 0
v -25 -4 0
v -23 -5 0
v -24 -5 0
v -24 -4 0
v -23 -4 0
v -21 -5 0
v -22 -5 0
v -22 -4 0
v -21 -4 0
v -20 -5 0
v -21 -5 0
v -21 -4 0
v -20 -4 0
v -18 -5 0
v -19 -5 0
v -19 -4 0
v -18 -4 0
v -13 -5 0
v -14 -5 0
v -14 -4 0
v -13 -4 0
v -11 -5 0
v -12 -5 0
v -12 -4 0
v -11 -4 0
v -10 -5 0
v -11 -5 0
v -11 -4 0
v -10 -4 0
v -8 -5 0
v -9 -5 0
v -9 -4 0
v -8 -4 0
v -3 -5 0
v -4 -5 0
v -4 -4 0
v -3 -4 0
v -26 -6 0
v -27 -6 0
v -27 -5 0
v -26 -5 0
v -25 -6 0
v -26 -6 0
v -26 -5 0
v -25 -5 0
v -21 -6 0
v -22 -6 0
v -22 -5 0
v -21 -5 0
v -20 -6 0
v -21 -6 0
v -21 -5 0
v -20 -5 0
v -11 -6 0
v -12 -6 0
v -12 -5 0
v -11 -5 0
v -10 -6 0
v -11 -6 0
v -11 -5 0
v -10 -5 0
v -24 -8 0
v -25 -8 0
v -25 -7 0
v -24 -7 0
v -23 -8 0
v -24 -8 0
v -24 -7 0
v -23 -7 0
v -19 -8 0
v -20 -8 0
v -20 -7 0
v -19 -7 0
v -18 -8 0
v -19 -8 0
v -19 -7 0
v -18 -7 0
v -14 -8 0
v -15 -8 0
v -15 -7 0
v -14 -7 0
v -13 -8 0
v -14 -8 0
v -14 -7 0
v -13 -7 0
v -6 -8 0
v -7 -8 0
v -7 -7 0
v -6 -7 0
v -5 -8 0
v -6 -8 0
v -6 -7 0
v -5 -7 0
v -24 -9 0
v -25 -9 0
v -25 -8 0
v -24 -8 0
v -23 -9 0
v -24 -9 0
v -24 -8 0
v -23 -8 0
v -19 -9 0
v -20 -9 0
v -20 -8 0
v -19 -8 0
v -18 -9 0
v -19 -9 0
v -19 -8 0
v -18 -8 0
v -14 -9 0
v -15 -9 0
v -15 -8 0
v -14 -8 0
v -13 -9 0
v -14 -9 0
v -14 -8 0
v -13 -8 0
v -6 -9 0
v -7 -9 0
v -7 -8 0
v -6 -8 0
v -5 -9 0
v -6 -9 0
v -6 -8 0
v -5 -8 0
v -24 -10 0
v -25 -10 0
v -25 -9 0
v -24 -9 0
v -23 -10 0
v -24 -10 0
v -24 -9 0
v -23 -9 0
v -18 -10 0
v -19 -10 0
v -19 -9 0
v -18 -9 0
v -13 -10 0
v -14 -10 0
v -14 -9 0
v -13 -9 0
v -8 -10 0
v -9 -10 0
v -9 -9 0
v -8 -9 0
v -3 -10 0
v -4 -10 0
v -4 -9 0
v -3 -9 0
v -26 -11 0
v -27 -11 0
v -27 -10 0
v -26 -10 0
v -25 -11 0
v -26 -11 0
v -26 -10 0
v -25 -10 0
v -21 -11 0
v -22 -11 0
v -22 -10 0
v -21 -10 0
v -20 -11 0
v -21 -11 0
v -21 -10 0
v -20 -10 0
v -15 -11 0
v -16 -11 0
v -16 -10 0
v -15 -10 0
v -14 -11 0
v -15 -11 0
v -15 -10 0
v -14 -10 0
v -4 -11 0
v -5 -11 0
v -5 -10 0
v -4 -10 0
v -3 -11 0
v -4 -11 0
v -4 -10 0
v -3 -10 0
v -26 -12 0
v -27 -12 0
v -27 -11 0
v -26 -11 0
v -25 -12 0
v -26 -12 0
v -26 -11 0
v -25 -11 0
v -21 -12 0
v -22 -12 0
v -22 -11 0
v -21 -11 0
v -20 -12 0
v -21 -12 0
v -21 -11 0
v -20 -11 0
v -15 -12 0
v -16 -12 0
v -16 -11 0
v -15 -11 0
v -14 -12 0
v -15 -12 0
v -15 -11 0
v -14 -11 0
v -4 -12 0
v -5 -12 0
v -5 -11 0
v -4 -11 0
v -3 -12 0
v -4 -12 0
v -4 -11 0
v -3 -11 0
v -24 -14 0
v -25 -14 0
v -25 -13 0
v -24 -13 0
v -23 -14 0
v -24 -14 0
v -24 -13 0
v -23 -13 0
v -11 -14 0
v -12 -14 0
v -12 -13 0
v -11 -13 0
v -10 -14 0
v -11 -14 0
v -11 -13 0
v -10 -13 0
v -24 -15 0
v -25 -15 0
v -25 -14 0
v -24 -14 0
v -23 -15 0
v -24 -15 0
v -24 -14 0
v -23 -14 0
v -11 -15 0
v -12 -15 0
v -12 -14 0
v -11 -14 0
v -10 -15 0
v -11 -15 0
v -11 -14 0
v -10 -14 0
v -24 -16 0
v -25 -16 0
v -25 -15 0
v -24 -15 0
v -23 -16 0
v -24 -16 0
v -24 -15 0
v -23 -15 0
v -19 -16 0
v -20 -16 0
v -20 -15 0
v -19 -15 0
v -18 -16 0
v -19 -16 0
v -19 -15 0
v -18 -15 0
v -14 -16 0
v -15 -16 0
v -15 -15 0
v -14 -15 0
v -13 -16 0
v -14 -16 0
v -14 -15 0
v -13 -15 0
v -9 -16 0
v -10 -16 0
v -10 -15 0
v -9 -15 0
v -8 -16 0
v -9 -16 0
v -9 -15 0
v -8 -15 0
v -4 -16 0
v -5 -16 0
v -5 -15 0
v -4 -15 0
v -3 -16 0
v -4 -16 0
v -4 -15 0
v -3 -15 0
v -26 -17 0
v -27 -17 0
v -27 -16 0
v -26 -16 0
v -25 -17 0
v -26 -17 0
v -26 -16 0
v -25 -16 0
v -21 -17 0
v -22 -17 0
v -22 -16 0
v -21 -16 0
v -20 -17 0
v -21 -17 0
v -21 -16 0
v -20 -16 0
v -9 -17 0
v -10 -17 0
v -10 -16 0
v -9 -16 0
v -8 -17 0
v -9 -17 0
v -9 -16 0
v -8 -16 0
v -6 -17 0
v -7 -17 0
v -7 -16 0
v -6 -16 0
v -5 -17 0
v -6 -17 0
v -6 -16 0
v -5 -16 0
v -26 -18 0
v -27 -18 0
v -27 -17 0
v -26 -17 0
v -25 -18 0
v -26 -18 0
v -26 -17 0
v -25 -17 0
v -21 -18 0
v -22 -18 0
v -22 -17 0
v -21 -17 0
v -20 -18 0
v -21 -18 0
v -21 -17 0
v -20 -17 0
v -9 -18 0
v -10 -18 0
v -10 -17 0
v -9 -17 0
v -8 -18 0
v -9 -18 0
v -9 -17 0
v -8 -17 0
v -6 -18 0
v -7 -18 0
v -7 -17 0
v -6 -17 0
v -5 -18 0
v -6 -18 0
v -6 -17 0
v -5 -17 0
v -14 -20 0
v -15 -20 0
v -15 -19 0
v -14 -19 0
v -13 -20 0
v -14 -20 0
v -14 -19 0
v -13 -19 0
v -14 -21 0
v -15 -21 0
v -15 -20 0
v -14 -20 0
v -13 -21 0
v -14 -21 0
v -14 -20 0
v -13 -20 0
v -24 -22 0
v -25 -22 0
v -25 -21 0
v -24 -21 0
v -23 -22 0
v -24 -22 0
v -24 -21 0
v -23 -21 0
v -19 -22 0
v -20 -22 0
v -20 -21 0
v -19 -21 0
v -18 -22 0
v -19 -22 0
v -19 -21 0
v -18 -21 0
v -14 -22 0
v -15 -22 0
v -15 -21 0
v -14 -21 0
v -13 -22 0
v -14 -22 0
v -14 -21 0
v -13 -21 0
v -9 -22 0
v -10 -22 0
v -10 -21 0
v -9 -21 0
v -8 -22 0
v -9 -22 0
v -9 -21 0
v -8 -21 0
v -4 -22 0
v -5 -22 0
v -5 -21 0
v -4 -21 0
v -3 -22 0
v -4 -22 0
v -4 -21 0
v -3 -21 0
v -24 -23 0
v -25 -23 0
v -25 -22 0
v -24 -22 0
v -23 -23 0
v -24 -23 0
v -24 -22 0
v -23 -22 0
v -19 -23 0
v -20 -23 0
v -20 -22 0
v -19 -22 0
v -18 -23 0
v -19 -23 0
v -19 -22 0
v -18 -22 0
v -16 -23 0
v -17 -23 0
v -17 -22 0
v -16 -22 0
v -15 -23 0
v -16 -23 0
v -16 -22 0
v -15 -22 0
v -9 -23 0
v -10 -23 0
v -10 -22 0
v -9 -22 0
v -8 -23 0
v -9 -23 0
v -9 -22 0
v -8 -22 0
v -4 -23 0
v -5 -23 0
v -5 -22 0
v -4 -22 0
v -3 -23 0
v -4 -23 0
v -4 -22 0
v -3 -22 0
v -24 -24 0
v -25 -24 0
v -25 -23 0
v -24 -23 0
v -23 -24 0
v -24 -24 0
v -24 -23 0
v -23 -23 0
v -19 -24 0
v -20 -24 0
v -20 -23 0
v -19 -23 0
v -18 -24 0
v -19 -24 0
v -19 -23 0
v -18 -23 0
v -16 -24 0
v -17 -24 0
v -17 -23 0
v -16 -23 0
v -15 -24 0
v -16 -24 0
v -16 -23 0
v -15 -23 0
v -9 -24 0
v -10 -24 0
v -10 -23 0
v -9 -23 0
v -8 -24 0
v -9 -24 0
v -9 -23 0
v -8 -23 0
v -4 -24 0
v -5 -24 0
v -5 -23 0
v -4 -23 0
v -3 -24 0
v -4 -24 0
v -4 -23 0
v -3 -23 0
v -19 -26 0
v -20 -26 0
v -20 -25 0
v -19 -25 0
v -18 -26 0
v -19 -26 0
v -19 -25 0
v -18 -25 0
v -11 -26 0
v -12 -26 0
v -12 -25 0
v -11 -25 0
v -10 -26 0
v -11 -26 0
v -11 -25 0
v -10 -25 0
v -19 -27 0
v -20 -27 0
v -20 -26 0
v -19 -26 0
v -18 -27 0
v -19 -27 0
v -19 -26 0
v -18 -26 0
v -11 -27 0
v -12 -27 0
v -12 -26 0
v -11 -26 0
v -10 -27 0
v -11 -27 0
v -11 -26 0
v -10 -26 0

# Texture cooridinates (Count = 27)
vt 0.8181818 0.95
vt 0.8484849 0.95
vt 0.8484849 1
vt 0.8181818 1
vt 0.7878788 0.95
vt 0.7878788 1
vt 0.1515152 0.2
vt 0.1818182 0.2
vt 0.1818182 0.25
vt 0.1515152 0.25
vt 0.2424242 0.25
vt 0.2727273 0.25
vt 0.2727273 0.3
vt 0.2424242 0.3
vt 0.2121212 0.25
vt 0.2121212 0.3
vt 0.1818182 0.3
vt 0.1515152 0.3
vt 0.8181818 0.9
vt 0.8484849 0.9
vt 0.7878788 0.9
vt 0.1818182 0.15
vt 0.2121212 0.15
vt 0.2121212 0.2
vt 0.1515152 0.15
vt 0.2424242 0.2
vt 0.2727273 0.2

# Normal
vn 0 0 -1

# Mesh description
g COEROOM4_mesh_0004

# Faces
f 1/1/1 2/2/1 3/3/1 4/4/1
f 5/5/1 6/1/1 7/4/1 8/6/1
f 9/7/1 10/8/1 11/9/1 12/10/1
f 13/1/1 14/2/1 15/3/1 16/4/1
f 17/5/1 18/1/1 19/4/1 20/6/1
f 21/11/1 22/12/1 23/13/1 24/14/1
f 25/15/1 26/11/1 27/14/1 28/16/1
f 29/1/1 30/2/1 31/3/1 32/4/1
f 33/5/1 34/1/1 35/4/1 36/6/1
f 37/9/1 38/15/1 39/16/1 40/17/1
f 41/10/1 42/9/1 43/17/1 44/18/1
f 45/19/1 46/20/1 47/2/1 48/1/1
f 49/21/1 50/19/1 51/1/1 52/5/1
f 53/19/1 54/20/1 55/2/1 56/1/1
f 57/21/1 58/19/1 59/1/1 60/5/1
f 61/19/1 62/20/1 63/2/1 64/1/1
f 65/21/1 66/19/1 67/1/1 68/5/1
f 69/1/1 70/2/1 71/3/1 72/4/1
f 73/5/1 74/1/1 75/4/1 76/6/1
f 77/1/1 78/2/1 79/3/1 80/4/1
f 81/5/1 82/1/1 83/4/1 84/6/1
f 85/1/1 86/2/1 87/3/1 88/4/1
f 89/5/1 90/1/1 91/4/1 92/6/1
f 93/1/1 94/2/1 95/3/1 96/4/1
f 97/5/1 98/1/1 99/4/1 100/6/1
f 101/19/1 102/20/1 103/2/1 104/1/1
f 105/21/1 106/19/1 107/1/1 108/5/1
f 109/19/1 110/20/1 111/2/1 112/1/1
f 113/21/1 114/19/1 115/1/1 116/5/1
f 117/19/1 118/20/1 119/2/1 120/1/1
f 121/21/1 122/19/1 123/1/1 124/5/1
f 125/19/1 126/20/1 127/2/1 128/1/1
f 129/21/1 130/19/1 131/1/1 132/5/1
f 133/22/1 134/23/1 135/24/1 136/8/1
f 137/10/1 138/9/1 139/17/1 140/18/1
f 141/25/1 142/22/1 143/8/1 144/7/1
f 145/26/1 146/27/1 147/12/1 148/11/1
f 149/24/1 150/26/1 151/11/1 152/15/1
f 153/8/1 154/24/1 155/15/1 156/9/1
f 157/1/1 158/2/1 159/3/1 160/4/1
f 161/5/1 162/1/1 163/4/1 164/6/1
f 165/1/1 166/2/1 167/3/1 168/4/1
f 169/5/1 170/1/1 171/4/1 172/6/1
f 173/1/1 174/2/1 175/3/1 176/4/1
f 177/5/1 178/1/1 179/4/1 180/6/1
f 181/1/1 182/2/1 183/3/1 184/4/1
f 185/5/1 186/1/1 187/4/1 188/6/1
f 189/19/1 190/20/1 191/2/1 192/1/1
f 193/21/1 194/19/1 195/1/1 196/5/1
f 197/19/1 198/20/1 199/2/1 200/1/1
f 201/21/1 202/19/1 203/1/1 204/5/1
f 205/19/1 206/20/1 207/2/1 208/1/1
f 209/21/1 210/19/1 211/1/1 212/5/1
f 213/19/1 214/20/1 215/2/1 216/1/1
f 217/21/1 218/19/1 219/1/1 220/5/1
f 221/1/1 222/2/1 223/3/1 224/4/1
f 225/5/1 226/1/1 227/4/1 228/6/1
f 229/1/1 230/2/1 231/3/1 232/4/1
f 233/5/1 234/1/1 235/4/1 236/6/1
f 237/19/1 238/20/1 239/2/1 240/1/1
f 241/21/1 242/19/1 243/1/1 244/5/1
f 245/19/1 246/20/1 247/2/1 248/1/1
f 249/21/1 250/19/1 251/1/1 252/5/1
f 253/7/1 254/8/1 255/9/1 256/10/1
f 257/10/1 258/9/1 259/17/1 260/18/1
f 261/11/1 262/12/1 263/13/1 264/14/1
f 265/10/1 266/9/1 267/17/1 268/18/1
f 269/15/1 270/11/1 271/14/1 272/16/1
f 273/10/1 274/9/1 275/17/1 276/18/1
f 277/9/1 278/15/1 279/16/1 280/17/1
f 281/10/1 282/9/1 283/17/1 284/18/1
f 285/10/1 286/9/1 287/17/1 288/18/1
f 289/10/1 290/9/1 291/17/1 292/18/1
f 293/1/1 294/2/1 295/3/1 296/4/1
f 297/5/1 298/1/1 299/4/1 300/6/1
f 301/1/1 302/2/1 303/3/1 304/4/1
f 305/5/1 306/1/1 307/4/1 308/6/1
f 309/1/1 310/2/1 311/3/1 312/4/1
f 313/5/1 314/1/1 315/4/1 316/6/1
f 317/1/1 318/2/1 319/3/1 320/4/1
f 321/5/1 322/1/1 323/4/1 324/6/1
f 325/19/1 326/20/1 327/2/1 328/1/1
f 329/21/1 330/19/1 331/1/1 332/5/1
f 333/19/1 334/20/1 335/2/1 336/1/1
f 337/21/1 338/19/1 339/1/1 340/5/1
f 341/19/1 342/20/1 343/2/1 344/1/1
f 345/21/1 346/19/1 347/1/1 348/5/1
f 349/19/1 350/20/1 351/2/1 352/1/1
f 353/21/1 354/19/1 355/1/1 356/5/1
f 357/1/1 358/2/1 359/3/1 360/4/1
f 361/5/1 362/1/1 363/4/1 364/6/1
f 365/19/1 366/20/1 367/2/1 368/1/1
f 369/21/1 370/19/1 371/1/1 372/5/1
f 373/22/1 374/23/1 375/24/1 376/8/1
f 377/9/1 378/15/1 379/16/1 380/17/1
f 381/25/1 382/22/1 383/8/1 384/7/1
f 385/10/1 386/9/1 387/17/1 388/18/1
f 389/26/1 390/27/1 391/12/1 392/11/1
f 393/10/1 394/9/1 395/17/1 396/18/1
f 397/24/1 398/26/1 399/11/1 400/15/1
f 401/10/1 402/9/1 403/17/1 404/18/1
f 405/8/1 406/24/1 407/15/1 408/9/1
f 409/10/1 410/9/1 411/17/1 412/18/1
f 413/1/1 414/2/1 415/3/1 416/4/1
f 417/5/1 418/1/1 419/4/1 420/6/1
f 421/1/1 422/2/1 423/3/1 424/4/1
f 425/5/1 426/1/1 427/4/1 428/6/1
f 429/1/1 430/2/1 431/3/1 432/4/1
f 433/5/1 434/1/1 435/4/1 436/6/1
f 437/1/1 438/2/1 439/3/1 440/4/1
f 441/5/1 442/1/1 443/4/1 444/6/1
f 445/1/1 446/2/1 447/3/1 448/4/1
f 449/5/1 450/1/1 451/4/1 452/6/1
f 453/19/1 454/20/1 455/2/1 456/1/1
f 457/21/1 458/19/1 459/1/1 460/5/1
f 461/19/1 462/20/1 463/2/1 464/1/1
f 465/21/1 466/19/1 467/1/1 468/5/1
f 469/19/1 470/20/1 471/2/1 472/1/1
f 473/21/1 474/19/1 475/1/1 476/5/1
f 477/19/1 478/20/1 479/2/1 480/1/1
f 481/21/1 482/19/1 483/1/1 484/5/1
f 485/19/1 486/20/1 487/2/1 488/1/1
f 489/21/1 490/19/1 491/1/1 492/5/1
f 493/1/1 494/2/1 495/3/1 496/4/1
f 497/5/1 498/1/1 499/4/1 500/6/1
f 501/1/1 502/2/1 503/3/1 504/4/1
f 505/5/1 506/1/1 507/4/1 508/6/1
f 509/19/1 510/20/1 511/2/1 512/1/1
f 513/21/1 514/19/1 515/1/1 516/5/1
f 517/19/1 518/20/1 519/2/1 520/1/1
f 521/21/1 522/19/1 523/1/1 524/5/1

