# Tiled2Unity generated file. Do not modify by hand.
# Wavefront file for 'ROOM5(COS)_mesh_0003.obj'

# Vertices (Count = 504)
v -16 -3 0
v -17 -3 0
v -17 -2 0
v -16 -2 0
v -15 -3 0
v -16 -3 0
v -16 -2 0
v -15 -2 0
v -14 -3 0
v -15 -3 0
v -15 -2 0
v -14 -2 0
v -8 -3 0
v -9 -3 0
v -9 -2 0
v -8 -2 0
v -7 -3 0
v -8 -3 0
v -8 -2 0
v -7 -2 0
v -6 -3 0
v -7 -3 0
v -7 -2 0
v -6 -2 0
v -5 -3 0
v -6 -3 0
v -6 -2 0
v -5 -2 0
v -4 -3 0
v -5 -3 0
v -5 -2 0
v -4 -2 0
v -3 -3 0
v -4 -3 0
v -4 -2 0
v -3 -2 0
v -16 -4 0
v -17 -4 0
v -17 -3 0
v -16 -3 0
v -15 -4 0
v -16 -4 0
v -16 -3 0
v -15 -3 0
v -14 -4 0
v -15 -4 0
v -15 -3 0
v -14 -3 0
v -8 -4 0
v -9 -4 0
v -9 -3 0
v -8 -3 0
v -7 -4 0
v -8 -4 0
v -8 -3 0
v -7 -3 0
v -6 -4 0
v -7 -4 0
v -7 -3 0
v -6 -3 0
v -5 -4 0
v -6 -4 0
v -6 -3 0
v -5 -3 0
v -4 -4 0
v -5 -4 0
v -5 -3 0
v -4 -3 0
v -3 -4 0
v -4 -4 0
v -4 -3 0
v -3 -3 0
v -16 -5 0
v -17 -5 0
v -17 -4 0
v -16 -4 0
v -15 -5 0
v -16 -5 0
v -16 -4 0
v -15 -4 0
v -14 -5 0
v -15 -5 0
v -15 -4 0
v -14 -4 0
v -8 -5 0
v -9 -5 0
v -9 -4 0
v -8 -4 0
v -7 -5 0
v -8 -5 0
v -8 -4 0
v -7 -4 0
v -6 -5 0
v -7 -5 0
v -7 -4 0
v -6 -4 0
v -5 -5 0
v -6 -5 0
v -6 -4 0
v -5 -4 0
v -4 -5 0
v -5 -5 0
v -5 -4 0
v -4 -4 0
v -3 -5 0
v -4 -5 0
v -4 -4 0
v -3 -4 0
v -14 -7 0
v -15 -7 0
v -15 -6 0
v -14 -6 0
v -13 -7 0
v -14 -7 0
v -14 -6 0
v -13 -6 0
v -12 -7 0
v -13 -7 0
v -13 -6 0
v -12 -6 0
v -11 -7 0
v -12 -7 0
v -12 -6 0
v -11 -6 0
v -10 -7 0
v -11 -7 0
v -11 -6 0
v -10 -6 0
v -9 -7 0
v -10 -7 0
v -10 -6 0
v -9 -6 0
v -8 -7 0
v -9 -7 0
v -9 -6 0
v -8 -6 0
v -7 -7 0
v -8 -7 0
v -8 -6 0
v -7 -6 0
v -6 -7 0
v -7 -7 0
v -7 -6 0
v -6 -6 0
v -5 -7 0
v -6 -7 0
v -6 -6 0
v -5 -6 0
v -14 -8 0
v -15 -8 0
v -15 -7 0
v -14 -7 0
v -13 -8 0
v -14 -8 0
v -14 -7 0
v -13 -7 0
v -12 -8 0
v -13 -8 0
v -13 -7 0
v -12 -7 0
v -11 -8 0
v -12 -8 0
v -12 -7 0
v -11 -7 0
v -10 -8 0
v -11 -8 0
v -11 -7 0
v -10 -7 0
v -9 -8 0
v -10 -8 0
v -10 -7 0
v -9 -7 0
v -8 -8 0
v -9 -8 0
v -9 -7 0
v -8 -7 0
v -7 -8 0
v -8 -8 0
v -8 -7 0
v -7 -7 0
v -6 -8 0
v -7 -8 0
v -7 -7 0
v -6 -7 0
v -5 -8 0
v -6 -8 0
v -6 -7 0
v -5 -7 0
v -14 -9 0
v -15 -9 0
v -15 -8 0
v -14 -8 0
v -13 -9 0
v -14 -9 0
v -14 -8 0
v -13 -8 0
v -12 -9 0
v -13 -9 0
v -13 -8 0
v -12 -8 0
v -11 -9 0
v -12 -9 0
v -12 -8 0
v -11 -8 0
v -10 -9 0
v -11 -9 0
v -11 -8 0
v -10 -8 0
v -9 -9 0
v -10 -9 0
v -10 -8 0
v -9 -8 0
v -8 -9 0
v -9 -9 0
v -9 -8 0
v -8 -8 0
v -7 -9 0
v -8 -9 0
v -8 -8 0
v -7 -8 0
v -6 -9 0
v -7 -9 0
v -7 -8 0
v -6 -8 0
v -5 -9 0
v -6 -9 0
v -6 -8 0
v -5 -8 0
v -14 -10 0
v -15 -10 0
v -15 -9 0
v -14 -9 0
v -13 -10 0
v -14 -10 0
v -14 -9 0
v -13 -9 0
v -12 -10 0
v -13 -10 0
v -13 -9 0
v -12 -9 0
v -11 -10 0
v -12 -10 0
v -12 -9 0
v -11 -9 0
v -10 -10 0
v -11 -10 0
v -11 -9 0
v -10 -9 0
v -9 -10 0
v -10 -10 0
v -10 -9 0
v -9 -9 0
v -8 -10 0
v -9 -10 0
v -9 -9 0
v -8 -9 0
v -7 -10 0
v -8 -10 0
v -8 -9 0
v -7 -9 0
v -6 -10 0
v -7 -10 0
v -7 -9 0
v -6 -9 0
v -5 -10 0
v -6 -10 0
v -6 -9 0
v -5 -9 0
v -14 -11 0
v -15 -11 0
v -15 -10 0
v -14 -10 0
v -13 -11 0
v -14 -11 0
v -14 -10 0
v -13 -10 0
v -12 -11 0
v -13 -11 0
v -13 -10 0
v -12 -10 0
v -11 -11 0
v -12 -11 0
v -12 -10 0
v -11 -10 0
v -10 -11 0
v -11 -11 0
v -11 -10 0
v -10 -10 0
v -9 -11 0
v -10 -11 0
v -10 -10 0
v -9 -10 0
v -8 -11 0
v -9 -11 0
v -9 -10 0
v -8 -10 0
v -7 -11 0
v -8 -11 0
v -8 -10 0
v -7 -10 0
v -6 -11 0
v -7 -11 0
v -7 -10 0
v -6 -10 0
v -5 -11 0
v -6 -11 0
v -6 -10 0
v -5 -10 0
v -14 -12 0
v -15 -12 0
v -15 -11 0
v -14 -11 0
v -13 -12 0
v -14 -12 0
v -14 -11 0
v -13 -11 0
v -12 -12 0
v -13 -12 0
v -13 -11 0
v -12 -11 0
v -11 -12 0
v -12 -12 0
v -12 -11 0
v -11 -11 0
v -10 -12 0
v -11 -12 0
v -11 -11 0
v -10 -11 0
v -9 -12 0
v -10 -12 0
v -10 -11 0
v -9 -11 0
v -8 -12 0
v -9 -12 0
v -9 -11 0
v -8 -11 0
v -7 -12 0
v -8 -12 0
v -8 -11 0
v -7 -11 0
v -6 -12 0
v -7 -12 0
v -7 -11 0
v -6 -11 0
v -5 -12 0
v -6 -12 0
v -6 -11 0
v -5 -11 0
v -16 -13 0
v -17 -13 0
v -17 -12 0
v -16 -12 0
v -15 -13 0
v -16 -13 0
v -16 -12 0
v -15 -12 0
v -14 -13 0
v -15 -13 0
v -15 -12 0
v -14 -12 0
v -13 -13 0
v -14 -13 0
v -14 -12 0
v -13 -12 0
v -12 -13 0
v -13 -13 0
v -13 -12 0
v -12 -12 0
v -11 -13 0
v -12 -13 0
v -12 -12 0
v -11 -12 0
v -8 -13 0
v -9 -13 0
v -9 -12 0
v -8 -12 0
v -7 -13 0
v -8 -13 0
v -8 -12 0
v -7 -12 0
v -6 -13 0
v -7 -13 0
v -7 -12 0
v -6 -12 0
v -5 -13 0
v -6 -13 0
v -6 -12 0
v -5 -12 0
v -4 -13 0
v -5 -13 0
v -5 -12 0
v -4 -12 0
v -3 -13 0
v -4 -13 0
v -4 -12 0
v -3 -12 0
v -16 -14 0
v -17 -14 0
v -17 -13 0
v -16 -13 0
v -15 -14 0
v -16 -14 0
v -16 -13 0
v -15 -13 0
v -14 -14 0
v -15 -14 0
v -15 -13 0
v -14 -13 0
v -13 -14 0
v -14 -14 0
v -14 -13 0
v -13 -13 0
v -12 -14 0
v -13 -14 0
v -13 -13 0
v -12 -13 0
v -11 -14 0
v -12 -14 0
v -12 -13 0
v -11 -13 0
v -8 -14 0
v -9 -14 0
v -9 -13 0
v -8 -13 0
v -7 -14 0
v -8 -14 0
v -8 -13 0
v -7 -13 0
v -6 -14 0
v -7 -14 0
v -7 -13 0
v -6 -13 0
v -5 -14 0
v -6 -14 0
v -6 -13 0
v -5 -13 0
v -4 -14 0
v -5 -14 0
v -5 -13 0
v -4 -13 0
v -3 -14 0
v -4 -14 0
v -4 -13 0
v -3 -13 0
v -16 -15 0
v -17 -15 0
v -17 -14 0
v -16 -14 0
v -15 -15 0
v -16 -15 0
v -16 -14 0
v -15 -14 0
v -14 -15 0
v -15 -15 0
v -15 -14 0
v -14 -14 0
v -13 -15 0
v -14 -15 0
v -14 -14 0
v -13 -14 0
v -12 -15 0
v -13 -15 0
v -13 -14 0
v -12 -14 0
v -11 -15 0
v -12 -15 0
v -12 -14 0
v -11 -14 0
v -8 -15 0
v -9 -15 0
v -9 -14 0
v -8 -14 0
v -7 -15 0
v -8 -15 0
v -8 -14 0
v -7 -14 0
v -6 -15 0
v -7 -15 0
v -7 -14 0
v -6 -14 0
v -5 -15 0
v -6 -15 0
v -6 -14 0
v -5 -14 0
v -4 -15 0
v -5 -15 0
v -5 -14 0
v -4 -14 0
v -3 -15 0
v -4 -15 0
v -4 -14 0
v -3 -14 0
v -14 -18 0
v -15 -18 0
v -15 -17 0
v -14 -17 0
v -14 -19 0
v -15 -19 0
v -15 -18 0
v -14 -18 0
v -14 -20 0
v -15 -20 0
v -15 -19 0
v -14 -19 0

# Texture cooridinates (Count = 79)
vt 0.3 0.68
vt 0.325 0.68
vt 0.325 0.72
vt 0.3 0.72
vt 0.275 0.68
vt 0.275 0.72
vt 0.25 0.68
vt 0.25 0.72
vt 0.2 0.6
vt 0.225 0.6
vt 0.225 0.64
vt 0.2 0.64
vt 0.175 0.6
vt 0.175 0.64
vt 0.15 0.6
vt 0.15 0.64
vt 0.05 0.48
vt 0.075 0.48
vt 0.075 0.52
vt 0.05 0.52
vt 0.025 0.48
vt 0.025 0.52
vt 0 0.48
vt 0 0.52
vt 0.3 0.64
vt 0.325 0.64
vt 0.275 0.64
vt 0.25 0.64
vt 0.2 0.56
vt 0.225 0.56
vt 0.175 0.56
vt 0.15 0.56
vt 0.125 0.48
vt 0.15 0.48
vt 0.15 0.52
vt 0.125 0.52
vt 0.025 0.44
vt 0.05 0.44
vt 0 0.44
vt 0.3 0.6
vt 0.325 0.6
vt 0.275 0.6
vt 0.25 0.6
vt 0.2 0.52
vt 0.225 0.52
vt 0.175 0.52
vt 0.125 0.44
vt 0.15 0.44
vt 0.025 0.4
vt 0.05 0.4
vt 0 0.4
vt 0.05 0.68
vt 0.075 0.68
vt 0.075 0.72
vt 0.05 0.72
vt 0.025 0.68
vt 0.025 0.72
vt 0 0.68
vt 0 0.72
vt 0.05 0.64
vt 0.075 0.64
vt 0.025 0.64
vt 0 0.64
vt 0.05 0.6
vt 0.075 0.6
vt 0.025 0.6
vt 0 0.6
vt 0.1 0.48
vt 0.1 0.52
vt 0.1 0.44
vt 0.075 0.44
vt 0.425 0.8
vt 0.45 0.8
vt 0.45 0.84
vt 0.425 0.84
vt 0.425 0.76
vt 0.45 0.76
vt 0.425 0.72
vt 0.45 0.72

# Normal
vn 0 0 -1

# Mesh description
g ROOM5(COS)_mesh_0003

# Faces
f 1/1/1 2/2/1 3/3/1 4/4/1
f 5/5/1 6/1/1 7/4/1 8/6/1
f 9/7/1 10/5/1 11/6/1 12/8/1
f 13/9/1 14/10/1 15/11/1 16/12/1
f 17/13/1 18/9/1 19/12/1 20/14/1
f 21/15/1 22/13/1 23/14/1 24/16/1
f 25/17/1 26/18/1 27/19/1 28/20/1
f 29/21/1 30/17/1 31/20/1 32/22/1
f 33/23/1 34/21/1 35/22/1 36/24/1
f 37/25/1 38/26/1 39/2/1 40/1/1
f 41/27/1 42/25/1 43/1/1 44/5/1
f 45/28/1 46/27/1 47/5/1 48/7/1
f 49/29/1 50/30/1 51/10/1 52/9/1
f 53/31/1 54/29/1 55/9/1 56/13/1
f 57/32/1 58/31/1 59/13/1 60/15/1
f 61/33/1 62/34/1 63/35/1 64/36/1
f 65/37/1 66/38/1 67/17/1 68/21/1
f 69/39/1 70/37/1 71/21/1 72/23/1
f 73/40/1 74/41/1 75/26/1 76/25/1
f 77/42/1 78/40/1 79/25/1 80/27/1
f 81/43/1 82/42/1 83/27/1 84/28/1
f 85/44/1 86/45/1 87/30/1 88/29/1
f 89/46/1 90/44/1 91/29/1 92/31/1
f 93/35/1 94/46/1 95/31/1 96/32/1
f 97/47/1 98/48/1 99/34/1 100/33/1
f 101/49/1 102/50/1 103/38/1 104/37/1
f 105/51/1 106/49/1 107/37/1 108/39/1
f 109/52/1 110/53/1 111/54/1 112/55/1
f 113/56/1 114/52/1 115/55/1 116/57/1
f 117/56/1 118/52/1 119/55/1 120/57/1
f 121/56/1 122/52/1 123/55/1 124/57/1
f 125/56/1 126/52/1 127/55/1 128/57/1
f 129/56/1 130/52/1 131/55/1 132/57/1
f 133/56/1 134/52/1 135/55/1 136/57/1
f 137/56/1 138/52/1 139/55/1 140/57/1
f 141/56/1 142/52/1 143/55/1 144/57/1
f 145/58/1 146/56/1 147/57/1 148/59/1
f 149/60/1 150/61/1 151/53/1 152/52/1
f 153/62/1 154/60/1 155/52/1 156/56/1
f 157/62/1 158/60/1 159/52/1 160/56/1
f 161/62/1 162/60/1 163/52/1 164/56/1
f 165/62/1 166/60/1 167/52/1 168/56/1
f 169/62/1 170/60/1 171/52/1 172/56/1
f 173/62/1 174/60/1 175/52/1 176/56/1
f 177/62/1 178/60/1 179/52/1 180/56/1
f 181/62/1 182/60/1 183/52/1 184/56/1
f 185/63/1 186/62/1 187/56/1 188/58/1
f 189/60/1 190/61/1 191/53/1 192/52/1
f 193/62/1 194/60/1 195/52/1 196/56/1
f 197/62/1 198/60/1 199/52/1 200/56/1
f 201/62/1 202/60/1 203/52/1 204/56/1
f 205/62/1 206/60/1 207/52/1 208/56/1
f 209/62/1 210/60/1 211/52/1 212/56/1
f 213/62/1 214/60/1 215/52/1 216/56/1
f 217/62/1 218/60/1 219/52/1 220/56/1
f 221/62/1 222/60/1 223/52/1 224/56/1
f 225/63/1 226/62/1 227/56/1 228/58/1
f 229/60/1 230/61/1 231/53/1 232/52/1
f 233/62/1 234/60/1 235/52/1 236/56/1
f 237/62/1 238/60/1 239/52/1 240/56/1
f 241/62/1 242/60/1 243/52/1 244/56/1
f 245/62/1 246/60/1 247/52/1 248/56/1
f 249/62/1 250/60/1 251/52/1 252/56/1
f 253/62/1 254/60/1 255/52/1 256/56/1
f 257/62/1 258/60/1 259/52/1 260/56/1
f 261/62/1 262/60/1 263/52/1 264/56/1
f 265/63/1 266/62/1 267/56/1 268/58/1
f 269/60/1 270/61/1 271/53/1 272/52/1
f 273/62/1 274/60/1 275/52/1 276/56/1
f 277/62/1 278/60/1 279/52/1 280/56/1
f 281/62/1 282/60/1 283/52/1 284/56/1
f 285/62/1 286/60/1 287/52/1 288/56/1
f 289/62/1 290/60/1 291/52/1 292/56/1
f 293/62/1 294/60/1 295/52/1 296/56/1
f 297/62/1 298/60/1 299/52/1 300/56/1
f 301/62/1 302/60/1 303/52/1 304/56/1
f 305/63/1 306/62/1 307/56/1 308/58/1
f 309/64/1 310/65/1 311/61/1 312/60/1
f 313/66/1 314/64/1 315/60/1 316/62/1
f 317/66/1 318/64/1 319/60/1 320/62/1
f 321/66/1 322/64/1 323/60/1 324/62/1
f 325/66/1 326/64/1 327/60/1 328/62/1
f 329/66/1 330/64/1 331/60/1 332/62/1
f 333/66/1 334/64/1 335/60/1 336/62/1
f 337/66/1 338/64/1 339/60/1 340/62/1
f 341/66/1 342/64/1 343/60/1 344/62/1
f 345/67/1 346/66/1 347/62/1 348/63/1
f 349/17/1 350/18/1 351/19/1 352/20/1
f 353/21/1 354/17/1 355/20/1 356/22/1
f 357/23/1 358/21/1 359/22/1 360/24/1
f 361/17/1 362/18/1 363/19/1 364/20/1
f 365/21/1 366/17/1 367/20/1 368/22/1
f 369/23/1 370/21/1 371/22/1 372/24/1
f 373/9/1 374/10/1 375/11/1 376/12/1
f 377/13/1 378/9/1 379/12/1 380/14/1
f 381/15/1 382/13/1 383/14/1 384/16/1
f 385/9/1 386/10/1 387/11/1 388/12/1
f 389/13/1 390/9/1 391/12/1 392/14/1
f 393/15/1 394/13/1 395/14/1 396/16/1
f 397/33/1 398/34/1 399/35/1 400/36/1
f 401/68/1 402/33/1 403/36/1 404/69/1
f 405/18/1 406/68/1 407/69/1 408/19/1
f 409/33/1 410/34/1 411/35/1 412/36/1
f 413/68/1 414/33/1 415/36/1 416/69/1
f 417/18/1 418/68/1 419/69/1 420/19/1
f 421/29/1 422/30/1 423/10/1 424/9/1
f 425/31/1 426/29/1 427/9/1 428/13/1
f 429/32/1 430/31/1 431/13/1 432/15/1
f 433/29/1 434/30/1 435/10/1 436/9/1
f 437/31/1 438/29/1 439/9/1 440/13/1
f 441/32/1 442/31/1 443/13/1 444/15/1
f 445/47/1 446/48/1 447/34/1 448/33/1
f 449/70/1 450/47/1 451/33/1 452/68/1
f 453/71/1 454/70/1 455/68/1 456/18/1
f 457/47/1 458/48/1 459/34/1 460/33/1
f 461/70/1 462/47/1 463/33/1 464/68/1
f 465/71/1 466/70/1 467/68/1 468/18/1
f 469/44/1 470/45/1 471/30/1 472/29/1
f 473/46/1 474/44/1 475/29/1 476/31/1
f 477/35/1 478/46/1 479/31/1 480/32/1
f 481/44/1 482/45/1 483/30/1 484/29/1
f 485/46/1 486/44/1 487/29/1 488/31/1
f 489/35/1 490/46/1 491/31/1 492/32/1
f 493/72/1 494/73/1 495/74/1 496/75/1
f 497/76/1 498/77/1 499/73/1 500/72/1
f 501/78/1 502/79/1 503/77/1 504/76/1

