# Tiled2Unity generated file. Do not modify by hand.
# Wavefront file for 'CLA_mesh_0004.obj'

# Vertices (Count = 64)
v -23 -4 0
v -24 -4 0
v -24 -3 0
v -23 -3 0
v -22 -4 0
v -23 -4 0
v -23 -3 0
v -22 -3 0
v -21 -4 0
v -22 -4 0
v -22 -3 0
v -21 -3 0
v -20 -4 0
v -21 -4 0
v -21 -3 0
v -20 -3 0
v -19 -4 0
v -20 -4 0
v -20 -3 0
v -19 -3 0
v -18 -4 0
v -19 -4 0
v -19 -3 0
v -18 -3 0
v -17 -4 0
v -18 -4 0
v -18 -3 0
v -17 -3 0
v -16 -4 0
v -17 -4 0
v -17 -3 0
v -16 -3 0
v -23 -5 0
v -24 -5 0
v -24 -4 0
v -23 -4 0
v -22 -5 0
v -23 -5 0
v -23 -4 0
v -22 -4 0
v -21 -5 0
v -22 -5 0
v -22 -4 0
v -21 -4 0
v -20 -5 0
v -21 -5 0
v -21 -4 0
v -20 -4 0
v -19 -5 0
v -20 -5 0
v -20 -4 0
v -19 -4 0
v -18 -5 0
v -19 -5 0
v -19 -4 0
v -18 -4 0
v -17 -5 0
v -18 -5 0
v -18 -4 0
v -17 -4 0
v -16 -5 0
v -17 -5 0
v -17 -4 0
v -16 -4 0

# Texture cooridinates (Count = 21)
vt 0.28125 0.28125
vt 0.3125 0.28125
vt 0.3125 0.3125
vt 0.28125 0.3125
vt 0.25 0.28125
vt 0.25 0.3125
vt 0.34375 0.21875
vt 0.375 0.21875
vt 0.375 0.25
vt 0.34375 0.25
vt 0.3125 0.21875
vt 0.3125 0.25
vt 0.28125 0.21875
vt 0.28125 0.25
vt 0.25 0.21875
vt 0.25 0.25
vt 0.34375 0.1875
vt 0.375 0.1875
vt 0.3125 0.1875
vt 0.28125 0.1875
vt 0.25 0.1875

# Normal
vn 0 0 -1

# Mesh description
g CLA_mesh_0004

# Faces
f 1/1/1 2/2/1 3/3/1 4/4/1
f 5/5/1 6/1/1 7/4/1 8/6/1
f 9/7/1 10/8/1 11/9/1 12/10/1
f 13/11/1 14/7/1 15/10/1 16/12/1
f 17/13/1 18/11/1 19/12/1 20/14/1
f 21/15/1 22/13/1 23/14/1 24/16/1
f 25/1/1 26/2/1 27/3/1 28/4/1
f 29/5/1 30/1/1 31/4/1 32/6/1
f 33/14/1 34/12/1 35/2/1 36/1/1
f 37/16/1 38/14/1 39/1/1 40/5/1
f 41/17/1 42/18/1 43/8/1 44/7/1
f 45/19/1 46/17/1 47/7/1 48/11/1
f 49/20/1 50/19/1 51/11/1 52/13/1
f 53/21/1 54/20/1 55/13/1 56/15/1
f 57/14/1 58/12/1 59/2/1 60/1/1
f 61/16/1 62/14/1 63/1/1 64/5/1

