# Tiled2Unity generated file. Do not modify by hand.
# Wavefront file for 'CLA_mesh_0005.obj'

# Vertices (Count = 416)
v -29 -11 0
v -30 -11 0
v -30 -10 0
v -29 -10 0
v -28 -11 0
v -29 -11 0
v -29 -10 0
v -28 -10 0
v -23 -11 0
v -24 -11 0
v -24 -10 0
v -23 -10 0
v -22 -11 0
v -23 -11 0
v -23 -10 0
v -22 -10 0
v -17 -11 0
v -18 -11 0
v -18 -10 0
v -17 -10 0
v -16 -11 0
v -17 -11 0
v -17 -10 0
v -16 -10 0
v -11 -11 0
v -12 -11 0
v -12 -10 0
v -11 -10 0
v -10 -11 0
v -11 -11 0
v -11 -10 0
v -10 -10 0
v -29 -12 0
v -30 -12 0
v -30 -11 0
v -29 -11 0
v -28 -12 0
v -29 -12 0
v -29 -11 0
v -28 -11 0
v -23 -12 0
v -24 -12 0
v -24 -11 0
v -23 -11 0
v -22 -12 0
v -23 -12 0
v -23 -11 0
v -22 -11 0
v -17 -12 0
v -18 -12 0
v -18 -11 0
v -17 -11 0
v -16 -12 0
v -17 -12 0
v -17 -11 0
v -16 -11 0
v -11 -12 0
v -12 -12 0
v -12 -11 0
v -11 -11 0
v -10 -12 0
v -11 -12 0
v -11 -11 0
v -10 -11 0
v -29 -13 0
v -30 -13 0
v -30 -12 0
v -29 -12 0
v -28 -13 0
v -29 -13 0
v -29 -12 0
v -28 -12 0
v -23 -13 0
v -24 -13 0
v -24 -12 0
v -23 -12 0
v -22 -13 0
v -23 -13 0
v -23 -12 0
v -22 -12 0
v -17 -13 0
v -18 -13 0
v -18 -12 0
v -17 -12 0
v -16 -13 0
v -17 -13 0
v -17 -12 0
v -16 -12 0
v -11 -13 0
v -12 -13 0
v -12 -12 0
v -11 -12 0
v -10 -13 0
v -11 -13 0
v -11 -12 0
v -10 -12 0
v -32 -14 0
v -33 -14 0
v -33 -13 0
v -32 -13 0
v -31 -14 0
v -32 -14 0
v -32 -13 0
v -31 -13 0
v -30 -14 0
v -31 -14 0
v -31 -13 0
v -30 -13 0
v -29 -14 0
v -30 -14 0
v -30 -13 0
v -29 -13 0
v -28 -14 0
v -29 -14 0
v -29 -13 0
v -28 -13 0
v -23 -14 0
v -24 -14 0
v -24 -13 0
v -23 -13 0
v -22 -14 0
v -23 -14 0
v -23 -13 0
v -22 -13 0
v -21 -14 0
v -22 -14 0
v -22 -13 0
v -21 -13 0
v -20 -14 0
v -21 -14 0
v -21 -13 0
v -20 -13 0
v -19 -14 0
v -20 -14 0
v -20 -13 0
v -19 -13 0
v -18 -14 0
v -19 -14 0
v -19 -13 0
v -18 -13 0
v -17 -14 0
v -18 -14 0
v -18 -13 0
v -17 -13 0
v -16 -14 0
v -17 -14 0
v -17 -13 0
v -16 -13 0
v -11 -14 0
v -12 -14 0
v -12 -13 0
v -11 -13 0
v -10 -14 0
v -11 -14 0
v -11 -13 0
v -10 -13 0
v -9 -14 0
v -10 -14 0
v -10 -13 0
v -9 -13 0
v -8 -14 0
v -9 -14 0
v -9 -13 0
v -8 -13 0
v -7 -14 0
v -8 -14 0
v -8 -13 0
v -7 -13 0
v -32 -15 0
v -33 -15 0
v -33 -14 0
v -32 -14 0
v -31 -15 0
v -32 -15 0
v -32 -14 0
v -31 -14 0
v -30 -15 0
v -31 -15 0
v -31 -14 0
v -30 -14 0
v -21 -15 0
v -22 -15 0
v -22 -14 0
v -21 -14 0
v -20 -15 0
v -21 -15 0
v -21 -14 0
v -20 -14 0
v -19 -15 0
v -20 -15 0
v -20 -14 0
v -19 -14 0
v -18 -15 0
v -19 -15 0
v -19 -14 0
v -18 -14 0
v -9 -15 0
v -10 -15 0
v -10 -14 0
v -9 -14 0
v -8 -15 0
v -9 -15 0
v -9 -14 0
v -8 -14 0
v -7 -15 0
v -8 -15 0
v -8 -14 0
v -7 -14 0
v -29 -25 0
v -30 -25 0
v -30 -24 0
v -29 -24 0
v -28 -25 0
v -29 -25 0
v -29 -24 0
v -28 -24 0
v -23 -25 0
v -24 -25 0
v -24 -24 0
v -23 -24 0
v -22 -25 0
v -23 -25 0
v -23 -24 0
v -22 -24 0
v -17 -25 0
v -18 -25 0
v -18 -24 0
v -17 -24 0
v -16 -25 0
v -17 -25 0
v -17 -24 0
v -16 -24 0
v -11 -25 0
v -12 -25 0
v -12 -24 0
v -11 -24 0
v -10 -25 0
v -11 -25 0
v -11 -24 0
v -10 -24 0
v -29 -26 0
v -30 -26 0
v -30 -25 0
v -29 -25 0
v -28 -26 0
v -29 -26 0
v -29 -25 0
v -28 -25 0
v -23 -26 0
v -24 -26 0
v -24 -25 0
v -23 -25 0
v -22 -26 0
v -23 -26 0
v -23 -25 0
v -22 -25 0
v -17 -26 0
v -18 -26 0
v -18 -25 0
v -17 -25 0
v -16 -26 0
v -17 -26 0
v -17 -25 0
v -16 -25 0
v -11 -26 0
v -12 -26 0
v -12 -25 0
v -11 -25 0
v -10 -26 0
v -11 -26 0
v -11 -25 0
v -10 -25 0
v -29 -27 0
v -30 -27 0
v -30 -26 0
v -29 -26 0
v -28 -27 0
v -29 -27 0
v -29 -26 0
v -28 -26 0
v -23 -27 0
v -24 -27 0
v -24 -26 0
v -23 -26 0
v -22 -27 0
v -23 -27 0
v -23 -26 0
v -22 -26 0
v -17 -27 0
v -18 -27 0
v -18 -26 0
v -17 -26 0
v -16 -27 0
v -17 -27 0
v -17 -26 0
v -16 -26 0
v -11 -27 0
v -12 -27 0
v -12 -26 0
v -11 -26 0
v -10 -27 0
v -11 -27 0
v -11 -26 0
v -10 -26 0
v -32 -28 0
v -33 -28 0
v -33 -27 0
v -32 -27 0
v -31 -28 0
v -32 -28 0
v -32 -27 0
v -31 -27 0
v -30 -28 0
v -31 -28 0
v -31 -27 0
v -30 -27 0
v -29 -28 0
v -30 -28 0
v -30 -27 0
v -29 -27 0
v -28 -28 0
v -29 -28 0
v -29 -27 0
v -28 -27 0
v -23 -28 0
v -24 -28 0
v -24 -27 0
v -23 -27 0
v -22 -28 0
v -23 -28 0
v -23 -27 0
v -22 -27 0
v -21 -28 0
v -22 -28 0
v -22 -27 0
v -21 -27 0
v -20 -28 0
v -21 -28 0
v -21 -27 0
v -20 -27 0
v -19 -28 0
v -20 -28 0
v -20 -27 0
v -19 -27 0
v -18 -28 0
v -19 -28 0
v -19 -27 0
v -18 -27 0
v -17 -28 0
v -18 -28 0
v -18 -27 0
v -17 -27 0
v -16 -28 0
v -17 -28 0
v -17 -27 0
v -16 -27 0
v -11 -28 0
v -12 -28 0
v -12 -27 0
v -11 -27 0
v -10 -28 0
v -11 -28 0
v -11 -27 0
v -10 -27 0
v -9 -28 0
v -10 -28 0
v -10 -27 0
v -9 -27 0
v -8 -28 0
v -9 -28 0
v -9 -27 0
v -8 -27 0
v -7 -28 0
v -8 -28 0
v -8 -27 0
v -7 -27 0
v -32 -29 0
v -33 -29 0
v -33 -28 0
v -32 -28 0
v -31 -29 0
v -32 -29 0
v -32 -28 0
v -31 -28 0
v -30 -29 0
v -31 -29 0
v -31 -28 0
v -30 -28 0
v -21 -29 0
v -22 -29 0
v -22 -28 0
v -21 -28 0
v -20 -29 0
v -21 -29 0
v -21 -28 0
v -20 -28 0
v -19 -29 0
v -20 -29 0
v -20 -28 0
v -19 -28 0
v -18 -29 0
v -19 -29 0
v -19 -28 0
v -18 -28 0
v -9 -29 0
v -10 -29 0
v -10 -28 0
v -9 -28 0
v -8 -29 0
v -9 -29 0
v -9 -28 0
v -8 -28 0
v -7 -29 0
v -8 -29 0
v -8 -28 0
v -7 -28 0

# Texture cooridinates (Count = 37)
vt 0.4375 0.9545454
vt 0.5 0.9545454
vt 0.5 1
vt 0.4375 1
vt 0.375 0.9545454
vt 0.375 1
vt 0.3125 0.9545454
vt 0.3125 1
vt 0.25 0.9545454
vt 0.25 1
vt 0.4375 0.9090909
vt 0.5 0.9090909
vt 0.375 0.9090909
vt 0.3125 0.9090909
vt 0.25 0.9090909
vt 0.4375 0.8636364
vt 0.5 0.8636364
vt 0.375 0.8636364
vt 0.3125 0.8636364
vt 0.25 0.8636364
vt 0.1875 0.9545454
vt 0.1875 1
vt 0.0625 0.9545454
vt 0.125 0.9545454
vt 0.125 1
vt 0.0625 1
vt 0 0.9545454
vt 0 1
vt 0.4375 0.8181818
vt 0.5 0.8181818
vt 0.375 0.8181818
vt 0.3125 0.8181818
vt 0.25 0.8181818
vt 0.1875 0.9090909
vt 0.0625 0.9090909
vt 0.125 0.9090909
vt 0 0.9090909

# Normal
vn 0 0 -1

# Mesh description
g CLA_mesh_0005

# Faces
f 1/1/1 2/2/1 3/3/1 4/4/1
f 5/5/1 6/1/1 7/4/1 8/6/1
f 9/7/1 10/5/1 11/6/1 12/8/1
f 13/9/1 14/7/1 15/8/1 16/10/1
f 17/1/1 18/2/1 19/3/1 20/4/1
f 21/5/1 22/1/1 23/4/1 24/6/1
f 25/7/1 26/5/1 27/6/1 28/8/1
f 29/9/1 30/7/1 31/8/1 32/10/1
f 33/11/1 34/12/1 35/2/1 36/1/1
f 37/13/1 38/11/1 39/1/1 40/5/1
f 41/14/1 42/13/1 43/5/1 44/7/1
f 45/15/1 46/14/1 47/7/1 48/9/1
f 49/11/1 50/12/1 51/2/1 52/1/1
f 53/13/1 54/11/1 55/1/1 56/5/1
f 57/14/1 58/13/1 59/5/1 60/7/1
f 61/15/1 62/14/1 63/7/1 64/9/1
f 65/16/1 66/17/1 67/12/1 68/11/1
f 69/18/1 70/16/1 71/11/1 72/13/1
f 73/19/1 74/18/1 75/13/1 76/14/1
f 77/20/1 78/19/1 79/14/1 80/15/1
f 81/16/1 82/17/1 83/12/1 84/11/1
f 85/18/1 86/16/1 87/11/1 88/13/1
f 89/19/1 90/18/1 91/13/1 92/14/1
f 93/20/1 94/19/1 95/14/1 96/15/1
f 97/21/1 98/9/1 99/10/1 100/22/1
f 101/23/1 102/24/1 103/25/1 104/26/1
f 105/27/1 106/23/1 107/26/1 108/28/1
f 109/29/1 110/30/1 111/17/1 112/16/1
f 113/31/1 114/29/1 115/16/1 116/18/1
f 117/32/1 118/31/1 119/18/1 120/19/1
f 121/33/1 122/32/1 123/19/1 124/20/1
f 125/21/1 126/9/1 127/10/1 128/22/1
f 129/24/1 130/21/1 131/22/1 132/25/1
f 133/23/1 134/24/1 135/25/1 136/26/1
f 137/27/1 138/23/1 139/26/1 140/28/1
f 141/29/1 142/30/1 143/17/1 144/16/1
f 145/31/1 146/29/1 147/16/1 148/18/1
f 149/32/1 150/31/1 151/18/1 152/19/1
f 153/33/1 154/32/1 155/19/1 156/20/1
f 157/21/1 158/9/1 159/10/1 160/22/1
f 161/23/1 162/24/1 163/25/1 164/26/1
f 165/27/1 166/23/1 167/26/1 168/28/1
f 169/34/1 170/15/1 171/9/1 172/21/1
f 173/35/1 174/36/1 175/24/1 176/23/1
f 177/37/1 178/35/1 179/23/1 180/27/1
f 181/34/1 182/15/1 183/9/1 184/21/1
f 185/36/1 186/34/1 187/21/1 188/24/1
f 189/35/1 190/36/1 191/24/1 192/23/1
f 193/37/1 194/35/1 195/23/1 196/27/1
f 197/34/1 198/15/1 199/9/1 200/21/1
f 201/35/1 202/36/1 203/24/1 204/23/1
f 205/37/1 206/35/1 207/23/1 208/27/1
f 209/1/1 210/2/1 211/3/1 212/4/1
f 213/5/1 214/1/1 215/4/1 216/6/1
f 217/7/1 218/5/1 219/6/1 220/8/1
f 221/9/1 222/7/1 223/8/1 224/10/1
f 225/1/1 226/2/1 227/3/1 228/4/1
f 229/5/1 230/1/1 231/4/1 232/6/1
f 233/7/1 234/5/1 235/6/1 236/8/1
f 237/9/1 238/7/1 239/8/1 240/10/1
f 241/11/1 242/12/1 243/2/1 244/1/1
f 245/13/1 246/11/1 247/1/1 248/5/1
f 249/14/1 250/13/1 251/5/1 252/7/1
f 253/15/1 254/14/1 255/7/1 256/9/1
f 257/11/1 258/12/1 259/2/1 260/1/1
f 261/13/1 262/11/1 263/1/1 264/5/1
f 265/14/1 266/13/1 267/5/1 268/7/1
f 269/15/1 270/14/1 271/7/1 272/9/1
f 273/16/1 274/17/1 275/12/1 276/11/1
f 277/18/1 278/16/1 279/11/1 280/13/1
f 281/19/1 282/18/1 283/13/1 284/14/1
f 285/20/1 286/19/1 287/14/1 288/15/1
f 289/16/1 290/17/1 291/12/1 292/11/1
f 293/18/1 294/16/1 295/11/1 296/13/1
f 297/19/1 298/18/1 299/13/1 300/14/1
f 301/20/1 302/19/1 303/14/1 304/15/1
f 305/21/1 306/9/1 307/10/1 308/22/1
f 309/23/1 310/24/1 311/25/1 312/26/1
f 313/27/1 314/23/1 315/26/1 316/28/1
f 317/29/1 318/30/1 319/17/1 320/16/1
f 321/31/1 322/29/1 323/16/1 324/18/1
f 325/32/1 326/31/1 327/18/1 328/19/1
f 329/33/1 330/32/1 331/19/1 332/20/1
f 333/21/1 334/9/1 335/10/1 336/22/1
f 337/24/1 338/21/1 339/22/1 340/25/1
f 341/23/1 342/24/1 343/25/1 344/26/1
f 345/27/1 346/23/1 347/26/1 348/28/1
f 349/29/1 350/30/1 351/17/1 352/16/1
f 353/31/1 354/29/1 355/16/1 356/18/1
f 357/32/1 358/31/1 359/18/1 360/19/1
f 361/33/1 362/32/1 363/19/1 364/20/1
f 365/21/1 366/9/1 367/10/1 368/22/1
f 369/23/1 370/24/1 371/25/1 372/26/1
f 373/27/1 374/23/1 375/26/1 376/28/1
f 377/34/1 378/15/1 379/9/1 380/21/1
f 381/35/1 382/36/1 383/24/1 384/23/1
f 385/37/1 386/35/1 387/23/1 388/27/1
f 389/34/1 390/15/1 391/9/1 392/21/1
f 393/36/1 394/34/1 395/21/1 396/24/1
f 397/35/1 398/36/1 399/24/1 400/23/1
f 401/37/1 402/35/1 403/23/1 404/27/1
f 405/34/1 406/15/1 407/9/1 408/21/1
f 409/35/1 410/36/1 411/24/1 412/23/1
f 413/37/1 414/35/1 415/23/1 416/27/1

