# Tiled2Unity generated file. Do not modify by hand.
# Wavefront file for 'CLA_mesh_0008.obj'

# Vertices (Count = 64)
v -27 -4 0
v -28 -4 0
v -28 -3 0
v -27 -3 0
v -26 -4 0
v -27 -4 0
v -27 -3 0
v -26 -3 0
v -25 -4 0
v -26 -4 0
v -26 -3 0
v -25 -3 0
v -24 -4 0
v -25 -4 0
v -25 -3 0
v -24 -3 0
v -15 -4 0
v -16 -4 0
v -16 -3 0
v -15 -3 0
v -14 -4 0
v -15 -4 0
v -15 -3 0
v -14 -3 0
v -13 -4 0
v -14 -4 0
v -14 -3 0
v -13 -3 0
v -12 -4 0
v -13 -4 0
v -13 -3 0
v -12 -3 0
v -27 -5 0
v -28 -5 0
v -28 -4 0
v -27 -4 0
v -26 -5 0
v -27 -5 0
v -27 -4 0
v -26 -4 0
v -25 -5 0
v -26 -5 0
v -26 -4 0
v -25 -4 0
v -24 -5 0
v -25 -5 0
v -25 -4 0
v -24 -4 0
v -15 -5 0
v -16 -5 0
v -16 -4 0
v -15 -4 0
v -14 -5 0
v -15 -5 0
v -15 -4 0
v -14 -4 0
v -13 -5 0
v -14 -5 0
v -14 -4 0
v -13 -4 0
v -12 -5 0
v -13 -5 0
v -13 -4 0
v -12 -4 0

# Texture cooridinates (Count = 15)
vt 0.1875 0.9545454
vt 0.25 0.9545454
vt 0.25 1
vt 0.1875 1
vt 0.125 0.9545454
vt 0.125 1
vt 0.0625 0.9545454
vt 0.0625 1
vt 0 0.9545454
vt 0 1
vt 0.1875 0.9090909
vt 0.25 0.9090909
vt 0.125 0.9090909
vt 0.0625 0.9090909
vt 0 0.9090909

# Normal
vn 0 0 -1

# Mesh description
g CLA_mesh_0008

# Faces
f 1/1/1 2/2/1 3/3/1 4/4/1
f 5/5/1 6/1/1 7/4/1 8/6/1
f 9/7/1 10/5/1 11/6/1 12/8/1
f 13/9/1 14/7/1 15/8/1 16/10/1
f 17/1/1 18/2/1 19/3/1 20/4/1
f 21/5/1 22/1/1 23/4/1 24/6/1
f 25/7/1 26/5/1 27/6/1 28/8/1
f 29/9/1 30/7/1 31/8/1 32/10/1
f 33/11/1 34/12/1 35/2/1 36/1/1
f 37/13/1 38/11/1 39/1/1 40/5/1
f 41/14/1 42/13/1 43/5/1 44/7/1
f 45/15/1 46/14/1 47/7/1 48/9/1
f 49/11/1 50/12/1 51/2/1 52/1/1
f 53/13/1 54/11/1 55/1/1 56/5/1
f 57/14/1 58/13/1 59/5/1 60/7/1
f 61/15/1 62/14/1 63/7/1 64/9/1

