# Tiled2Unity generated file. Do not modify by hand.
# Wavefront file for 'CITROOM4_mesh_0004.obj'

# Vertices (Count = 348)
v -25 -3 0
v -26 -3 0
v -26 -2 0
v -25 -2 0
v -24 -3 0
v -25 -3 0
v -25 -2 0
v -24 -2 0
v -23 -3 0
v -24 -3 0
v -24 -2 0
v -23 -2 0
v -22 -3 0
v -23 -3 0
v -23 -2 0
v -22 -2 0
v -21 -3 0
v -22 -3 0
v -22 -2 0
v -21 -2 0
v -20 -3 0
v -21 -3 0
v -21 -2 0
v -20 -2 0
v -19 -3 0
v -20 -3 0
v -20 -2 0
v -19 -2 0
v -18 -3 0
v -19 -3 0
v -19 -2 0
v -18 -2 0
v -17 -3 0
v -18 -3 0
v -18 -2 0
v -17 -2 0
v -16 -3 0
v -17 -3 0
v -17 -2 0
v -16 -2 0
v -15 -3 0
v -16 -3 0
v -16 -2 0
v -15 -2 0
v -14 -3 0
v -15 -3 0
v -15 -2 0
v -14 -2 0
v -13 -3 0
v -14 -3 0
v -14 -2 0
v -13 -2 0
v -12 -3 0
v -13 -3 0
v -13 -2 0
v -12 -2 0
v -11 -3 0
v -12 -3 0
v -12 -2 0
v -11 -2 0
v -10 -3 0
v -11 -3 0
v -11 -2 0
v -10 -2 0
v -9 -3 0
v -10 -3 0
v -10 -2 0
v -9 -2 0
v -8 -3 0
v -9 -3 0
v -9 -2 0
v -8 -2 0
v -7 -3 0
v -8 -3 0
v -8 -2 0
v -7 -2 0
v -6 -3 0
v -7 -3 0
v -7 -2 0
v -6 -2 0
v -5 -3 0
v -6 -3 0
v -6 -2 0
v -5 -2 0
v -4 -3 0
v -5 -3 0
v -5 -2 0
v -4 -2 0
v -3 -3 0
v -4 -3 0
v -4 -2 0
v -3 -2 0
v -25 -4 0
v -26 -4 0
v -26 -3 0
v -25 -3 0
v -24 -4 0
v -25 -4 0
v -25 -3 0
v -24 -3 0
v -23 -4 0
v -24 -4 0
v -24 -3 0
v -23 -3 0
v -22 -4 0
v -23 -4 0
v -23 -3 0
v -22 -3 0
v -21 -4 0
v -22 -4 0
v -22 -3 0
v -21 -3 0
v -20 -4 0
v -21 -4 0
v -21 -3 0
v -20 -3 0
v -19 -4 0
v -20 -4 0
v -20 -3 0
v -19 -3 0
v -18 -4 0
v -19 -4 0
v -19 -3 0
v -18 -3 0
v -17 -4 0
v -18 -4 0
v -18 -3 0
v -17 -3 0
v -16 -4 0
v -17 -4 0
v -17 -3 0
v -16 -3 0
v -15 -4 0
v -16 -4 0
v -16 -3 0
v -15 -3 0
v -14 -4 0
v -15 -4 0
v -15 -3 0
v -14 -3 0
v -13 -4 0
v -14 -4 0
v -14 -3 0
v -13 -3 0
v -12 -4 0
v -13 -4 0
v -13 -3 0
v -12 -3 0
v -11 -4 0
v -12 -4 0
v -12 -3 0
v -11 -3 0
v -10 -4 0
v -11 -4 0
v -11 -3 0
v -10 -3 0
v -9 -4 0
v -10 -4 0
v -10 -3 0
v -9 -3 0
v -8 -4 0
v -9 -4 0
v -9 -3 0
v -8 -3 0
v -7 -4 0
v -8 -4 0
v -8 -3 0
v -7 -3 0
v -6 -4 0
v -7 -4 0
v -7 -3 0
v -6 -3 0
v -5 -4 0
v -6 -4 0
v -6 -3 0
v -5 -3 0
v -4 -4 0
v -5 -4 0
v -5 -3 0
v -4 -3 0
v -3 -4 0
v -4 -4 0
v -4 -3 0
v -3 -3 0
v -25 -5 0
v -26 -5 0
v -26 -4 0
v -25 -4 0
v -24 -5 0
v -25 -5 0
v -25 -4 0
v -24 -4 0
v -23 -5 0
v -24 -5 0
v -24 -4 0
v -23 -4 0
v -22 -5 0
v -23 -5 0
v -23 -4 0
v -22 -4 0
v -21 -5 0
v -22 -5 0
v -22 -4 0
v -21 -4 0
v -20 -5 0
v -21 -5 0
v -21 -4 0
v -20 -4 0
v -19 -5 0
v -20 -5 0
v -20 -4 0
v -19 -4 0
v -18 -5 0
v -19 -5 0
v -19 -4 0
v -18 -4 0
v -17 -5 0
v -18 -5 0
v -18 -4 0
v -17 -4 0
v -16 -5 0
v -17 -5 0
v -17 -4 0
v -16 -4 0
v -15 -5 0
v -16 -5 0
v -16 -4 0
v -15 -4 0
v -14 -5 0
v -15 -5 0
v -15 -4 0
v -14 -4 0
v -13 -5 0
v -14 -5 0
v -14 -4 0
v -13 -4 0
v -12 -5 0
v -13 -5 0
v -13 -4 0
v -12 -4 0
v -11 -5 0
v -12 -5 0
v -12 -4 0
v -11 -4 0
v -10 -5 0
v -11 -5 0
v -11 -4 0
v -10 -4 0
v -9 -5 0
v -10 -5 0
v -10 -4 0
v -9 -4 0
v -8 -5 0
v -9 -5 0
v -9 -4 0
v -8 -4 0
v -7 -5 0
v -8 -5 0
v -8 -4 0
v -7 -4 0
v -6 -5 0
v -7 -5 0
v -7 -4 0
v -6 -4 0
v -5 -5 0
v -6 -5 0
v -6 -4 0
v -5 -4 0
v -4 -5 0
v -5 -5 0
v -5 -4 0
v -4 -4 0
v -3 -5 0
v -4 -5 0
v -4 -4 0
v -3 -4 0
v -23 -9 0
v -24 -9 0
v -24 -8 0
v -23 -8 0
v -22 -9 0
v -23 -9 0
v -23 -8 0
v -22 -8 0
v -21 -9 0
v -22 -9 0
v -22 -8 0
v -21 -8 0
v -7 -9 0
v -8 -9 0
v -8 -8 0
v -7 -8 0
v -6 -9 0
v -7 -9 0
v -7 -8 0
v -6 -8 0
v -5 -9 0
v -6 -9 0
v -6 -8 0
v -5 -8 0
v -23 -10 0
v -24 -10 0
v -24 -9 0
v -23 -9 0
v -22 -10 0
v -23 -10 0
v -23 -9 0
v -22 -9 0
v -21 -10 0
v -22 -10 0
v -22 -9 0
v -21 -9 0
v -7 -10 0
v -8 -10 0
v -8 -9 0
v -7 -9 0
v -6 -10 0
v -7 -10 0
v -7 -9 0
v -6 -9 0
v -5 -10 0
v -6 -10 0
v -6 -9 0
v -5 -9 0
v -23 -11 0
v -24 -11 0
v -24 -10 0
v -23 -10 0
v -22 -11 0
v -23 -11 0
v -23 -10 0
v -22 -10 0
v -21 -11 0
v -22 -11 0
v -22 -10 0
v -21 -10 0
v -7 -11 0
v -8 -11 0
v -8 -10 0
v -7 -10 0
v -6 -11 0
v -7 -11 0
v -7 -10 0
v -6 -10 0
v -5 -11 0
v -6 -11 0
v -6 -10 0
v -5 -10 0

# Texture cooridinates (Count = 65)
vt 0.3 0.68
vt 0.325 0.68
vt 0.325 0.72
vt 0.3 0.72
vt 0.275 0.68
vt 0.275 0.72
vt 0.25 0.68
vt 0.25 0.72
vt 0.2 0.6
vt 0.225 0.6
vt 0.225 0.64
vt 0.2 0.64
vt 0.175 0.6
vt 0.175 0.64
vt 0.15 0.6
vt 0.15 0.64
vt 0.05 0.48
vt 0.075 0.48
vt 0.075 0.52
vt 0.05 0.52
vt 0.025 0.48
vt 0.025 0.52
vt 0 0.48
vt 0 0.52
vt 0.3 0.64
vt 0.325 0.64
vt 0.275 0.64
vt 0.25 0.64
vt 0.2 0.56
vt 0.225 0.56
vt 0.175 0.56
vt 0.15 0.56
vt 0.125 0.48
vt 0.15 0.48
vt 0.15 0.52
vt 0.125 0.52
vt 0.1 0.48
vt 0.1 0.52
vt 0.3 0.6
vt 0.325 0.6
vt 0.275 0.6
vt 0.25 0.6
vt 0.2 0.52
vt 0.225 0.52
vt 0.175 0.52
vt 0.125 0.44
vt 0.15 0.44
vt 0.1 0.44
vt 0.075 0.44
vt 0.3 0.92
vt 0.325 0.92
vt 0.325 0.96
vt 0.3 0.96
vt 0.275 0.92
vt 0.275 0.96
vt 0.25 0.92
vt 0.25 0.96
vt 0.3 0.88
vt 0.325 0.88
vt 0.275 0.88
vt 0.25 0.88
vt 0.3 0.84
vt 0.325 0.84
vt 0.275 0.84
vt 0.25 0.84

# Normal
vn 0 0 -1

# Mesh description
g CITROOM4_mesh_0004

# Faces
f 1/1/1 2/2/1 3/3/1 4/4/1
f 5/5/1 6/1/1 7/4/1 8/6/1
f 9/7/1 10/5/1 11/6/1 12/8/1
f 13/1/1 14/2/1 15/3/1 16/4/1
f 17/5/1 18/1/1 19/4/1 20/6/1
f 21/7/1 22/5/1 23/6/1 24/8/1
f 25/9/1 26/10/1 27/11/1 28/12/1
f 29/13/1 30/9/1 31/12/1 32/14/1
f 33/15/1 34/13/1 35/14/1 36/16/1
f 37/9/1 38/10/1 39/11/1 40/12/1
f 41/13/1 42/9/1 43/12/1 44/14/1
f 45/15/1 46/13/1 47/14/1 48/16/1
f 49/17/1 50/18/1 51/19/1 52/20/1
f 53/21/1 54/17/1 55/20/1 56/22/1
f 57/23/1 58/21/1 59/22/1 60/24/1
f 61/17/1 62/18/1 63/19/1 64/20/1
f 65/21/1 66/17/1 67/20/1 68/22/1
f 69/23/1 70/21/1 71/22/1 72/24/1
f 73/1/1 74/2/1 75/3/1 76/4/1
f 77/5/1 78/1/1 79/4/1 80/6/1
f 81/5/1 82/1/1 83/4/1 84/6/1
f 85/5/1 86/1/1 87/4/1 88/6/1
f 89/7/1 90/5/1 91/6/1 92/8/1
f 93/25/1 94/26/1 95/2/1 96/1/1
f 97/27/1 98/25/1 99/1/1 100/5/1
f 101/28/1 102/27/1 103/5/1 104/7/1
f 105/25/1 106/26/1 107/2/1 108/1/1
f 109/27/1 110/25/1 111/1/1 112/5/1
f 113/28/1 114/27/1 115/5/1 116/7/1
f 117/29/1 118/30/1 119/10/1 120/9/1
f 121/31/1 122/29/1 123/9/1 124/13/1
f 125/32/1 126/31/1 127/13/1 128/15/1
f 129/29/1 130/30/1 131/10/1 132/9/1
f 133/31/1 134/29/1 135/9/1 136/13/1
f 137/32/1 138/31/1 139/13/1 140/15/1
f 141/33/1 142/34/1 143/35/1 144/36/1
f 145/37/1 146/33/1 147/36/1 148/38/1
f 149/18/1 150/37/1 151/38/1 152/19/1
f 153/33/1 154/34/1 155/35/1 156/36/1
f 157/37/1 158/33/1 159/36/1 160/38/1
f 161/18/1 162/37/1 163/38/1 164/19/1
f 165/25/1 166/26/1 167/2/1 168/1/1
f 169/27/1 170/25/1 171/1/1 172/5/1
f 173/27/1 174/25/1 175/1/1 176/5/1
f 177/27/1 178/25/1 179/1/1 180/5/1
f 181/28/1 182/27/1 183/5/1 184/7/1
f 185/39/1 186/40/1 187/26/1 188/25/1
f 189/41/1 190/39/1 191/25/1 192/27/1
f 193/42/1 194/41/1 195/27/1 196/28/1
f 197/39/1 198/40/1 199/26/1 200/25/1
f 201/41/1 202/39/1 203/25/1 204/27/1
f 205/42/1 206/41/1 207/27/1 208/28/1
f 209/43/1 210/44/1 211/30/1 212/29/1
f 213/45/1 214/43/1 215/29/1 216/31/1
f 217/35/1 218/45/1 219/31/1 220/32/1
f 221/43/1 222/44/1 223/30/1 224/29/1
f 225/45/1 226/43/1 227/29/1 228/31/1
f 229/35/1 230/45/1 231/31/1 232/32/1
f 233/46/1 234/47/1 235/34/1 236/33/1
f 237/48/1 238/46/1 239/33/1 240/37/1
f 241/49/1 242/48/1 243/37/1 244/18/1
f 245/46/1 246/47/1 247/34/1 248/33/1
f 249/48/1 250/46/1 251/33/1 252/37/1
f 253/49/1 254/48/1 255/37/1 256/18/1
f 257/39/1 258/40/1 259/26/1 260/25/1
f 261/41/1 262/39/1 263/25/1 264/27/1
f 265/41/1 266/39/1 267/25/1 268/27/1
f 269/41/1 270/39/1 271/25/1 272/27/1
f 273/42/1 274/41/1 275/27/1 276/28/1
f 277/50/1 278/51/1 279/52/1 280/53/1
f 281/54/1 282/50/1 283/53/1 284/55/1
f 285/56/1 286/54/1 287/55/1 288/57/1
f 289/50/1 290/51/1 291/52/1 292/53/1
f 293/54/1 294/50/1 295/53/1 296/55/1
f 297/56/1 298/54/1 299/55/1 300/57/1
f 301/58/1 302/59/1 303/51/1 304/50/1
f 305/60/1 306/58/1 307/50/1 308/54/1
f 309/61/1 310/60/1 311/54/1 312/56/1
f 313/58/1 314/59/1 315/51/1 316/50/1
f 317/60/1 318/58/1 319/50/1 320/54/1
f 321/61/1 322/60/1 323/54/1 324/56/1
f 325/62/1 326/63/1 327/59/1 328/58/1
f 329/64/1 330/62/1 331/58/1 332/60/1
f 333/65/1 334/64/1 335/60/1 336/61/1
f 337/62/1 338/63/1 339/59/1 340/58/1
f 341/64/1 342/62/1 343/58/1 344/60/1
f 345/65/1 346/64/1 347/60/1 348/61/1

