# Tiled2Unity generated file. Do not modify by hand.
# Wavefront file for 'CITROOM1_mesh_0004.obj'

# Vertices (Count = 388)
v -26 -5 0
v -27 -5 0
v -27 -4 0
v -26 -4 0
v -25 -5 0
v -26 -5 0
v -26 -4 0
v -25 -4 0
v -23 -5 0
v -24 -5 0
v -24 -4 0
v -23 -4 0
v -21 -5 0
v -22 -5 0
v -22 -4 0
v -21 -4 0
v -20 -5 0
v -21 -5 0
v -21 -4 0
v -20 -4 0
v -18 -5 0
v -19 -5 0
v -19 -4 0
v -18 -4 0
v -13 -5 0
v -14 -5 0
v -14 -4 0
v -13 -4 0
v -11 -5 0
v -12 -5 0
v -12 -4 0
v -11 -4 0
v -10 -5 0
v -11 -5 0
v -11 -4 0
v -10 -4 0
v -8 -5 0
v -9 -5 0
v -9 -4 0
v -8 -4 0
v -3 -5 0
v -4 -5 0
v -4 -4 0
v -3 -4 0
v -26 -6 0
v -27 -6 0
v -27 -5 0
v -26 -5 0
v -25 -6 0
v -26 -6 0
v -26 -5 0
v -25 -5 0
v -21 -6 0
v -22 -6 0
v -22 -5 0
v -21 -5 0
v -20 -6 0
v -21 -6 0
v -21 -5 0
v -20 -5 0
v -11 -6 0
v -12 -6 0
v -12 -5 0
v -11 -5 0
v -10 -6 0
v -11 -6 0
v -11 -5 0
v -10 -5 0
v -24 -8 0
v -25 -8 0
v -25 -7 0
v -24 -7 0
v -23 -8 0
v -24 -8 0
v -24 -7 0
v -23 -7 0
v -19 -8 0
v -20 -8 0
v -20 -7 0
v -19 -7 0
v -18 -8 0
v -19 -8 0
v -19 -7 0
v -18 -7 0
v -14 -8 0
v -15 -8 0
v -15 -7 0
v -14 -7 0
v -13 -8 0
v -14 -8 0
v -14 -7 0
v -13 -7 0
v -6 -8 0
v -7 -8 0
v -7 -7 0
v -6 -7 0
v -5 -8 0
v -6 -8 0
v -6 -7 0
v -5 -7 0
v -24 -9 0
v -25 -9 0
v -25 -8 0
v -24 -8 0
v -23 -9 0
v -24 -9 0
v -24 -8 0
v -23 -8 0
v -19 -9 0
v -20 -9 0
v -20 -8 0
v -19 -8 0
v -18 -9 0
v -19 -9 0
v -19 -8 0
v -18 -8 0
v -14 -9 0
v -15 -9 0
v -15 -8 0
v -14 -8 0
v -13 -9 0
v -14 -9 0
v -14 -8 0
v -13 -8 0
v -6 -9 0
v -7 -9 0
v -7 -8 0
v -6 -8 0
v -5 -9 0
v -6 -9 0
v -6 -8 0
v -5 -8 0
v -23 -10 0
v -24 -10 0
v -24 -9 0
v -23 -9 0
v -18 -10 0
v -19 -10 0
v -19 -9 0
v -18 -9 0
v -14 -10 0
v -15 -10 0
v -15 -9 0
v -14 -9 0
v -13 -10 0
v -14 -10 0
v -14 -9 0
v -13 -9 0
v -8 -10 0
v -9 -10 0
v -9 -9 0
v -8 -9 0
v -3 -10 0
v -4 -10 0
v -4 -9 0
v -3 -9 0
v -26 -11 0
v -27 -11 0
v -27 -10 0
v -26 -10 0
v -25 -11 0
v -26 -11 0
v -26 -10 0
v -25 -10 0
v -21 -11 0
v -22 -11 0
v -22 -10 0
v -21 -10 0
v -20 -11 0
v -21 -11 0
v -21 -10 0
v -20 -10 0
v -4 -11 0
v -5 -11 0
v -5 -10 0
v -4 -10 0
v -3 -11 0
v -4 -11 0
v -4 -10 0
v -3 -10 0
v -26 -12 0
v -27 -12 0
v -27 -11 0
v -26 -11 0
v -25 -12 0
v -26 -12 0
v -26 -11 0
v -25 -11 0
v -21 -12 0
v -22 -12 0
v -22 -11 0
v -21 -11 0
v -20 -12 0
v -21 -12 0
v -21 -11 0
v -20 -11 0
v -4 -12 0
v -5 -12 0
v -5 -11 0
v -4 -11 0
v -3 -12 0
v -4 -12 0
v -4 -11 0
v -3 -11 0
v -24 -14 0
v -25 -14 0
v -25 -13 0
v -24 -13 0
v -23 -14 0
v -24 -14 0
v -24 -13 0
v -23 -13 0
v -11 -14 0
v -12 -14 0
v -12 -13 0
v -11 -13 0
v -10 -14 0
v -11 -14 0
v -11 -13 0
v -10 -13 0
v -24 -15 0
v -25 -15 0
v -25 -14 0
v -24 -14 0
v -23 -15 0
v -24 -15 0
v -24 -14 0
v -23 -14 0
v -11 -15 0
v -12 -15 0
v -12 -14 0
v -11 -14 0
v -10 -15 0
v -11 -15 0
v -11 -14 0
v -10 -14 0
v -24 -16 0
v -25 -16 0
v -25 -15 0
v -24 -15 0
v -23 -16 0
v -24 -16 0
v -24 -15 0
v -23 -15 0
v -19 -16 0
v -20 -16 0
v -20 -15 0
v -19 -15 0
v -18 -16 0
v -19 -16 0
v -19 -15 0
v -18 -15 0
v -9 -16 0
v -10 -16 0
v -10 -15 0
v -9 -15 0
v -8 -16 0
v -9 -16 0
v -9 -15 0
v -8 -15 0
v -4 -16 0
v -5 -16 0
v -5 -15 0
v -4 -15 0
v -3 -16 0
v -4 -16 0
v -4 -15 0
v -3 -15 0
v -21 -17 0
v -22 -17 0
v -22 -16 0
v -21 -16 0
v -20 -17 0
v -21 -17 0
v -21 -16 0
v -20 -16 0
v -21 -18 0
v -22 -18 0
v -22 -17 0
v -21 -17 0
v -20 -18 0
v -21 -18 0
v -21 -17 0
v -20 -17 0
v -14 -20 0
v -15 -20 0
v -15 -19 0
v -14 -19 0
v -13 -20 0
v -14 -20 0
v -14 -19 0
v -13 -19 0
v -14 -21 0
v -15 -21 0
v -15 -20 0
v -14 -20 0
v -13 -21 0
v -14 -21 0
v -14 -20 0
v -13 -20 0
v -24 -22 0
v -25 -22 0
v -25 -21 0
v -24 -21 0
v -23 -22 0
v -24 -22 0
v -24 -21 0
v -23 -21 0
v -19 -22 0
v -20 -22 0
v -20 -21 0
v -19 -21 0
v -18 -22 0
v -19 -22 0
v -19 -21 0
v -18 -21 0
v -14 -22 0
v -15 -22 0
v -15 -21 0
v -14 -21 0
v -13 -22 0
v -14 -22 0
v -14 -21 0
v -13 -21 0
v -9 -22 0
v -10 -22 0
v -10 -21 0
v -9 -21 0
v -8 -22 0
v -9 -22 0
v -9 -21 0
v -8 -21 0
v -4 -22 0
v -5 -22 0
v -5 -21 0
v -4 -21 0
v -3 -22 0
v -4 -22 0
v -4 -21 0
v -3 -21 0
v -16 -23 0
v -17 -23 0
v -17 -22 0
v -16 -22 0
v -15 -23 0
v -16 -23 0
v -16 -22 0
v -15 -22 0
v -4 -23 0
v -5 -23 0
v -5 -22 0
v -4 -22 0
v -3 -23 0
v -4 -23 0
v -4 -22 0
v -3 -22 0
v -16 -24 0
v -17 -24 0
v -17 -23 0
v -16 -23 0
v -15 -24 0
v -16 -24 0
v -16 -23 0
v -15 -23 0
v -4 -24 0
v -5 -24 0
v -5 -23 0
v -4 -23 0
v -3 -24 0
v -4 -24 0
v -4 -23 0
v -3 -23 0
v -19 -26 0
v -20 -26 0
v -20 -25 0
v -19 -25 0
v -18 -26 0
v -19 -26 0
v -19 -25 0
v -18 -25 0
v -19 -27 0
v -20 -27 0
v -20 -26 0
v -19 -26 0
v -18 -27 0
v -19 -27 0
v -19 -26 0
v -18 -26 0

# Texture cooridinates (Count = 27)
vt 0.8181818 0.95
vt 0.8484849 0.95
vt 0.8484849 1
vt 0.8181818 1
vt 0.7878788 0.95
vt 0.7878788 1
vt 0.1515152 0.2
vt 0.1818182 0.2
vt 0.1818182 0.25
vt 0.1515152 0.25
vt 0.2424242 0.25
vt 0.2727273 0.25
vt 0.2727273 0.3
vt 0.2424242 0.3
vt 0.2121212 0.25
vt 0.2121212 0.3
vt 0.1818182 0.3
vt 0.1515152 0.3
vt 0.8181818 0.9
vt 0.8484849 0.9
vt 0.7878788 0.9
vt 0.1515152 0.15
vt 0.1818182 0.15
vt 0.2424242 0.2
vt 0.2727273 0.2
vt 0.2121212 0.2
vt 0.2121212 0.15

# Normal
vn 0 0 -1

# Mesh description
g CITROOM1_mesh_0004

# Faces
f 1/1/1 2/2/1 3/3/1 4/4/1
f 5/5/1 6/1/1 7/4/1 8/6/1
f 9/7/1 10/8/1 11/9/1 12/10/1
f 13/1/1 14/2/1 15/3/1 16/4/1
f 17/5/1 18/1/1 19/4/1 20/6/1
f 21/11/1 22/12/1 23/13/1 24/14/1
f 25/15/1 26/11/1 27/14/1 28/16/1
f 29/1/1 30/2/1 31/3/1 32/4/1
f 33/5/1 34/1/1 35/4/1 36/6/1
f 37/9/1 38/15/1 39/16/1 40/17/1
f 41/10/1 42/9/1 43/17/1 44/18/1
f 45/19/1 46/20/1 47/2/1 48/1/1
f 49/21/1 50/19/1 51/1/1 52/5/1
f 53/19/1 54/20/1 55/2/1 56/1/1
f 57/21/1 58/19/1 59/1/1 60/5/1
f 61/19/1 62/20/1 63/2/1 64/1/1
f 65/21/1 66/19/1 67/1/1 68/5/1
f 69/1/1 70/2/1 71/3/1 72/4/1
f 73/5/1 74/1/1 75/4/1 76/6/1
f 77/1/1 78/2/1 79/3/1 80/4/1
f 81/5/1 82/1/1 83/4/1 84/6/1
f 85/1/1 86/2/1 87/3/1 88/4/1
f 89/5/1 90/1/1 91/4/1 92/6/1
f 93/1/1 94/2/1 95/3/1 96/4/1
f 97/5/1 98/1/1 99/4/1 100/6/1
f 101/19/1 102/20/1 103/2/1 104/1/1
f 105/21/1 106/19/1 107/1/1 108/5/1
f 109/19/1 110/20/1 111/2/1 112/1/1
f 113/21/1 114/19/1 115/1/1 116/5/1
f 117/19/1 118/20/1 119/2/1 120/1/1
f 121/21/1 122/19/1 123/1/1 124/5/1
f 125/19/1 126/20/1 127/2/1 128/1/1
f 129/21/1 130/19/1 131/1/1 132/5/1
f 133/22/1 134/23/1 135/8/1 136/7/1
f 137/24/1 138/25/1 139/12/1 140/11/1
f 141/22/1 142/23/1 143/8/1 144/7/1
f 145/10/1 146/9/1 147/17/1 148/18/1
f 149/26/1 150/24/1 151/11/1 152/15/1
f 153/8/1 154/26/1 155/15/1 156/9/1
f 157/1/1 158/2/1 159/3/1 160/4/1
f 161/5/1 162/1/1 163/4/1 164/6/1
f 165/1/1 166/2/1 167/3/1 168/4/1
f 169/5/1 170/1/1 171/4/1 172/6/1
f 173/1/1 174/2/1 175/3/1 176/4/1
f 177/5/1 178/1/1 179/4/1 180/6/1
f 181/19/1 182/20/1 183/2/1 184/1/1
f 185/21/1 186/19/1 187/1/1 188/5/1
f 189/19/1 190/20/1 191/2/1 192/1/1
f 193/21/1 194/19/1 195/1/1 196/5/1
f 197/19/1 198/20/1 199/2/1 200/1/1
f 201/21/1 202/19/1 203/1/1 204/5/1
f 205/1/1 206/2/1 207/3/1 208/4/1
f 209/5/1 210/1/1 211/4/1 212/6/1
f 213/1/1 214/2/1 215/3/1 216/4/1
f 217/5/1 218/1/1 219/4/1 220/6/1
f 221/19/1 222/20/1 223/2/1 224/1/1
f 225/21/1 226/19/1 227/1/1 228/5/1
f 229/19/1 230/20/1 231/2/1 232/1/1
f 233/21/1 234/19/1 235/1/1 236/5/1
f 237/15/1 238/11/1 239/14/1 240/16/1
f 241/10/1 242/9/1 243/17/1 244/18/1
f 245/9/1 246/15/1 247/16/1 248/17/1
f 249/10/1 250/9/1 251/17/1 252/18/1
f 253/10/1 254/9/1 255/17/1 256/18/1
f 257/10/1 258/9/1 259/17/1 260/18/1
f 261/23/1 262/27/1 263/26/1 264/8/1
f 265/10/1 266/9/1 267/17/1 268/18/1
f 269/1/1 270/2/1 271/3/1 272/4/1
f 273/5/1 274/1/1 275/4/1 276/6/1
f 277/19/1 278/20/1 279/2/1 280/1/1
f 281/21/1 282/19/1 283/1/1 284/5/1
f 285/1/1 286/2/1 287/3/1 288/4/1
f 289/5/1 290/1/1 291/4/1 292/6/1
f 293/19/1 294/20/1 295/2/1 296/1/1
f 297/21/1 298/19/1 299/1/1 300/5/1
f 301/24/1 302/25/1 303/12/1 304/11/1
f 305/10/1 306/9/1 307/17/1 308/18/1
f 309/26/1 310/24/1 311/11/1 312/15/1
f 313/10/1 314/9/1 315/17/1 316/18/1
f 317/8/1 318/26/1 319/15/1 320/9/1
f 321/10/1 322/9/1 323/17/1 324/18/1
f 325/7/1 326/8/1 327/9/1 328/10/1
f 329/10/1 330/9/1 331/17/1 332/18/1
f 333/11/1 334/12/1 335/13/1 336/14/1
f 337/10/1 338/9/1 339/17/1 340/18/1
f 341/1/1 342/2/1 343/3/1 344/4/1
f 345/5/1 346/1/1 347/4/1 348/6/1
f 349/1/1 350/2/1 351/3/1 352/4/1
f 353/5/1 354/1/1 355/4/1 356/6/1
f 357/19/1 358/20/1 359/2/1 360/1/1
f 361/21/1 362/19/1 363/1/1 364/5/1
f 365/19/1 366/20/1 367/2/1 368/1/1
f 369/21/1 370/19/1 371/1/1 372/5/1
f 373/1/1 374/2/1 375/3/1 376/4/1
f 377/5/1 378/1/1 379/4/1 380/6/1
f 381/19/1 382/20/1 383/2/1 384/1/1
f 385/21/1 386/19/1 387/1/1 388/5/1

