# Tiled2Unity generated file. Do not modify by hand.
# Wavefront file for 'LIBRARY_mesh_0008.obj'

# Vertices (Count = 156)
v -11 -15 0
v -12 -15 0
v -12 -14 0
v -11 -14 0
v -10 -15 0
v -11 -15 0
v -11 -14 0
v -10 -14 0
v -9 -15 0
v -10 -15 0
v -10 -14 0
v -9 -14 0
v -8 -15 0
v -9 -15 0
v -9 -14 0
v -8 -14 0
v -7 -15 0
v -8 -15 0
v -8 -14 0
v -7 -14 0
v -6 -15 0
v -7 -15 0
v -7 -14 0
v -6 -14 0
v -5 -15 0
v -6 -15 0
v -6 -14 0
v -5 -14 0
v -4 -15 0
v -5 -15 0
v -5 -14 0
v -4 -14 0
v -3 -15 0
v -4 -15 0
v -4 -14 0
v -3 -14 0
v -11 -16 0
v -12 -16 0
v -12 -15 0
v -11 -15 0
v -10 -16 0
v -11 -16 0
v -11 -15 0
v -10 -15 0
v -9 -16 0
v -10 -16 0
v -10 -15 0
v -9 -15 0
v -8 -16 0
v -9 -16 0
v -9 -15 0
v -8 -15 0
v -7 -16 0
v -8 -16 0
v -8 -15 0
v -7 -15 0
v -6 -16 0
v -7 -16 0
v -7 -15 0
v -6 -15 0
v -5 -16 0
v -6 -16 0
v -6 -15 0
v -5 -15 0
v -4 -16 0
v -5 -16 0
v -5 -15 0
v -4 -15 0
v -3 -16 0
v -4 -16 0
v -4 -15 0
v -3 -15 0
v -11 -17 0
v -12 -17 0
v -12 -16 0
v -11 -16 0
v -10 -17 0
v -11 -17 0
v -11 -16 0
v -10 -16 0
v -9 -17 0
v -10 -17 0
v -10 -16 0
v -9 -16 0
v -8 -17 0
v -9 -17 0
v -9 -16 0
v -8 -16 0
v -7 -17 0
v -8 -17 0
v -8 -16 0
v -7 -16 0
v -6 -17 0
v -7 -17 0
v -7 -16 0
v -6 -16 0
v -5 -17 0
v -6 -17 0
v -6 -16 0
v -5 -16 0
v -4 -17 0
v -5 -17 0
v -5 -16 0
v -4 -16 0
v -3 -17 0
v -4 -17 0
v -4 -16 0
v -3 -16 0
v -7 -21 0
v -8 -21 0
v -8 -20 0
v -7 -20 0
v -6 -21 0
v -7 -21 0
v -7 -20 0
v -6 -20 0
v -5 -21 0
v -6 -21 0
v -6 -20 0
v -5 -20 0
v -4 -21 0
v -5 -21 0
v -5 -20 0
v -4 -20 0
v -7 -22 0
v -8 -22 0
v -8 -21 0
v -7 -21 0
v -6 -22 0
v -7 -22 0
v -7 -21 0
v -6 -21 0
v -5 -22 0
v -6 -22 0
v -6 -21 0
v -5 -21 0
v -4 -22 0
v -5 -22 0
v -5 -21 0
v -4 -21 0
v -7 -23 0
v -8 -23 0
v -8 -22 0
v -7 -22 0
v -6 -23 0
v -7 -23 0
v -7 -22 0
v -6 -22 0
v -5 -23 0
v -6 -23 0
v -6 -22 0
v -5 -22 0
v -4 -23 0
v -5 -23 0
v -5 -22 0
v -4 -22 0

# Texture cooridinates (Count = 50)
vt 0.05 0.48
vt 0.075 0.48
vt 0.075 0.52
vt 0.05 0.52
vt 0.025 0.48
vt 0.025 0.52
vt 0 0.48
vt 0 0.52
vt 0.2 0.6
vt 0.225 0.6
vt 0.225 0.64
vt 0.2 0.64
vt 0.175 0.6
vt 0.175 0.64
vt 0.15 0.6
vt 0.15 0.64
vt 0.125 0.48
vt 0.15 0.48
vt 0.15 0.52
vt 0.125 0.52
vt 0.1 0.48
vt 0.1 0.52
vt 0.3 0.64
vt 0.325 0.64
vt 0.325 0.68
vt 0.3 0.68
vt 0.275 0.64
vt 0.275 0.68
vt 0.25 0.64
vt 0.25 0.68
vt 0.125 0.44
vt 0.15 0.44
vt 0.1 0.44
vt 0.075 0.44
vt 0.3 0.6
vt 0.325 0.6
vt 0.275 0.6
vt 0.25 0.6
vt 0.075 0.36
vt 0.1 0.36
vt 0.1 0.4
vt 0.075 0.4
vt 0.05 0.36
vt 0.05 0.4
vt 0.075 0.32
vt 0.1 0.32
vt 0.05 0.32
vt 0.075 0.28
vt 0.1 0.28
vt 0.05 0.28

# Normal
vn 0 0 -1

# Mesh description
g LIBRARY_mesh_0008

# Faces
f 1/1/1 2/2/1 3/3/1 4/4/1
f 5/5/1 6/1/1 7/4/1 8/6/1
f 9/7/1 10/5/1 11/6/1 12/8/1
f 13/1/1 14/2/1 15/3/1 16/4/1
f 17/5/1 18/1/1 19/4/1 20/6/1
f 21/7/1 22/5/1 23/6/1 24/8/1
f 25/9/1 26/10/1 27/11/1 28/12/1
f 29/13/1 30/9/1 31/12/1 32/14/1
f 33/15/1 34/13/1 35/14/1 36/16/1
f 37/17/1 38/18/1 39/19/1 40/20/1
f 41/21/1 42/17/1 43/20/1 44/22/1
f 45/2/1 46/21/1 47/22/1 48/3/1
f 49/17/1 50/18/1 51/19/1 52/20/1
f 53/21/1 54/17/1 55/20/1 56/22/1
f 57/2/1 58/21/1 59/22/1 60/3/1
f 61/23/1 62/24/1 63/25/1 64/26/1
f 65/27/1 66/23/1 67/26/1 68/28/1
f 69/29/1 70/27/1 71/28/1 72/30/1
f 73/31/1 74/32/1 75/18/1 76/17/1
f 77/33/1 78/31/1 79/17/1 80/21/1
f 81/34/1 82/33/1 83/21/1 84/2/1
f 85/31/1 86/32/1 87/18/1 88/17/1
f 89/33/1 90/31/1 91/17/1 92/21/1
f 93/34/1 94/33/1 95/21/1 96/2/1
f 97/35/1 98/36/1 99/24/1 100/23/1
f 101/37/1 102/35/1 103/23/1 104/27/1
f 105/38/1 106/37/1 107/27/1 108/29/1
f 109/39/1 110/40/1 111/41/1 112/42/1
f 113/43/1 114/39/1 115/42/1 116/44/1
f 117/39/1 118/40/1 119/41/1 120/42/1
f 121/43/1 122/39/1 123/42/1 124/44/1
f 125/45/1 126/46/1 127/40/1 128/39/1
f 129/47/1 130/45/1 131/39/1 132/43/1
f 133/45/1 134/46/1 135/40/1 136/39/1
f 137/47/1 138/45/1 139/39/1 140/43/1
f 141/48/1 142/49/1 143/46/1 144/45/1
f 145/50/1 146/48/1 147/45/1 148/47/1
f 149/48/1 150/49/1 151/46/1 152/45/1
f 153/50/1 154/48/1 155/45/1 156/47/1

