# Tiled2Unity generated file. Do not modify by hand.
# Wavefront file for 'LIBRARY_mesh_0004.obj'

# Vertices (Count = 240)
v -3 -5 0
v -4 -5 0
v -4 -4 0
v -3 -4 0
v -23 -6 0
v -24 -6 0
v -24 -5 0
v -23 -5 0
v -22 -6 0
v -23 -6 0
v -23 -5 0
v -22 -5 0
v -19 -6 0
v -20 -6 0
v -20 -5 0
v -19 -5 0
v -18 -6 0
v -19 -6 0
v -19 -5 0
v -18 -5 0
v -15 -6 0
v -16 -6 0
v -16 -5 0
v -15 -5 0
v -14 -6 0
v -15 -6 0
v -15 -5 0
v -14 -5 0
v -3 -6 0
v -4 -6 0
v -4 -5 0
v -3 -5 0
v -23 -7 0
v -24 -7 0
v -24 -6 0
v -23 -6 0
v -22 -7 0
v -23 -7 0
v -23 -6 0
v -22 -6 0
v -19 -7 0
v -20 -7 0
v -20 -6 0
v -19 -6 0
v -18 -7 0
v -19 -7 0
v -19 -6 0
v -18 -6 0
v -15 -7 0
v -16 -7 0
v -16 -6 0
v -15 -6 0
v -14 -7 0
v -15 -7 0
v -15 -6 0
v -14 -6 0
v -3 -7 0
v -4 -7 0
v -4 -6 0
v -3 -6 0
v -23 -8 0
v -24 -8 0
v -24 -7 0
v -23 -7 0
v -22 -8 0
v -23 -8 0
v -23 -7 0
v -22 -7 0
v -19 -8 0
v -20 -8 0
v -20 -7 0
v -19 -7 0
v -18 -8 0
v -19 -8 0
v -19 -7 0
v -18 -7 0
v -15 -8 0
v -16 -8 0
v -16 -7 0
v -15 -7 0
v -14 -8 0
v -15 -8 0
v -15 -7 0
v -14 -7 0
v -3 -8 0
v -4 -8 0
v -4 -7 0
v -3 -7 0
v -23 -9 0
v -24 -9 0
v -24 -8 0
v -23 -8 0
v -22 -9 0
v -23 -9 0
v -23 -8 0
v -22 -8 0
v -19 -9 0
v -20 -9 0
v -20 -8 0
v -19 -8 0
v -18 -9 0
v -19 -9 0
v -19 -8 0
v -18 -8 0
v -15 -9 0
v -16 -9 0
v -16 -8 0
v -15 -8 0
v -14 -9 0
v -15 -9 0
v -15 -8 0
v -14 -8 0
v -25 -17 0
v -26 -17 0
v -26 -16 0
v -25 -16 0
v -24 -17 0
v -25 -17 0
v -25 -16 0
v -24 -16 0
v -23 -17 0
v -24 -17 0
v -24 -16 0
v -23 -16 0
v -20 -17 0
v -21 -17 0
v -21 -16 0
v -20 -16 0
v -19 -17 0
v -20 -17 0
v -20 -16 0
v -19 -16 0
v -18 -17 0
v -19 -17 0
v -19 -16 0
v -18 -16 0
v -25 -18 0
v -26 -18 0
v -26 -17 0
v -25 -17 0
v -24 -18 0
v -25 -18 0
v -25 -17 0
v -24 -17 0
v -23 -18 0
v -24 -18 0
v -24 -17 0
v -23 -17 0
v -20 -18 0
v -21 -18 0
v -21 -17 0
v -20 -17 0
v -19 -18 0
v -20 -18 0
v -20 -17 0
v -19 -17 0
v -18 -18 0
v -19 -18 0
v -19 -17 0
v -18 -17 0
v -15 -19 0
v -16 -19 0
v -16 -18 0
v -15 -18 0
v -14 -19 0
v -15 -19 0
v -15 -18 0
v -14 -18 0
v -15 -20 0
v -16 -20 0
v -16 -19 0
v -15 -19 0
v -14 -20 0
v -15 -20 0
v -15 -19 0
v -14 -19 0
v -15 -21 0
v -16 -21 0
v -16 -20 0
v -15 -20 0
v -14 -21 0
v -15 -21 0
v -15 -20 0
v -14 -20 0
v -25 -22 0
v -26 -22 0
v -26 -21 0
v -25 -21 0
v -24 -22 0
v -25 -22 0
v -25 -21 0
v -24 -21 0
v -23 -22 0
v -24 -22 0
v -24 -21 0
v -23 -21 0
v -20 -22 0
v -21 -22 0
v -21 -21 0
v -20 -21 0
v -19 -22 0
v -20 -22 0
v -20 -21 0
v -19 -21 0
v -18 -22 0
v -19 -22 0
v -19 -21 0
v -18 -21 0
v -15 -22 0
v -16 -22 0
v -16 -21 0
v -15 -21 0
v -14 -22 0
v -15 -22 0
v -15 -21 0
v -14 -21 0
v -25 -23 0
v -26 -23 0
v -26 -22 0
v -25 -22 0
v -24 -23 0
v -25 -23 0
v -25 -22 0
v -24 -22 0
v -23 -23 0
v -24 -23 0
v -24 -22 0
v -23 -22 0
v -20 -23 0
v -21 -23 0
v -21 -22 0
v -20 -22 0
v -19 -23 0
v -20 -23 0
v -20 -22 0
v -19 -22 0
v -18 -23 0
v -19 -23 0
v -19 -22 0
v -18 -22 0

# Texture cooridinates (Count = 31)
vt 0.175 0.48
vt 0.2 0.48
vt 0.2 0.52
vt 0.175 0.52
vt 0.15 0.48
vt 0.15 0.52
vt 0.175 0.44
vt 0.2 0.44
vt 0.15 0.44
vt 0.175 0.4
vt 0.2 0.4
vt 0.15 0.4
vt 0.175 0.36
vt 0.2 0.36
vt 0.15 0.36
vt 0.3 0.92
vt 0.325 0.92
vt 0.325 0.96
vt 0.3 0.96
vt 0.275 0.92
vt 0.275 0.96
vt 0.25 0.92
vt 0.25 0.96
vt 0.3 0.84
vt 0.325 0.84
vt 0.325 0.88
vt 0.3 0.88
vt 0.275 0.84
vt 0.275 0.88
vt 0.25 0.84
vt 0.25 0.88

# Normal
vn 0 0 -1

# Mesh description
g LIBRARY_mesh_0004

# Faces
f 1/1/1 2/2/1 3/3/1 4/4/1
f 5/1/1 6/2/1 7/3/1 8/4/1
f 9/5/1 10/1/1 11/4/1 12/6/1
f 13/1/1 14/2/1 15/3/1 16/4/1
f 17/5/1 18/1/1 19/4/1 20/6/1
f 21/1/1 22/2/1 23/3/1 24/4/1
f 25/5/1 26/1/1 27/4/1 28/6/1
f 29/7/1 30/8/1 31/2/1 32/1/1
f 33/7/1 34/8/1 35/2/1 36/1/1
f 37/9/1 38/7/1 39/1/1 40/5/1
f 41/7/1 42/8/1 43/2/1 44/1/1
f 45/9/1 46/7/1 47/1/1 48/5/1
f 49/7/1 50/8/1 51/2/1 52/1/1
f 53/9/1 54/7/1 55/1/1 56/5/1
f 57/10/1 58/11/1 59/8/1 60/7/1
f 61/10/1 62/11/1 63/8/1 64/7/1
f 65/12/1 66/10/1 67/7/1 68/9/1
f 69/10/1 70/11/1 71/8/1 72/7/1
f 73/12/1 74/10/1 75/7/1 76/9/1
f 77/10/1 78/11/1 79/8/1 80/7/1
f 81/12/1 82/10/1 83/7/1 84/9/1
f 85/13/1 86/14/1 87/11/1 88/10/1
f 89/13/1 90/14/1 91/11/1 92/10/1
f 93/15/1 94/13/1 95/10/1 96/12/1
f 97/13/1 98/14/1 99/11/1 100/10/1
f 101/15/1 102/13/1 103/10/1 104/12/1
f 105/13/1 106/14/1 107/11/1 108/10/1
f 109/15/1 110/13/1 111/10/1 112/12/1
f 113/16/1 114/17/1 115/18/1 116/19/1
f 117/20/1 118/16/1 119/19/1 120/21/1
f 121/22/1 122/20/1 123/21/1 124/23/1
f 125/16/1 126/17/1 127/18/1 128/19/1
f 129/20/1 130/16/1 131/19/1 132/21/1
f 133/22/1 134/20/1 135/21/1 136/23/1
f 137/24/1 138/25/1 139/26/1 140/27/1
f 141/28/1 142/24/1 143/27/1 144/29/1
f 145/30/1 146/28/1 147/29/1 148/31/1
f 149/24/1 150/25/1 151/26/1 152/27/1
f 153/28/1 154/24/1 155/27/1 156/29/1
f 157/30/1 158/28/1 159/29/1 160/31/1
f 161/1/1 162/2/1 163/3/1 164/4/1
f 165/5/1 166/1/1 167/4/1 168/6/1
f 169/7/1 170/8/1 171/2/1 172/1/1
f 173/9/1 174/7/1 175/1/1 176/5/1
f 177/10/1 178/11/1 179/8/1 180/7/1
f 181/12/1 182/10/1 183/7/1 184/9/1
f 185/16/1 186/17/1 187/18/1 188/19/1
f 189/20/1 190/16/1 191/19/1 192/21/1
f 193/22/1 194/20/1 195/21/1 196/23/1
f 197/16/1 198/17/1 199/18/1 200/19/1
f 201/20/1 202/16/1 203/19/1 204/21/1
f 205/22/1 206/20/1 207/21/1 208/23/1
f 209/13/1 210/14/1 211/11/1 212/10/1
f 213/15/1 214/13/1 215/10/1 216/12/1
f 217/24/1 218/25/1 219/26/1 220/27/1
f 221/28/1 222/24/1 223/27/1 224/29/1
f 225/30/1 226/28/1 227/29/1 228/31/1
f 229/24/1 230/25/1 231/26/1 232/27/1
f 233/28/1 234/24/1 235/27/1 236/29/1
f 237/30/1 238/28/1 239/29/1 240/31/1

