# Tiled2Unity generated file. Do not modify by hand.
# Wavefront file for 'LIBRARY_mesh_0007.obj'

# Vertices (Count = 168)
v -3 -12 0
v -4 -12 0
v -4 -11 0
v -3 -11 0
v -3 -13 0
v -4 -13 0
v -4 -12 0
v -3 -12 0
v -3 -14 0
v -4 -14 0
v -4 -13 0
v -3 -13 0
v -11 -15 0
v -12 -15 0
v -12 -14 0
v -11 -14 0
v -10 -15 0
v -11 -15 0
v -11 -14 0
v -10 -14 0
v -9 -15 0
v -10 -15 0
v -10 -14 0
v -9 -14 0
v -8 -15 0
v -9 -15 0
v -9 -14 0
v -8 -14 0
v -7 -15 0
v -8 -15 0
v -8 -14 0
v -7 -14 0
v -6 -15 0
v -7 -15 0
v -7 -14 0
v -6 -14 0
v -5 -15 0
v -6 -15 0
v -6 -14 0
v -5 -14 0
v -4 -15 0
v -5 -15 0
v -5 -14 0
v -4 -14 0
v -3 -15 0
v -4 -15 0
v -4 -14 0
v -3 -14 0
v -11 -16 0
v -12 -16 0
v -12 -15 0
v -11 -15 0
v -10 -16 0
v -11 -16 0
v -11 -15 0
v -10 -15 0
v -9 -16 0
v -10 -16 0
v -10 -15 0
v -9 -15 0
v -8 -16 0
v -9 -16 0
v -9 -15 0
v -8 -15 0
v -7 -16 0
v -8 -16 0
v -8 -15 0
v -7 -15 0
v -6 -16 0
v -7 -16 0
v -7 -15 0
v -6 -15 0
v -5 -16 0
v -6 -16 0
v -6 -15 0
v -5 -15 0
v -4 -16 0
v -5 -16 0
v -5 -15 0
v -4 -15 0
v -3 -16 0
v -4 -16 0
v -4 -15 0
v -3 -15 0
v -11 -17 0
v -12 -17 0
v -12 -16 0
v -11 -16 0
v -10 -17 0
v -11 -17 0
v -11 -16 0
v -10 -16 0
v -9 -17 0
v -10 -17 0
v -10 -16 0
v -9 -16 0
v -8 -17 0
v -9 -17 0
v -9 -16 0
v -8 -16 0
v -7 -17 0
v -8 -17 0
v -8 -16 0
v -7 -16 0
v -6 -17 0
v -7 -17 0
v -7 -16 0
v -6 -16 0
v -5 -17 0
v -6 -17 0
v -6 -16 0
v -5 -16 0
v -4 -17 0
v -5 -17 0
v -5 -16 0
v -4 -16 0
v -3 -17 0
v -4 -17 0
v -4 -16 0
v -3 -16 0
v -7 -21 0
v -8 -21 0
v -8 -20 0
v -7 -20 0
v -6 -21 0
v -7 -21 0
v -7 -20 0
v -6 -20 0
v -5 -21 0
v -6 -21 0
v -6 -20 0
v -5 -20 0
v -4 -21 0
v -5 -21 0
v -5 -20 0
v -4 -20 0
v -7 -22 0
v -8 -22 0
v -8 -21 0
v -7 -21 0
v -6 -22 0
v -7 -22 0
v -7 -21 0
v -6 -21 0
v -5 -22 0
v -6 -22 0
v -6 -21 0
v -5 -21 0
v -4 -22 0
v -5 -22 0
v -5 -21 0
v -4 -21 0
v -7 -23 0
v -8 -23 0
v -8 -22 0
v -7 -22 0
v -6 -23 0
v -7 -23 0
v -7 -22 0
v -6 -22 0
v -5 -23 0
v -6 -23 0
v -6 -22 0
v -5 -22 0
v -4 -23 0
v -5 -23 0
v -5 -22 0
v -4 -22 0

# Texture cooridinates (Count = 54)
vt 0.175 0.48
vt 0.2 0.48
vt 0.2 0.52
vt 0.175 0.52
vt 0.175 0.44
vt 0.2 0.44
vt 0.175 0.4
vt 0.2 0.4
vt 0.05 0.48
vt 0.075 0.48
vt 0.075 0.52
vt 0.05 0.52
vt 0.025 0.48
vt 0.025 0.52
vt 0 0.48
vt 0 0.52
vt 0.3 0.68
vt 0.325 0.68
vt 0.325 0.72
vt 0.3 0.72
vt 0.275 0.68
vt 0.275 0.72
vt 0.25 0.68
vt 0.25 0.72
vt 0.125 0.48
vt 0.15 0.48
vt 0.15 0.52
vt 0.125 0.52
vt 0.1 0.48
vt 0.1 0.52
vt 0.3 0.64
vt 0.325 0.64
vt 0.275 0.64
vt 0.25 0.64
vt 0.125 0.44
vt 0.15 0.44
vt 0.1 0.44
vt 0.075 0.44
vt 0.3 0.6
vt 0.325 0.6
vt 0.275 0.6
vt 0.25 0.6
vt 0.075 0.36
vt 0.1 0.36
vt 0.1 0.4
vt 0.075 0.4
vt 0.05 0.36
vt 0.05 0.4
vt 0.075 0.32
vt 0.1 0.32
vt 0.05 0.32
vt 0.075 0.28
vt 0.1 0.28
vt 0.05 0.28

# Normal
vn 0 0 -1

# Mesh description
g LIBRARY_mesh_0007

# Faces
f 1/1/1 2/2/1 3/3/1 4/4/1
f 5/5/1 6/6/1 7/2/1 8/1/1
f 9/7/1 10/8/1 11/6/1 12/5/1
f 13/9/1 14/10/1 15/11/1 16/12/1
f 17/13/1 18/9/1 19/12/1 20/14/1
f 21/15/1 22/13/1 23/14/1 24/16/1
f 25/9/1 26/10/1 27/11/1 28/12/1
f 29/13/1 30/9/1 31/12/1 32/14/1
f 33/15/1 34/13/1 35/14/1 36/16/1
f 37/17/1 38/18/1 39/19/1 40/20/1
f 41/21/1 42/17/1 43/20/1 44/22/1
f 45/23/1 46/21/1 47/22/1 48/24/1
f 49/25/1 50/26/1 51/27/1 52/28/1
f 53/29/1 54/25/1 55/28/1 56/30/1
f 57/10/1 58/29/1 59/30/1 60/11/1
f 61/25/1 62/26/1 63/27/1 64/28/1
f 65/29/1 66/25/1 67/28/1 68/30/1
f 69/10/1 70/29/1 71/30/1 72/11/1
f 73/31/1 74/32/1 75/18/1 76/17/1
f 77/33/1 78/31/1 79/17/1 80/21/1
f 81/34/1 82/33/1 83/21/1 84/23/1
f 85/35/1 86/36/1 87/26/1 88/25/1
f 89/37/1 90/35/1 91/25/1 92/29/1
f 93/38/1 94/37/1 95/29/1 96/10/1
f 97/35/1 98/36/1 99/26/1 100/25/1
f 101/37/1 102/35/1 103/25/1 104/29/1
f 105/38/1 106/37/1 107/29/1 108/10/1
f 109/39/1 110/40/1 111/32/1 112/31/1
f 113/41/1 114/39/1 115/31/1 116/33/1
f 117/42/1 118/41/1 119/33/1 120/34/1
f 121/43/1 122/44/1 123/45/1 124/46/1
f 125/47/1 126/43/1 127/46/1 128/48/1
f 129/43/1 130/44/1 131/45/1 132/46/1
f 133/47/1 134/43/1 135/46/1 136/48/1
f 137/49/1 138/50/1 139/44/1 140/43/1
f 141/51/1 142/49/1 143/43/1 144/47/1
f 145/49/1 146/50/1 147/44/1 148/43/1
f 149/51/1 150/49/1 151/43/1 152/47/1
f 153/52/1 154/53/1 155/50/1 156/49/1
f 157/54/1 158/52/1 159/49/1 160/51/1
f 161/52/1 162/53/1 163/50/1 164/49/1
f 165/54/1 166/52/1 167/49/1 168/51/1

