# Tiled2Unity generated file. Do not modify by hand.
# Wavefront file for 'LIBRARY_mesh_0006.obj'

# Vertices (Count = 76)
v -3 -9 0
v -4 -9 0
v -4 -8 0
v -3 -8 0
v -3 -10 0
v -4 -10 0
v -4 -9 0
v -3 -9 0
v -3 -11 0
v -4 -11 0
v -4 -10 0
v -3 -10 0
v -3 -12 0
v -4 -12 0
v -4 -11 0
v -3 -11 0
v -5 -15 0
v -6 -15 0
v -6 -14 0
v -5 -14 0
v -4 -15 0
v -5 -15 0
v -5 -14 0
v -4 -14 0
v -3 -15 0
v -4 -15 0
v -4 -14 0
v -3 -14 0
v -5 -16 0
v -6 -16 0
v -6 -15 0
v -5 -15 0
v -4 -16 0
v -5 -16 0
v -5 -15 0
v -4 -15 0
v -3 -16 0
v -4 -16 0
v -4 -15 0
v -3 -15 0
v -5 -17 0
v -6 -17 0
v -6 -16 0
v -5 -16 0
v -4 -17 0
v -5 -17 0
v -5 -16 0
v -4 -16 0
v -3 -17 0
v -4 -17 0
v -4 -16 0
v -3 -16 0
v -15 -25 0
v -16 -25 0
v -16 -24 0
v -15 -24 0
v -14 -25 0
v -15 -25 0
v -15 -24 0
v -14 -24 0
v -15 -26 0
v -16 -26 0
v -16 -25 0
v -15 -25 0
v -14 -26 0
v -15 -26 0
v -15 -25 0
v -14 -25 0
v -15 -27 0
v -16 -27 0
v -16 -26 0
v -15 -26 0
v -14 -27 0
v -15 -27 0
v -15 -26 0
v -14 -26 0

# Texture cooridinates (Count = 30)
vt 0.175 0.48
vt 0.2 0.48
vt 0.2 0.52
vt 0.175 0.52
vt 0.175 0.44
vt 0.2 0.44
vt 0.175 0.4
vt 0.2 0.4
vt 0.175 0.36
vt 0.2 0.36
vt 0.3 0.68
vt 0.325 0.68
vt 0.325 0.72
vt 0.3 0.72
vt 0.275 0.68
vt 0.275 0.72
vt 0.25 0.68
vt 0.25 0.72
vt 0.3 0.64
vt 0.325 0.64
vt 0.275 0.64
vt 0.25 0.64
vt 0.3 0.6
vt 0.325 0.6
vt 0.275 0.6
vt 0.25 0.6
vt 0.15 0.48
vt 0.15 0.52
vt 0.15 0.44
vt 0.15 0.4

# Normal
vn 0 0 -1

# Mesh description
g LIBRARY_mesh_0006

# Faces
f 1/1/1 2/2/1 3/3/1 4/4/1
f 5/5/1 6/6/1 7/2/1 8/1/1
f 9/7/1 10/8/1 11/6/1 12/5/1
f 13/9/1 14/10/1 15/8/1 16/7/1
f 17/11/1 18/12/1 19/13/1 20/14/1
f 21/15/1 22/11/1 23/14/1 24/16/1
f 25/17/1 26/15/1 27/16/1 28/18/1
f 29/19/1 30/20/1 31/12/1 32/11/1
f 33/21/1 34/19/1 35/11/1 36/15/1
f 37/22/1 38/21/1 39/15/1 40/17/1
f 41/23/1 42/24/1 43/20/1 44/19/1
f 45/25/1 46/23/1 47/19/1 48/21/1
f 49/26/1 50/25/1 51/21/1 52/22/1
f 53/1/1 54/2/1 55/3/1 56/4/1
f 57/27/1 58/1/1 59/4/1 60/28/1
f 61/5/1 62/6/1 63/2/1 64/1/1
f 65/29/1 66/5/1 67/1/1 68/27/1
f 69/7/1 70/8/1 71/6/1 72/5/1
f 73/30/1 74/7/1 75/5/1 76/29/1

