# Tiled2Unity generated file. Do not modify by hand.
# Wavefront file for 'LOBBY2_mesh_0003.obj'

# Vertices (Count = 784)
v -28 -2 0
v -29 -2 0
v -29 -1 0
v -28 -1 0
v -27 -2 0
v -28 -2 0
v -28 -1 0
v -27 -1 0
v -26 -2 0
v -27 -2 0
v -27 -1 0
v -26 -1 0
v -25 -2 0
v -26 -2 0
v -26 -1 0
v -25 -1 0
v -24 -2 0
v -25 -2 0
v -25 -1 0
v -24 -1 0
v -23 -2 0
v -24 -2 0
v -24 -1 0
v -23 -1 0
v -20 -2 0
v -21 -2 0
v -21 -1 0
v -20 -1 0
v -19 -2 0
v -20 -2 0
v -20 -1 0
v -19 -1 0
v -18 -2 0
v -19 -2 0
v -19 -1 0
v -18 -1 0
v -17 -2 0
v -18 -2 0
v -18 -1 0
v -17 -1 0
v -16 -2 0
v -17 -2 0
v -17 -1 0
v -16 -1 0
v -15 -2 0
v -16 -2 0
v -16 -1 0
v -15 -1 0
v -14 -2 0
v -15 -2 0
v -15 -1 0
v -14 -1 0
v -13 -2 0
v -14 -2 0
v -14 -1 0
v -13 -1 0
v -12 -2 0
v -13 -2 0
v -13 -1 0
v -12 -1 0
v -11 -2 0
v -12 -2 0
v -12 -1 0
v -11 -1 0
v -10 -2 0
v -11 -2 0
v -11 -1 0
v -10 -1 0
v -9 -2 0
v -10 -2 0
v -10 -1 0
v -9 -1 0
v -6 -2 0
v -7 -2 0
v -7 -1 0
v -6 -1 0
v -5 -2 0
v -6 -2 0
v -6 -1 0
v -5 -1 0
v -4 -2 0
v -5 -2 0
v -5 -1 0
v -4 -1 0
v -3 -2 0
v -4 -2 0
v -4 -1 0
v -3 -1 0
v -2 -2 0
v -3 -2 0
v -3 -1 0
v -2 -1 0
v -1 -2 0
v -2 -2 0
v -2 -1 0
v -1 -1 0
v -28 -3 0
v -29 -3 0
v -29 -2 0
v -28 -2 0
v -27 -3 0
v -28 -3 0
v -28 -2 0
v -27 -2 0
v -26 -3 0
v -27 -3 0
v -27 -2 0
v -26 -2 0
v -25 -3 0
v -26 -3 0
v -26 -2 0
v -25 -2 0
v -24 -3 0
v -25 -3 0
v -25 -2 0
v -24 -2 0
v -23 -3 0
v -24 -3 0
v -24 -2 0
v -23 -2 0
v -20 -3 0
v -21 -3 0
v -21 -2 0
v -20 -2 0
v -19 -3 0
v -20 -3 0
v -20 -2 0
v -19 -2 0
v -18 -3 0
v -19 -3 0
v -19 -2 0
v -18 -2 0
v -17 -3 0
v -18 -3 0
v -18 -2 0
v -17 -2 0
v -16 -3 0
v -17 -3 0
v -17 -2 0
v -16 -2 0
v -15 -3 0
v -16 -3 0
v -16 -2 0
v -15 -2 0
v -14 -3 0
v -15 -3 0
v -15 -2 0
v -14 -2 0
v -13 -3 0
v -14 -3 0
v -14 -2 0
v -13 -2 0
v -12 -3 0
v -13 -3 0
v -13 -2 0
v -12 -2 0
v -11 -3 0
v -12 -3 0
v -12 -2 0
v -11 -2 0
v -10 -3 0
v -11 -3 0
v -11 -2 0
v -10 -2 0
v -9 -3 0
v -10 -3 0
v -10 -2 0
v -9 -2 0
v -6 -3 0
v -7 -3 0
v -7 -2 0
v -6 -2 0
v -5 -3 0
v -6 -3 0
v -6 -2 0
v -5 -2 0
v -4 -3 0
v -5 -3 0
v -5 -2 0
v -4 -2 0
v -3 -3 0
v -4 -3 0
v -4 -2 0
v -3 -2 0
v -2 -3 0
v -3 -3 0
v -3 -2 0
v -2 -2 0
v -1 -3 0
v -2 -3 0
v -2 -2 0
v -1 -2 0
v -28 -4 0
v -29 -4 0
v -29 -3 0
v -28 -3 0
v -27 -4 0
v -28 -4 0
v -28 -3 0
v -27 -3 0
v -26 -4 0
v -27 -4 0
v -27 -3 0
v -26 -3 0
v -25 -4 0
v -26 -4 0
v -26 -3 0
v -25 -3 0
v -24 -4 0
v -25 -4 0
v -25 -3 0
v -24 -3 0
v -23 -4 0
v -24 -4 0
v -24 -3 0
v -23 -3 0
v -20 -4 0
v -21 -4 0
v -21 -3 0
v -20 -3 0
v -19 -4 0
v -20 -4 0
v -20 -3 0
v -19 -3 0
v -18 -4 0
v -19 -4 0
v -19 -3 0
v -18 -3 0
v -17 -4 0
v -18 -4 0
v -18 -3 0
v -17 -3 0
v -16 -4 0
v -17 -4 0
v -17 -3 0
v -16 -3 0
v -15 -4 0
v -16 -4 0
v -16 -3 0
v -15 -3 0
v -14 -4 0
v -15 -4 0
v -15 -3 0
v -14 -3 0
v -13 -4 0
v -14 -4 0
v -14 -3 0
v -13 -3 0
v -12 -4 0
v -13 -4 0
v -13 -3 0
v -12 -3 0
v -11 -4 0
v -12 -4 0
v -12 -3 0
v -11 -3 0
v -10 -4 0
v -11 -4 0
v -11 -3 0
v -10 -3 0
v -9 -4 0
v -10 -4 0
v -10 -3 0
v -9 -3 0
v -6 -4 0
v -7 -4 0
v -7 -3 0
v -6 -3 0
v -5 -4 0
v -6 -4 0
v -6 -3 0
v -5 -3 0
v -4 -4 0
v -5 -4 0
v -5 -3 0
v -4 -3 0
v -3 -4 0
v -4 -4 0
v -4 -3 0
v -3 -3 0
v -2 -4 0
v -3 -4 0
v -3 -3 0
v -2 -3 0
v -1 -4 0
v -2 -4 0
v -2 -3 0
v -1 -3 0
v -28 -5 0
v -29 -5 0
v -29 -4 0
v -28 -4 0
v -27 -5 0
v -28 -5 0
v -28 -4 0
v -27 -4 0
v -2 -5 0
v -3 -5 0
v -3 -4 0
v -2 -4 0
v -1 -5 0
v -2 -5 0
v -2 -4 0
v -1 -4 0
v -28 -6 0
v -29 -6 0
v -29 -5 0
v -28 -5 0
v -27 -6 0
v -28 -6 0
v -28 -5 0
v -27 -5 0
v -2 -6 0
v -3 -6 0
v -3 -5 0
v -2 -5 0
v -1 -6 0
v -2 -6 0
v -2 -5 0
v -1 -5 0
v -28 -7 0
v -29 -7 0
v -29 -6 0
v -28 -6 0
v -27 -7 0
v -28 -7 0
v -28 -6 0
v -27 -6 0
v -2 -7 0
v -3 -7 0
v -3 -6 0
v -2 -6 0
v -1 -7 0
v -2 -7 0
v -2 -6 0
v -1 -6 0
v -28 -8 0
v -29 -8 0
v -29 -7 0
v -28 -7 0
v -27 -8 0
v -28 -8 0
v -28 -7 0
v -27 -7 0
v -2 -8 0
v -3 -8 0
v -3 -7 0
v -2 -7 0
v -1 -8 0
v -2 -8 0
v -2 -7 0
v -1 -7 0
v -28 -9 0
v -29 -9 0
v -29 -8 0
v -28 -8 0
v -27 -9 0
v -28 -9 0
v -28 -8 0
v -27 -8 0
v -2 -9 0
v -3 -9 0
v -3 -8 0
v -2 -8 0
v -1 -9 0
v -2 -9 0
v -2 -8 0
v -1 -8 0
v -28 -10 0
v -29 -10 0
v -29 -9 0
v -28 -9 0
v -27 -10 0
v -28 -10 0
v -28 -9 0
v -27 -9 0
v -2 -10 0
v -3 -10 0
v -3 -9 0
v -2 -9 0
v -1 -10 0
v -2 -10 0
v -2 -9 0
v -1 -9 0
v -28 -11 0
v -29 -11 0
v -29 -10 0
v -28 -10 0
v -27 -11 0
v -28 -11 0
v -28 -10 0
v -27 -10 0
v -2 -11 0
v -3 -11 0
v -3 -10 0
v -2 -10 0
v -1 -11 0
v -2 -11 0
v -2 -10 0
v -1 -10 0
v -28 -12 0
v -29 -12 0
v -29 -11 0
v -28 -11 0
v -27 -12 0
v -28 -12 0
v -28 -11 0
v -27 -11 0
v -2 -12 0
v -3 -12 0
v -3 -11 0
v -2 -11 0
v -1 -12 0
v -2 -12 0
v -2 -11 0
v -1 -11 0
v -28 -13 0
v -29 -13 0
v -29 -12 0
v -28 -12 0
v -27 -13 0
v -28 -13 0
v -28 -12 0
v -27 -12 0
v -2 -13 0
v -3 -13 0
v -3 -12 0
v -2 -12 0
v -1 -13 0
v -2 -13 0
v -2 -12 0
v -1 -12 0
v -28 -16 0
v -29 -16 0
v -29 -15 0
v -28 -15 0
v -27 -16 0
v -28 -16 0
v -28 -15 0
v -27 -15 0
v -2 -16 0
v -3 -16 0
v -3 -15 0
v -2 -15 0
v -1 -16 0
v -2 -16 0
v -2 -15 0
v -1 -15 0
v -28 -17 0
v -29 -17 0
v -29 -16 0
v -28 -16 0
v -27 -17 0
v -28 -17 0
v -28 -16 0
v -27 -16 0
v -2 -17 0
v -3 -17 0
v -3 -16 0
v -2 -16 0
v -1 -17 0
v -2 -17 0
v -2 -16 0
v -1 -16 0
v -28 -18 0
v -29 -18 0
v -29 -17 0
v -28 -17 0
v -27 -18 0
v -28 -18 0
v -28 -17 0
v -27 -17 0
v -2 -18 0
v -3 -18 0
v -3 -17 0
v -2 -17 0
v -1 -18 0
v -2 -18 0
v -2 -17 0
v -1 -17 0
v -28 -21 0
v -29 -21 0
v -29 -20 0
v -28 -20 0
v -27 -21 0
v -28 -21 0
v -28 -20 0
v -27 -20 0
v -2 -21 0
v -3 -21 0
v -3 -20 0
v -2 -20 0
v -1 -21 0
v -2 -21 0
v -2 -20 0
v -1 -20 0
v -28 -22 0
v -29 -22 0
v -29 -21 0
v -28 -21 0
v -27 -22 0
v -28 -22 0
v -28 -21 0
v -27 -21 0
v -2 -22 0
v -3 -22 0
v -3 -21 0
v -2 -21 0
v -1 -22 0
v -2 -22 0
v -2 -21 0
v -1 -21 0
v -28 -23 0
v -29 -23 0
v -29 -22 0
v -28 -22 0
v -27 -23 0
v -28 -23 0
v -28 -22 0
v -27 -22 0
v -2 -23 0
v -3 -23 0
v -3 -22 0
v -2 -22 0
v -1 -23 0
v -2 -23 0
v -2 -22 0
v -1 -22 0
v -28 -24 0
v -29 -24 0
v -29 -23 0
v -28 -23 0
v -27 -24 0
v -28 -24 0
v -28 -23 0
v -27 -23 0
v -2 -24 0
v -3 -24 0
v -3 -23 0
v -2 -23 0
v -1 -24 0
v -2 -24 0
v -2 -23 0
v -1 -23 0
v -28 -25 0
v -29 -25 0
v -29 -24 0
v -28 -24 0
v -27 -25 0
v -28 -25 0
v -28 -24 0
v -27 -24 0
v -2 -25 0
v -3 -25 0
v -3 -24 0
v -2 -24 0
v -1 -25 0
v -2 -25 0
v -2 -24 0
v -1 -24 0
v -28 -26 0
v -29 -26 0
v -29 -25 0
v -28 -25 0
v -27 -26 0
v -28 -26 0
v -28 -25 0
v -27 -25 0
v -2 -26 0
v -3 -26 0
v -3 -25 0
v -2 -25 0
v -1 -26 0
v -2 -26 0
v -2 -25 0
v -1 -25 0
v -28 -27 0
v -29 -27 0
v -29 -26 0
v -28 -26 0
v -27 -27 0
v -28 -27 0
v -28 -26 0
v -27 -26 0
v -2 -27 0
v -3 -27 0
v -3 -26 0
v -2 -26 0
v -1 -27 0
v -2 -27 0
v -2 -26 0
v -1 -26 0
v -28 -28 0
v -29 -28 0
v -29 -27 0
v -28 -27 0
v -27 -28 0
v -28 -28 0
v -28 -27 0
v -27 -27 0
v -26 -28 0
v -27 -28 0
v -27 -27 0
v -26 -27 0
v -25 -28 0
v -26 -28 0
v -26 -27 0
v -25 -27 0
v -24 -28 0
v -25 -28 0
v -25 -27 0
v -24 -27 0
v -23 -28 0
v -24 -28 0
v -24 -27 0
v -23 -27 0
v -20 -28 0
v -21 -28 0
v -21 -27 0
v -20 -27 0
v -19 -28 0
v -20 -28 0
v -20 -27 0
v -19 -27 0
v -18 -28 0
v -19 -28 0
v -19 -27 0
v -18 -27 0
v -17 -28 0
v -18 -28 0
v -18 -27 0
v -17 -27 0
v -16 -28 0
v -17 -28 0
v -17 -27 0
v -16 -27 0
v -15 -28 0
v -16 -28 0
v -16 -27 0
v -15 -27 0
v -14 -28 0
v -15 -28 0
v -15 -27 0
v -14 -27 0
v -13 -28 0
v -14 -28 0
v -14 -27 0
v -13 -27 0
v -12 -28 0
v -13 -28 0
v -13 -27 0
v -12 -27 0
v -11 -28 0
v -12 -28 0
v -12 -27 0
v -11 -27 0
v -10 -28 0
v -11 -28 0
v -11 -27 0
v -10 -27 0
v -9 -28 0
v -10 -28 0
v -10 -27 0
v -9 -27 0
v -6 -28 0
v -7 -28 0
v -7 -27 0
v -6 -27 0
v -5 -28 0
v -6 -28 0
v -6 -27 0
v -5 -27 0
v -4 -28 0
v -5 -28 0
v -5 -27 0
v -4 -27 0
v -3 -28 0
v -4 -28 0
v -4 -27 0
v -3 -27 0
v -2 -28 0
v -3 -28 0
v -3 -27 0
v -2 -27 0
v -1 -28 0
v -2 -28 0
v -2 -27 0
v -1 -27 0
v -28 -29 0
v -29 -29 0
v -29 -28 0
v -28 -28 0
v -27 -29 0
v -28 -29 0
v -28 -28 0
v -27 -28 0
v -26 -29 0
v -27 -29 0
v -27 -28 0
v -26 -28 0
v -25 -29 0
v -26 -29 0
v -26 -28 0
v -25 -28 0
v -24 -29 0
v -25 -29 0
v -25 -28 0
v -24 -28 0
v -23 -29 0
v -24 -29 0
v -24 -28 0
v -23 -28 0
v -20 -29 0
v -21 -29 0
v -21 -28 0
v -20 -28 0
v -19 -29 0
v -20 -29 0
v -20 -28 0
v -19 -28 0
v -18 -29 0
v -19 -29 0
v -19 -28 0
v -18 -28 0
v -17 -29 0
v -18 -29 0
v -18 -28 0
v -17 -28 0
v -16 -29 0
v -17 -29 0
v -17 -28 0
v -16 -28 0
v -15 -29 0
v -16 -29 0
v -16 -28 0
v -15 -28 0
v -14 -29 0
v -15 -29 0
v -15 -28 0
v -14 -28 0
v -13 -29 0
v -14 -29 0
v -14 -28 0
v -13 -28 0
v -12 -29 0
v -13 -29 0
v -13 -28 0
v -12 -28 0
v -11 -29 0
v -12 -29 0
v -12 -28 0
v -11 -28 0
v -10 -29 0
v -11 -29 0
v -11 -28 0
v -10 -28 0
v -9 -29 0
v -10 -29 0
v -10 -28 0
v -9 -28 0
v -6 -29 0
v -7 -29 0
v -7 -28 0
v -6 -28 0
v -5 -29 0
v -6 -29 0
v -6 -28 0
v -5 -28 0
v -4 -29 0
v -5 -29 0
v -5 -28 0
v -4 -28 0
v -3 -29 0
v -4 -29 0
v -4 -28 0
v -3 -28 0
v -2 -29 0
v -3 -29 0
v -3 -28 0
v -2 -28 0
v -1 -29 0
v -2 -29 0
v -2 -28 0
v -1 -28 0

# Texture cooridinates (Count = 22)
vt 0.05 0.92
vt 0.075 0.92
vt 0.075 0.96
vt 0.05 0.96
vt 0.025 0.92
vt 0.025 0.96
vt 0.1 0.92
vt 0.1 0.96
vt 0.125 0.96
vt 0.15 0.96
vt 0.15 1
vt 0.125 1
vt 0.075 1
vt 0.05 1
vt 0.025 0.88
vt 0.05 0.88
vt 0.075 0.88
vt 0.1 0.88
vt 0.1 1
vt 0.025 1
vt 0.125 0.92
vt 0.15 0.92

# Normal
vn 0 0 -1

# Mesh description
g LOBBY2_mesh_0003

# Faces
f 1/1/1 2/2/1 3/3/1 4/4/1
f 5/1/1 6/2/1 7/3/1 8/4/1
f 9/1/1 10/2/1 11/3/1 12/4/1
f 13/1/1 14/2/1 15/3/1 16/4/1
f 17/1/1 18/2/1 19/3/1 20/4/1
f 21/5/1 22/1/1 23/4/1 24/6/1
f 25/2/1 26/7/1 27/8/1 28/3/1
f 29/1/1 30/2/1 31/3/1 32/4/1
f 33/1/1 34/2/1 35/3/1 36/4/1
f 37/1/1 38/2/1 39/3/1 40/4/1
f 41/1/1 42/2/1 43/3/1 44/4/1
f 45/1/1 46/2/1 47/3/1 48/4/1
f 49/1/1 50/2/1 51/3/1 52/4/1
f 53/1/1 54/2/1 55/3/1 56/4/1
f 57/1/1 58/2/1 59/3/1 60/4/1
f 61/1/1 62/2/1 63/3/1 64/4/1
f 65/1/1 66/2/1 67/3/1 68/4/1
f 69/5/1 70/1/1 71/4/1 72/6/1
f 73/2/1 74/7/1 75/8/1 76/3/1
f 77/1/1 78/2/1 79/3/1 80/4/1
f 81/1/1 82/2/1 83/3/1 84/4/1
f 85/1/1 86/2/1 87/3/1 88/4/1
f 89/1/1 90/2/1 91/3/1 92/4/1
f 93/1/1 94/2/1 95/3/1 96/4/1
f 97/1/1 98/2/1 99/3/1 100/4/1
f 101/1/1 102/2/1 103/3/1 104/4/1
f 105/1/1 106/2/1 107/3/1 108/4/1
f 109/1/1 110/2/1 111/3/1 112/4/1
f 113/1/1 114/2/1 115/3/1 116/4/1
f 117/5/1 118/1/1 119/4/1 120/6/1
f 121/2/1 122/7/1 123/8/1 124/3/1
f 125/1/1 126/2/1 127/3/1 128/4/1
f 129/1/1 130/2/1 131/3/1 132/4/1
f 133/1/1 134/2/1 135/3/1 136/4/1
f 137/1/1 138/2/1 139/3/1 140/4/1
f 141/1/1 142/2/1 143/3/1 144/4/1
f 145/1/1 146/2/1 147/3/1 148/4/1
f 149/1/1 150/2/1 151/3/1 152/4/1
f 153/1/1 154/2/1 155/3/1 156/4/1
f 157/1/1 158/2/1 159/3/1 160/4/1
f 161/1/1 162/2/1 163/3/1 164/4/1
f 165/5/1 166/1/1 167/4/1 168/6/1
f 169/2/1 170/7/1 171/8/1 172/3/1
f 173/1/1 174/2/1 175/3/1 176/4/1
f 177/1/1 178/2/1 179/3/1 180/4/1
f 181/1/1 182/2/1 183/3/1 184/4/1
f 185/1/1 186/2/1 187/3/1 188/4/1
f 189/1/1 190/2/1 191/3/1 192/4/1
f 193/1/1 194/2/1 195/3/1 196/4/1
f 197/9/1 198/10/1 199/11/1 200/12/1
f 201/13/1 202/14/1 203/4/1 204/3/1
f 205/13/1 206/14/1 207/4/1 208/3/1
f 209/13/1 210/14/1 211/4/1 212/3/1
f 213/15/1 214/16/1 215/1/1 216/5/1
f 217/17/1 218/18/1 219/7/1 220/2/1
f 221/13/1 222/14/1 223/4/1 224/3/1
f 225/13/1 226/14/1 227/4/1 228/3/1
f 229/13/1 230/14/1 231/4/1 232/3/1
f 233/13/1 234/14/1 235/4/1 236/3/1
f 237/13/1 238/14/1 239/4/1 240/3/1
f 241/13/1 242/14/1 243/4/1 244/3/1
f 245/13/1 246/14/1 247/4/1 248/3/1
f 249/13/1 250/14/1 251/4/1 252/3/1
f 253/13/1 254/14/1 255/4/1 256/3/1
f 257/13/1 258/14/1 259/4/1 260/3/1
f 261/15/1 262/16/1 263/1/1 264/5/1
f 265/17/1 266/18/1 267/7/1 268/2/1
f 269/13/1 270/14/1 271/4/1 272/3/1
f 273/13/1 274/14/1 275/4/1 276/3/1
f 277/13/1 278/14/1 279/4/1 280/3/1
f 281/8/1 282/9/1 283/12/1 284/19/1
f 285/1/1 286/2/1 287/3/1 288/4/1
f 289/1/1 290/2/1 291/3/1 292/4/1
f 293/5/1 294/1/1 295/4/1 296/6/1
f 297/3/1 298/13/1 299/14/1 300/4/1
f 301/1/1 302/2/1 303/3/1 304/4/1
f 305/1/1 306/2/1 307/3/1 308/4/1
f 309/5/1 310/1/1 311/4/1 312/6/1
f 313/3/1 314/13/1 315/14/1 316/4/1
f 317/1/1 318/2/1 319/3/1 320/4/1
f 321/1/1 322/2/1 323/3/1 324/4/1
f 325/5/1 326/1/1 327/4/1 328/6/1
f 329/3/1 330/13/1 331/14/1 332/4/1
f 333/1/1 334/2/1 335/3/1 336/4/1
f 337/1/1 338/2/1 339/3/1 340/4/1
f 341/5/1 342/1/1 343/4/1 344/6/1
f 345/3/1 346/13/1 347/14/1 348/4/1
f 349/1/1 350/2/1 351/3/1 352/4/1
f 353/1/1 354/2/1 355/3/1 356/4/1
f 357/5/1 358/1/1 359/4/1 360/6/1
f 361/3/1 362/13/1 363/14/1 364/4/1
f 365/1/1 366/2/1 367/3/1 368/4/1
f 369/1/1 370/2/1 371/3/1 372/4/1
f 373/5/1 374/1/1 375/4/1 376/6/1
f 377/3/1 378/13/1 379/14/1 380/4/1
f 381/1/1 382/2/1 383/3/1 384/4/1
f 385/1/1 386/2/1 387/3/1 388/4/1
f 389/5/1 390/1/1 391/4/1 392/6/1
f 393/3/1 394/13/1 395/14/1 396/4/1
f 397/1/1 398/2/1 399/3/1 400/4/1
f 401/1/1 402/2/1 403/3/1 404/4/1
f 405/5/1 406/1/1 407/4/1 408/6/1
f 409/3/1 410/13/1 411/14/1 412/4/1
f 413/1/1 414/2/1 415/3/1 416/4/1
f 417/16/1 418/17/1 419/2/1 420/1/1
f 421/15/1 422/16/1 423/1/1 424/5/1
f 425/17/1 426/18/1 427/7/1 428/2/1
f 429/16/1 430/17/1 431/2/1 432/1/1
f 433/4/1 434/3/1 435/13/1 436/14/1
f 437/6/1 438/4/1 439/14/1 440/20/1
f 441/3/1 442/8/1 443/19/1 444/13/1
f 445/4/1 446/3/1 447/13/1 448/14/1
f 449/1/1 450/2/1 451/3/1 452/4/1
f 453/5/1 454/1/1 455/4/1 456/6/1
f 457/3/1 458/13/1 459/14/1 460/4/1
f 461/1/1 462/2/1 463/3/1 464/4/1
f 465/16/1 466/17/1 467/2/1 468/1/1
f 469/15/1 470/16/1 471/1/1 472/5/1
f 473/17/1 474/18/1 475/7/1 476/2/1
f 477/16/1 478/17/1 479/2/1 480/1/1
f 481/4/1 482/3/1 483/13/1 484/14/1
f 485/6/1 486/4/1 487/14/1 488/20/1
f 489/3/1 490/8/1 491/19/1 492/13/1
f 493/4/1 494/3/1 495/13/1 496/14/1
f 497/1/1 498/2/1 499/3/1 500/4/1
f 501/5/1 502/1/1 503/4/1 504/6/1
f 505/3/1 506/13/1 507/14/1 508/4/1
f 509/1/1 510/2/1 511/3/1 512/4/1
f 513/1/1 514/2/1 515/3/1 516/4/1
f 517/5/1 518/1/1 519/4/1 520/6/1
f 521/3/1 522/13/1 523/14/1 524/4/1
f 525/1/1 526/2/1 527/3/1 528/4/1
f 529/1/1 530/2/1 531/3/1 532/4/1
f 533/5/1 534/1/1 535/4/1 536/6/1
f 537/3/1 538/13/1 539/14/1 540/4/1
f 541/1/1 542/2/1 543/3/1 544/4/1
f 545/1/1 546/2/1 547/3/1 548/4/1
f 549/5/1 550/1/1 551/4/1 552/6/1
f 553/3/1 554/13/1 555/14/1 556/4/1
f 557/1/1 558/2/1 559/3/1 560/4/1
f 561/1/1 562/2/1 563/3/1 564/4/1
f 565/5/1 566/1/1 567/4/1 568/6/1
f 569/3/1 570/13/1 571/14/1 572/4/1
f 573/1/1 574/2/1 575/3/1 576/4/1
f 577/1/1 578/2/1 579/3/1 580/4/1
f 581/5/1 582/1/1 583/4/1 584/6/1
f 585/3/1 586/13/1 587/14/1 588/4/1
f 589/1/1 590/2/1 591/3/1 592/4/1
f 593/1/1 594/2/1 595/3/1 596/4/1
f 597/21/1 598/22/1 599/10/1 600/9/1
f 601/4/1 602/3/1 603/13/1 604/14/1
f 605/4/1 606/3/1 607/13/1 608/14/1
f 609/4/1 610/3/1 611/13/1 612/14/1
f 613/6/1 614/4/1 615/14/1 616/20/1
f 617/3/1 618/8/1 619/19/1 620/13/1
f 621/4/1 622/3/1 623/13/1 624/14/1
f 625/4/1 626/3/1 627/13/1 628/14/1
f 629/4/1 630/3/1 631/13/1 632/14/1
f 633/4/1 634/3/1 635/13/1 636/14/1
f 637/4/1 638/3/1 639/13/1 640/14/1
f 641/4/1 642/3/1 643/13/1 644/14/1
f 645/4/1 646/3/1 647/13/1 648/14/1
f 649/4/1 650/3/1 651/13/1 652/14/1
f 653/4/1 654/3/1 655/13/1 656/14/1
f 657/4/1 658/3/1 659/13/1 660/14/1
f 661/6/1 662/4/1 663/14/1 664/20/1
f 665/3/1 666/8/1 667/19/1 668/13/1
f 669/4/1 670/3/1 671/13/1 672/14/1
f 673/4/1 674/3/1 675/13/1 676/14/1
f 677/4/1 678/3/1 679/13/1 680/14/1
f 681/7/1 682/21/1 683/9/1 684/8/1
f 685/1/1 686/2/1 687/3/1 688/4/1
f 689/1/1 690/2/1 691/3/1 692/4/1
f 693/1/1 694/2/1 695/3/1 696/4/1
f 697/1/1 698/2/1 699/3/1 700/4/1
f 701/1/1 702/2/1 703/3/1 704/4/1
f 705/1/1 706/2/1 707/3/1 708/4/1
f 709/5/1 710/1/1 711/4/1 712/6/1
f 713/2/1 714/7/1 715/8/1 716/3/1
f 717/1/1 718/2/1 719/3/1 720/4/1
f 721/1/1 722/2/1 723/3/1 724/4/1
f 725/1/1 726/2/1 727/3/1 728/4/1
f 729/1/1 730/2/1 731/3/1 732/4/1
f 733/1/1 734/2/1 735/3/1 736/4/1
f 737/1/1 738/2/1 739/3/1 740/4/1
f 741/1/1 742/2/1 743/3/1 744/4/1
f 745/1/1 746/2/1 747/3/1 748/4/1
f 749/1/1 750/2/1 751/3/1 752/4/1
f 753/1/1 754/2/1 755/3/1 756/4/1
f 757/5/1 758/1/1 759/4/1 760/6/1
f 761/2/1 762/7/1 763/8/1 764/3/1
f 765/1/1 766/2/1 767/3/1 768/4/1
f 769/1/1 770/2/1 771/3/1 772/4/1
f 773/1/1 774/2/1 775/3/1 776/4/1
f 777/1/1 778/2/1 779/3/1 780/4/1
f 781/1/1 782/2/1 783/3/1 784/4/1

