# Tiled2Unity generated file. Do not modify by hand.
# Wavefront file for 'CLAROOM3_mesh_0008.obj'

# Vertices (Count = 104)
v -4 -16 0
v -5 -16 0
v -5 -15 0
v -4 -15 0
v -3 -16 0
v -4 -16 0
v -4 -15 0
v -3 -15 0
v -4 -17 0
v -5 -17 0
v -5 -16 0
v -4 -16 0
v -3 -17 0
v -4 -17 0
v -4 -16 0
v -3 -16 0
v -4 -18 0
v -5 -18 0
v -5 -17 0
v -4 -17 0
v -3 -18 0
v -4 -18 0
v -4 -17 0
v -3 -17 0
v -4 -20 0
v -5 -20 0
v -5 -19 0
v -4 -19 0
v -3 -20 0
v -4 -20 0
v -4 -19 0
v -3 -19 0
v -4 -21 0
v -5 -21 0
v -5 -20 0
v -4 -20 0
v -3 -21 0
v -4 -21 0
v -4 -20 0
v -3 -20 0
v -4 -22 0
v -5 -22 0
v -5 -21 0
v -4 -21 0
v -3 -22 0
v -4 -22 0
v -4 -21 0
v -3 -21 0
v -9 -24 0
v -10 -24 0
v -10 -23 0
v -9 -23 0
v -8 -24 0
v -9 -24 0
v -9 -23 0
v -8 -23 0
v -4 -24 0
v -5 -24 0
v -5 -23 0
v -4 -23 0
v -3 -24 0
v -4 -24 0
v -4 -23 0
v -3 -23 0
v -9 -25 0
v -10 -25 0
v -10 -24 0
v -9 -24 0
v -8 -25 0
v -9 -25 0
v -9 -24 0
v -8 -24 0
v -4 -25 0
v -5 -25 0
v -5 -24 0
v -4 -24 0
v -3 -25 0
v -4 -25 0
v -4 -24 0
v -3 -24 0
v -9 -26 0
v -10 -26 0
v -10 -25 0
v -9 -25 0
v -8 -26 0
v -9 -26 0
v -9 -25 0
v -8 -25 0
v -4 -26 0
v -5 -26 0
v -5 -25 0
v -4 -25 0
v -3 -26 0
v -4 -26 0
v -4 -25 0
v -3 -25 0
v -9 -27 0
v -10 -27 0
v -10 -26 0
v -9 -26 0
v -8 -27 0
v -9 -27 0
v -9 -26 0
v -8 -26 0

# Texture cooridinates (Count = 31)
vt 0.3 0.92
vt 0.325 0.92
vt 0.325 0.96
vt 0.3 0.96
vt 0.25 0.92
vt 0.275 0.92
vt 0.275 0.96
vt 0.25 0.96
vt 0.3 0.88
vt 0.325 0.88
vt 0.25 0.88
vt 0.275 0.88
vt 0.3 0.84
vt 0.325 0.84
vt 0.25 0.84
vt 0.275 0.84
vt 0.175 0.48
vt 0.2 0.48
vt 0.2 0.52
vt 0.175 0.52
vt 0.15 0.48
vt 0.15 0.52
vt 0.175 0.44
vt 0.2 0.44
vt 0.15 0.44
vt 0.175 0.4
vt 0.2 0.4
vt 0.15 0.4
vt 0.175 0.36
vt 0.2 0.36
vt 0.15 0.36

# Normal
vn 0 0 -1

# Mesh description
g CLAROOM3_mesh_0008

# Faces
f 1/1/1 2/2/1 3/3/1 4/4/1
f 5/5/1 6/6/1 7/7/1 8/8/1
f 9/9/1 10/10/1 11/2/1 12/1/1
f 13/11/1 14/12/1 15/6/1 16/5/1
f 17/13/1 18/14/1 19/10/1 20/9/1
f 21/15/1 22/16/1 23/12/1 24/11/1
f 25/1/1 26/2/1 27/3/1 28/4/1
f 29/5/1 30/6/1 31/7/1 32/8/1
f 33/9/1 34/10/1 35/2/1 36/1/1
f 37/11/1 38/12/1 39/6/1 40/5/1
f 41/13/1 42/14/1 43/10/1 44/9/1
f 45/15/1 46/16/1 47/12/1 48/11/1
f 49/17/1 50/18/1 51/19/1 52/20/1
f 53/21/1 54/17/1 55/20/1 56/22/1
f 57/1/1 58/2/1 59/3/1 60/4/1
f 61/5/1 62/6/1 63/7/1 64/8/1
f 65/23/1 66/24/1 67/18/1 68/17/1
f 69/25/1 70/23/1 71/17/1 72/21/1
f 73/9/1 74/10/1 75/2/1 76/1/1
f 77/11/1 78/12/1 79/6/1 80/5/1
f 81/26/1 82/27/1 83/24/1 84/23/1
f 85/28/1 86/26/1 87/23/1 88/25/1
f 89/13/1 90/14/1 91/10/1 92/9/1
f 93/15/1 94/16/1 95/12/1 96/11/1
f 97/29/1 98/30/1 99/27/1 100/26/1
f 101/31/1 102/29/1 103/26/1 104/28/1

