# Tiled2Unity generated file. Do not modify by hand.
# Wavefront file for 'Room3(COS)_mesh_0004.obj'

# Vertices (Count = 316)
v -16 -2 0
v -17 -2 0
v -17 -1 0
v -16 -1 0
v -15 -2 0
v -16 -2 0
v -16 -1 0
v -15 -1 0
v -14 -2 0
v -15 -2 0
v -15 -1 0
v -14 -1 0
v -13 -2 0
v -14 -2 0
v -14 -1 0
v -13 -1 0
v -12 -2 0
v -13 -2 0
v -13 -1 0
v -12 -1 0
v -11 -2 0
v -12 -2 0
v -12 -1 0
v -11 -1 0
v -10 -2 0
v -11 -2 0
v -11 -1 0
v -10 -1 0
v -6 -2 0
v -7 -2 0
v -7 -1 0
v -6 -1 0
v -5 -2 0
v -6 -2 0
v -6 -1 0
v -5 -1 0
v -4 -2 0
v -5 -2 0
v -5 -1 0
v -4 -1 0
v -3 -2 0
v -4 -2 0
v -4 -1 0
v -3 -1 0
v -16 -3 0
v -17 -3 0
v -17 -2 0
v -16 -2 0
v -15 -3 0
v -16 -3 0
v -16 -2 0
v -15 -2 0
v -14 -3 0
v -15 -3 0
v -15 -2 0
v -14 -2 0
v -13 -3 0
v -14 -3 0
v -14 -2 0
v -13 -2 0
v -12 -3 0
v -13 -3 0
v -13 -2 0
v -12 -2 0
v -11 -3 0
v -12 -3 0
v -12 -2 0
v -11 -2 0
v -10 -3 0
v -11 -3 0
v -11 -2 0
v -10 -2 0
v -6 -3 0
v -7 -3 0
v -7 -2 0
v -6 -2 0
v -5 -3 0
v -6 -3 0
v -6 -2 0
v -5 -2 0
v -4 -3 0
v -5 -3 0
v -5 -2 0
v -4 -2 0
v -3 -3 0
v -4 -3 0
v -4 -2 0
v -3 -2 0
v -16 -4 0
v -17 -4 0
v -17 -3 0
v -16 -3 0
v -15 -4 0
v -16 -4 0
v -16 -3 0
v -15 -3 0
v -14 -4 0
v -15 -4 0
v -15 -3 0
v -14 -3 0
v -13 -4 0
v -14 -4 0
v -14 -3 0
v -13 -3 0
v -6 -4 0
v -7 -4 0
v -7 -3 0
v -6 -3 0
v -5 -4 0
v -6 -4 0
v -6 -3 0
v -5 -3 0
v -4 -4 0
v -5 -4 0
v -5 -3 0
v -4 -3 0
v -3 -4 0
v -4 -4 0
v -4 -3 0
v -3 -3 0
v -14 -6 0
v -15 -6 0
v -15 -5 0
v -14 -5 0
v -13 -6 0
v -14 -6 0
v -14 -5 0
v -13 -5 0
v -14 -7 0
v -15 -7 0
v -15 -6 0
v -14 -6 0
v -13 -7 0
v -14 -7 0
v -14 -6 0
v -13 -6 0
v -16 -9 0
v -17 -9 0
v -17 -8 0
v -16 -8 0
v -15 -9 0
v -16 -9 0
v -16 -8 0
v -15 -8 0
v -14 -9 0
v -15 -9 0
v -15 -8 0
v -14 -8 0
v -13 -9 0
v -14 -9 0
v -14 -8 0
v -13 -8 0
v -12 -9 0
v -13 -9 0
v -13 -8 0
v -12 -8 0
v -11 -9 0
v -12 -9 0
v -12 -8 0
v -11 -8 0
v -10 -9 0
v -11 -9 0
v -11 -8 0
v -10 -8 0
v -9 -9 0
v -10 -9 0
v -10 -8 0
v -9 -8 0
v -8 -9 0
v -9 -9 0
v -9 -8 0
v -8 -8 0
v -16 -10 0
v -17 -10 0
v -17 -9 0
v -16 -9 0
v -15 -10 0
v -16 -10 0
v -16 -9 0
v -15 -9 0
v -14 -10 0
v -15 -10 0
v -15 -9 0
v -14 -9 0
v -13 -10 0
v -14 -10 0
v -14 -9 0
v -13 -9 0
v -12 -10 0
v -13 -10 0
v -13 -9 0
v -12 -9 0
v -11 -10 0
v -12 -10 0
v -12 -9 0
v -11 -9 0
v -10 -10 0
v -11 -10 0
v -11 -9 0
v -10 -9 0
v -9 -10 0
v -10 -10 0
v -10 -9 0
v -9 -9 0
v -8 -10 0
v -9 -10 0
v -9 -9 0
v -8 -9 0
v -16 -11 0
v -17 -11 0
v -17 -10 0
v -16 -10 0
v -15 -11 0
v -16 -11 0
v -16 -10 0
v -15 -10 0
v -14 -11 0
v -15 -11 0
v -15 -10 0
v -14 -10 0
v -13 -11 0
v -14 -11 0
v -14 -10 0
v -13 -10 0
v -12 -11 0
v -13 -11 0
v -13 -10 0
v -12 -10 0
v -11 -11 0
v -12 -11 0
v -12 -10 0
v -11 -10 0
v -10 -11 0
v -11 -11 0
v -11 -10 0
v -10 -10 0
v -9 -11 0
v -10 -11 0
v -10 -10 0
v -9 -10 0
v -8 -11 0
v -9 -11 0
v -9 -10 0
v -8 -10 0
v -14 -15 0
v -15 -15 0
v -15 -14 0
v -14 -14 0
v -13 -15 0
v -14 -15 0
v -14 -14 0
v -13 -14 0
v -12 -15 0
v -13 -15 0
v -13 -14 0
v -12 -14 0
v -9 -15 0
v -10 -15 0
v -10 -14 0
v -9 -14 0
v -8 -15 0
v -9 -15 0
v -9 -14 0
v -8 -14 0
v -7 -15 0
v -8 -15 0
v -8 -14 0
v -7 -14 0
v -14 -16 0
v -15 -16 0
v -15 -15 0
v -14 -15 0
v -13 -16 0
v -14 -16 0
v -14 -15 0
v -13 -15 0
v -12 -16 0
v -13 -16 0
v -13 -15 0
v -12 -15 0
v -9 -16 0
v -10 -16 0
v -10 -15 0
v -9 -15 0
v -8 -16 0
v -9 -16 0
v -9 -15 0
v -8 -15 0
v -7 -16 0
v -8 -16 0
v -8 -15 0
v -7 -15 0
v -14 -17 0
v -15 -17 0
v -15 -16 0
v -14 -16 0
v -13 -17 0
v -14 -17 0
v -14 -16 0
v -13 -16 0
v -12 -17 0
v -13 -17 0
v -13 -16 0
v -12 -16 0
v -9 -17 0
v -10 -17 0
v -10 -16 0
v -9 -16 0
v -8 -17 0
v -9 -17 0
v -9 -16 0
v -8 -16 0
v -7 -17 0
v -8 -17 0
v -8 -16 0
v -7 -16 0

# Texture cooridinates (Count = 82)
vt 0.05 0.48
vt 0.075 0.48
vt 0.075 0.52
vt 0.05 0.52
vt 0.025 0.48
vt 0.025 0.52
vt 0 0.48
vt 0 0.52
vt 0.4 0.68
vt 0.425 0.68
vt 0.425 0.72
vt 0.4 0.72
vt 0.375 0.68
vt 0.375 0.72
vt 0.35 0.68
vt 0.35 0.72
vt 0.2 0.6
vt 0.225 0.6
vt 0.225 0.64
vt 0.2 0.64
vt 0.175 0.6
vt 0.175 0.64
vt 0.15 0.6
vt 0.15 0.64
vt 0.125 0.48
vt 0.15 0.48
vt 0.15 0.52
vt 0.125 0.52
vt 0.1 0.48
vt 0.1 0.52
vt 0.025 0.44
vt 0.05 0.44
vt 0.4 0.64
vt 0.425 0.64
vt 0.375 0.64
vt 0.35 0.64
vt 0.2 0.56
vt 0.225 0.56
vt 0.175 0.56
vt 0.15 0.56
vt 0.125 0.44
vt 0.15 0.44
vt 0.1 0.44
vt 0.025 0.4
vt 0.05 0.4
vt 0 0.4
vt 0 0.44
vt 0.2 0.52
vt 0.225 0.52
vt 0.175 0.52
vt 0.3 0.92
vt 0.325 0.92
vt 0.325 0.96
vt 0.3 0.96
vt 0.25 0.92
vt 0.275 0.92
vt 0.275 0.96
vt 0.25 0.96
vt 0.3 0.84
vt 0.325 0.84
vt 0.325 0.88
vt 0.3 0.88
vt 0.25 0.84
vt 0.275 0.84
vt 0.275 0.88
vt 0.25 0.88
vt 0.3 0.68
vt 0.325 0.68
vt 0.325 0.72
vt 0.3 0.72
vt 0.275 0.68
vt 0.275 0.72
vt 0.25 0.68
vt 0.25 0.72
vt 0.3 0.64
vt 0.325 0.64
vt 0.275 0.64
vt 0.25 0.64
vt 0.3 0.6
vt 0.325 0.6
vt 0.275 0.6
vt 0.25 0.6

# Normal
vn 0 0 -1

# Mesh description
g Room3(COS)_mesh_0004

# Faces
f 1/1/1 2/2/1 3/3/1 4/4/1
f 5/5/1 6/1/1 7/4/1 8/6/1
f 9/5/1 10/1/1 11/4/1 12/6/1
f 13/7/1 14/5/1 15/6/1 16/8/1
f 17/9/1 18/10/1 19/11/1 20/12/1
f 21/13/1 22/9/1 23/12/1 24/14/1
f 25/15/1 26/13/1 27/14/1 28/16/1
f 29/17/1 30/18/1 31/19/1 32/20/1
f 33/21/1 34/17/1 35/20/1 36/22/1
f 37/21/1 38/17/1 39/20/1 40/22/1
f 41/23/1 42/21/1 43/22/1 44/24/1
f 45/25/1 46/26/1 47/27/1 48/28/1
f 49/29/1 50/25/1 51/28/1 52/30/1
f 53/31/1 54/32/1 55/1/1 56/5/1
f 57/2/1 58/29/1 59/30/1 60/3/1
f 61/33/1 62/34/1 63/10/1 64/9/1
f 65/35/1 66/33/1 67/9/1 68/13/1
f 69/36/1 70/35/1 71/13/1 72/15/1
f 73/37/1 74/38/1 75/18/1 76/17/1
f 77/39/1 78/37/1 79/17/1 80/21/1
f 81/39/1 82/37/1 83/17/1 84/21/1
f 85/40/1 86/39/1 87/21/1 88/23/1
f 89/41/1 90/42/1 91/26/1 92/25/1
f 93/43/1 94/41/1 95/25/1 96/29/1
f 97/44/1 98/45/1 99/32/1 100/31/1
f 101/46/1 102/44/1 103/31/1 104/47/1
f 105/48/1 106/49/1 107/38/1 108/37/1
f 109/50/1 110/48/1 111/37/1 112/39/1
f 113/50/1 114/48/1 115/37/1 116/39/1
f 117/27/1 118/50/1 119/39/1 120/40/1
f 121/51/1 122/52/1 123/53/1 124/54/1
f 125/55/1 126/56/1 127/57/1 128/58/1
f 129/59/1 130/60/1 131/61/1 132/62/1
f 133/63/1 134/64/1 135/65/1 136/66/1
f 137/67/1 138/68/1 139/69/1 140/70/1
f 141/71/1 142/67/1 143/70/1 144/72/1
f 145/73/1 146/71/1 147/72/1 148/74/1
f 149/67/1 150/68/1 151/69/1 152/70/1
f 153/71/1 154/67/1 155/70/1 156/72/1
f 157/73/1 158/71/1 159/72/1 160/74/1
f 161/67/1 162/68/1 163/69/1 164/70/1
f 165/71/1 166/67/1 167/70/1 168/72/1
f 169/73/1 170/71/1 171/72/1 172/74/1
f 173/75/1 174/76/1 175/68/1 176/67/1
f 177/77/1 178/75/1 179/67/1 180/71/1
f 181/78/1 182/77/1 183/71/1 184/73/1
f 185/75/1 186/76/1 187/68/1 188/67/1
f 189/77/1 190/75/1 191/67/1 192/71/1
f 193/78/1 194/77/1 195/71/1 196/73/1
f 197/75/1 198/76/1 199/68/1 200/67/1
f 201/77/1 202/75/1 203/67/1 204/71/1
f 205/78/1 206/77/1 207/71/1 208/73/1
f 209/79/1 210/80/1 211/76/1 212/75/1
f 213/81/1 214/79/1 215/75/1 216/77/1
f 217/82/1 218/81/1 219/77/1 220/78/1
f 221/79/1 222/80/1 223/76/1 224/75/1
f 225/81/1 226/79/1 227/75/1 228/77/1
f 229/82/1 230/81/1 231/77/1 232/78/1
f 233/79/1 234/80/1 235/76/1 236/75/1
f 237/81/1 238/79/1 239/75/1 240/77/1
f 241/82/1 242/81/1 243/77/1 244/78/1
f 245/51/1 246/52/1 247/53/1 248/54/1
f 249/56/1 250/51/1 251/54/1 252/57/1
f 253/55/1 254/56/1 255/57/1 256/58/1
f 257/51/1 258/52/1 259/53/1 260/54/1
f 261/56/1 262/51/1 263/54/1 264/57/1
f 265/55/1 266/56/1 267/57/1 268/58/1
f 269/62/1 270/61/1 271/52/1 272/51/1
f 273/65/1 274/62/1 275/51/1 276/56/1
f 277/66/1 278/65/1 279/56/1 280/55/1
f 281/62/1 282/61/1 283/52/1 284/51/1
f 285/65/1 286/62/1 287/51/1 288/56/1
f 289/66/1 290/65/1 291/56/1 292/55/1
f 293/59/1 294/60/1 295/61/1 296/62/1
f 297/64/1 298/59/1 299/62/1 300/65/1
f 301/63/1 302/64/1 303/65/1 304/66/1
f 305/59/1 306/60/1 307/61/1 308/62/1
f 309/64/1 310/59/1 311/62/1 312/65/1
f 313/63/1 314/64/1 315/65/1 316/66/1

