# Tiled2Unity generated file. Do not modify by hand.
# Wavefront file for 'Room1(COS)_mesh_0006.obj'

# Vertices (Count = 192)
v -10 -1 0
v -11 -1 0
v -11 0 0
v -10 0 0
v -9 -1 0
v -10 -1 0
v -10 0 0
v -9 0 0
v -8 -1 0
v -9 -1 0
v -9 0 0
v -8 0 0
v -15 -2 0
v -16 -2 0
v -16 -1 0
v -15 -1 0
v -10 -2 0
v -11 -2 0
v -11 -1 0
v -10 -1 0
v -9 -2 0
v -10 -2 0
v -10 -1 0
v -9 -1 0
v -8 -2 0
v -9 -2 0
v -9 -1 0
v -8 -1 0
v -3 -2 0
v -4 -2 0
v -4 -1 0
v -3 -1 0
v -3 -3 0
v -4 -3 0
v -4 -2 0
v -3 -2 0
v -12 -10 0
v -13 -10 0
v -13 -9 0
v -12 -9 0
v -10 -10 0
v -11 -10 0
v -11 -9 0
v -10 -9 0
v -8 -10 0
v -9 -10 0
v -9 -9 0
v -8 -9 0
v -6 -10 0
v -7 -10 0
v -7 -9 0
v -6 -9 0
v -4 -10 0
v -5 -10 0
v -5 -9 0
v -4 -9 0
v -12 -11 0
v -13 -11 0
v -13 -10 0
v -12 -10 0
v -10 -11 0
v -11 -11 0
v -11 -10 0
v -10 -10 0
v -8 -11 0
v -9 -11 0
v -9 -10 0
v -8 -10 0
v -6 -11 0
v -7 -11 0
v -7 -10 0
v -6 -10 0
v -4 -11 0
v -5 -11 0
v -5 -10 0
v -4 -10 0
v -12 -12 0
v -13 -12 0
v -13 -11 0
v -12 -11 0
v -10 -12 0
v -11 -12 0
v -11 -11 0
v -10 -11 0
v -8 -12 0
v -9 -12 0
v -9 -11 0
v -8 -11 0
v -6 -12 0
v -7 -12 0
v -7 -11 0
v -6 -11 0
v -4 -12 0
v -5 -12 0
v -5 -11 0
v -4 -11 0
v -15 -13 0
v -16 -13 0
v -16 -12 0
v -15 -12 0
v -14 -13 0
v -15 -13 0
v -15 -12 0
v -14 -12 0
v -13 -13 0
v -14 -13 0
v -14 -12 0
v -13 -12 0
v -15 -14 0
v -16 -14 0
v -16 -13 0
v -15 -13 0
v -14 -14 0
v -15 -14 0
v -15 -13 0
v -14 -13 0
v -13 -14 0
v -14 -14 0
v -14 -13 0
v -13 -13 0
v -15 -15 0
v -16 -15 0
v -16 -14 0
v -15 -14 0
v -14 -15 0
v -15 -15 0
v -15 -14 0
v -14 -14 0
v -13 -15 0
v -14 -15 0
v -14 -14 0
v -13 -14 0
v -12 -19 0
v -13 -19 0
v -13 -18 0
v -12 -18 0
v -10 -19 0
v -11 -19 0
v -11 -18 0
v -10 -18 0
v -8 -19 0
v -9 -19 0
v -9 -18 0
v -8 -18 0
v -6 -19 0
v -7 -19 0
v -7 -18 0
v -6 -18 0
v -4 -19 0
v -5 -19 0
v -5 -18 0
v -4 -18 0
v -12 -20 0
v -13 -20 0
v -13 -19 0
v -12 -19 0
v -10 -20 0
v -11 -20 0
v -11 -19 0
v -10 -19 0
v -8 -20 0
v -9 -20 0
v -9 -19 0
v -8 -19 0
v -6 -20 0
v -7 -20 0
v -7 -19 0
v -6 -19 0
v -4 -20 0
v -5 -20 0
v -5 -19 0
v -4 -19 0
v -12 -21 0
v -13 -21 0
v -13 -20 0
v -12 -20 0
v -10 -21 0
v -11 -21 0
v -11 -20 0
v -10 -20 0
v -8 -21 0
v -9 -21 0
v -9 -20 0
v -8 -20 0
v -6 -21 0
v -7 -21 0
v -7 -20 0
v -6 -20 0
v -4 -21 0
v -5 -21 0
v -5 -20 0
v -4 -20 0

# Texture cooridinates (Count = 54)
vt 0.05 0.56
vt 0.075 0.56
vt 0.075 0.6
vt 0.05 0.6
vt 0.1 0.56
vt 0.1 0.6
vt 0.125 0.56
vt 0.125 0.6
vt 0.275 0.52
vt 0.3 0.52
vt 0.3 0.56
vt 0.275 0.56
vt 0.05 0.52
vt 0.075 0.52
vt 0.1 0.52
vt 0.125 0.52
vt 0.1 0.36
vt 0.125 0.36
vt 0.125 0.4
vt 0.1 0.4
vt 0.1 0.32
vt 0.125 0.32
vt 0.4 0.8
vt 0.425 0.8
vt 0.425 0.84
vt 0.4 0.84
vt 0.4 0.76
vt 0.425 0.76
vt 0.4 0.72
vt 0.425 0.72
vt 0.45 0.8
vt 0.475 0.8
vt 0.475 0.84
vt 0.45 0.84
vt 0.3 0.92
vt 0.325 0.92
vt 0.325 0.96
vt 0.3 0.96
vt 0.25 0.92
vt 0.275 0.92
vt 0.275 0.96
vt 0.25 0.96
vt 0.45 0.76
vt 0.475 0.76
vt 0.3 0.88
vt 0.325 0.88
vt 0.25 0.88
vt 0.275 0.88
vt 0.45 0.72
vt 0.475 0.72
vt 0.3 0.84
vt 0.325 0.84
vt 0.25 0.84
vt 0.275 0.84

# Normal
vn 0 0 -1

# Mesh description
g Room1(COS)_mesh_0006

# Faces
f 1/1/1 2/2/1 3/3/1 4/4/1
f 5/2/1 6/5/1 7/6/1 8/3/1
f 9/5/1 10/7/1 11/8/1 12/6/1
f 13/9/1 14/10/1 15/11/1 16/12/1
f 17/13/1 18/14/1 19/2/1 20/1/1
f 21/14/1 22/15/1 23/5/1 24/2/1
f 25/15/1 26/16/1 27/7/1 28/5/1
f 29/17/1 30/18/1 31/19/1 32/20/1
f 33/21/1 34/22/1 35/18/1 36/17/1
f 37/23/1 38/24/1 39/25/1 40/26/1
f 41/23/1 42/24/1 43/25/1 44/26/1
f 45/23/1 46/24/1 47/25/1 48/26/1
f 49/23/1 50/24/1 51/25/1 52/26/1
f 53/23/1 54/24/1 55/25/1 56/26/1
f 57/27/1 58/28/1 59/24/1 60/23/1
f 61/27/1 62/28/1 63/24/1 64/23/1
f 65/27/1 66/28/1 67/24/1 68/23/1
f 69/27/1 70/28/1 71/24/1 72/23/1
f 73/27/1 74/28/1 75/24/1 76/23/1
f 77/29/1 78/30/1 79/28/1 80/27/1
f 81/29/1 82/30/1 83/28/1 84/27/1
f 85/29/1 86/30/1 87/28/1 88/27/1
f 89/29/1 90/30/1 91/28/1 92/27/1
f 93/29/1 94/30/1 95/28/1 96/27/1
f 97/31/1 98/32/1 99/33/1 100/34/1
f 101/35/1 102/36/1 103/37/1 104/38/1
f 105/39/1 106/40/1 107/41/1 108/42/1
f 109/43/1 110/44/1 111/32/1 112/31/1
f 113/45/1 114/46/1 115/36/1 116/35/1
f 117/47/1 118/48/1 119/40/1 120/39/1
f 121/49/1 122/50/1 123/44/1 124/43/1
f 125/51/1 126/52/1 127/46/1 128/45/1
f 129/53/1 130/54/1 131/48/1 132/47/1
f 133/23/1 134/24/1 135/25/1 136/26/1
f 137/23/1 138/24/1 139/25/1 140/26/1
f 141/23/1 142/24/1 143/25/1 144/26/1
f 145/23/1 146/24/1 147/25/1 148/26/1
f 149/23/1 150/24/1 151/25/1 152/26/1
f 153/27/1 154/28/1 155/24/1 156/23/1
f 157/27/1 158/28/1 159/24/1 160/23/1
f 161/27/1 162/28/1 163/24/1 164/23/1
f 165/27/1 166/28/1 167/24/1 168/23/1
f 169/27/1 170/28/1 171/24/1 172/23/1
f 173/29/1 174/30/1 175/28/1 176/27/1
f 177/29/1 178/30/1 179/28/1 180/27/1
f 181/29/1 182/30/1 183/28/1 184/27/1
f 185/29/1 186/30/1 187/28/1 188/27/1
f 189/29/1 190/30/1 191/28/1 192/27/1

