# Tiled2Unity generated file. Do not modify by hand.
# Wavefront file for 'CAFAROOM5_mesh_0004.obj'

# Vertices (Count = 964)
v -26 -3 0
v -27 -3 0
v -27 -2 0
v -26 -2 0
v -25 -3 0
v -26 -3 0
v -26 -2 0
v -25 -2 0
v -24 -3 0
v -25 -3 0
v -25 -2 0
v -24 -2 0
v -23 -3 0
v -24 -3 0
v -24 -2 0
v -23 -2 0
v -22 -3 0
v -23 -3 0
v -23 -2 0
v -22 -2 0
v -21 -3 0
v -22 -3 0
v -22 -2 0
v -21 -2 0
v -20 -3 0
v -21 -3 0
v -21 -2 0
v -20 -2 0
v -19 -3 0
v -20 -3 0
v -20 -2 0
v -19 -2 0
v -18 -3 0
v -19 -3 0
v -19 -2 0
v -18 -2 0
v -17 -3 0
v -18 -3 0
v -18 -2 0
v -17 -2 0
v -16 -3 0
v -17 -3 0
v -17 -2 0
v -16 -2 0
v -15 -3 0
v -16 -3 0
v -16 -2 0
v -15 -2 0
v -14 -3 0
v -15 -3 0
v -15 -2 0
v -14 -2 0
v -13 -3 0
v -14 -3 0
v -14 -2 0
v -13 -2 0
v -12 -3 0
v -13 -3 0
v -13 -2 0
v -12 -2 0
v -11 -3 0
v -12 -3 0
v -12 -2 0
v -11 -2 0
v -10 -3 0
v -11 -3 0
v -11 -2 0
v -10 -2 0
v -9 -3 0
v -10 -3 0
v -10 -2 0
v -9 -2 0
v -8 -3 0
v -9 -3 0
v -9 -2 0
v -8 -2 0
v -7 -3 0
v -8 -3 0
v -8 -2 0
v -7 -2 0
v -6 -3 0
v -7 -3 0
v -7 -2 0
v -6 -2 0
v -5 -3 0
v -6 -3 0
v -6 -2 0
v -5 -2 0
v -4 -3 0
v -5 -3 0
v -5 -2 0
v -4 -2 0
v -3 -3 0
v -4 -3 0
v -4 -2 0
v -3 -2 0
v -26 -4 0
v -27 -4 0
v -27 -3 0
v -26 -3 0
v -25 -4 0
v -26 -4 0
v -26 -3 0
v -25 -3 0
v -24 -4 0
v -25 -4 0
v -25 -3 0
v -24 -3 0
v -23 -4 0
v -24 -4 0
v -24 -3 0
v -23 -3 0
v -22 -4 0
v -23 -4 0
v -23 -3 0
v -22 -3 0
v -21 -4 0
v -22 -4 0
v -22 -3 0
v -21 -3 0
v -20 -4 0
v -21 -4 0
v -21 -3 0
v -20 -3 0
v -19 -4 0
v -20 -4 0
v -20 -3 0
v -19 -3 0
v -18 -4 0
v -19 -4 0
v -19 -3 0
v -18 -3 0
v -17 -4 0
v -18 -4 0
v -18 -3 0
v -17 -3 0
v -16 -4 0
v -17 -4 0
v -17 -3 0
v -16 -3 0
v -15 -4 0
v -16 -4 0
v -16 -3 0
v -15 -3 0
v -14 -4 0
v -15 -4 0
v -15 -3 0
v -14 -3 0
v -13 -4 0
v -14 -4 0
v -14 -3 0
v -13 -3 0
v -12 -4 0
v -13 -4 0
v -13 -3 0
v -12 -3 0
v -11 -4 0
v -12 -4 0
v -12 -3 0
v -11 -3 0
v -10 -4 0
v -11 -4 0
v -11 -3 0
v -10 -3 0
v -9 -4 0
v -10 -4 0
v -10 -3 0
v -9 -3 0
v -8 -4 0
v -9 -4 0
v -9 -3 0
v -8 -3 0
v -7 -4 0
v -8 -4 0
v -8 -3 0
v -7 -3 0
v -6 -4 0
v -7 -4 0
v -7 -3 0
v -6 -3 0
v -5 -4 0
v -6 -4 0
v -6 -3 0
v -5 -3 0
v -4 -4 0
v -5 -4 0
v -5 -3 0
v -4 -3 0
v -3 -4 0
v -4 -4 0
v -4 -3 0
v -3 -3 0
v -26 -5 0
v -27 -5 0
v -27 -4 0
v -26 -4 0
v -25 -5 0
v -26 -5 0
v -26 -4 0
v -25 -4 0
v -24 -5 0
v -25 -5 0
v -25 -4 0
v -24 -4 0
v -23 -5 0
v -24 -5 0
v -24 -4 0
v -23 -4 0
v -22 -5 0
v -23 -5 0
v -23 -4 0
v -22 -4 0
v -21 -5 0
v -22 -5 0
v -22 -4 0
v -21 -4 0
v -20 -5 0
v -21 -5 0
v -21 -4 0
v -20 -4 0
v -19 -5 0
v -20 -5 0
v -20 -4 0
v -19 -4 0
v -18 -5 0
v -19 -5 0
v -19 -4 0
v -18 -4 0
v -17 -5 0
v -18 -5 0
v -18 -4 0
v -17 -4 0
v -16 -5 0
v -17 -5 0
v -17 -4 0
v -16 -4 0
v -15 -5 0
v -16 -5 0
v -16 -4 0
v -15 -4 0
v -14 -5 0
v -15 -5 0
v -15 -4 0
v -14 -4 0
v -13 -5 0
v -14 -5 0
v -14 -4 0
v -13 -4 0
v -12 -5 0
v -13 -5 0
v -13 -4 0
v -12 -4 0
v -11 -5 0
v -12 -5 0
v -12 -4 0
v -11 -4 0
v -10 -5 0
v -11 -5 0
v -11 -4 0
v -10 -4 0
v -9 -5 0
v -10 -5 0
v -10 -4 0
v -9 -4 0
v -8 -5 0
v -9 -5 0
v -9 -4 0
v -8 -4 0
v -7 -5 0
v -8 -5 0
v -8 -4 0
v -7 -4 0
v -6 -5 0
v -7 -5 0
v -7 -4 0
v -6 -4 0
v -5 -5 0
v -6 -5 0
v -6 -4 0
v -5 -4 0
v -4 -5 0
v -5 -5 0
v -5 -4 0
v -4 -4 0
v -3 -5 0
v -4 -5 0
v -4 -4 0
v -3 -4 0
v -21 -11 0
v -22 -11 0
v -22 -10 0
v -21 -10 0
v -20 -11 0
v -21 -11 0
v -21 -10 0
v -20 -10 0
v -19 -11 0
v -20 -11 0
v -20 -10 0
v -19 -10 0
v -18 -11 0
v -19 -11 0
v -19 -10 0
v -18 -10 0
v -17 -11 0
v -18 -11 0
v -18 -10 0
v -17 -10 0
v -16 -11 0
v -17 -11 0
v -17 -10 0
v -16 -10 0
v -15 -11 0
v -16 -11 0
v -16 -10 0
v -15 -10 0
v -14 -11 0
v -15 -11 0
v -15 -10 0
v -14 -10 0
v -13 -11 0
v -14 -11 0
v -14 -10 0
v -13 -10 0
v -12 -11 0
v -13 -11 0
v -13 -10 0
v -12 -10 0
v -11 -11 0
v -12 -11 0
v -12 -10 0
v -11 -10 0
v -10 -11 0
v -11 -11 0
v -11 -10 0
v -10 -10 0
v -9 -11 0
v -10 -11 0
v -10 -10 0
v -9 -10 0
v -21 -12 0
v -22 -12 0
v -22 -11 0
v -21 -11 0
v -20 -12 0
v -21 -12 0
v -21 -11 0
v -20 -11 0
v -19 -12 0
v -20 -12 0
v -20 -11 0
v -19 -11 0
v -18 -12 0
v -19 -12 0
v -19 -11 0
v -18 -11 0
v -17 -12 0
v -18 -12 0
v -18 -11 0
v -17 -11 0
v -16 -12 0
v -17 -12 0
v -17 -11 0
v -16 -11 0
v -15 -12 0
v -16 -12 0
v -16 -11 0
v -15 -11 0
v -14 -12 0
v -15 -12 0
v -15 -11 0
v -14 -11 0
v -13 -12 0
v -14 -12 0
v -14 -11 0
v -13 -11 0
v -12 -12 0
v -13 -12 0
v -13 -11 0
v -12 -11 0
v -11 -12 0
v -12 -12 0
v -12 -11 0
v -11 -11 0
v -10 -12 0
v -11 -12 0
v -11 -11 0
v -10 -11 0
v -9 -12 0
v -10 -12 0
v -10 -11 0
v -9 -11 0
v -21 -13 0
v -22 -13 0
v -22 -12 0
v -21 -12 0
v -20 -13 0
v -21 -13 0
v -21 -12 0
v -20 -12 0
v -19 -13 0
v -20 -13 0
v -20 -12 0
v -19 -12 0
v -18 -13 0
v -19 -13 0
v -19 -12 0
v -18 -12 0
v -17 -13 0
v -18 -13 0
v -18 -12 0
v -17 -12 0
v -16 -13 0
v -17 -13 0
v -17 -12 0
v -16 -12 0
v -15 -13 0
v -16 -13 0
v -16 -12 0
v -15 -12 0
v -14 -13 0
v -15 -13 0
v -15 -12 0
v -14 -12 0
v -13 -13 0
v -14 -13 0
v -14 -12 0
v -13 -12 0
v -12 -13 0
v -13 -13 0
v -13 -12 0
v -12 -12 0
v -11 -13 0
v -12 -13 0
v -12 -12 0
v -11 -12 0
v -10 -13 0
v -11 -13 0
v -11 -12 0
v -10 -12 0
v -9 -13 0
v -10 -13 0
v -10 -12 0
v -9 -12 0
v -21 -14 0
v -22 -14 0
v -22 -13 0
v -21 -13 0
v -20 -14 0
v -21 -14 0
v -21 -13 0
v -20 -13 0
v -19 -14 0
v -20 -14 0
v -20 -13 0
v -19 -13 0
v -18 -14 0
v -19 -14 0
v -19 -13 0
v -18 -13 0
v -17 -14 0
v -18 -14 0
v -18 -13 0
v -17 -13 0
v -16 -14 0
v -17 -14 0
v -17 -13 0
v -16 -13 0
v -15 -14 0
v -16 -14 0
v -16 -13 0
v -15 -13 0
v -14 -14 0
v -15 -14 0
v -15 -13 0
v -14 -13 0
v -13 -14 0
v -14 -14 0
v -14 -13 0
v -13 -13 0
v -12 -14 0
v -13 -14 0
v -13 -13 0
v -12 -13 0
v -11 -14 0
v -12 -14 0
v -12 -13 0
v -11 -13 0
v -10 -14 0
v -11 -14 0
v -11 -13 0
v -10 -13 0
v -9 -14 0
v -10 -14 0
v -10 -13 0
v -9 -13 0
v -21 -15 0
v -22 -15 0
v -22 -14 0
v -21 -14 0
v -20 -15 0
v -21 -15 0
v -21 -14 0
v -20 -14 0
v -19 -15 0
v -20 -15 0
v -20 -14 0
v -19 -14 0
v -18 -15 0
v -19 -15 0
v -19 -14 0
v -18 -14 0
v -17 -15 0
v -18 -15 0
v -18 -14 0
v -17 -14 0
v -16 -15 0
v -17 -15 0
v -17 -14 0
v -16 -14 0
v -15 -15 0
v -16 -15 0
v -16 -14 0
v -15 -14 0
v -14 -15 0
v -15 -15 0
v -15 -14 0
v -14 -14 0
v -13 -15 0
v -14 -15 0
v -14 -14 0
v -13 -14 0
v -12 -15 0
v -13 -15 0
v -13 -14 0
v -12 -14 0
v -11 -15 0
v -12 -15 0
v -12 -14 0
v -11 -14 0
v -10 -15 0
v -11 -15 0
v -11 -14 0
v -10 -14 0
v -9 -15 0
v -10 -15 0
v -10 -14 0
v -9 -14 0
v -21 -16 0
v -22 -16 0
v -22 -15 0
v -21 -15 0
v -20 -16 0
v -21 -16 0
v -21 -15 0
v -20 -15 0
v -19 -16 0
v -20 -16 0
v -20 -15 0
v -19 -15 0
v -18 -16 0
v -19 -16 0
v -19 -15 0
v -18 -15 0
v -17 -16 0
v -18 -16 0
v -18 -15 0
v -17 -15 0
v -16 -16 0
v -17 -16 0
v -17 -15 0
v -16 -15 0
v -15 -16 0
v -16 -16 0
v -16 -15 0
v -15 -15 0
v -14 -16 0
v -15 -16 0
v -15 -15 0
v -14 -15 0
v -13 -16 0
v -14 -16 0
v -14 -15 0
v -13 -15 0
v -12 -16 0
v -13 -16 0
v -13 -15 0
v -12 -15 0
v -11 -16 0
v -12 -16 0
v -12 -15 0
v -11 -15 0
v -10 -16 0
v -11 -16 0
v -11 -15 0
v -10 -15 0
v -9 -16 0
v -10 -16 0
v -10 -15 0
v -9 -15 0
v -21 -17 0
v -22 -17 0
v -22 -16 0
v -21 -16 0
v -20 -17 0
v -21 -17 0
v -21 -16 0
v -20 -16 0
v -19 -17 0
v -20 -17 0
v -20 -16 0
v -19 -16 0
v -18 -17 0
v -19 -17 0
v -19 -16 0
v -18 -16 0
v -17 -17 0
v -18 -17 0
v -18 -16 0
v -17 -16 0
v -16 -17 0
v -17 -17 0
v -17 -16 0
v -16 -16 0
v -15 -17 0
v -16 -17 0
v -16 -16 0
v -15 -16 0
v -14 -17 0
v -15 -17 0
v -15 -16 0
v -14 -16 0
v -13 -17 0
v -14 -17 0
v -14 -16 0
v -13 -16 0
v -12 -17 0
v -13 -17 0
v -13 -16 0
v -12 -16 0
v -11 -17 0
v -12 -17 0
v -12 -16 0
v -11 -16 0
v -10 -17 0
v -11 -17 0
v -11 -16 0
v -10 -16 0
v -9 -17 0
v -10 -17 0
v -10 -16 0
v -9 -16 0
v -21 -18 0
v -22 -18 0
v -22 -17 0
v -21 -17 0
v -20 -18 0
v -21 -18 0
v -21 -17 0
v -20 -17 0
v -19 -18 0
v -20 -18 0
v -20 -17 0
v -19 -17 0
v -18 -18 0
v -19 -18 0
v -19 -17 0
v -18 -17 0
v -17 -18 0
v -18 -18 0
v -18 -17 0
v -17 -17 0
v -16 -18 0
v -17 -18 0
v -17 -17 0
v -16 -17 0
v -15 -18 0
v -16 -18 0
v -16 -17 0
v -15 -17 0
v -14 -18 0
v -15 -18 0
v -15 -17 0
v -14 -17 0
v -13 -18 0
v -14 -18 0
v -14 -17 0
v -13 -17 0
v -12 -18 0
v -13 -18 0
v -13 -17 0
v -12 -17 0
v -11 -18 0
v -12 -18 0
v -12 -17 0
v -11 -17 0
v -10 -18 0
v -11 -18 0
v -11 -17 0
v -10 -17 0
v -9 -18 0
v -10 -18 0
v -10 -17 0
v -9 -17 0
v -21 -19 0
v -22 -19 0
v -22 -18 0
v -21 -18 0
v -20 -19 0
v -21 -19 0
v -21 -18 0
v -20 -18 0
v -19 -19 0
v -20 -19 0
v -20 -18 0
v -19 -18 0
v -18 -19 0
v -19 -19 0
v -19 -18 0
v -18 -18 0
v -17 -19 0
v -18 -19 0
v -18 -18 0
v -17 -18 0
v -16 -19 0
v -17 -19 0
v -17 -18 0
v -16 -18 0
v -15 -19 0
v -16 -19 0
v -16 -18 0
v -15 -18 0
v -14 -19 0
v -15 -19 0
v -15 -18 0
v -14 -18 0
v -13 -19 0
v -14 -19 0
v -14 -18 0
v -13 -18 0
v -12 -19 0
v -13 -19 0
v -13 -18 0
v -12 -18 0
v -11 -19 0
v -12 -19 0
v -12 -18 0
v -11 -18 0
v -10 -19 0
v -11 -19 0
v -11 -18 0
v -10 -18 0
v -9 -19 0
v -10 -19 0
v -10 -18 0
v -9 -18 0
v -21 -20 0
v -22 -20 0
v -22 -19 0
v -21 -19 0
v -20 -20 0
v -21 -20 0
v -21 -19 0
v -20 -19 0
v -19 -20 0
v -20 -20 0
v -20 -19 0
v -19 -19 0
v -18 -20 0
v -19 -20 0
v -19 -19 0
v -18 -19 0
v -17 -20 0
v -18 -20 0
v -18 -19 0
v -17 -19 0
v -16 -20 0
v -17 -20 0
v -17 -19 0
v -16 -19 0
v -15 -20 0
v -16 -20 0
v -16 -19 0
v -15 -19 0
v -14 -20 0
v -15 -20 0
v -15 -19 0
v -14 -19 0
v -13 -20 0
v -14 -20 0
v -14 -19 0
v -13 -19 0
v -12 -20 0
v -13 -20 0
v -13 -19 0
v -12 -19 0
v -11 -20 0
v -12 -20 0
v -12 -19 0
v -11 -19 0
v -10 -20 0
v -11 -20 0
v -11 -19 0
v -10 -19 0
v -9 -20 0
v -10 -20 0
v -10 -19 0
v -9 -19 0
v -21 -21 0
v -22 -21 0
v -22 -20 0
v -21 -20 0
v -20 -21 0
v -21 -21 0
v -21 -20 0
v -20 -20 0
v -19 -21 0
v -20 -21 0
v -20 -20 0
v -19 -20 0
v -18 -21 0
v -19 -21 0
v -19 -20 0
v -18 -20 0
v -17 -21 0
v -18 -21 0
v -18 -20 0
v -17 -20 0
v -16 -21 0
v -17 -21 0
v -17 -20 0
v -16 -20 0
v -15 -21 0
v -16 -21 0
v -16 -20 0
v -15 -20 0
v -14 -21 0
v -15 -21 0
v -15 -20 0
v -14 -20 0
v -13 -21 0
v -14 -21 0
v -14 -20 0
v -13 -20 0
v -12 -21 0
v -13 -21 0
v -13 -20 0
v -12 -20 0
v -11 -21 0
v -12 -21 0
v -12 -20 0
v -11 -20 0
v -10 -21 0
v -11 -21 0
v -11 -20 0
v -10 -20 0
v -9 -21 0
v -10 -21 0
v -10 -20 0
v -9 -20 0
v -21 -22 0
v -22 -22 0
v -22 -21 0
v -21 -21 0
v -20 -22 0
v -21 -22 0
v -21 -21 0
v -20 -21 0
v -19 -22 0
v -20 -22 0
v -20 -21 0
v -19 -21 0
v -18 -22 0
v -19 -22 0
v -19 -21 0
v -18 -21 0
v -17 -22 0
v -18 -22 0
v -18 -21 0
v -17 -21 0
v -16 -22 0
v -17 -22 0
v -17 -21 0
v -16 -21 0
v -15 -22 0
v -16 -22 0
v -16 -21 0
v -15 -21 0
v -14 -22 0
v -15 -22 0
v -15 -21 0
v -14 -21 0
v -13 -22 0
v -14 -22 0
v -14 -21 0
v -13 -21 0
v -12 -22 0
v -13 -22 0
v -13 -21 0
v -12 -21 0
v -11 -22 0
v -12 -22 0
v -12 -21 0
v -11 -21 0
v -10 -22 0
v -11 -22 0
v -11 -21 0
v -10 -21 0
v -9 -22 0
v -10 -22 0
v -10 -21 0
v -9 -21 0
v -21 -23 0
v -22 -23 0
v -22 -22 0
v -21 -22 0
v -20 -23 0
v -21 -23 0
v -21 -22 0
v -20 -22 0
v -19 -23 0
v -20 -23 0
v -20 -22 0
v -19 -22 0
v -18 -23 0
v -19 -23 0
v -19 -22 0
v -18 -22 0
v -17 -23 0
v -18 -23 0
v -18 -22 0
v -17 -22 0
v -16 -23 0
v -17 -23 0
v -17 -22 0
v -16 -22 0
v -15 -23 0
v -16 -23 0
v -16 -22 0
v -15 -22 0
v -14 -23 0
v -15 -23 0
v -15 -22 0
v -14 -22 0
v -13 -23 0
v -14 -23 0
v -14 -22 0
v -13 -22 0
v -12 -23 0
v -13 -23 0
v -13 -22 0
v -12 -22 0
v -11 -23 0
v -12 -23 0
v -12 -22 0
v -11 -22 0
v -10 -23 0
v -11 -23 0
v -11 -22 0
v -10 -22 0
v -9 -23 0
v -10 -23 0
v -10 -22 0
v -9 -22 0

# Texture cooridinates (Count = 41)
vt 0.05 0.48
vt 0.075 0.48
vt 0.075 0.52
vt 0.05 0.52
vt 0.025 0.48
vt 0.025 0.52
vt 0 0.48
vt 0 0.52
vt 0.125 0.48
vt 0.15 0.48
vt 0.15 0.52
vt 0.125 0.52
vt 0.1 0.48
vt 0.1 0.52
vt 0 0.44
vt 0.025 0.44
vt 0.05 0.44
vt 0.075 0.44
vt 0.125 0.44
vt 0.15 0.44
vt 0.1 0.44
vt 0 0.4
vt 0.025 0.4
vt 0.05 0.4
vt 0.075 0.4
vt 0.05 0.68
vt 0.075 0.68
vt 0.075 0.72
vt 0.05 0.72
vt 0.025 0.68
vt 0.025 0.72
vt 0 0.68
vt 0 0.72
vt 0.05 0.64
vt 0.075 0.64
vt 0.025 0.64
vt 0 0.64
vt 0.05 0.6
vt 0.075 0.6
vt 0.025 0.6
vt 0 0.6

# Normal
vn 0 0 -1

# Mesh description
g CAFAROOM5_mesh_0004

# Faces
f 1/1/1 2/2/1 3/3/1 4/4/1
f 5/5/1 6/1/1 7/4/1 8/6/1
f 9/7/1 10/5/1 11/6/1 12/8/1
f 13/1/1 14/2/1 15/3/1 16/4/1
f 17/5/1 18/1/1 19/4/1 20/6/1
f 21/7/1 22/5/1 23/6/1 24/8/1
f 25/1/1 26/2/1 27/3/1 28/4/1
f 29/5/1 30/1/1 31/4/1 32/6/1
f 33/5/1 34/1/1 35/4/1 36/6/1
f 37/7/1 38/5/1 39/6/1 40/8/1
f 41/1/1 42/2/1 43/3/1 44/4/1
f 45/5/1 46/1/1 47/4/1 48/6/1
f 49/5/1 50/1/1 51/4/1 52/6/1
f 53/7/1 54/5/1 55/6/1 56/8/1
f 57/1/1 58/2/1 59/3/1 60/4/1
f 61/5/1 62/1/1 63/4/1 64/6/1
f 65/7/1 66/5/1 67/6/1 68/8/1
f 69/1/1 70/2/1 71/3/1 72/4/1
f 73/5/1 74/1/1 75/4/1 76/6/1
f 77/5/1 78/1/1 79/4/1 80/6/1
f 81/7/1 82/5/1 83/6/1 84/8/1
f 85/1/1 86/2/1 87/3/1 88/4/1
f 89/5/1 90/1/1 91/4/1 92/6/1
f 93/7/1 94/5/1 95/6/1 96/8/1
f 97/9/1 98/10/1 99/11/1 100/12/1
f 101/13/1 102/9/1 103/12/1 104/14/1
f 105/15/1 106/16/1 107/5/1 108/7/1
f 109/9/1 110/10/1 111/11/1 112/12/1
f 113/13/1 114/9/1 115/12/1 116/14/1
f 117/15/1 118/16/1 119/5/1 120/7/1
f 121/17/1 122/18/1 123/2/1 124/1/1
f 125/13/1 126/9/1 127/12/1 128/14/1
f 129/16/1 130/17/1 131/1/1 132/5/1
f 133/15/1 134/16/1 135/5/1 136/7/1
f 137/17/1 138/18/1 139/2/1 140/1/1
f 141/16/1 142/17/1 143/1/1 144/5/1
f 145/16/1 146/17/1 147/1/1 148/5/1
f 149/15/1 150/16/1 151/5/1 152/7/1
f 153/17/1 154/18/1 155/2/1 156/1/1
f 157/13/1 158/9/1 159/12/1 160/14/1
f 161/15/1 162/16/1 163/5/1 164/7/1
f 165/17/1 166/18/1 167/2/1 168/1/1
f 169/13/1 170/9/1 171/12/1 172/14/1
f 173/13/1 174/9/1 175/12/1 176/14/1
f 177/15/1 178/16/1 179/5/1 180/7/1
f 181/17/1 182/18/1 183/2/1 184/1/1
f 185/13/1 186/9/1 187/12/1 188/14/1
f 189/2/1 190/13/1 191/14/1 192/3/1
f 193/19/1 194/20/1 195/10/1 196/9/1
f 197/21/1 198/19/1 199/9/1 200/13/1
f 201/22/1 202/23/1 203/16/1 204/15/1
f 205/19/1 206/20/1 207/10/1 208/9/1
f 209/21/1 210/19/1 211/9/1 212/13/1
f 213/22/1 214/23/1 215/16/1 216/15/1
f 217/24/1 218/25/1 219/18/1 220/17/1
f 221/21/1 222/19/1 223/9/1 224/13/1
f 225/23/1 226/24/1 227/17/1 228/16/1
f 229/22/1 230/23/1 231/16/1 232/15/1
f 233/24/1 234/25/1 235/18/1 236/17/1
f 237/23/1 238/24/1 239/17/1 240/16/1
f 241/23/1 242/24/1 243/17/1 244/16/1
f 245/22/1 246/23/1 247/16/1 248/15/1
f 249/24/1 250/25/1 251/18/1 252/17/1
f 253/21/1 254/19/1 255/9/1 256/13/1
f 257/22/1 258/23/1 259/16/1 260/15/1
f 261/24/1 262/25/1 263/18/1 264/17/1
f 265/21/1 266/19/1 267/9/1 268/13/1
f 269/21/1 270/19/1 271/9/1 272/13/1
f 273/22/1 274/23/1 275/16/1 276/15/1
f 277/24/1 278/25/1 279/18/1 280/17/1
f 281/21/1 282/19/1 283/9/1 284/13/1
f 285/18/1 286/21/1 287/13/1 288/2/1
f 289/26/1 290/27/1 291/28/1 292/29/1
f 293/30/1 294/26/1 295/29/1 296/31/1
f 297/30/1 298/26/1 299/29/1 300/31/1
f 301/30/1 302/26/1 303/29/1 304/31/1
f 305/30/1 306/26/1 307/29/1 308/31/1
f 309/30/1 310/26/1 311/29/1 312/31/1
f 313/30/1 314/26/1 315/29/1 316/31/1
f 317/30/1 318/26/1 319/29/1 320/31/1
f 321/30/1 322/26/1 323/29/1 324/31/1
f 325/30/1 326/26/1 327/29/1 328/31/1
f 329/30/1 330/26/1 331/29/1 332/31/1
f 333/30/1 334/26/1 335/29/1 336/31/1
f 337/32/1 338/30/1 339/31/1 340/33/1
f 341/34/1 342/35/1 343/27/1 344/26/1
f 345/36/1 346/34/1 347/26/1 348/30/1
f 349/36/1 350/34/1 351/26/1 352/30/1
f 353/36/1 354/34/1 355/26/1 356/30/1
f 357/36/1 358/34/1 359/26/1 360/30/1
f 361/36/1 362/34/1 363/26/1 364/30/1
f 365/36/1 366/34/1 367/26/1 368/30/1
f 369/36/1 370/34/1 371/26/1 372/30/1
f 373/36/1 374/34/1 375/26/1 376/30/1
f 377/36/1 378/34/1 379/26/1 380/30/1
f 381/36/1 382/34/1 383/26/1 384/30/1
f 385/36/1 386/34/1 387/26/1 388/30/1
f 389/37/1 390/36/1 391/30/1 392/32/1
f 393/34/1 394/35/1 395/27/1 396/26/1
f 397/36/1 398/34/1 399/26/1 400/30/1
f 401/36/1 402/34/1 403/26/1 404/30/1
f 405/36/1 406/34/1 407/26/1 408/30/1
f 409/36/1 410/34/1 411/26/1 412/30/1
f 413/36/1 414/34/1 415/26/1 416/30/1
f 417/36/1 418/34/1 419/26/1 420/30/1
f 421/36/1 422/34/1 423/26/1 424/30/1
f 425/36/1 426/34/1 427/26/1 428/30/1
f 429/36/1 430/34/1 431/26/1 432/30/1
f 433/36/1 434/34/1 435/26/1 436/30/1
f 437/36/1 438/34/1 439/26/1 440/30/1
f 441/37/1 442/36/1 443/30/1 444/32/1
f 445/34/1 446/35/1 447/27/1 448/26/1
f 449/36/1 450/34/1 451/26/1 452/30/1
f 453/36/1 454/34/1 455/26/1 456/30/1
f 457/36/1 458/34/1 459/26/1 460/30/1
f 461/36/1 462/34/1 463/26/1 464/30/1
f 465/36/1 466/34/1 467/26/1 468/30/1
f 469/36/1 470/34/1 471/26/1 472/30/1
f 473/36/1 474/34/1 475/26/1 476/30/1
f 477/36/1 478/34/1 479/26/1 480/30/1
f 481/36/1 482/34/1 483/26/1 484/30/1
f 485/36/1 486/34/1 487/26/1 488/30/1
f 489/36/1 490/34/1 491/26/1 492/30/1
f 493/37/1 494/36/1 495/30/1 496/32/1
f 497/34/1 498/35/1 499/27/1 500/26/1
f 501/36/1 502/34/1 503/26/1 504/30/1
f 505/36/1 506/34/1 507/26/1 508/30/1
f 509/36/1 510/34/1 511/26/1 512/30/1
f 513/36/1 514/34/1 515/26/1 516/30/1
f 517/36/1 518/34/1 519/26/1 520/30/1
f 521/36/1 522/34/1 523/26/1 524/30/1
f 525/36/1 526/34/1 527/26/1 528/30/1
f 529/36/1 530/34/1 531/26/1 532/30/1
f 533/36/1 534/34/1 535/26/1 536/30/1
f 537/36/1 538/34/1 539/26/1 540/30/1
f 541/36/1 542/34/1 543/26/1 544/30/1
f 545/37/1 546/36/1 547/30/1 548/32/1
f 549/34/1 550/35/1 551/27/1 552/26/1
f 553/36/1 554/34/1 555/26/1 556/30/1
f 557/36/1 558/34/1 559/26/1 560/30/1
f 561/36/1 562/34/1 563/26/1 564/30/1
f 565/36/1 566/34/1 567/26/1 568/30/1
f 569/36/1 570/34/1 571/26/1 572/30/1
f 573/36/1 574/34/1 575/26/1 576/30/1
f 577/36/1 578/34/1 579/26/1 580/30/1
f 581/36/1 582/34/1 583/26/1 584/30/1
f 585/36/1 586/34/1 587/26/1 588/30/1
f 589/36/1 590/34/1 591/26/1 592/30/1
f 593/36/1 594/34/1 595/26/1 596/30/1
f 597/37/1 598/36/1 599/30/1 600/32/1
f 601/34/1 602/35/1 603/27/1 604/26/1
f 605/36/1 606/34/1 607/26/1 608/30/1
f 609/36/1 610/34/1 611/26/1 612/30/1
f 613/36/1 614/34/1 615/26/1 616/30/1
f 617/36/1 618/34/1 619/26/1 620/30/1
f 621/36/1 622/34/1 623/26/1 624/30/1
f 625/36/1 626/34/1 627/26/1 628/30/1
f 629/36/1 630/34/1 631/26/1 632/30/1
f 633/36/1 634/34/1 635/26/1 636/30/1
f 637/36/1 638/34/1 639/26/1 640/30/1
f 641/36/1 642/34/1 643/26/1 644/30/1
f 645/36/1 646/34/1 647/26/1 648/30/1
f 649/37/1 650/36/1 651/30/1 652/32/1
f 653/34/1 654/35/1 655/27/1 656/26/1
f 657/36/1 658/34/1 659/26/1 660/30/1
f 661/36/1 662/34/1 663/26/1 664/30/1
f 665/36/1 666/34/1 667/26/1 668/30/1
f 669/36/1 670/34/1 671/26/1 672/30/1
f 673/36/1 674/34/1 675/26/1 676/30/1
f 677/36/1 678/34/1 679/26/1 680/30/1
f 681/36/1 682/34/1 683/26/1 684/30/1
f 685/36/1 686/34/1 687/26/1 688/30/1
f 689/36/1 690/34/1 691/26/1 692/30/1
f 693/36/1 694/34/1 695/26/1 696/30/1
f 697/36/1 698/34/1 699/26/1 700/30/1
f 701/37/1 702/36/1 703/30/1 704/32/1
f 705/34/1 706/35/1 707/27/1 708/26/1
f 709/36/1 710/34/1 711/26/1 712/30/1
f 713/36/1 714/34/1 715/26/1 716/30/1
f 717/36/1 718/34/1 719/26/1 720/30/1
f 721/36/1 722/34/1 723/26/1 724/30/1
f 725/36/1 726/34/1 727/26/1 728/30/1
f 729/36/1 730/34/1 731/26/1 732/30/1
f 733/36/1 734/34/1 735/26/1 736/30/1
f 737/36/1 738/34/1 739/26/1 740/30/1
f 741/36/1 742/34/1 743/26/1 744/30/1
f 745/36/1 746/34/1 747/26/1 748/30/1
f 749/36/1 750/34/1 751/26/1 752/30/1
f 753/37/1 754/36/1 755/30/1 756/32/1
f 757/34/1 758/35/1 759/27/1 760/26/1
f 761/36/1 762/34/1 763/26/1 764/30/1
f 765/36/1 766/34/1 767/26/1 768/30/1
f 769/36/1 770/34/1 771/26/1 772/30/1
f 773/36/1 774/34/1 775/26/1 776/30/1
f 777/36/1 778/34/1 779/26/1 780/30/1
f 781/36/1 782/34/1 783/26/1 784/30/1
f 785/36/1 786/34/1 787/26/1 788/30/1
f 789/36/1 790/34/1 791/26/1 792/30/1
f 793/36/1 794/34/1 795/26/1 796/30/1
f 797/36/1 798/34/1 799/26/1 800/30/1
f 801/36/1 802/34/1 803/26/1 804/30/1
f 805/37/1 806/36/1 807/30/1 808/32/1
f 809/34/1 810/35/1 811/27/1 812/26/1
f 813/36/1 814/34/1 815/26/1 816/30/1
f 817/36/1 818/34/1 819/26/1 820/30/1
f 821/36/1 822/34/1 823/26/1 824/30/1
f 825/36/1 826/34/1 827/26/1 828/30/1
f 829/36/1 830/34/1 831/26/1 832/30/1
f 833/36/1 834/34/1 835/26/1 836/30/1
f 837/36/1 838/34/1 839/26/1 840/30/1
f 841/36/1 842/34/1 843/26/1 844/30/1
f 845/36/1 846/34/1 847/26/1 848/30/1
f 849/36/1 850/34/1 851/26/1 852/30/1
f 853/36/1 854/34/1 855/26/1 856/30/1
f 857/37/1 858/36/1 859/30/1 860/32/1
f 861/34/1 862/35/1 863/27/1 864/26/1
f 865/36/1 866/34/1 867/26/1 868/30/1
f 869/36/1 870/34/1 871/26/1 872/30/1
f 873/36/1 874/34/1 875/26/1 876/30/1
f 877/36/1 878/34/1 879/26/1 880/30/1
f 881/36/1 882/34/1 883/26/1 884/30/1
f 885/36/1 886/34/1 887/26/1 888/30/1
f 889/36/1 890/34/1 891/26/1 892/30/1
f 893/36/1 894/34/1 895/26/1 896/30/1
f 897/36/1 898/34/1 899/26/1 900/30/1
f 901/36/1 902/34/1 903/26/1 904/30/1
f 905/36/1 906/34/1 907/26/1 908/30/1
f 909/37/1 910/36/1 911/30/1 912/32/1
f 913/38/1 914/39/1 915/35/1 916/34/1
f 917/40/1 918/38/1 919/34/1 920/36/1
f 921/40/1 922/38/1 923/34/1 924/36/1
f 925/40/1 926/38/1 927/34/1 928/36/1
f 929/40/1 930/38/1 931/34/1 932/36/1
f 933/40/1 934/38/1 935/34/1 936/36/1
f 937/40/1 938/38/1 939/34/1 940/36/1
f 941/40/1 942/38/1 943/34/1 944/36/1
f 945/40/1 946/38/1 947/34/1 948/36/1
f 949/40/1 950/38/1 951/34/1 952/36/1
f 953/40/1 954/38/1 955/34/1 956/36/1
f 957/40/1 958/38/1 959/34/1 960/36/1
f 961/41/1 962/40/1 963/36/1 964/37/1

