# Tiled2Unity generated file. Do not modify by hand.
# Wavefront file for 'FIELD_mesh_0002.obj'

# Vertices (Count = 912)
v -29 -1 0
v -30 -1 0
v -30 0 0
v -29 0 0
v -28 -1 0
v -29 -1 0
v -29 0 0
v -28 0 0
v -27 -1 0
v -28 -1 0
v -28 0 0
v -27 0 0
v -26 -1 0
v -27 -1 0
v -27 0 0
v -26 0 0
v -25 -1 0
v -26 -1 0
v -26 0 0
v -25 0 0
v -24 -1 0
v -25 -1 0
v -25 0 0
v -24 0 0
v -23 -1 0
v -24 -1 0
v -24 0 0
v -23 0 0
v -22 -1 0
v -23 -1 0
v -23 0 0
v -22 0 0
v -21 -1 0
v -22 -1 0
v -22 0 0
v -21 0 0
v -20 -1 0
v -21 -1 0
v -21 0 0
v -20 0 0
v -19 -1 0
v -20 -1 0
v -20 0 0
v -19 0 0
v -18 -1 0
v -19 -1 0
v -19 0 0
v -18 0 0
v -17 -1 0
v -18 -1 0
v -18 0 0
v -17 0 0
v -16 -1 0
v -17 -1 0
v -17 0 0
v -16 0 0
v -15 -1 0
v -16 -1 0
v -16 0 0
v -15 0 0
v -14 -1 0
v -15 -1 0
v -15 0 0
v -14 0 0
v -13 -1 0
v -14 -1 0
v -14 0 0
v -13 0 0
v -12 -1 0
v -13 -1 0
v -13 0 0
v -12 0 0
v -11 -1 0
v -12 -1 0
v -12 0 0
v -11 0 0
v -10 -1 0
v -11 -1 0
v -11 0 0
v -10 0 0
v -9 -1 0
v -10 -1 0
v -10 0 0
v -9 0 0
v -8 -1 0
v -9 -1 0
v -9 0 0
v -8 0 0
v -7 -1 0
v -8 -1 0
v -8 0 0
v -7 0 0
v -6 -1 0
v -7 -1 0
v -7 0 0
v -6 0 0
v -5 -1 0
v -6 -1 0
v -6 0 0
v -5 0 0
v -4 -1 0
v -5 -1 0
v -5 0 0
v -4 0 0
v -3 -1 0
v -4 -1 0
v -4 0 0
v -3 0 0
v -2 -1 0
v -3 -1 0
v -3 0 0
v -2 0 0
v -1 -1 0
v -2 -1 0
v -2 0 0
v -1 0 0
v 0 -1 0
v -1 -1 0
v -1 0 0
v 0 0 0
v -29 -2 0
v -30 -2 0
v -30 -1 0
v -29 -1 0
v 0 -2 0
v -1 -2 0
v -1 -1 0
v 0 -1 0
v -29 -3 0
v -30 -3 0
v -30 -2 0
v -29 -2 0
v 0 -3 0
v -1 -3 0
v -1 -2 0
v 0 -2 0
v -29 -4 0
v -30 -4 0
v -30 -3 0
v -29 -3 0
v 0 -4 0
v -1 -4 0
v -1 -3 0
v 0 -3 0
v -29 -5 0
v -30 -5 0
v -30 -4 0
v -29 -4 0
v 0 -5 0
v -1 -5 0
v -1 -4 0
v 0 -4 0
v -29 -6 0
v -30 -6 0
v -30 -5 0
v -29 -5 0
v 0 -6 0
v -1 -6 0
v -1 -5 0
v 0 -5 0
v -29 -7 0
v -30 -7 0
v -30 -6 0
v -29 -6 0
v 0 -7 0
v -1 -7 0
v -1 -6 0
v 0 -6 0
v -29 -8 0
v -30 -8 0
v -30 -7 0
v -29 -7 0
v 0 -8 0
v -1 -8 0
v -1 -7 0
v 0 -7 0
v -29 -9 0
v -30 -9 0
v -30 -8 0
v -29 -8 0
v 0 -9 0
v -1 -9 0
v -1 -8 0
v 0 -8 0
v -29 -10 0
v -30 -10 0
v -30 -9 0
v -29 -9 0
v 0 -10 0
v -1 -10 0
v -1 -9 0
v 0 -9 0
v -29 -11 0
v -30 -11 0
v -30 -10 0
v -29 -10 0
v 0 -11 0
v -1 -11 0
v -1 -10 0
v 0 -10 0
v -29 -12 0
v -30 -12 0
v -30 -11 0
v -29 -11 0
v 0 -12 0
v -1 -12 0
v -1 -11 0
v 0 -11 0
v -29 -13 0
v -30 -13 0
v -30 -12 0
v -29 -12 0
v 0 -13 0
v -1 -13 0
v -1 -12 0
v 0 -12 0
v -29 -14 0
v -30 -14 0
v -30 -13 0
v -29 -13 0
v 0 -14 0
v -1 -14 0
v -1 -13 0
v 0 -13 0
v -29 -15 0
v -30 -15 0
v -30 -14 0
v -29 -14 0
v 0 -15 0
v -1 -15 0
v -1 -14 0
v 0 -14 0
v -29 -16 0
v -30 -16 0
v -30 -15 0
v -29 -15 0
v 0 -16 0
v -1 -16 0
v -1 -15 0
v 0 -15 0
v -29 -17 0
v -30 -17 0
v -30 -16 0
v -29 -16 0
v 0 -17 0
v -1 -17 0
v -1 -16 0
v 0 -16 0
v -29 -18 0
v -30 -18 0
v -30 -17 0
v -29 -17 0
v 0 -18 0
v -1 -18 0
v -1 -17 0
v 0 -17 0
v -29 -19 0
v -30 -19 0
v -30 -18 0
v -29 -18 0
v 0 -19 0
v -1 -19 0
v -1 -18 0
v 0 -18 0
v -29 -20 0
v -30 -20 0
v -30 -19 0
v -29 -19 0
v 0 -20 0
v -1 -20 0
v -1 -19 0
v 0 -19 0
v -29 -21 0
v -30 -21 0
v -30 -20 0
v -29 -20 0
v 0 -21 0
v -1 -21 0
v -1 -20 0
v 0 -20 0
v -29 -22 0
v -30 -22 0
v -30 -21 0
v -29 -21 0
v 0 -22 0
v -1 -22 0
v -1 -21 0
v 0 -21 0
v -29 -23 0
v -30 -23 0
v -30 -22 0
v -29 -22 0
v 0 -23 0
v -1 -23 0
v -1 -22 0
v 0 -22 0
v -29 -24 0
v -30 -24 0
v -30 -23 0
v -29 -23 0
v 0 -24 0
v -1 -24 0
v -1 -23 0
v 0 -23 0
v -29 -25 0
v -30 -25 0
v -30 -24 0
v -29 -24 0
v 0 -25 0
v -1 -25 0
v -1 -24 0
v 0 -24 0
v -29 -26 0
v -30 -26 0
v -30 -25 0
v -29 -25 0
v -28 -26 0
v -29 -26 0
v -29 -25 0
v -28 -25 0
v -27 -26 0
v -28 -26 0
v -28 -25 0
v -27 -25 0
v -26 -26 0
v -27 -26 0
v -27 -25 0
v -26 -25 0
v -25 -26 0
v -26 -26 0
v -26 -25 0
v -25 -25 0
v -24 -26 0
v -25 -26 0
v -25 -25 0
v -24 -25 0
v -23 -26 0
v -24 -26 0
v -24 -25 0
v -23 -25 0
v -22 -26 0
v -23 -26 0
v -23 -25 0
v -22 -25 0
v -21 -26 0
v -22 -26 0
v -22 -25 0
v -21 -25 0
v -20 -26 0
v -21 -26 0
v -21 -25 0
v -20 -25 0
v -19 -26 0
v -20 -26 0
v -20 -25 0
v -19 -25 0
v -18 -26 0
v -19 -26 0
v -19 -25 0
v -18 -25 0
v -17 -26 0
v -18 -26 0
v -18 -25 0
v -17 -25 0
v -16 -26 0
v -17 -26 0
v -17 -25 0
v -16 -25 0
v -15 -26 0
v -16 -26 0
v -16 -25 0
v -15 -25 0
v -14 -26 0
v -15 -26 0
v -15 -25 0
v -14 -25 0
v -13 -26 0
v -14 -26 0
v -14 -25 0
v -13 -25 0
v -12 -26 0
v -13 -26 0
v -13 -25 0
v -12 -25 0
v -11 -26 0
v -12 -26 0
v -12 -25 0
v -11 -25 0
v -10 -26 0
v -11 -26 0
v -11 -25 0
v -10 -25 0
v -9 -26 0
v -10 -26 0
v -10 -25 0
v -9 -25 0
v -8 -26 0
v -9 -26 0
v -9 -25 0
v -8 -25 0
v -7 -26 0
v -8 -26 0
v -8 -25 0
v -7 -25 0
v -6 -26 0
v -7 -26 0
v -7 -25 0
v -6 -25 0
v -5 -26 0
v -6 -26 0
v -6 -25 0
v -5 -25 0
v -4 -26 0
v -5 -26 0
v -5 -25 0
v -4 -25 0
v -3 -26 0
v -4 -26 0
v -4 -25 0
v -3 -25 0
v -2 -26 0
v -3 -26 0
v -3 -25 0
v -2 -25 0
v -1 -26 0
v -2 -26 0
v -2 -25 0
v -1 -25 0
v 0 -26 0
v -1 -26 0
v -1 -25 0
v 0 -25 0
v -29 -27 0
v -30 -27 0
v -30 -26 0
v -29 -26 0
v -28 -27 0
v -29 -27 0
v -29 -26 0
v -28 -26 0
v -27 -27 0
v -28 -27 0
v -28 -26 0
v -27 -26 0
v -26 -27 0
v -27 -27 0
v -27 -26 0
v -26 -26 0
v -25 -27 0
v -26 -27 0
v -26 -26 0
v -25 -26 0
v -24 -27 0
v -25 -27 0
v -25 -26 0
v -24 -26 0
v -23 -27 0
v -24 -27 0
v -24 -26 0
v -23 -26 0
v -22 -27 0
v -23 -27 0
v -23 -26 0
v -22 -26 0
v -21 -27 0
v -22 -27 0
v -22 -26 0
v -21 -26 0
v -20 -27 0
v -21 -27 0
v -21 -26 0
v -20 -26 0
v -19 -27 0
v -20 -27 0
v -20 -26 0
v -19 -26 0
v -18 -27 0
v -19 -27 0
v -19 -26 0
v -18 -26 0
v -17 -27 0
v -18 -27 0
v -18 -26 0
v -17 -26 0
v -16 -27 0
v -17 -27 0
v -17 -26 0
v -16 -26 0
v -15 -27 0
v -16 -27 0
v -16 -26 0
v -15 -26 0
v -14 -27 0
v -15 -27 0
v -15 -26 0
v -14 -26 0
v -13 -27 0
v -14 -27 0
v -14 -26 0
v -13 -26 0
v -12 -27 0
v -13 -27 0
v -13 -26 0
v -12 -26 0
v -11 -27 0
v -12 -27 0
v -12 -26 0
v -11 -26 0
v -10 -27 0
v -11 -27 0
v -11 -26 0
v -10 -26 0
v -9 -27 0
v -10 -27 0
v -10 -26 0
v -9 -26 0
v -8 -27 0
v -9 -27 0
v -9 -26 0
v -8 -26 0
v -7 -27 0
v -8 -27 0
v -8 -26 0
v -7 -26 0
v -6 -27 0
v -7 -27 0
v -7 -26 0
v -6 -26 0
v -5 -27 0
v -6 -27 0
v -6 -26 0
v -5 -26 0
v -4 -27 0
v -5 -27 0
v -5 -26 0
v -4 -26 0
v -3 -27 0
v -4 -27 0
v -4 -26 0
v -3 -26 0
v -2 -27 0
v -3 -27 0
v -3 -26 0
v -2 -26 0
v -1 -27 0
v -2 -27 0
v -2 -26 0
v -1 -26 0
v 0 -27 0
v -1 -27 0
v -1 -26 0
v 0 -26 0
v -29 -28 0
v -30 -28 0
v -30 -27 0
v -29 -27 0
v -28 -28 0
v -29 -28 0
v -29 -27 0
v -28 -27 0
v -27 -28 0
v -28 -28 0
v -28 -27 0
v -27 -27 0
v -26 -28 0
v -27 -28 0
v -27 -27 0
v -26 -27 0
v -25 -28 0
v -26 -28 0
v -26 -27 0
v -25 -27 0
v -24 -28 0
v -25 -28 0
v -25 -27 0
v -24 -27 0
v -23 -28 0
v -24 -28 0
v -24 -27 0
v -23 -27 0
v -22 -28 0
v -23 -28 0
v -23 -27 0
v -22 -27 0
v -21 -28 0
v -22 -28 0
v -22 -27 0
v -21 -27 0
v -20 -28 0
v -21 -28 0
v -21 -27 0
v -20 -27 0
v -19 -28 0
v -20 -28 0
v -20 -27 0
v -19 -27 0
v -18 -28 0
v -19 -28 0
v -19 -27 0
v -18 -27 0
v -17 -28 0
v -18 -28 0
v -18 -27 0
v -17 -27 0
v -16 -28 0
v -17 -28 0
v -17 -27 0
v -16 -27 0
v -15 -28 0
v -16 -28 0
v -16 -27 0
v -15 -27 0
v -14 -28 0
v -15 -28 0
v -15 -27 0
v -14 -27 0
v -13 -28 0
v -14 -28 0
v -14 -27 0
v -13 -27 0
v -12 -28 0
v -13 -28 0
v -13 -27 0
v -12 -27 0
v -11 -28 0
v -12 -28 0
v -12 -27 0
v -11 -27 0
v -10 -28 0
v -11 -28 0
v -11 -27 0
v -10 -27 0
v -9 -28 0
v -10 -28 0
v -10 -27 0
v -9 -27 0
v -8 -28 0
v -9 -28 0
v -9 -27 0
v -8 -27 0
v -7 -28 0
v -8 -28 0
v -8 -27 0
v -7 -27 0
v -6 -28 0
v -7 -28 0
v -7 -27 0
v -6 -27 0
v -5 -28 0
v -6 -28 0
v -6 -27 0
v -5 -27 0
v -4 -28 0
v -5 -28 0
v -5 -27 0
v -4 -27 0
v -3 -28 0
v -4 -28 0
v -4 -27 0
v -3 -27 0
v -2 -28 0
v -3 -28 0
v -3 -27 0
v -2 -27 0
v -1 -28 0
v -2 -28 0
v -2 -27 0
v -1 -27 0
v 0 -28 0
v -1 -28 0
v -1 -27 0
v 0 -27 0
v -29 -29 0
v -30 -29 0
v -30 -28 0
v -29 -28 0
v -28 -29 0
v -29 -29 0
v -29 -28 0
v -28 -28 0
v -27 -29 0
v -28 -29 0
v -28 -28 0
v -27 -28 0
v -26 -29 0
v -27 -29 0
v -27 -28 0
v -26 -28 0
v -25 -29 0
v -26 -29 0
v -26 -28 0
v -25 -28 0
v -24 -29 0
v -25 -29 0
v -25 -28 0
v -24 -28 0
v -23 -29 0
v -24 -29 0
v -24 -28 0
v -23 -28 0
v -22 -29 0
v -23 -29 0
v -23 -28 0
v -22 -28 0
v -21 -29 0
v -22 -29 0
v -22 -28 0
v -21 -28 0
v -20 -29 0
v -21 -29 0
v -21 -28 0
v -20 -28 0
v -19 -29 0
v -20 -29 0
v -20 -28 0
v -19 -28 0
v -18 -29 0
v -19 -29 0
v -19 -28 0
v -18 -28 0
v -17 -29 0
v -18 -29 0
v -18 -28 0
v -17 -28 0
v -16 -29 0
v -17 -29 0
v -17 -28 0
v -16 -28 0
v -15 -29 0
v -16 -29 0
v -16 -28 0
v -15 -28 0
v -14 -29 0
v -15 -29 0
v -15 -28 0
v -14 -28 0
v -13 -29 0
v -14 -29 0
v -14 -28 0
v -13 -28 0
v -12 -29 0
v -13 -29 0
v -13 -28 0
v -12 -28 0
v -11 -29 0
v -12 -29 0
v -12 -28 0
v -11 -28 0
v -10 -29 0
v -11 -29 0
v -11 -28 0
v -10 -28 0
v -9 -29 0
v -10 -29 0
v -10 -28 0
v -9 -28 0
v -8 -29 0
v -9 -29 0
v -9 -28 0
v -8 -28 0
v -7 -29 0
v -8 -29 0
v -8 -28 0
v -7 -28 0
v -6 -29 0
v -7 -29 0
v -7 -28 0
v -6 -28 0
v -5 -29 0
v -6 -29 0
v -6 -28 0
v -5 -28 0
v -4 -29 0
v -5 -29 0
v -5 -28 0
v -4 -28 0
v -3 -29 0
v -4 -29 0
v -4 -28 0
v -3 -28 0
v -2 -29 0
v -3 -29 0
v -3 -28 0
v -2 -28 0
v -1 -29 0
v -2 -29 0
v -2 -28 0
v -1 -28 0
v 0 -29 0
v -1 -29 0
v -1 -28 0
v 0 -28 0
v -29 -30 0
v -30 -30 0
v -30 -29 0
v -29 -29 0
v -28 -30 0
v -29 -30 0
v -29 -29 0
v -28 -29 0
v -27 -30 0
v -28 -30 0
v -28 -29 0
v -27 -29 0
v -26 -30 0
v -27 -30 0
v -27 -29 0
v -26 -29 0
v -25 -30 0
v -26 -30 0
v -26 -29 0
v -25 -29 0
v -24 -30 0
v -25 -30 0
v -25 -29 0
v -24 -29 0
v -23 -30 0
v -24 -30 0
v -24 -29 0
v -23 -29 0
v -22 -30 0
v -23 -30 0
v -23 -29 0
v -22 -29 0
v -21 -30 0
v -22 -30 0
v -22 -29 0
v -21 -29 0
v -20 -30 0
v -21 -30 0
v -21 -29 0
v -20 -29 0
v -19 -30 0
v -20 -30 0
v -20 -29 0
v -19 -29 0
v -18 -30 0
v -19 -30 0
v -19 -29 0
v -18 -29 0
v -17 -30 0
v -18 -30 0
v -18 -29 0
v -17 -29 0
v -16 -30 0
v -17 -30 0
v -17 -29 0
v -16 -29 0
v -15 -30 0
v -16 -30 0
v -16 -29 0
v -15 -29 0
v -14 -30 0
v -15 -30 0
v -15 -29 0
v -14 -29 0
v -13 -30 0
v -14 -30 0
v -14 -29 0
v -13 -29 0
v -12 -30 0
v -13 -30 0
v -13 -29 0
v -12 -29 0
v -11 -30 0
v -12 -30 0
v -12 -29 0
v -11 -29 0
v -10 -30 0
v -11 -30 0
v -11 -29 0
v -10 -29 0
v -9 -30 0
v -10 -30 0
v -10 -29 0
v -9 -29 0
v -8 -30 0
v -9 -30 0
v -9 -29 0
v -8 -29 0
v -7 -30 0
v -8 -30 0
v -8 -29 0
v -7 -29 0
v -6 -30 0
v -7 -30 0
v -7 -29 0
v -6 -29 0
v -5 -30 0
v -6 -30 0
v -6 -29 0
v -5 -29 0
v -4 -30 0
v -5 -30 0
v -5 -29 0
v -4 -29 0
v -3 -30 0
v -4 -30 0
v -4 -29 0
v -3 -29 0
v -2 -30 0
v -3 -30 0
v -3 -29 0
v -2 -29 0
v -1 -30 0
v -2 -30 0
v -2 -29 0
v -1 -29 0
v 0 -30 0
v -1 -30 0
v -1 -29 0
v 0 -29 0

# Texture cooridinates (Count = 43)
vt 0.05 0.1666667
vt 0.075 0.1666667
vt 0.075 0.1944444
vt 0.05 0.1944444
vt 0.025 0.1666667
vt 0.025 0.1944444
vt 0 0.1666667
vt 0 0.1944444
vt 0.05 0.1388889
vt 0.075 0.1388889
vt 0 0.1388889
vt 0.025 0.1388889
vt 0.05 0.1111111
vt 0.075 0.1111111
vt 0.025 0.1111111
vt 0 0.1111111
vt 0.375 0.1666667
vt 0.4 0.1666667
vt 0.4 0.1944444
vt 0.375 0.1944444
vt 0.35 0.1666667
vt 0.35 0.1944444
vt 0.35 0.5555556
vt 0.375 0.5555556
vt 0.375 0.5833334
vt 0.35 0.5833334
vt 0.325 0.5555556
vt 0.325 0.5833334
vt 0.425 0.1666667
vt 0.425 0.1944444
vt 0.45 0.1666667
vt 0.45 0.1944444
vt 0.475 0.1666667
vt 0.475 0.1944444
vt 0.35 0.1388889
vt 0.375 0.1388889
vt 0.35 0.5277778
vt 0.375 0.5277778
vt 0.325 0.5277778
vt 0.4 0.1388889
vt 0.425 0.1388889
vt 0.45 0.1388889
vt 0.475 0.1388889

# Normal
vn 0 0 -1

# Mesh description
g FIELD_mesh_0002

# Faces
f 1/1/1 2/2/1 3/3/1 4/4/1
f 5/5/1 6/1/1 7/4/1 8/6/1
f 9/5/1 10/1/1 11/4/1 12/6/1
f 13/5/1 14/1/1 15/4/1 16/6/1
f 17/5/1 18/1/1 19/4/1 20/6/1
f 21/5/1 22/1/1 23/4/1 24/6/1
f 25/5/1 26/1/1 27/4/1 28/6/1
f 29/5/1 30/1/1 31/4/1 32/6/1
f 33/5/1 34/1/1 35/4/1 36/6/1
f 37/5/1 38/1/1 39/4/1 40/6/1
f 41/5/1 42/1/1 43/4/1 44/6/1
f 45/5/1 46/1/1 47/4/1 48/6/1
f 49/5/1 50/1/1 51/4/1 52/6/1
f 53/5/1 54/1/1 55/4/1 56/6/1
f 57/5/1 58/1/1 59/4/1 60/6/1
f 61/5/1 62/1/1 63/4/1 64/6/1
f 65/5/1 66/1/1 67/4/1 68/6/1
f 69/5/1 70/1/1 71/4/1 72/6/1
f 73/5/1 74/1/1 75/4/1 76/6/1
f 77/5/1 78/1/1 79/4/1 80/6/1
f 81/5/1 82/1/1 83/4/1 84/6/1
f 85/5/1 86/1/1 87/4/1 88/6/1
f 89/5/1 90/1/1 91/4/1 92/6/1
f 93/5/1 94/1/1 95/4/1 96/6/1
f 97/5/1 98/1/1 99/4/1 100/6/1
f 101/5/1 102/1/1 103/4/1 104/6/1
f 105/5/1 106/1/1 107/4/1 108/6/1
f 109/5/1 110/1/1 111/4/1 112/6/1
f 113/5/1 114/1/1 115/4/1 116/6/1
f 117/7/1 118/5/1 119/6/1 120/8/1
f 121/9/1 122/10/1 123/2/1 124/1/1
f 125/11/1 126/12/1 127/5/1 128/7/1
f 129/9/1 130/10/1 131/2/1 132/1/1
f 133/11/1 134/12/1 135/5/1 136/7/1
f 137/9/1 138/10/1 139/2/1 140/1/1
f 141/11/1 142/12/1 143/5/1 144/7/1
f 145/9/1 146/10/1 147/2/1 148/1/1
f 149/11/1 150/12/1 151/5/1 152/7/1
f 153/9/1 154/10/1 155/2/1 156/1/1
f 157/11/1 158/12/1 159/5/1 160/7/1
f 161/9/1 162/10/1 163/2/1 164/1/1
f 165/11/1 166/12/1 167/5/1 168/7/1
f 169/9/1 170/10/1 171/2/1 172/1/1
f 173/11/1 174/12/1 175/5/1 176/7/1
f 177/9/1 178/10/1 179/2/1 180/1/1
f 181/11/1 182/12/1 183/5/1 184/7/1
f 185/9/1 186/10/1 187/2/1 188/1/1
f 189/11/1 190/12/1 191/5/1 192/7/1
f 193/9/1 194/10/1 195/2/1 196/1/1
f 197/11/1 198/12/1 199/5/1 200/7/1
f 201/9/1 202/10/1 203/2/1 204/1/1
f 205/11/1 206/12/1 207/5/1 208/7/1
f 209/9/1 210/10/1 211/2/1 212/1/1
f 213/11/1 214/12/1 215/5/1 216/7/1
f 217/9/1 218/10/1 219/2/1 220/1/1
f 221/11/1 222/12/1 223/5/1 224/7/1
f 225/9/1 226/10/1 227/2/1 228/1/1
f 229/11/1 230/12/1 231/5/1 232/7/1
f 233/9/1 234/10/1 235/2/1 236/1/1
f 237/11/1 238/12/1 239/5/1 240/7/1
f 241/9/1 242/10/1 243/2/1 244/1/1
f 245/11/1 246/12/1 247/5/1 248/7/1
f 249/9/1 250/10/1 251/2/1 252/1/1
f 253/11/1 254/12/1 255/5/1 256/7/1
f 257/9/1 258/10/1 259/2/1 260/1/1
f 261/11/1 262/12/1 263/5/1 264/7/1
f 265/9/1 266/10/1 267/2/1 268/1/1
f 269/11/1 270/12/1 271/5/1 272/7/1
f 273/9/1 274/10/1 275/2/1 276/1/1
f 277/11/1 278/12/1 279/5/1 280/7/1
f 281/9/1 282/10/1 283/2/1 284/1/1
f 285/11/1 286/12/1 287/5/1 288/7/1
f 289/9/1 290/10/1 291/2/1 292/1/1
f 293/11/1 294/12/1 295/5/1 296/7/1
f 297/9/1 298/10/1 299/2/1 300/1/1
f 301/11/1 302/12/1 303/5/1 304/7/1
f 305/9/1 306/10/1 307/2/1 308/1/1
f 309/11/1 310/12/1 311/5/1 312/7/1
f 313/13/1 314/14/1 315/10/1 316/9/1
f 317/15/1 318/13/1 319/9/1 320/12/1
f 321/15/1 322/13/1 323/9/1 324/12/1
f 325/15/1 326/13/1 327/9/1 328/12/1
f 329/15/1 330/13/1 331/9/1 332/12/1
f 333/15/1 334/13/1 335/9/1 336/12/1
f 337/15/1 338/13/1 339/9/1 340/12/1
f 341/15/1 342/13/1 343/9/1 344/12/1
f 345/15/1 346/13/1 347/9/1 348/12/1
f 349/15/1 350/13/1 351/9/1 352/12/1
f 353/15/1 354/13/1 355/9/1 356/12/1
f 357/15/1 358/13/1 359/9/1 360/12/1
f 361/15/1 362/13/1 363/9/1 364/12/1
f 365/15/1 366/13/1 367/9/1 368/12/1
f 369/15/1 370/13/1 371/9/1 372/12/1
f 373/15/1 374/13/1 375/9/1 376/12/1
f 377/15/1 378/13/1 379/9/1 380/12/1
f 381/15/1 382/13/1 383/9/1 384/12/1
f 385/15/1 386/13/1 387/9/1 388/12/1
f 389/15/1 390/13/1 391/9/1 392/12/1
f 393/15/1 394/13/1 395/9/1 396/12/1
f 397/15/1 398/13/1 399/9/1 400/12/1
f 401/15/1 402/13/1 403/9/1 404/12/1
f 405/15/1 406/13/1 407/9/1 408/12/1
f 409/15/1 410/13/1 411/9/1 412/12/1
f 413/15/1 414/13/1 415/9/1 416/12/1
f 417/15/1 418/13/1 419/9/1 420/12/1
f 421/15/1 422/13/1 423/9/1 424/12/1
f 425/15/1 426/13/1 427/9/1 428/12/1
f 429/16/1 430/15/1 431/12/1 432/11/1
f 433/17/1 434/18/1 435/19/1 436/20/1
f 437/17/1 438/18/1 439/19/1 440/20/1
f 441/17/1 442/18/1 443/19/1 444/20/1
f 445/17/1 446/18/1 447/19/1 448/20/1
f 449/17/1 450/18/1 451/19/1 452/20/1
f 453/17/1 454/18/1 455/19/1 456/20/1
f 457/17/1 458/18/1 459/19/1 460/20/1
f 461/17/1 462/18/1 463/19/1 464/20/1
f 465/17/1 466/18/1 467/19/1 468/20/1
f 469/17/1 470/18/1 471/19/1 472/20/1
f 473/21/1 474/17/1 475/20/1 476/22/1
f 477/23/1 478/24/1 479/25/1 480/26/1
f 481/27/1 482/23/1 483/26/1 484/28/1
f 485/23/1 486/24/1 487/25/1 488/26/1
f 489/27/1 490/23/1 491/26/1 492/28/1
f 493/23/1 494/24/1 495/25/1 496/26/1
f 497/27/1 498/23/1 499/26/1 500/28/1
f 501/23/1 502/24/1 503/25/1 504/26/1
f 505/27/1 506/23/1 507/26/1 508/28/1
f 509/18/1 510/29/1 511/30/1 512/19/1
f 513/17/1 514/18/1 515/19/1 516/20/1
f 517/17/1 518/18/1 519/19/1 520/20/1
f 521/17/1 522/18/1 523/19/1 524/20/1
f 525/17/1 526/18/1 527/19/1 528/20/1
f 529/17/1 530/18/1 531/19/1 532/20/1
f 533/17/1 534/18/1 535/19/1 536/20/1
f 537/17/1 538/18/1 539/19/1 540/20/1
f 541/17/1 542/18/1 543/19/1 544/20/1
f 545/17/1 546/18/1 547/19/1 548/20/1
f 549/17/1 550/18/1 551/19/1 552/20/1
f 553/29/1 554/31/1 555/32/1 556/30/1
f 557/31/1 558/33/1 559/34/1 560/32/1
f 561/29/1 562/31/1 563/32/1 564/30/1
f 565/31/1 566/33/1 567/34/1 568/32/1
f 569/29/1 570/31/1 571/32/1 572/30/1
f 573/31/1 574/33/1 575/34/1 576/32/1
f 577/29/1 578/31/1 579/32/1 580/30/1
f 581/31/1 582/33/1 583/34/1 584/32/1
f 585/29/1 586/31/1 587/32/1 588/30/1
f 589/31/1 590/33/1 591/34/1 592/32/1
f 593/35/1 594/36/1 595/17/1 596/21/1
f 597/37/1 598/38/1 599/24/1 600/23/1
f 601/39/1 602/37/1 603/23/1 604/27/1
f 605/37/1 606/38/1 607/24/1 608/23/1
f 609/39/1 610/37/1 611/23/1 612/27/1
f 613/37/1 614/38/1 615/24/1 616/23/1
f 617/39/1 618/37/1 619/23/1 620/27/1
f 621/37/1 622/38/1 623/24/1 624/23/1
f 625/39/1 626/37/1 627/23/1 628/27/1
f 629/40/1 630/41/1 631/29/1 632/18/1
f 633/29/1 634/31/1 635/32/1 636/30/1
f 637/31/1 638/33/1 639/34/1 640/32/1
f 641/29/1 642/31/1 643/32/1 644/30/1
f 645/31/1 646/33/1 647/34/1 648/32/1
f 649/29/1 650/31/1 651/32/1 652/30/1
f 653/31/1 654/33/1 655/34/1 656/32/1
f 657/29/1 658/31/1 659/32/1 660/30/1
f 661/31/1 662/33/1 663/34/1 664/32/1
f 665/29/1 666/31/1 667/32/1 668/30/1
f 669/31/1 670/33/1 671/34/1 672/32/1
f 673/41/1 674/42/1 675/31/1 676/29/1
f 677/42/1 678/43/1 679/33/1 680/31/1
f 681/41/1 682/42/1 683/31/1 684/29/1
f 685/42/1 686/43/1 687/33/1 688/31/1
f 689/41/1 690/42/1 691/31/1 692/29/1
f 693/42/1 694/43/1 695/33/1 696/31/1
f 697/41/1 698/42/1 699/31/1 700/29/1
f 701/42/1 702/43/1 703/33/1 704/31/1
f 705/41/1 706/42/1 707/31/1 708/29/1
f 709/42/1 710/43/1 711/33/1 712/31/1
f 713/35/1 714/36/1 715/17/1 716/21/1
f 717/23/1 718/24/1 719/25/1 720/26/1
f 721/27/1 722/23/1 723/26/1 724/28/1
f 725/23/1 726/24/1 727/25/1 728/26/1
f 729/27/1 730/23/1 731/26/1 732/28/1
f 733/23/1 734/24/1 735/25/1 736/26/1
f 737/27/1 738/23/1 739/26/1 740/28/1
f 741/23/1 742/24/1 743/25/1 744/26/1
f 745/27/1 746/23/1 747/26/1 748/28/1
f 749/40/1 750/41/1 751/29/1 752/18/1
f 753/41/1 754/42/1 755/31/1 756/29/1
f 757/42/1 758/43/1 759/33/1 760/31/1
f 761/41/1 762/42/1 763/31/1 764/29/1
f 765/42/1 766/43/1 767/33/1 768/31/1
f 769/41/1 770/42/1 771/31/1 772/29/1
f 773/42/1 774/43/1 775/33/1 776/31/1
f 777/41/1 778/42/1 779/31/1 780/29/1
f 781/42/1 782/43/1 783/33/1 784/31/1
f 785/41/1 786/42/1 787/31/1 788/29/1
f 789/42/1 790/43/1 791/33/1 792/31/1
f 793/29/1 794/31/1 795/32/1 796/30/1
f 797/31/1 798/33/1 799/34/1 800/32/1
f 801/29/1 802/31/1 803/32/1 804/30/1
f 805/31/1 806/33/1 807/34/1 808/32/1
f 809/29/1 810/31/1 811/32/1 812/30/1
f 813/31/1 814/33/1 815/34/1 816/32/1
f 817/29/1 818/31/1 819/32/1 820/30/1
f 821/31/1 822/33/1 823/34/1 824/32/1
f 825/29/1 826/31/1 827/32/1 828/30/1
f 829/31/1 830/33/1 831/34/1 832/32/1
f 833/35/1 834/36/1 835/17/1 836/21/1
f 837/37/1 838/38/1 839/24/1 840/23/1
f 841/39/1 842/37/1 843/23/1 844/27/1
f 845/37/1 846/38/1 847/24/1 848/23/1
f 849/39/1 850/37/1 851/23/1 852/27/1
f 853/37/1 854/38/1 855/24/1 856/23/1
f 857/39/1 858/37/1 859/23/1 860/27/1
f 861/37/1 862/38/1 863/24/1 864/23/1
f 865/39/1 866/37/1 867/23/1 868/27/1
f 869/40/1 870/41/1 871/29/1 872/18/1
f 873/29/1 874/31/1 875/32/1 876/30/1
f 877/31/1 878/33/1 879/34/1 880/32/1
f 881/29/1 882/31/1 883/32/1 884/30/1
f 885/31/1 886/33/1 887/34/1 888/32/1
f 889/29/1 890/31/1 891/32/1 892/30/1
f 893/31/1 894/33/1 895/34/1 896/32/1
f 897/29/1 898/31/1 899/32/1 900/30/1
f 901/31/1 902/33/1 903/34/1 904/32/1
f 905/29/1 906/31/1 907/32/1 908/30/1
f 909/31/1 910/33/1 911/34/1 912/32/1

