# Tiled2Unity generated file. Do not modify by hand.
# Wavefront file for 'FIELD_mesh_0003.obj'

# Vertices (Count = 512)
v -29 -1 0
v -30 -1 0
v -30 0 0
v -29 0 0
v -28 -1 0
v -29 -1 0
v -29 0 0
v -28 0 0
v -27 -1 0
v -28 -1 0
v -28 0 0
v -27 0 0
v -26 -1 0
v -27 -1 0
v -27 0 0
v -26 0 0
v -25 -1 0
v -26 -1 0
v -26 0 0
v -25 0 0
v -24 -1 0
v -25 -1 0
v -25 0 0
v -24 0 0
v -23 -1 0
v -24 -1 0
v -24 0 0
v -23 0 0
v -22 -1 0
v -23 -1 0
v -23 0 0
v -22 0 0
v -21 -1 0
v -22 -1 0
v -22 0 0
v -21 0 0
v -20 -1 0
v -21 -1 0
v -21 0 0
v -20 0 0
v -19 -1 0
v -20 -1 0
v -20 0 0
v -19 0 0
v -18 -1 0
v -19 -1 0
v -19 0 0
v -18 0 0
v -17 -1 0
v -18 -1 0
v -18 0 0
v -17 0 0
v -16 -1 0
v -17 -1 0
v -17 0 0
v -16 0 0
v -15 -1 0
v -16 -1 0
v -16 0 0
v -15 0 0
v -14 -1 0
v -15 -1 0
v -15 0 0
v -14 0 0
v -13 -1 0
v -14 -1 0
v -14 0 0
v -13 0 0
v -12 -1 0
v -13 -1 0
v -13 0 0
v -12 0 0
v -11 -1 0
v -12 -1 0
v -12 0 0
v -11 0 0
v -10 -1 0
v -11 -1 0
v -11 0 0
v -10 0 0
v -9 -1 0
v -10 -1 0
v -10 0 0
v -9 0 0
v -8 -1 0
v -9 -1 0
v -9 0 0
v -8 0 0
v -7 -1 0
v -8 -1 0
v -8 0 0
v -7 0 0
v -6 -1 0
v -7 -1 0
v -7 0 0
v -6 0 0
v -5 -1 0
v -6 -1 0
v -6 0 0
v -5 0 0
v -4 -1 0
v -5 -1 0
v -5 0 0
v -4 0 0
v -3 -1 0
v -4 -1 0
v -4 0 0
v -3 0 0
v -2 -1 0
v -3 -1 0
v -3 0 0
v -2 0 0
v -1 -1 0
v -2 -1 0
v -2 0 0
v -1 0 0
v 0 -1 0
v -1 -1 0
v -1 0 0
v 0 0 0
v -29 -2 0
v -30 -2 0
v -30 -1 0
v -29 -1 0
v 0 -2 0
v -1 -2 0
v -1 -1 0
v 0 -1 0
v -29 -3 0
v -30 -3 0
v -30 -2 0
v -29 -2 0
v 0 -3 0
v -1 -3 0
v -1 -2 0
v 0 -2 0
v -29 -4 0
v -30 -4 0
v -30 -3 0
v -29 -3 0
v 0 -4 0
v -1 -4 0
v -1 -3 0
v 0 -3 0
v -29 -5 0
v -30 -5 0
v -30 -4 0
v -29 -4 0
v 0 -5 0
v -1 -5 0
v -1 -4 0
v 0 -4 0
v -29 -6 0
v -30 -6 0
v -30 -5 0
v -29 -5 0
v 0 -6 0
v -1 -6 0
v -1 -5 0
v 0 -5 0
v -29 -7 0
v -30 -7 0
v -30 -6 0
v -29 -6 0
v 0 -7 0
v -1 -7 0
v -1 -6 0
v 0 -6 0
v -29 -8 0
v -30 -8 0
v -30 -7 0
v -29 -7 0
v 0 -8 0
v -1 -8 0
v -1 -7 0
v 0 -7 0
v -29 -9 0
v -30 -9 0
v -30 -8 0
v -29 -8 0
v 0 -9 0
v -1 -9 0
v -1 -8 0
v 0 -8 0
v -29 -10 0
v -30 -10 0
v -30 -9 0
v -29 -9 0
v 0 -10 0
v -1 -10 0
v -1 -9 0
v 0 -9 0
v -29 -11 0
v -30 -11 0
v -30 -10 0
v -29 -10 0
v 0 -11 0
v -1 -11 0
v -1 -10 0
v 0 -10 0
v -29 -12 0
v -30 -12 0
v -30 -11 0
v -29 -11 0
v 0 -12 0
v -1 -12 0
v -1 -11 0
v 0 -11 0
v -29 -13 0
v -30 -13 0
v -30 -12 0
v -29 -12 0
v 0 -13 0
v -1 -13 0
v -1 -12 0
v 0 -12 0
v -29 -14 0
v -30 -14 0
v -30 -13 0
v -29 -13 0
v 0 -14 0
v -1 -14 0
v -1 -13 0
v 0 -13 0
v -29 -15 0
v -30 -15 0
v -30 -14 0
v -29 -14 0
v 0 -15 0
v -1 -15 0
v -1 -14 0
v 0 -14 0
v -29 -16 0
v -30 -16 0
v -30 -15 0
v -29 -15 0
v 0 -16 0
v -1 -16 0
v -1 -15 0
v 0 -15 0
v -29 -17 0
v -30 -17 0
v -30 -16 0
v -29 -16 0
v 0 -17 0
v -1 -17 0
v -1 -16 0
v 0 -16 0
v -29 -18 0
v -30 -18 0
v -30 -17 0
v -29 -17 0
v 0 -18 0
v -1 -18 0
v -1 -17 0
v 0 -17 0
v -29 -19 0
v -30 -19 0
v -30 -18 0
v -29 -18 0
v 0 -19 0
v -1 -19 0
v -1 -18 0
v 0 -18 0
v -29 -20 0
v -30 -20 0
v -30 -19 0
v -29 -19 0
v 0 -20 0
v -1 -20 0
v -1 -19 0
v 0 -19 0
v -29 -21 0
v -30 -21 0
v -30 -20 0
v -29 -20 0
v 0 -21 0
v -1 -21 0
v -1 -20 0
v 0 -20 0
v -29 -22 0
v -30 -22 0
v -30 -21 0
v -29 -21 0
v 0 -22 0
v -1 -22 0
v -1 -21 0
v 0 -21 0
v -29 -23 0
v -30 -23 0
v -30 -22 0
v -29 -22 0
v 0 -23 0
v -1 -23 0
v -1 -22 0
v 0 -22 0
v -29 -24 0
v -30 -24 0
v -30 -23 0
v -29 -23 0
v 0 -24 0
v -1 -24 0
v -1 -23 0
v 0 -23 0
v -29 -25 0
v -30 -25 0
v -30 -24 0
v -29 -24 0
v 0 -25 0
v -1 -25 0
v -1 -24 0
v 0 -24 0
v -29 -26 0
v -30 -26 0
v -30 -25 0
v -29 -25 0
v -28 -26 0
v -29 -26 0
v -29 -25 0
v -28 -25 0
v -1 -26 0
v -2 -26 0
v -2 -25 0
v -1 -25 0
v 0 -26 0
v -1 -26 0
v -1 -25 0
v 0 -25 0
v -29 -27 0
v -30 -27 0
v -30 -26 0
v -29 -26 0
v -28 -27 0
v -29 -27 0
v -29 -26 0
v -28 -26 0
v -20 -27 0
v -21 -27 0
v -21 -26 0
v -20 -26 0
v -19 -27 0
v -20 -27 0
v -20 -26 0
v -19 -26 0
v -10 -27 0
v -11 -27 0
v -11 -26 0
v -10 -26 0
v -9 -27 0
v -10 -27 0
v -10 -26 0
v -9 -26 0
v -1 -27 0
v -2 -27 0
v -2 -26 0
v -1 -26 0
v 0 -27 0
v -1 -27 0
v -1 -26 0
v 0 -26 0
v -29 -28 0
v -30 -28 0
v -30 -27 0
v -29 -27 0
v -28 -28 0
v -29 -28 0
v -29 -27 0
v -28 -27 0
v -20 -28 0
v -21 -28 0
v -21 -27 0
v -20 -27 0
v -19 -28 0
v -20 -28 0
v -20 -27 0
v -19 -27 0
v -10 -28 0
v -11 -28 0
v -11 -27 0
v -10 -27 0
v -9 -28 0
v -10 -28 0
v -10 -27 0
v -9 -27 0
v -1 -28 0
v -2 -28 0
v -2 -27 0
v -1 -27 0
v 0 -28 0
v -1 -28 0
v -1 -27 0
v 0 -27 0
v -29 -29 0
v -30 -29 0
v -30 -28 0
v -29 -28 0
v -28 -29 0
v -29 -29 0
v -29 -28 0
v -28 -28 0
v -20 -29 0
v -21 -29 0
v -21 -28 0
v -20 -28 0
v -19 -29 0
v -20 -29 0
v -20 -28 0
v -19 -28 0
v -10 -29 0
v -11 -29 0
v -11 -28 0
v -10 -28 0
v -9 -29 0
v -10 -29 0
v -10 -28 0
v -9 -28 0
v -1 -29 0
v -2 -29 0
v -2 -28 0
v -1 -28 0
v 0 -29 0
v -1 -29 0
v -1 -28 0
v 0 -28 0
v -29 -30 0
v -30 -30 0
v -30 -29 0
v -29 -29 0
v -28 -30 0
v -29 -30 0
v -29 -29 0
v -28 -29 0
v -27 -30 0
v -28 -30 0
v -28 -29 0
v -27 -29 0
v -26 -30 0
v -27 -30 0
v -27 -29 0
v -26 -29 0
v -25 -30 0
v -26 -30 0
v -26 -29 0
v -25 -29 0
v -24 -30 0
v -25 -30 0
v -25 -29 0
v -24 -29 0
v -23 -30 0
v -24 -30 0
v -24 -29 0
v -23 -29 0
v -22 -30 0
v -23 -30 0
v -23 -29 0
v -22 -29 0
v -21 -30 0
v -22 -30 0
v -22 -29 0
v -21 -29 0
v -20 -30 0
v -21 -30 0
v -21 -29 0
v -20 -29 0
v -19 -30 0
v -20 -30 0
v -20 -29 0
v -19 -29 0
v -10 -30 0
v -11 -30 0
v -11 -29 0
v -10 -29 0
v -9 -30 0
v -10 -30 0
v -10 -29 0
v -9 -29 0
v -8 -30 0
v -9 -30 0
v -9 -29 0
v -8 -29 0
v -7 -30 0
v -8 -30 0
v -8 -29 0
v -7 -29 0
v -6 -30 0
v -7 -30 0
v -7 -29 0
v -6 -29 0
v -5 -30 0
v -6 -30 0
v -6 -29 0
v -5 -29 0
v -4 -30 0
v -5 -30 0
v -5 -29 0
v -4 -29 0
v -3 -30 0
v -4 -30 0
v -4 -29 0
v -3 -29 0
v -2 -30 0
v -3 -30 0
v -3 -29 0
v -2 -29 0
v -1 -30 0
v -2 -30 0
v -2 -29 0
v -1 -29 0
v 0 -30 0
v -1 -30 0
v -1 -29 0
v 0 -29 0

# Texture cooridinates (Count = 34)
vt 0.175 0.5
vt 0.2 0.5
vt 0.2 0.5277778
vt 0.175 0.5277778
vt 0.125 0.4444444
vt 0.15 0.4444444
vt 0.15 0.4722222
vt 0.125 0.4722222
vt 0.2 0.5555556
vt 0.175 0.5555556
vt 0.175 0.4722222
vt 0.15 0.5
vt 0.2 0.4722222
vt 0.15 0.5277778
vt 0.15 0.5555556
vt 0.125 0.5277778
vt 0.125 0.5555556
vt 0.125 0.5
vt 0.075 0.6111111
vt 0.1 0.6111111
vt 0.1 0.6388889
vt 0.075 0.6388889
vt 0.025 0.6111111
vt 0.05 0.6111111
vt 0.05 0.6388889
vt 0.025 0.6388889
vt 0.075 0.5833334
vt 0.1 0.5833334
vt 0.025 0.5555556
vt 0.05 0.5555556
vt 0.05 0.5833334
vt 0.025 0.5833334
vt 0.075 0.5555556
vt 0.1 0.5555556

# Normal
vn 0 0 -1

# Mesh description
g FIELD_mesh_0003

# Faces
f 1/1/1 2/2/1 3/3/1 4/4/1
f 5/5/1 6/6/1 7/7/1 8/8/1
f 9/5/1 10/6/1 11/7/1 12/8/1
f 13/5/1 14/6/1 15/7/1 16/8/1
f 17/5/1 18/6/1 19/7/1 20/8/1
f 21/5/1 22/6/1 23/7/1 24/8/1
f 25/5/1 26/6/1 27/7/1 28/8/1
f 29/5/1 30/6/1 31/7/1 32/8/1
f 33/5/1 34/6/1 35/7/1 36/8/1
f 37/5/1 38/6/1 39/7/1 40/8/1
f 41/5/1 42/6/1 43/7/1 44/8/1
f 45/5/1 46/6/1 47/7/1 48/8/1
f 49/5/1 50/6/1 51/7/1 52/8/1
f 53/5/1 54/6/1 55/7/1 56/8/1
f 57/5/1 58/6/1 59/7/1 60/8/1
f 61/5/1 62/6/1 63/7/1 64/8/1
f 65/5/1 66/6/1 67/7/1 68/8/1
f 69/5/1 70/6/1 71/7/1 72/8/1
f 73/5/1 74/6/1 75/7/1 76/8/1
f 77/5/1 78/6/1 79/7/1 80/8/1
f 81/5/1 82/6/1 83/7/1 84/8/1
f 85/5/1 86/6/1 87/7/1 88/8/1
f 89/5/1 90/6/1 91/7/1 92/8/1
f 93/5/1 94/6/1 95/7/1 96/8/1
f 97/5/1 98/6/1 99/7/1 100/8/1
f 101/5/1 102/6/1 103/7/1 104/8/1
f 105/5/1 106/6/1 107/7/1 108/8/1
f 109/5/1 110/6/1 111/7/1 112/8/1
f 113/5/1 114/6/1 115/7/1 116/8/1
f 117/4/1 118/3/1 119/9/1 120/10/1
f 121/7/1 122/11/1 123/1/1 124/12/1
f 125/11/1 126/13/1 127/2/1 128/1/1
f 129/7/1 130/11/1 131/1/1 132/12/1
f 133/11/1 134/13/1 135/2/1 136/1/1
f 137/7/1 138/11/1 139/1/1 140/12/1
f 141/11/1 142/13/1 143/2/1 144/1/1
f 145/7/1 146/11/1 147/1/1 148/12/1
f 149/11/1 150/13/1 151/2/1 152/1/1
f 153/7/1 154/11/1 155/1/1 156/12/1
f 157/11/1 158/13/1 159/2/1 160/1/1
f 161/7/1 162/11/1 163/1/1 164/12/1
f 165/11/1 166/13/1 167/2/1 168/1/1
f 169/7/1 170/11/1 171/1/1 172/12/1
f 173/11/1 174/13/1 175/2/1 176/1/1
f 177/7/1 178/11/1 179/1/1 180/12/1
f 181/11/1 182/13/1 183/2/1 184/1/1
f 185/7/1 186/11/1 187/1/1 188/12/1
f 189/11/1 190/13/1 191/2/1 192/1/1
f 193/7/1 194/11/1 195/1/1 196/12/1
f 197/11/1 198/13/1 199/2/1 200/1/1
f 201/7/1 202/11/1 203/1/1 204/12/1
f 205/11/1 206/13/1 207/2/1 208/1/1
f 209/7/1 210/11/1 211/1/1 212/12/1
f 213/11/1 214/13/1 215/2/1 216/1/1
f 217/7/1 218/11/1 219/1/1 220/12/1
f 221/11/1 222/13/1 223/2/1 224/1/1
f 225/7/1 226/11/1 227/1/1 228/12/1
f 229/11/1 230/13/1 231/2/1 232/1/1
f 233/7/1 234/11/1 235/1/1 236/12/1
f 237/11/1 238/13/1 239/2/1 240/1/1
f 241/7/1 242/11/1 243/1/1 244/12/1
f 245/11/1 246/13/1 247/2/1 248/1/1
f 249/7/1 250/11/1 251/1/1 252/12/1
f 253/11/1 254/13/1 255/2/1 256/1/1
f 257/7/1 258/11/1 259/1/1 260/12/1
f 261/11/1 262/13/1 263/2/1 264/1/1
f 265/7/1 266/11/1 267/1/1 268/12/1
f 269/11/1 270/13/1 271/2/1 272/1/1
f 273/7/1 274/11/1 275/1/1 276/12/1
f 277/11/1 278/13/1 279/2/1 280/1/1
f 281/7/1 282/11/1 283/1/1 284/12/1
f 285/11/1 286/13/1 287/2/1 288/1/1
f 289/7/1 290/11/1 291/1/1 292/12/1
f 293/11/1 294/13/1 295/2/1 296/1/1
f 297/7/1 298/11/1 299/1/1 300/12/1
f 301/11/1 302/13/1 303/2/1 304/1/1
f 305/7/1 306/11/1 307/1/1 308/12/1
f 309/11/1 310/13/1 311/2/1 312/1/1
f 313/14/1 314/4/1 315/10/1 316/15/1
f 317/16/1 318/14/1 319/15/1 320/17/1
f 321/14/1 322/4/1 323/10/1 324/15/1
f 325/16/1 326/14/1 327/15/1 328/17/1
f 329/12/1 330/1/1 331/4/1 332/14/1
f 333/18/1 334/12/1 335/14/1 336/16/1
f 337/19/1 338/20/1 339/21/1 340/22/1
f 341/23/1 342/24/1 343/25/1 344/26/1
f 345/19/1 346/20/1 347/21/1 348/22/1
f 349/23/1 350/24/1 351/25/1 352/26/1
f 353/12/1 354/1/1 355/4/1 356/14/1
f 357/18/1 358/12/1 359/14/1 360/16/1
f 361/14/1 362/4/1 363/10/1 364/15/1
f 365/16/1 366/14/1 367/15/1 368/17/1
f 369/27/1 370/28/1 371/20/1 372/19/1
f 373/27/1 374/28/1 375/20/1 376/19/1
f 377/27/1 378/28/1 379/20/1 380/19/1
f 381/27/1 382/28/1 383/20/1 384/19/1
f 385/14/1 386/4/1 387/10/1 388/15/1
f 389/16/1 390/14/1 391/15/1 392/17/1
f 393/12/1 394/1/1 395/4/1 396/14/1
f 397/18/1 398/12/1 399/14/1 400/16/1
f 401/27/1 402/28/1 403/20/1 404/19/1
f 405/27/1 406/28/1 407/20/1 408/19/1
f 409/27/1 410/28/1 411/20/1 412/19/1
f 413/27/1 414/28/1 415/20/1 416/19/1
f 417/12/1 418/1/1 419/4/1 420/14/1
f 421/18/1 422/12/1 423/14/1 424/16/1
f 425/24/1 426/19/1 427/22/1 428/25/1
f 429/24/1 430/19/1 431/22/1 432/25/1
f 433/24/1 434/19/1 435/22/1 436/25/1
f 437/24/1 438/19/1 439/22/1 440/25/1
f 441/24/1 442/19/1 443/22/1 444/25/1
f 445/24/1 446/19/1 447/22/1 448/25/1
f 449/24/1 450/19/1 451/22/1 452/25/1
f 453/24/1 454/19/1 455/22/1 456/25/1
f 457/24/1 458/19/1 459/22/1 460/25/1
f 461/29/1 462/30/1 463/31/1 464/32/1
f 465/27/1 466/28/1 467/20/1 468/19/1
f 469/27/1 470/28/1 471/20/1 472/19/1
f 473/33/1 474/34/1 475/28/1 476/27/1
f 477/24/1 478/19/1 479/22/1 480/25/1
f 481/24/1 482/19/1 483/22/1 484/25/1
f 485/24/1 486/19/1 487/22/1 488/25/1
f 489/24/1 490/19/1 491/22/1 492/25/1
f 493/24/1 494/19/1 495/22/1 496/25/1
f 497/24/1 498/19/1 499/22/1 500/25/1
f 501/24/1 502/19/1 503/22/1 504/25/1
f 505/24/1 506/19/1 507/22/1 508/25/1
f 509/24/1 510/19/1 511/22/1 512/25/1

