# Tiled2Unity generated file. Do not modify by hand.
# Wavefront file for 'TOCLA_mesh_0003.obj'

# Vertices (Count = 936)
v -18 -1 0
v -19 -1 0
v -19 0 0
v -18 0 0
v -17 -1 0
v -18 -1 0
v -18 0 0
v -17 0 0
v -8 -1 0
v -9 -1 0
v -9 0 0
v -8 0 0
v -7 -1 0
v -8 -1 0
v -8 0 0
v -7 0 0
v -18 -2 0
v -19 -2 0
v -19 -1 0
v -18 -1 0
v -17 -2 0
v -18 -2 0
v -18 -1 0
v -17 -1 0
v -8 -2 0
v -9 -2 0
v -9 -1 0
v -8 -1 0
v -7 -2 0
v -8 -2 0
v -8 -1 0
v -7 -1 0
v -26 -3 0
v -27 -3 0
v -27 -2 0
v -26 -2 0
v -25 -3 0
v -26 -3 0
v -26 -2 0
v -25 -2 0
v -24 -3 0
v -25 -3 0
v -25 -2 0
v -24 -2 0
v -23 -3 0
v -24 -3 0
v -24 -2 0
v -23 -2 0
v -22 -3 0
v -23 -3 0
v -23 -2 0
v -22 -2 0
v -21 -3 0
v -22 -3 0
v -22 -2 0
v -21 -2 0
v -20 -3 0
v -21 -3 0
v -21 -2 0
v -20 -2 0
v -19 -3 0
v -20 -3 0
v -20 -2 0
v -19 -2 0
v -18 -3 0
v -19 -3 0
v -19 -2 0
v -18 -2 0
v -17 -3 0
v -18 -3 0
v -18 -2 0
v -17 -2 0
v -16 -3 0
v -17 -3 0
v -17 -2 0
v -16 -2 0
v -15 -3 0
v -16 -3 0
v -16 -2 0
v -15 -2 0
v -14 -3 0
v -15 -3 0
v -15 -2 0
v -14 -2 0
v -13 -3 0
v -14 -3 0
v -14 -2 0
v -13 -2 0
v -12 -3 0
v -13 -3 0
v -13 -2 0
v -12 -2 0
v -11 -3 0
v -12 -3 0
v -12 -2 0
v -11 -2 0
v -10 -3 0
v -11 -3 0
v -11 -2 0
v -10 -2 0
v -9 -3 0
v -10 -3 0
v -10 -2 0
v -9 -2 0
v -8 -3 0
v -9 -3 0
v -9 -2 0
v -8 -2 0
v -7 -3 0
v -8 -3 0
v -8 -2 0
v -7 -2 0
v -6 -3 0
v -7 -3 0
v -7 -2 0
v -6 -2 0
v -5 -3 0
v -6 -3 0
v -6 -2 0
v -5 -2 0
v -4 -3 0
v -5 -3 0
v -5 -2 0
v -4 -2 0
v -3 -3 0
v -4 -3 0
v -4 -2 0
v -3 -2 0
v -26 -4 0
v -27 -4 0
v -27 -3 0
v -26 -3 0
v -25 -4 0
v -26 -4 0
v -26 -3 0
v -25 -3 0
v -4 -4 0
v -5 -4 0
v -5 -3 0
v -4 -3 0
v -3 -4 0
v -4 -4 0
v -4 -3 0
v -3 -3 0
v -26 -5 0
v -27 -5 0
v -27 -4 0
v -26 -4 0
v -23 -5 0
v -24 -5 0
v -24 -4 0
v -23 -4 0
v -22 -5 0
v -23 -5 0
v -23 -4 0
v -22 -4 0
v -7 -5 0
v -8 -5 0
v -8 -4 0
v -7 -4 0
v -6 -5 0
v -7 -5 0
v -7 -4 0
v -6 -4 0
v -3 -5 0
v -4 -5 0
v -4 -4 0
v -3 -4 0
v -1 -5 0
v -2 -5 0
v -2 -4 0
v -1 -4 0
v 0 -5 0
v -1 -5 0
v -1 -4 0
v 0 -4 0
v -26 -6 0
v -27 -6 0
v -27 -5 0
v -26 -5 0
v -23 -6 0
v -24 -6 0
v -24 -5 0
v -23 -5 0
v -22 -6 0
v -23 -6 0
v -23 -5 0
v -22 -5 0
v -7 -6 0
v -8 -6 0
v -8 -5 0
v -7 -5 0
v -6 -6 0
v -7 -6 0
v -7 -5 0
v -6 -5 0
v -3 -6 0
v -4 -6 0
v -4 -5 0
v -3 -5 0
v -1 -6 0
v -2 -6 0
v -2 -5 0
v -1 -5 0
v 0 -6 0
v -1 -6 0
v -1 -5 0
v 0 -5 0
v -28 -7 0
v -29 -7 0
v -29 -6 0
v -28 -6 0
v -27 -7 0
v -28 -7 0
v -28 -6 0
v -27 -6 0
v -26 -7 0
v -27 -7 0
v -27 -6 0
v -26 -6 0
v -23 -7 0
v -24 -7 0
v -24 -6 0
v -23 -6 0
v -22 -7 0
v -23 -7 0
v -23 -6 0
v -22 -6 0
v -7 -7 0
v -8 -7 0
v -8 -6 0
v -7 -6 0
v -6 -7 0
v -7 -7 0
v -7 -6 0
v -6 -6 0
v -3 -7 0
v -4 -7 0
v -4 -6 0
v -3 -6 0
v -28 -8 0
v -29 -8 0
v -29 -7 0
v -28 -7 0
v -27 -8 0
v -28 -8 0
v -28 -7 0
v -27 -7 0
v -26 -8 0
v -27 -8 0
v -27 -7 0
v -26 -7 0
v -19 -8 0
v -20 -8 0
v -20 -7 0
v -19 -7 0
v -18 -8 0
v -19 -8 0
v -19 -7 0
v -18 -7 0
v -17 -8 0
v -18 -8 0
v -18 -7 0
v -17 -7 0
v -12 -8 0
v -13 -8 0
v -13 -7 0
v -12 -7 0
v -11 -8 0
v -12 -8 0
v -12 -7 0
v -11 -7 0
v -10 -8 0
v -11 -8 0
v -11 -7 0
v -10 -7 0
v -3 -8 0
v -4 -8 0
v -4 -7 0
v -3 -7 0
v -26 -9 0
v -27 -9 0
v -27 -8 0
v -26 -8 0
v -19 -9 0
v -20 -9 0
v -20 -8 0
v -19 -8 0
v -18 -9 0
v -19 -9 0
v -19 -8 0
v -18 -8 0
v -17 -9 0
v -18 -9 0
v -18 -8 0
v -17 -8 0
v -12 -9 0
v -13 -9 0
v -13 -8 0
v -12 -8 0
v -11 -9 0
v -12 -9 0
v -12 -8 0
v -11 -8 0
v -10 -9 0
v -11 -9 0
v -11 -8 0
v -10 -8 0
v -3 -9 0
v -4 -9 0
v -4 -8 0
v -3 -8 0
v -26 -10 0
v -27 -10 0
v -27 -9 0
v -26 -9 0
v -19 -10 0
v -20 -10 0
v -20 -9 0
v -19 -9 0
v -18 -10 0
v -19 -10 0
v -19 -9 0
v -18 -9 0
v -17 -10 0
v -18 -10 0
v -18 -9 0
v -17 -9 0
v -12 -10 0
v -13 -10 0
v -13 -9 0
v -12 -9 0
v -11 -10 0
v -12 -10 0
v -12 -9 0
v -11 -9 0
v -10 -10 0
v -11 -10 0
v -11 -9 0
v -10 -9 0
v -3 -10 0
v -4 -10 0
v -4 -9 0
v -3 -9 0
v -26 -11 0
v -27 -11 0
v -27 -10 0
v -26 -10 0
v -3 -11 0
v -4 -11 0
v -4 -10 0
v -3 -10 0
v -29 -12 0
v -30 -12 0
v -30 -11 0
v -29 -11 0
v -28 -12 0
v -29 -12 0
v -29 -11 0
v -28 -11 0
v -27 -12 0
v -28 -12 0
v -28 -11 0
v -27 -11 0
v -26 -12 0
v -27 -12 0
v -27 -11 0
v -26 -11 0
v -3 -12 0
v -4 -12 0
v -4 -11 0
v -3 -11 0
v -2 -12 0
v -3 -12 0
v -3 -11 0
v -2 -11 0
v -1 -12 0
v -2 -12 0
v -2 -11 0
v -1 -11 0
v 0 -12 0
v -1 -12 0
v -1 -11 0
v 0 -11 0
v -29 -15 0
v -30 -15 0
v -30 -14 0
v -29 -14 0
v -28 -15 0
v -29 -15 0
v -29 -14 0
v -28 -14 0
v -27 -15 0
v -28 -15 0
v -28 -14 0
v -27 -14 0
v -26 -15 0
v -27 -15 0
v -27 -14 0
v -26 -14 0
v -25 -15 0
v -26 -15 0
v -26 -14 0
v -25 -14 0
v -4 -15 0
v -5 -15 0
v -5 -14 0
v -4 -14 0
v -3 -15 0
v -4 -15 0
v -4 -14 0
v -3 -14 0
v -2 -15 0
v -3 -15 0
v -3 -14 0
v -2 -14 0
v -1 -15 0
v -2 -15 0
v -2 -14 0
v -1 -14 0
v 0 -15 0
v -1 -15 0
v -1 -14 0
v 0 -14 0
v -29 -16 0
v -30 -16 0
v -30 -15 0
v -29 -15 0
v -28 -16 0
v -29 -16 0
v -29 -15 0
v -28 -15 0
v -27 -16 0
v -28 -16 0
v -28 -15 0
v -27 -15 0
v -26 -16 0
v -27 -16 0
v -27 -15 0
v -26 -15 0
v -25 -16 0
v -26 -16 0
v -26 -15 0
v -25 -15 0
v -4 -16 0
v -5 -16 0
v -5 -15 0
v -4 -15 0
v -3 -16 0
v -4 -16 0
v -4 -15 0
v -3 -15 0
v -2 -16 0
v -3 -16 0
v -3 -15 0
v -2 -15 0
v -1 -16 0
v -2 -16 0
v -2 -15 0
v -1 -15 0
v 0 -16 0
v -1 -16 0
v -1 -15 0
v 0 -15 0
v -29 -17 0
v -30 -17 0
v -30 -16 0
v -29 -16 0
v -28 -17 0
v -29 -17 0
v -29 -16 0
v -28 -16 0
v -27 -17 0
v -28 -17 0
v -28 -16 0
v -27 -16 0
v -26 -17 0
v -27 -17 0
v -27 -16 0
v -26 -16 0
v -25 -17 0
v -26 -17 0
v -26 -16 0
v -25 -16 0
v -4 -17 0
v -5 -17 0
v -5 -16 0
v -4 -16 0
v -3 -17 0
v -4 -17 0
v -4 -16 0
v -3 -16 0
v -2 -17 0
v -3 -17 0
v -3 -16 0
v -2 -16 0
v -1 -17 0
v -2 -17 0
v -2 -16 0
v -1 -16 0
v 0 -17 0
v -1 -17 0
v -1 -16 0
v 0 -16 0
v -29 -18 0
v -30 -18 0
v -30 -17 0
v -29 -17 0
v -29 -19 0
v -30 -19 0
v -30 -18 0
v -29 -18 0
v -29 -20 0
v -30 -20 0
v -30 -19 0
v -29 -19 0
v 0 -20 0
v -1 -20 0
v -1 -19 0
v 0 -19 0
v -29 -21 0
v -30 -21 0
v -30 -20 0
v -29 -20 0
v -27 -21 0
v -28 -21 0
v -28 -20 0
v -27 -20 0
v -26 -21 0
v -27 -21 0
v -27 -20 0
v -26 -20 0
v -3 -21 0
v -4 -21 0
v -4 -20 0
v -3 -20 0
v -2 -21 0
v -3 -21 0
v -3 -20 0
v -2 -20 0
v 0 -21 0
v -1 -21 0
v -1 -20 0
v 0 -20 0
v -29 -22 0
v -30 -22 0
v -30 -21 0
v -29 -21 0
v -27 -22 0
v -28 -22 0
v -28 -21 0
v -27 -21 0
v -26 -22 0
v -27 -22 0
v -27 -21 0
v -26 -21 0
v -3 -22 0
v -4 -22 0
v -4 -21 0
v -3 -21 0
v -2 -22 0
v -3 -22 0
v -3 -21 0
v -2 -21 0
v 0 -22 0
v -1 -22 0
v -1 -21 0
v 0 -21 0
v -29 -23 0
v -30 -23 0
v -30 -22 0
v -29 -22 0
v 0 -23 0
v -1 -23 0
v -1 -22 0
v 0 -22 0
v -29 -24 0
v -30 -24 0
v -30 -23 0
v -29 -23 0
v 0 -24 0
v -1 -24 0
v -1 -23 0
v 0 -23 0
v -29 -25 0
v -30 -25 0
v -30 -24 0
v -29 -24 0
v -22 -25 0
v -23 -25 0
v -23 -24 0
v -22 -24 0
v -21 -25 0
v -22 -25 0
v -22 -24 0
v -21 -24 0
v -20 -25 0
v -21 -25 0
v -21 -24 0
v -20 -24 0
v -17 -25 0
v -18 -25 0
v -18 -24 0
v -17 -24 0
v -16 -25 0
v -17 -25 0
v -17 -24 0
v -16 -24 0
v -15 -25 0
v -16 -25 0
v -16 -24 0
v -15 -24 0
v -14 -25 0
v -15 -25 0
v -15 -24 0
v -14 -24 0
v -13 -25 0
v -14 -25 0
v -14 -24 0
v -13 -24 0
v -12 -25 0
v -13 -25 0
v -13 -24 0
v -12 -24 0
v -9 -25 0
v -10 -25 0
v -10 -24 0
v -9 -24 0
v -8 -25 0
v -9 -25 0
v -9 -24 0
v -8 -24 0
v -7 -25 0
v -8 -25 0
v -8 -24 0
v -7 -24 0
v 0 -25 0
v -1 -25 0
v -1 -24 0
v 0 -24 0
v -29 -26 0
v -30 -26 0
v -30 -25 0
v -29 -25 0
v -22 -26 0
v -23 -26 0
v -23 -25 0
v -22 -25 0
v -21 -26 0
v -22 -26 0
v -22 -25 0
v -21 -25 0
v -20 -26 0
v -21 -26 0
v -21 -25 0
v -20 -25 0
v -17 -26 0
v -18 -26 0
v -18 -25 0
v -17 -25 0
v -16 -26 0
v -17 -26 0
v -17 -25 0
v -16 -25 0
v -15 -26 0
v -16 -26 0
v -16 -25 0
v -15 -25 0
v -14 -26 0
v -15 -26 0
v -15 -25 0
v -14 -25 0
v -13 -26 0
v -14 -26 0
v -14 -25 0
v -13 -25 0
v -12 -26 0
v -13 -26 0
v -13 -25 0
v -12 -25 0
v -9 -26 0
v -10 -26 0
v -10 -25 0
v -9 -25 0
v -8 -26 0
v -9 -26 0
v -9 -25 0
v -8 -25 0
v -7 -26 0
v -8 -26 0
v -8 -25 0
v -7 -25 0
v 0 -26 0
v -1 -26 0
v -1 -25 0
v 0 -25 0
v -29 -27 0
v -30 -27 0
v -30 -26 0
v -29 -26 0
v -25 -27 0
v -26 -27 0
v -26 -26 0
v -25 -26 0
v -4 -27 0
v -5 -27 0
v -5 -26 0
v -4 -26 0
v 0 -27 0
v -1 -27 0
v -1 -26 0
v 0 -26 0
v -29 -28 0
v -30 -28 0
v -30 -27 0
v -29 -27 0
v -25 -28 0
v -26 -28 0
v -26 -27 0
v -25 -27 0
v -24 -28 0
v -25 -28 0
v -25 -27 0
v -24 -27 0
v -20 -28 0
v -21 -28 0
v -21 -27 0
v -20 -27 0
v -19 -28 0
v -20 -28 0
v -20 -27 0
v -19 -27 0
v -14 -28 0
v -15 -28 0
v -15 -27 0
v -14 -27 0
v -13 -28 0
v -14 -28 0
v -14 -27 0
v -13 -27 0
v -9 -28 0
v -10 -28 0
v -10 -27 0
v -9 -27 0
v -8 -28 0
v -9 -28 0
v -9 -27 0
v -8 -27 0
v -7 -28 0
v -8 -28 0
v -8 -27 0
v -7 -27 0
v -5 -28 0
v -6 -28 0
v -6 -27 0
v -5 -27 0
v -4 -28 0
v -5 -28 0
v -5 -27 0
v -4 -27 0
v 0 -28 0
v -1 -28 0
v -1 -27 0
v 0 -27 0
v -29 -29 0
v -30 -29 0
v -30 -28 0
v -29 -28 0
v -25 -29 0
v -26 -29 0
v -26 -28 0
v -25 -28 0
v -24 -29 0
v -25 -29 0
v -25 -28 0
v -24 -28 0
v -20 -29 0
v -21 -29 0
v -21 -28 0
v -20 -28 0
v -19 -29 0
v -20 -29 0
v -20 -28 0
v -19 -28 0
v -14 -29 0
v -15 -29 0
v -15 -28 0
v -14 -28 0
v -13 -29 0
v -14 -29 0
v -14 -28 0
v -13 -28 0
v -9 -29 0
v -10 -29 0
v -10 -28 0
v -9 -28 0
v -8 -29 0
v -9 -29 0
v -9 -28 0
v -8 -28 0
v -7 -29 0
v -8 -29 0
v -8 -28 0
v -7 -28 0
v -5 -29 0
v -6 -29 0
v -6 -28 0
v -5 -28 0
v -4 -29 0
v -5 -29 0
v -5 -28 0
v -4 -28 0
v 0 -29 0
v -1 -29 0
v -1 -28 0
v 0 -28 0
v -29 -30 0
v -30 -30 0
v -30 -29 0
v -29 -29 0
v -28 -30 0
v -29 -30 0
v -29 -29 0
v -28 -29 0
v -27 -30 0
v -28 -30 0
v -28 -29 0
v -27 -29 0
v -26 -30 0
v -27 -30 0
v -27 -29 0
v -26 -29 0
v -25 -30 0
v -26 -30 0
v -26 -29 0
v -25 -29 0
v -24 -30 0
v -25 -30 0
v -25 -29 0
v -24 -29 0
v -23 -30 0
v -24 -30 0
v -24 -29 0
v -23 -29 0
v -22 -30 0
v -23 -30 0
v -23 -29 0
v -22 -29 0
v -21 -30 0
v -22 -30 0
v -22 -29 0
v -21 -29 0
v -20 -30 0
v -21 -30 0
v -21 -29 0
v -20 -29 0
v -19 -30 0
v -20 -30 0
v -20 -29 0
v -19 -29 0
v -18 -30 0
v -19 -30 0
v -19 -29 0
v -18 -29 0
v -17 -30 0
v -18 -30 0
v -18 -29 0
v -17 -29 0
v -16 -30 0
v -17 -30 0
v -17 -29 0
v -16 -29 0
v -15 -30 0
v -16 -30 0
v -16 -29 0
v -15 -29 0
v -14 -30 0
v -15 -30 0
v -15 -29 0
v -14 -29 0
v -13 -30 0
v -14 -30 0
v -14 -29 0
v -13 -29 0
v -12 -30 0
v -13 -30 0
v -13 -29 0
v -12 -29 0
v -11 -30 0
v -12 -30 0
v -12 -29 0
v -11 -29 0
v -10 -30 0
v -11 -30 0
v -11 -29 0
v -10 -29 0
v -9 -30 0
v -10 -30 0
v -10 -29 0
v -9 -29 0
v -8 -30 0
v -9 -30 0
v -9 -29 0
v -8 -29 0
v -7 -30 0
v -8 -30 0
v -8 -29 0
v -7 -29 0
v -6 -30 0
v -7 -30 0
v -7 -29 0
v -6 -29 0
v -5 -30 0
v -6 -30 0
v -6 -29 0
v -5 -29 0
v -4 -30 0
v -5 -30 0
v -5 -29 0
v -4 -29 0
v -3 -30 0
v -4 -30 0
v -4 -29 0
v -3 -29 0
v -2 -30 0
v -3 -30 0
v -3 -29 0
v -2 -29 0
v -1 -30 0
v -2 -30 0
v -2 -29 0
v -1 -29 0
v 0 -30 0
v -1 -30 0
v -1 -29 0
v 0 -29 0

# Texture cooridinates (Count = 109)
vt 0.25 0.6666666
vt 0.275 0.6666666
vt 0.275 0.6944444
vt 0.25 0.6944444
vt 0.225 0.6666666
vt 0.225 0.6944444
vt 0.25 0.6388889
vt 0.275 0.6388889
vt 0.225 0.6388889
vt 0.075 0.6111111
vt 0.1 0.6111111
vt 0.1 0.6388889
vt 0.075 0.6388889
vt 0.05 0.6111111
vt 0.05 0.6388889
vt 0.025 0.6111111
vt 0.025 0.6388889
vt 0.075 0.5833334
vt 0.1 0.5833334
vt 0.375 0.08333331
vt 0.4 0.08333331
vt 0.4 0.1111111
vt 0.375 0.1111111
vt 0.35 0.08333331
vt 0.35 0.1111111
vt 0.225 0.1111111
vt 0.25 0.1111111
vt 0.25 0.1388889
vt 0.225 0.1388889
vt 0.2 0.1111111
vt 0.2 0.1388889
vt 0.125 0.9444444
vt 0.15 0.9444444
vt 0.15 0.9722222
vt 0.125 0.9722222
vt 0.1 0.9444444
vt 0.1 0.9722222
vt 0.225 0.08333331
vt 0.25 0.08333331
vt 0.2 0.08333331
vt 0.125 0.9166667
vt 0.15 0.9166667
vt 0.1 0.9166667
vt 0.225 0.05555558
vt 0.25 0.05555558
vt 0.2 0.05555558
vt 0.6 0.7222222
vt 0.625 0.7222222
vt 0.625 0.75
vt 0.6 0.75
vt 0.575 0.7222222
vt 0.575 0.75
vt 0.55 0.7222222
vt 0.55 0.75
vt 0.6 0.6944444
vt 0.625 0.6944444
vt 0.575 0.6944444
vt 0.55 0.6944444
vt 0.6 0.6666666
vt 0.625 0.6666666
vt 0.575 0.6666666
vt 0.55 0.6666666
vt 0.025 0.5555556
vt 0.05 0.5555556
vt 0.05 0.5833334
vt 0.025 0.5833334
vt 0.075 0.5555556
vt 0.1 0.5555556
vt 0.15 0.5277778
vt 0.175 0.5277778
vt 0.175 0.5555556
vt 0.15 0.5555556
vt 0.125 0.5277778
vt 0.125 0.5555556
vt 0.15 0.5
vt 0.175 0.5
vt 0.125 0.5
vt 0.75 0.8055556
vt 0.775 0.8055556
vt 0.775 0.8333333
vt 0.75 0.8333333
vt 0.725 0.8055556
vt 0.725 0.8333333
vt 0.7 0.8055556
vt 0.7 0.8333333
vt 0.75 0.7777778
vt 0.775 0.7777778
vt 0.725 0.7777778
vt 0.7 0.7777778
vt 0.375 0.05555558
vt 0.4 0.05555558
vt 0.35 0.05555558
vt 0.8 0.8888889
vt 0.825 0.8888889
vt 0.825 0.9166667
vt 0.8 0.9166667
vt 0.775 0.8888889
vt 0.775 0.9166667
vt 0.125 0.8333333
vt 0.15 0.8333333
vt 0.15 0.8611111
vt 0.125 0.8611111
vt 0.1 0.8333333
vt 0.1 0.8611111
vt 0.075 0.8333333
vt 0.075 0.8611111
vt 0.8 0.8611111
vt 0.825 0.8611111
vt 0.775 0.8611111

# Normal
vn 0 0 -1

# Mesh description
g TOCLA_mesh_0003

# Faces
f 1/1/1 2/2/1 3/3/1 4/4/1
f 5/5/1 6/1/1 7/4/1 8/6/1
f 9/1/1 10/2/1 11/3/1 12/4/1
f 13/5/1 14/1/1 15/4/1 16/6/1
f 17/7/1 18/8/1 19/2/1 20/1/1
f 21/9/1 22/7/1 23/1/1 24/5/1
f 25/7/1 26/8/1 27/2/1 28/1/1
f 29/9/1 30/7/1 31/1/1 32/5/1
f 33/10/1 34/11/1 35/12/1 36/13/1
f 37/14/1 38/10/1 39/13/1 40/15/1
f 41/14/1 42/10/1 43/13/1 44/15/1
f 45/14/1 46/10/1 47/13/1 48/15/1
f 49/14/1 50/10/1 51/13/1 52/15/1
f 53/14/1 54/10/1 55/13/1 56/15/1
f 57/14/1 58/10/1 59/13/1 60/15/1
f 61/14/1 62/10/1 63/13/1 64/15/1
f 65/14/1 66/10/1 67/13/1 68/15/1
f 69/14/1 70/10/1 71/13/1 72/15/1
f 73/14/1 74/10/1 75/13/1 76/15/1
f 77/14/1 78/10/1 79/13/1 80/15/1
f 81/14/1 82/10/1 83/13/1 84/15/1
f 85/14/1 86/10/1 87/13/1 88/15/1
f 89/14/1 90/10/1 91/13/1 92/15/1
f 93/14/1 94/10/1 95/13/1 96/15/1
f 97/14/1 98/10/1 99/13/1 100/15/1
f 101/14/1 102/10/1 103/13/1 104/15/1
f 105/14/1 106/10/1 107/13/1 108/15/1
f 109/14/1 110/10/1 111/13/1 112/15/1
f 113/14/1 114/10/1 115/13/1 116/15/1
f 117/14/1 118/10/1 119/13/1 120/15/1
f 121/14/1 122/10/1 123/13/1 124/15/1
f 125/16/1 126/14/1 127/15/1 128/17/1
f 129/18/1 130/19/1 131/11/1 132/10/1
f 133/20/1 134/21/1 135/22/1 136/23/1
f 137/24/1 138/20/1 139/23/1 140/25/1
f 141/18/1 142/19/1 143/11/1 144/10/1
f 145/18/1 146/19/1 147/11/1 148/10/1
f 149/26/1 150/27/1 151/28/1 152/29/1
f 153/30/1 154/26/1 155/29/1 156/31/1
f 157/26/1 158/27/1 159/28/1 160/29/1
f 161/30/1 162/26/1 163/29/1 164/31/1
f 165/18/1 166/19/1 167/11/1 168/10/1
f 169/32/1 170/33/1 171/34/1 172/35/1
f 173/36/1 174/32/1 175/35/1 176/37/1
f 177/18/1 178/19/1 179/11/1 180/10/1
f 181/38/1 182/39/1 183/27/1 184/26/1
f 185/40/1 186/38/1 187/26/1 188/30/1
f 189/38/1 190/39/1 191/27/1 192/26/1
f 193/40/1 194/38/1 195/26/1 196/30/1
f 197/18/1 198/19/1 199/11/1 200/10/1
f 201/41/1 202/42/1 203/33/1 204/32/1
f 205/43/1 206/41/1 207/32/1 208/36/1
f 209/32/1 210/33/1 211/34/1 212/35/1
f 213/36/1 214/32/1 215/35/1 216/37/1
f 217/18/1 218/19/1 219/11/1 220/10/1
f 221/44/1 222/45/1 223/39/1 224/38/1
f 225/46/1 226/44/1 227/38/1 228/40/1
f 229/44/1 230/45/1 231/39/1 232/38/1
f 233/46/1 234/44/1 235/38/1 236/40/1
f 237/18/1 238/19/1 239/11/1 240/10/1
f 241/41/1 242/42/1 243/33/1 244/32/1
f 245/43/1 246/41/1 247/32/1 248/36/1
f 249/18/1 250/19/1 251/11/1 252/10/1
f 253/47/1 254/48/1 255/49/1 256/50/1
f 257/51/1 258/47/1 259/50/1 260/52/1
f 261/53/1 262/51/1 263/52/1 264/54/1
f 265/47/1 266/48/1 267/49/1 268/50/1
f 269/51/1 270/47/1 271/50/1 272/52/1
f 273/53/1 274/51/1 275/52/1 276/54/1
f 277/18/1 278/19/1 279/11/1 280/10/1
f 281/18/1 282/19/1 283/11/1 284/10/1
f 285/55/1 286/56/1 287/48/1 288/47/1
f 289/57/1 290/55/1 291/47/1 292/51/1
f 293/58/1 294/57/1 295/51/1 296/53/1
f 297/55/1 298/56/1 299/48/1 300/47/1
f 301/57/1 302/55/1 303/47/1 304/51/1
f 305/58/1 306/57/1 307/51/1 308/53/1
f 309/18/1 310/19/1 311/11/1 312/10/1
f 313/18/1 314/19/1 315/11/1 316/10/1
f 317/59/1 318/60/1 319/56/1 320/55/1
f 321/61/1 322/59/1 323/55/1 324/57/1
f 325/62/1 326/61/1 327/57/1 328/58/1
f 329/59/1 330/60/1 331/56/1 332/55/1
f 333/61/1 334/59/1 335/55/1 336/57/1
f 337/62/1 338/61/1 339/57/1 340/58/1
f 341/18/1 342/19/1 343/11/1 344/10/1
f 345/18/1 346/19/1 347/11/1 348/10/1
f 349/18/1 350/19/1 351/11/1 352/10/1
f 353/14/1 354/10/1 355/13/1 356/15/1
f 357/14/1 358/10/1 359/13/1 360/15/1
f 361/14/1 362/10/1 363/13/1 364/15/1
f 365/63/1 366/64/1 367/65/1 368/66/1
f 369/67/1 370/68/1 371/19/1 372/18/1
f 373/14/1 374/10/1 375/13/1 376/15/1
f 377/14/1 378/10/1 379/13/1 380/15/1
f 381/14/1 382/10/1 383/13/1 384/15/1
f 385/14/1 386/10/1 387/13/1 388/15/1
f 389/14/1 390/10/1 391/13/1 392/15/1
f 393/14/1 394/10/1 395/13/1 396/15/1
f 397/14/1 398/10/1 399/13/1 400/15/1
f 401/16/1 402/14/1 403/15/1 404/17/1
f 405/10/1 406/11/1 407/12/1 408/13/1
f 409/14/1 410/10/1 411/13/1 412/15/1
f 413/14/1 414/10/1 415/13/1 416/15/1
f 417/14/1 418/10/1 419/13/1 420/15/1
f 421/14/1 422/10/1 423/13/1 424/15/1
f 425/65/1 426/18/1 427/10/1 428/14/1
f 429/65/1 430/18/1 431/10/1 432/14/1
f 433/65/1 434/18/1 435/10/1 436/14/1
f 437/65/1 438/18/1 439/10/1 440/14/1
f 441/66/1 442/65/1 443/14/1 444/16/1
f 445/18/1 446/19/1 447/11/1 448/10/1
f 449/65/1 450/18/1 451/10/1 452/14/1
f 453/65/1 454/18/1 455/10/1 456/14/1
f 457/65/1 458/18/1 459/10/1 460/14/1
f 461/65/1 462/18/1 463/10/1 464/14/1
f 465/10/1 466/11/1 467/12/1 468/13/1
f 469/14/1 470/10/1 471/13/1 472/15/1
f 473/14/1 474/10/1 475/13/1 476/15/1
f 477/14/1 478/10/1 479/13/1 480/15/1
f 481/63/1 482/64/1 483/65/1 484/66/1
f 485/67/1 486/68/1 487/19/1 488/18/1
f 489/14/1 490/10/1 491/13/1 492/15/1
f 493/14/1 494/10/1 495/13/1 496/15/1
f 497/14/1 498/10/1 499/13/1 500/15/1
f 501/14/1 502/10/1 503/13/1 504/15/1
f 505/18/1 506/19/1 507/11/1 508/10/1
f 509/18/1 510/19/1 511/11/1 512/10/1
f 513/18/1 514/19/1 515/11/1 516/10/1
f 517/10/1 518/11/1 519/12/1 520/13/1
f 521/18/1 522/19/1 523/11/1 524/10/1
f 525/69/1 526/70/1 527/71/1 528/72/1
f 529/73/1 530/69/1 531/72/1 532/74/1
f 533/69/1 534/70/1 535/71/1 536/72/1
f 537/73/1 538/69/1 539/72/1 540/74/1
f 541/18/1 542/19/1 543/11/1 544/10/1
f 545/18/1 546/19/1 547/11/1 548/10/1
f 549/75/1 550/76/1 551/70/1 552/69/1
f 553/77/1 554/75/1 555/69/1 556/73/1
f 557/75/1 558/76/1 559/70/1 560/69/1
f 561/77/1 562/75/1 563/69/1 564/73/1
f 565/18/1 566/19/1 567/11/1 568/10/1
f 569/18/1 570/19/1 571/11/1 572/10/1
f 573/18/1 574/19/1 575/11/1 576/10/1
f 577/18/1 578/19/1 579/11/1 580/10/1
f 581/18/1 582/19/1 583/11/1 584/10/1
f 585/18/1 586/19/1 587/11/1 588/10/1
f 589/78/1 590/79/1 591/80/1 592/81/1
f 593/82/1 594/78/1 595/81/1 596/83/1
f 597/84/1 598/82/1 599/83/1 600/85/1
f 601/78/1 602/79/1 603/80/1 604/81/1
f 605/82/1 606/78/1 607/81/1 608/83/1
f 609/84/1 610/82/1 611/83/1 612/85/1
f 613/78/1 614/79/1 615/80/1 616/81/1
f 617/82/1 618/78/1 619/81/1 620/83/1
f 621/84/1 622/82/1 623/83/1 624/85/1
f 625/78/1 626/79/1 627/80/1 628/81/1
f 629/82/1 630/78/1 631/81/1 632/83/1
f 633/84/1 634/82/1 635/83/1 636/85/1
f 637/18/1 638/19/1 639/11/1 640/10/1
f 641/18/1 642/19/1 643/11/1 644/10/1
f 645/86/1 646/87/1 647/79/1 648/78/1
f 649/88/1 650/86/1 651/78/1 652/82/1
f 653/89/1 654/88/1 655/82/1 656/84/1
f 657/86/1 658/87/1 659/79/1 660/78/1
f 661/88/1 662/86/1 663/78/1 664/82/1
f 665/89/1 666/88/1 667/82/1 668/84/1
f 669/86/1 670/87/1 671/79/1 672/78/1
f 673/88/1 674/86/1 675/78/1 676/82/1
f 677/89/1 678/88/1 679/82/1 680/84/1
f 681/86/1 682/87/1 683/79/1 684/78/1
f 685/88/1 686/86/1 687/78/1 688/82/1
f 689/89/1 690/88/1 691/82/1 692/84/1
f 693/18/1 694/19/1 695/11/1 696/10/1
f 697/18/1 698/19/1 699/11/1 700/10/1
f 701/90/1 702/91/1 703/21/1 704/20/1
f 705/92/1 706/90/1 707/20/1 708/24/1
f 709/18/1 710/19/1 711/11/1 712/10/1
f 713/18/1 714/19/1 715/11/1 716/10/1
f 717/69/1 718/70/1 719/71/1 720/72/1
f 721/73/1 722/69/1 723/72/1 724/74/1
f 725/93/1 726/94/1 727/95/1 728/96/1
f 729/97/1 730/93/1 731/96/1 732/98/1
f 733/1/1 734/2/1 735/3/1 736/4/1
f 737/5/1 738/1/1 739/4/1 740/6/1
f 741/99/1 742/100/1 743/101/1 744/102/1
f 745/103/1 746/99/1 747/102/1 748/104/1
f 749/105/1 750/103/1 751/104/1 752/106/1
f 753/69/1 754/70/1 755/71/1 756/72/1
f 757/73/1 758/69/1 759/72/1 760/74/1
f 761/18/1 762/19/1 763/11/1 764/10/1
f 765/18/1 766/19/1 767/11/1 768/10/1
f 769/75/1 770/76/1 771/70/1 772/69/1
f 773/77/1 774/75/1 775/69/1 776/73/1
f 777/107/1 778/108/1 779/94/1 780/93/1
f 781/109/1 782/107/1 783/93/1 784/97/1
f 785/7/1 786/8/1 787/2/1 788/1/1
f 789/9/1 790/7/1 791/1/1 792/5/1
f 793/99/1 794/100/1 795/101/1 796/102/1
f 797/103/1 798/99/1 799/102/1 800/104/1
f 801/105/1 802/103/1 803/104/1 804/106/1
f 805/75/1 806/76/1 807/70/1 808/69/1
f 809/77/1 810/75/1 811/69/1 812/73/1
f 813/18/1 814/19/1 815/11/1 816/10/1
f 817/67/1 818/68/1 819/19/1 820/18/1
f 821/14/1 822/10/1 823/13/1 824/15/1
f 825/14/1 826/10/1 827/13/1 828/15/1
f 829/14/1 830/10/1 831/13/1 832/15/1
f 833/14/1 834/10/1 835/13/1 836/15/1
f 837/14/1 838/10/1 839/13/1 840/15/1
f 841/14/1 842/10/1 843/13/1 844/15/1
f 845/14/1 846/10/1 847/13/1 848/15/1
f 849/14/1 850/10/1 851/13/1 852/15/1
f 853/14/1 854/10/1 855/13/1 856/15/1
f 857/14/1 858/10/1 859/13/1 860/15/1
f 861/14/1 862/10/1 863/13/1 864/15/1
f 865/14/1 866/10/1 867/13/1 868/15/1
f 869/14/1 870/10/1 871/13/1 872/15/1
f 873/14/1 874/10/1 875/13/1 876/15/1
f 877/14/1 878/10/1 879/13/1 880/15/1
f 881/14/1 882/10/1 883/13/1 884/15/1
f 885/14/1 886/10/1 887/13/1 888/15/1
f 889/14/1 890/10/1 891/13/1 892/15/1
f 893/14/1 894/10/1 895/13/1 896/15/1
f 897/14/1 898/10/1 899/13/1 900/15/1
f 901/14/1 902/10/1 903/13/1 904/15/1
f 905/14/1 906/10/1 907/13/1 908/15/1
f 909/14/1 910/10/1 911/13/1 912/15/1
f 913/14/1 914/10/1 915/13/1 916/15/1
f 917/14/1 918/10/1 919/13/1 920/15/1
f 921/14/1 922/10/1 923/13/1 924/15/1
f 925/14/1 926/10/1 927/13/1 928/15/1
f 929/14/1 930/10/1 931/13/1 932/15/1
f 933/63/1 934/64/1 935/65/1 936/66/1

