# Tiled2Unity generated file. Do not modify by hand.
# Wavefront file for 'ROOM6(COS)_mesh_0003.obj'

# Vertices (Count = 240)
v -16 -2 0
v -17 -2 0
v -17 -1 0
v -16 -1 0
v -15 -2 0
v -16 -2 0
v -16 -1 0
v -15 -1 0
v -14 -2 0
v -15 -2 0
v -15 -1 0
v -14 -1 0
v -8 -2 0
v -9 -2 0
v -9 -1 0
v -8 -1 0
v -7 -2 0
v -8 -2 0
v -8 -1 0
v -7 -1 0
v -6 -2 0
v -7 -2 0
v -7 -1 0
v -6 -1 0
v -5 -2 0
v -6 -2 0
v -6 -1 0
v -5 -1 0
v -4 -2 0
v -5 -2 0
v -5 -1 0
v -4 -1 0
v -3 -2 0
v -4 -2 0
v -4 -1 0
v -3 -1 0
v -16 -3 0
v -17 -3 0
v -17 -2 0
v -16 -2 0
v -15 -3 0
v -16 -3 0
v -16 -2 0
v -15 -2 0
v -14 -3 0
v -15 -3 0
v -15 -2 0
v -14 -2 0
v -8 -3 0
v -9 -3 0
v -9 -2 0
v -8 -2 0
v -7 -3 0
v -8 -3 0
v -8 -2 0
v -7 -2 0
v -6 -3 0
v -7 -3 0
v -7 -2 0
v -6 -2 0
v -5 -3 0
v -6 -3 0
v -6 -2 0
v -5 -2 0
v -4 -3 0
v -5 -3 0
v -5 -2 0
v -4 -2 0
v -3 -3 0
v -4 -3 0
v -4 -2 0
v -3 -2 0
v -16 -4 0
v -17 -4 0
v -17 -3 0
v -16 -3 0
v -15 -4 0
v -16 -4 0
v -16 -3 0
v -15 -3 0
v -14 -4 0
v -15 -4 0
v -15 -3 0
v -14 -3 0
v -8 -4 0
v -9 -4 0
v -9 -3 0
v -8 -3 0
v -7 -4 0
v -8 -4 0
v -8 -3 0
v -7 -3 0
v -6 -4 0
v -7 -4 0
v -7 -3 0
v -6 -3 0
v -5 -4 0
v -6 -4 0
v -6 -3 0
v -5 -3 0
v -4 -4 0
v -5 -4 0
v -5 -3 0
v -4 -3 0
v -3 -4 0
v -4 -4 0
v -4 -3 0
v -3 -3 0
v -12 -6 0
v -13 -6 0
v -13 -5 0
v -12 -5 0
v -11 -6 0
v -12 -6 0
v -12 -5 0
v -11 -5 0
v -10 -6 0
v -11 -6 0
v -11 -5 0
v -10 -5 0
v -8 -6 0
v -9 -6 0
v -9 -5 0
v -8 -5 0
v -7 -6 0
v -8 -6 0
v -8 -5 0
v -7 -5 0
v -6 -6 0
v -7 -6 0
v -7 -5 0
v -6 -5 0
v -5 -6 0
v -6 -6 0
v -6 -5 0
v -5 -5 0
v -4 -6 0
v -5 -6 0
v -5 -5 0
v -4 -5 0
v -12 -7 0
v -13 -7 0
v -13 -6 0
v -12 -6 0
v -11 -7 0
v -12 -7 0
v -12 -6 0
v -11 -6 0
v -10 -7 0
v -11 -7 0
v -11 -6 0
v -10 -6 0
v -8 -7 0
v -9 -7 0
v -9 -6 0
v -8 -6 0
v -7 -7 0
v -8 -7 0
v -8 -6 0
v -7 -6 0
v -6 -7 0
v -7 -7 0
v -7 -6 0
v -6 -6 0
v -5 -7 0
v -6 -7 0
v -6 -6 0
v -5 -6 0
v -4 -7 0
v -5 -7 0
v -5 -6 0
v -4 -6 0
v -12 -8 0
v -13 -8 0
v -13 -7 0
v -12 -7 0
v -11 -8 0
v -12 -8 0
v -12 -7 0
v -11 -7 0
v -10 -8 0
v -11 -8 0
v -11 -7 0
v -10 -7 0
v -8 -8 0
v -9 -8 0
v -9 -7 0
v -8 -7 0
v -7 -8 0
v -8 -8 0
v -8 -7 0
v -7 -7 0
v -5 -8 0
v -6 -8 0
v -6 -7 0
v -5 -7 0
v -4 -8 0
v -5 -8 0
v -5 -7 0
v -4 -7 0
v -8 -9 0
v -9 -9 0
v -9 -8 0
v -8 -8 0
v -7 -9 0
v -8 -9 0
v -8 -8 0
v -7 -8 0
v -6 -9 0
v -7 -9 0
v -7 -8 0
v -6 -8 0
v -5 -9 0
v -6 -9 0
v -6 -8 0
v -5 -8 0
v -4 -9 0
v -5 -9 0
v -5 -8 0
v -4 -8 0
v -8 -10 0
v -9 -10 0
v -9 -9 0
v -8 -9 0
v -7 -10 0
v -8 -10 0
v -8 -9 0
v -7 -9 0
v -6 -10 0
v -7 -10 0
v -7 -9 0
v -6 -9 0
v -5 -10 0
v -6 -10 0
v -6 -9 0
v -5 -9 0
v -4 -10 0
v -5 -10 0
v -5 -9 0
v -4 -9 0

# Texture cooridinates (Count = 69)
vt 0.05 0.48
vt 0.075 0.48
vt 0.075 0.52
vt 0.05 0.52
vt 0.025 0.48
vt 0.025 0.52
vt 0 0.48
vt 0 0.52
vt 0.05 0.44
vt 0.075 0.44
vt 0.1 0.48
vt 0.125 0.48
vt 0.125 0.52
vt 0.1 0.52
vt 0.2 0.56
vt 0.225 0.56
vt 0.225 0.6
vt 0.2 0.6
vt 0.175 0.56
vt 0.175 0.6
vt 0.15 0.56
vt 0.15 0.6
vt 0.15 0.48
vt 0.15 0.52
vt 0 0.44
vt 0.025 0.44
vt 0.05 0.4
vt 0.075 0.4
vt 0.1 0.44
vt 0.125 0.44
vt 0.2 0.52
vt 0.225 0.52
vt 0.175 0.52
vt 0.15 0.44
vt 0.3 0.92
vt 0.325 0.92
vt 0.325 0.96
vt 0.3 0.96
vt 0.275 0.92
vt 0.275 0.96
vt 0.25 0.92
vt 0.25 0.96
vt 0.05 0.68
vt 0.075 0.68
vt 0.075 0.72
vt 0.05 0.72
vt 0.025 0.68
vt 0.025 0.72
vt 0 0.68
vt 0 0.72
vt 0.3 0.88
vt 0.325 0.88
vt 0.275 0.88
vt 0.25 0.88
vt 0.05 0.64
vt 0.075 0.64
vt 0.025 0.56
vt 0.05 0.56
vt 0.05 0.6
vt 0.025 0.6
vt 0.025 0.64
vt 0 0.56
vt 0 0.6
vt 0 0.64
vt 0.3 0.84
vt 0.325 0.84
vt 0.275 0.84
vt 0.25 0.84
vt 0.075 0.6

# Normal
vn 0 0 -1

# Mesh description
g ROOM6(COS)_mesh_0003

# Faces
f 1/1/1 2/2/1 3/3/1 4/4/1
f 5/5/1 6/1/1 7/4/1 8/6/1
f 9/7/1 10/5/1 11/6/1 12/8/1
f 13/1/1 14/2/1 15/3/1 16/4/1
f 17/5/1 18/1/1 19/4/1 20/6/1
f 21/7/1 22/5/1 23/6/1 24/8/1
f 25/1/1 26/2/1 27/3/1 28/4/1
f 29/5/1 30/1/1 31/4/1 32/6/1
f 33/7/1 34/5/1 35/6/1 36/8/1
f 37/9/1 38/10/1 39/2/1 40/1/1
f 41/11/1 42/12/1 43/13/1 44/14/1
f 45/2/1 46/11/1 47/14/1 48/3/1
f 49/15/1 50/16/1 51/17/1 52/18/1
f 53/19/1 54/15/1 55/18/1 56/20/1
f 57/21/1 58/19/1 59/20/1 60/22/1
f 61/12/1 62/23/1 63/24/1 64/13/1
f 65/11/1 66/12/1 67/13/1 68/14/1
f 69/25/1 70/26/1 71/5/1 72/7/1
f 73/27/1 74/28/1 75/10/1 76/9/1
f 77/29/1 78/30/1 79/12/1 80/11/1
f 81/10/1 82/29/1 83/11/1 84/2/1
f 85/31/1 86/32/1 87/16/1 88/15/1
f 89/33/1 90/31/1 91/15/1 92/19/1
f 93/24/1 94/33/1 95/19/1 96/21/1
f 97/30/1 98/34/1 99/23/1 100/12/1
f 101/29/1 102/30/1 103/12/1 104/11/1
f 105/10/1 106/29/1 107/11/1 108/2/1
f 109/35/1 110/36/1 111/37/1 112/38/1
f 113/39/1 114/35/1 115/38/1 116/40/1
f 117/41/1 118/39/1 119/40/1 120/42/1
f 121/43/1 122/44/1 123/45/1 124/46/1
f 125/47/1 126/43/1 127/46/1 128/48/1
f 129/47/1 130/43/1 131/46/1 132/48/1
f 133/47/1 134/43/1 135/46/1 136/48/1
f 137/49/1 138/47/1 139/48/1 140/50/1
f 141/51/1 142/52/1 143/36/1 144/35/1
f 145/53/1 146/51/1 147/35/1 148/39/1
f 149/54/1 150/53/1 151/39/1 152/41/1
f 153/55/1 154/56/1 155/44/1 156/43/1
f 157/57/1 158/58/1 159/59/1 160/60/1
f 161/60/1 162/59/1 163/55/1 164/61/1
f 165/62/1 166/57/1 167/60/1 168/63/1
f 169/64/1 170/61/1 171/47/1 172/49/1
f 173/65/1 174/66/1 175/52/1 176/51/1
f 177/67/1 178/65/1 179/51/1 180/53/1
f 181/68/1 182/67/1 183/53/1 184/54/1
f 185/55/1 186/56/1 187/44/1 188/43/1
f 189/64/1 190/61/1 191/47/1 192/49/1
f 193/55/1 194/56/1 195/44/1 196/43/1
f 197/64/1 198/61/1 199/47/1 200/49/1
f 201/55/1 202/56/1 203/44/1 204/43/1
f 205/6/1 206/4/1 207/58/1 208/57/1
f 209/47/1 210/43/1 211/46/1 212/48/1
f 213/8/1 214/6/1 215/57/1 216/62/1
f 217/64/1 218/61/1 219/47/1 220/49/1
f 221/59/1 222/69/1 223/56/1 224/55/1
f 225/60/1 226/59/1 227/55/1 228/61/1
f 229/60/1 230/59/1 231/55/1 232/61/1
f 233/60/1 234/59/1 235/55/1 236/61/1
f 237/63/1 238/60/1 239/61/1 240/64/1

