# Tiled2Unity generated file. Do not modify by hand.
# Wavefront file for '2NDFLOOR_mesh_0004.obj'

# Vertices (Count = 32)
v -16 -8 0
v -17 -8 0
v -17 -7 0
v -16 -7 0
v -15 -8 0
v -16 -8 0
v -16 -7 0
v -15 -7 0
v -14 -8 0
v -15 -8 0
v -15 -7 0
v -14 -7 0
v -13 -8 0
v -14 -8 0
v -14 -7 0
v -13 -7 0
v -16 -9 0
v -17 -9 0
v -17 -8 0
v -16 -8 0
v -15 -9 0
v -16 -9 0
v -16 -8 0
v -15 -8 0
v -14 -9 0
v -15 -9 0
v -15 -8 0
v -14 -8 0
v -13 -9 0
v -14 -9 0
v -14 -8 0
v -13 -8 0

# Texture cooridinates (Count = 8)
vt 0.5 0.4166667
vt 0.525 0.4166667
vt 0.525 0.4444444
vt 0.5 0.4444444
vt 0.475 0.4166667
vt 0.475 0.4444444
vt 0.45 0.4166667
vt 0.45 0.4444444

# Normal
vn 0 0 -1

# Mesh description
g 2NDFLOOR_mesh_0004

# Faces
f 1/1/1 2/2/1 3/3/1 4/4/1
f 5/5/1 6/1/1 7/4/1 8/6/1
f 9/5/1 10/1/1 11/4/1 12/6/1
f 13/7/1 14/5/1 15/6/1 16/8/1
f 17/1/1 18/2/1 19/3/1 20/4/1
f 21/5/1 22/1/1 23/4/1 24/6/1
f 25/5/1 26/1/1 27/4/1 28/6/1
f 29/7/1 30/5/1 31/6/1 32/8/1

