# Tiled2Unity generated file. Do not modify by hand.
# Wavefront file for '2NDFLOOR_mesh_0005.obj'

# Vertices (Count = 32)
v -20 -22 0
v -21 -22 0
v -21 -21 0
v -20 -21 0
v -19 -22 0
v -20 -22 0
v -20 -21 0
v -19 -21 0
v -10 -22 0
v -11 -22 0
v -11 -21 0
v -10 -21 0
v -9 -22 0
v -10 -22 0
v -10 -21 0
v -9 -21 0
v -20 -23 0
v -21 -23 0
v -21 -22 0
v -20 -22 0
v -19 -23 0
v -20 -23 0
v -20 -22 0
v -19 -22 0
v -10 -23 0
v -11 -23 0
v -11 -22 0
v -10 -22 0
v -9 -23 0
v -10 -23 0
v -10 -22 0
v -9 -22 0

# Texture cooridinates (Count = 15)
vt 0.5625 0.7727273
vt 0.625 0.7727273
vt 0.625 0.8181818
vt 0.5625 0.8181818
vt 0.5 0.7727273
vt 0.5 0.8181818
vt 0.6875 0.7727273
vt 0.75 0.7727273
vt 0.75 0.8181818
vt 0.6875 0.8181818
vt 0.5625 0.7272727
vt 0.625 0.7272727
vt 0.5 0.7272727
vt 0.6875 0.7272727
vt 0.75 0.7272727

# Normal
vn 0 0 -1

# Mesh description
g 2NDFLOOR_mesh_0005

# Faces
f 1/1/1 2/2/1 3/3/1 4/4/1
f 5/5/1 6/1/1 7/4/1 8/6/1
f 9/7/1 10/8/1 11/9/1 12/10/1
f 13/2/1 14/7/1 15/10/1 16/3/1
f 17/11/1 18/12/1 19/2/1 20/1/1
f 21/13/1 22/11/1 23/1/1 24/5/1
f 25/14/1 26/15/1 27/8/1 28/7/1
f 29/12/1 30/14/1 31/7/1 32/2/1

