# Tiled2Unity generated file. Do not modify by hand.
# Wavefront file for 'CAFA_mesh_0004.obj'

# Vertices (Count = 192)
v -36 -16 0
v -37 -16 0
v -37 -15 0
v -36 -15 0
v -35 -16 0
v -36 -16 0
v -36 -15 0
v -35 -15 0
v -34 -16 0
v -35 -16 0
v -35 -15 0
v -34 -15 0
v -33 -16 0
v -34 -16 0
v -34 -15 0
v -33 -15 0
v -32 -16 0
v -33 -16 0
v -33 -15 0
v -32 -15 0
v -31 -16 0
v -32 -16 0
v -32 -15 0
v -31 -15 0
v -30 -16 0
v -31 -16 0
v -31 -15 0
v -30 -15 0
v -29 -16 0
v -30 -16 0
v -30 -15 0
v -29 -15 0
v -28 -16 0
v -29 -16 0
v -29 -15 0
v -28 -15 0
v -27 -16 0
v -28 -16 0
v -28 -15 0
v -27 -15 0
v -26 -16 0
v -27 -16 0
v -27 -15 0
v -26 -15 0
v -25 -16 0
v -26 -16 0
v -26 -15 0
v -25 -15 0
v -24 -16 0
v -25 -16 0
v -25 -15 0
v -24 -15 0
v -23 -16 0
v -24 -16 0
v -24 -15 0
v -23 -15 0
v -22 -16 0
v -23 -16 0
v -23 -15 0
v -22 -15 0
v -21 -16 0
v -22 -16 0
v -22 -15 0
v -21 -15 0
v -20 -16 0
v -21 -16 0
v -21 -15 0
v -20 -15 0
v -19 -16 0
v -20 -16 0
v -20 -15 0
v -19 -15 0
v -18 -16 0
v -19 -16 0
v -19 -15 0
v -18 -15 0
v -17 -16 0
v -18 -16 0
v -18 -15 0
v -17 -15 0
v -16 -16 0
v -17 -16 0
v -17 -15 0
v -16 -15 0
v -15 -16 0
v -16 -16 0
v -16 -15 0
v -15 -15 0
v -14 -16 0
v -15 -16 0
v -15 -15 0
v -14 -15 0
v -13 -16 0
v -14 -16 0
v -14 -15 0
v -13 -15 0
v -36 -17 0
v -37 -17 0
v -37 -16 0
v -36 -16 0
v -35 -17 0
v -36 -17 0
v -36 -16 0
v -35 -16 0
v -34 -17 0
v -35 -17 0
v -35 -16 0
v -34 -16 0
v -33 -17 0
v -34 -17 0
v -34 -16 0
v -33 -16 0
v -32 -17 0
v -33 -17 0
v -33 -16 0
v -32 -16 0
v -31 -17 0
v -32 -17 0
v -32 -16 0
v -31 -16 0
v -30 -17 0
v -31 -17 0
v -31 -16 0
v -30 -16 0
v -29 -17 0
v -30 -17 0
v -30 -16 0
v -29 -16 0
v -28 -17 0
v -29 -17 0
v -29 -16 0
v -28 -16 0
v -27 -17 0
v -28 -17 0
v -28 -16 0
v -27 -16 0
v -26 -17 0
v -27 -17 0
v -27 -16 0
v -26 -16 0
v -25 -17 0
v -26 -17 0
v -26 -16 0
v -25 -16 0
v -24 -17 0
v -25 -17 0
v -25 -16 0
v -24 -16 0
v -23 -17 0
v -24 -17 0
v -24 -16 0
v -23 -16 0
v -22 -17 0
v -23 -17 0
v -23 -16 0
v -22 -16 0
v -21 -17 0
v -22 -17 0
v -22 -16 0
v -21 -16 0
v -20 -17 0
v -21 -17 0
v -21 -16 0
v -20 -16 0
v -19 -17 0
v -20 -17 0
v -20 -16 0
v -19 -16 0
v -18 -17 0
v -19 -17 0
v -19 -16 0
v -18 -16 0
v -17 -17 0
v -18 -17 0
v -18 -16 0
v -17 -16 0
v -16 -17 0
v -17 -17 0
v -17 -16 0
v -16 -16 0
v -15 -17 0
v -16 -17 0
v -16 -16 0
v -15 -16 0
v -14 -17 0
v -15 -17 0
v -15 -16 0
v -14 -16 0
v -13 -17 0
v -14 -17 0
v -14 -16 0
v -13 -16 0

# Texture cooridinates (Count = 12)
vt 0.6 0.9166667
vt 0.625 0.9166667
vt 0.625 0.9444444
vt 0.6 0.9444444
vt 0.575 0.9166667
vt 0.575 0.9444444
vt 0.55 0.9166667
vt 0.55 0.9444444
vt 0.6 0.8888889
vt 0.625 0.8888889
vt 0.575 0.8888889
vt 0.55 0.8888889

# Normal
vn 0 0 -1

# Mesh description
g CAFA_mesh_0004

# Faces
f 1/1/1 2/2/1 3/3/1 4/4/1
f 5/5/1 6/1/1 7/4/1 8/6/1
f 9/5/1 10/1/1 11/4/1 12/6/1
f 13/5/1 14/1/1 15/4/1 16/6/1
f 17/5/1 18/1/1 19/4/1 20/6/1
f 21/5/1 22/1/1 23/4/1 24/6/1
f 25/5/1 26/1/1 27/4/1 28/6/1
f 29/5/1 30/1/1 31/4/1 32/6/1
f 33/5/1 34/1/1 35/4/1 36/6/1
f 37/5/1 38/1/1 39/4/1 40/6/1
f 41/5/1 42/1/1 43/4/1 44/6/1
f 45/5/1 46/1/1 47/4/1 48/6/1
f 49/5/1 50/1/1 51/4/1 52/6/1
f 53/5/1 54/1/1 55/4/1 56/6/1
f 57/5/1 58/1/1 59/4/1 60/6/1
f 61/5/1 62/1/1 63/4/1 64/6/1
f 65/5/1 66/1/1 67/4/1 68/6/1
f 69/5/1 70/1/1 71/4/1 72/6/1
f 73/5/1 74/1/1 75/4/1 76/6/1
f 77/5/1 78/1/1 79/4/1 80/6/1
f 81/5/1 82/1/1 83/4/1 84/6/1
f 85/5/1 86/1/1 87/4/1 88/6/1
f 89/5/1 90/1/1 91/4/1 92/6/1
f 93/7/1 94/5/1 95/6/1 96/8/1
f 97/9/1 98/10/1 99/2/1 100/1/1
f 101/11/1 102/9/1 103/1/1 104/5/1
f 105/11/1 106/9/1 107/1/1 108/5/1
f 109/11/1 110/9/1 111/1/1 112/5/1
f 113/11/1 114/9/1 115/1/1 116/5/1
f 117/11/1 118/9/1 119/1/1 120/5/1
f 121/11/1 122/9/1 123/1/1 124/5/1
f 125/11/1 126/9/1 127/1/1 128/5/1
f 129/11/1 130/9/1 131/1/1 132/5/1
f 133/11/1 134/9/1 135/1/1 136/5/1
f 137/11/1 138/9/1 139/1/1 140/5/1
f 141/11/1 142/9/1 143/1/1 144/5/1
f 145/11/1 146/9/1 147/1/1 148/5/1
f 149/11/1 150/9/1 151/1/1 152/5/1
f 153/11/1 154/9/1 155/1/1 156/5/1
f 157/11/1 158/9/1 159/1/1 160/5/1
f 161/11/1 162/9/1 163/1/1 164/5/1
f 165/11/1 166/9/1 167/1/1 168/5/1
f 169/11/1 170/9/1 171/1/1 172/5/1
f 173/11/1 174/9/1 175/1/1 176/5/1
f 177/11/1 178/9/1 179/1/1 180/5/1
f 181/11/1 182/9/1 183/1/1 184/5/1
f 185/11/1 186/9/1 187/1/1 188/5/1
f 189/12/1 190/11/1 191/5/1 192/7/1

