# Tiled2Unity generated file. Do not modify by hand.
# Wavefront file for 'CAFAROOM2_mesh_0005.obj'

# Vertices (Count = 352)
v -21 -2 0
v -22 -2 0
v -22 -1 0
v -21 -1 0
v -20 -2 0
v -21 -2 0
v -21 -1 0
v -20 -1 0
v -16 -2 0
v -17 -2 0
v -17 -1 0
v -16 -1 0
v -15 -2 0
v -16 -2 0
v -16 -1 0
v -15 -1 0
v -14 -2 0
v -15 -2 0
v -15 -1 0
v -14 -1 0
v -13 -2 0
v -14 -2 0
v -14 -1 0
v -13 -1 0
v -11 -2 0
v -12 -2 0
v -12 -1 0
v -11 -1 0
v -10 -2 0
v -11 -2 0
v -11 -1 0
v -10 -1 0
v -9 -2 0
v -10 -2 0
v -10 -1 0
v -9 -1 0
v -8 -2 0
v -9 -2 0
v -9 -1 0
v -8 -1 0
v -6 -2 0
v -7 -2 0
v -7 -1 0
v -6 -1 0
v -5 -2 0
v -6 -2 0
v -6 -1 0
v -5 -1 0
v -4 -2 0
v -5 -2 0
v -5 -1 0
v -4 -1 0
v -3 -2 0
v -4 -2 0
v -4 -1 0
v -3 -1 0
v -21 -3 0
v -22 -3 0
v -22 -2 0
v -21 -2 0
v -20 -3 0
v -21 -3 0
v -21 -2 0
v -20 -2 0
v -16 -3 0
v -17 -3 0
v -17 -2 0
v -16 -2 0
v -15 -3 0
v -16 -3 0
v -16 -2 0
v -15 -2 0
v -14 -3 0
v -15 -3 0
v -15 -2 0
v -14 -2 0
v -13 -3 0
v -14 -3 0
v -14 -2 0
v -13 -2 0
v -11 -3 0
v -12 -3 0
v -12 -2 0
v -11 -2 0
v -10 -3 0
v -11 -3 0
v -11 -2 0
v -10 -2 0
v -9 -3 0
v -10 -3 0
v -10 -2 0
v -9 -2 0
v -8 -3 0
v -9 -3 0
v -9 -2 0
v -8 -2 0
v -6 -3 0
v -7 -3 0
v -7 -2 0
v -6 -2 0
v -5 -3 0
v -6 -3 0
v -6 -2 0
v -5 -2 0
v -4 -3 0
v -5 -3 0
v -5 -2 0
v -4 -2 0
v -3 -3 0
v -4 -3 0
v -4 -2 0
v -3 -2 0
v -21 -4 0
v -22 -4 0
v -22 -3 0
v -21 -3 0
v -20 -4 0
v -21 -4 0
v -21 -3 0
v -20 -3 0
v -21 -5 0
v -22 -5 0
v -22 -4 0
v -21 -4 0
v -20 -5 0
v -21 -5 0
v -21 -4 0
v -20 -4 0
v -10 -8 0
v -11 -8 0
v -11 -7 0
v -10 -7 0
v -9 -8 0
v -10 -8 0
v -10 -7 0
v -9 -7 0
v -8 -8 0
v -9 -8 0
v -9 -7 0
v -8 -7 0
v -7 -8 0
v -8 -8 0
v -8 -7 0
v -7 -7 0
v -6 -8 0
v -7 -8 0
v -7 -7 0
v -6 -7 0
v -5 -8 0
v -6 -8 0
v -6 -7 0
v -5 -7 0
v -4 -8 0
v -5 -8 0
v -5 -7 0
v -4 -7 0
v -3 -8 0
v -4 -8 0
v -4 -7 0
v -3 -7 0
v -10 -9 0
v -11 -9 0
v -11 -8 0
v -10 -8 0
v -9 -9 0
v -10 -9 0
v -10 -8 0
v -9 -8 0
v -8 -9 0
v -9 -9 0
v -9 -8 0
v -8 -8 0
v -7 -9 0
v -8 -9 0
v -8 -8 0
v -7 -8 0
v -6 -9 0
v -7 -9 0
v -7 -8 0
v -6 -8 0
v -5 -9 0
v -6 -9 0
v -6 -8 0
v -5 -8 0
v -4 -9 0
v -5 -9 0
v -5 -8 0
v -4 -8 0
v -3 -9 0
v -4 -9 0
v -4 -8 0
v -3 -8 0
v -14 -10 0
v -15 -10 0
v -15 -9 0
v -14 -9 0
v -13 -10 0
v -14 -10 0
v -14 -9 0
v -13 -9 0
v -12 -10 0
v -13 -10 0
v -13 -9 0
v -12 -9 0
v -11 -10 0
v -12 -10 0
v -12 -9 0
v -11 -9 0
v -10 -10 0
v -11 -10 0
v -11 -9 0
v -10 -9 0
v -9 -10 0
v -10 -10 0
v -10 -9 0
v -9 -9 0
v -8 -10 0
v -9 -10 0
v -9 -9 0
v -8 -9 0
v -7 -10 0
v -8 -10 0
v -8 -9 0
v -7 -9 0
v -6 -10 0
v -7 -10 0
v -7 -9 0
v -6 -9 0
v -5 -10 0
v -6 -10 0
v -6 -9 0
v -5 -9 0
v -4 -10 0
v -5 -10 0
v -5 -9 0
v -4 -9 0
v -3 -10 0
v -4 -10 0
v -4 -9 0
v -3 -9 0
v -14 -11 0
v -15 -11 0
v -15 -10 0
v -14 -10 0
v -13 -11 0
v -14 -11 0
v -14 -10 0
v -13 -10 0
v -12 -11 0
v -13 -11 0
v -13 -10 0
v -12 -10 0
v -11 -11 0
v -12 -11 0
v -12 -10 0
v -11 -10 0
v -10 -11 0
v -11 -11 0
v -11 -10 0
v -10 -10 0
v -9 -11 0
v -10 -11 0
v -10 -10 0
v -9 -10 0
v -8 -11 0
v -9 -11 0
v -9 -10 0
v -8 -10 0
v -7 -11 0
v -8 -11 0
v -8 -10 0
v -7 -10 0
v -6 -11 0
v -7 -11 0
v -7 -10 0
v -6 -10 0
v -5 -11 0
v -6 -11 0
v -6 -10 0
v -5 -10 0
v -4 -11 0
v -5 -11 0
v -5 -10 0
v -4 -10 0
v -3 -11 0
v -4 -11 0
v -4 -10 0
v -3 -10 0
v -11 -17 0
v -12 -17 0
v -12 -16 0
v -11 -16 0
v -10 -17 0
v -11 -17 0
v -11 -16 0
v -10 -16 0
v -9 -17 0
v -10 -17 0
v -10 -16 0
v -9 -16 0
v -8 -17 0
v -9 -17 0
v -9 -16 0
v -8 -16 0
v -7 -17 0
v -8 -17 0
v -8 -16 0
v -7 -16 0
v -6 -17 0
v -7 -17 0
v -7 -16 0
v -6 -16 0
v -5 -17 0
v -6 -17 0
v -6 -16 0
v -5 -16 0
v -4 -17 0
v -5 -17 0
v -5 -16 0
v -4 -16 0
v -11 -18 0
v -12 -18 0
v -12 -17 0
v -11 -17 0
v -10 -18 0
v -11 -18 0
v -11 -17 0
v -10 -17 0
v -9 -18 0
v -10 -18 0
v -10 -17 0
v -9 -17 0
v -8 -18 0
v -9 -18 0
v -9 -17 0
v -8 -17 0
v -7 -18 0
v -8 -18 0
v -8 -17 0
v -7 -17 0
v -6 -18 0
v -7 -18 0
v -7 -17 0
v -6 -17 0
v -5 -18 0
v -6 -18 0
v -6 -17 0
v -5 -17 0
v -4 -18 0
v -5 -18 0
v -5 -17 0
v -4 -17 0

# Texture cooridinates (Count = 107)
vt 0.90625 0.65625
vt 0.9375 0.65625
vt 0.9375 0.6875
vt 0.90625 0.6875
vt 0.875 0.65625
vt 0.875 0.6875
vt 0.84375 0.53125
vt 0.875 0.53125
vt 0.875 0.5625
vt 0.84375 0.5625
vt 0.8125 0.53125
vt 0.8125 0.5625
vt 0.78125 0.53125
vt 0.78125 0.5625
vt 0.75 0.53125
vt 0.75 0.5625
vt 0.71875 0.53125
vt 0.71875 0.5625
vt 0.6875 0.53125
vt 0.6875 0.5625
vt 0.65625 0.53125
vt 0.65625 0.5625
vt 0.625 0.53125
vt 0.625 0.5625
vt 0.59375 0.53125
vt 0.59375 0.5625
vt 0.5625 0.53125
vt 0.5625 0.5625
vt 0.53125 0.53125
vt 0.53125 0.5625
vt 0.5 0.53125
vt 0.5 0.5625
vt 0.90625 0.625
vt 0.9375 0.625
vt 0.875 0.625
vt 0.84375 0.5
vt 0.875 0.5
vt 0.8125 0.5
vt 0.78125 0.5
vt 0.75 0.5
vt 0.71875 0.5
vt 0.6875 0.5
vt 0.65625 0.5
vt 0.625 0.5
vt 0.59375 0.5
vt 0.5625 0.5
vt 0.53125 0.5
vt 0.5 0.5
vt 0.90625 0.59375
vt 0.9375 0.59375
vt 0.875 0.59375
vt 0.90625 0.5625
vt 0.9375 0.5625
vt 0.71875 0.46875
vt 0.75 0.46875
vt 0.6875 0.46875
vt 0.65625 0.46875
vt 0.625 0.46875
vt 0.59375 0.46875
vt 0.5625 0.46875
vt 0.53125 0.46875
vt 0.5 0.46875
vt 0.71875 0.4375
vt 0.75 0.4375
vt 0.6875 0.4375
vt 0.65625 0.4375
vt 0.625 0.4375
vt 0.59375 0.4375
vt 0.5625 0.4375
vt 0.53125 0.4375
vt 0.5 0.4375
vt 0.65625 0.03125
vt 0.6875 0.03125
vt 0.6875 0.0625
vt 0.65625 0.0625
vt 0.625 0.03125
vt 0.625 0.0625
vt 0.71875 0.40625
vt 0.75 0.40625
vt 0.6875 0.40625
vt 0.65625 0.40625
vt 0.625 0.40625
vt 0.59375 0.40625
vt 0.5625 0.40625
vt 0.53125 0.40625
vt 0.5 0.40625
vt 0.65625 0
vt 0.6875 0
vt 0.625 0
vt 0.71875 0.375
vt 0.75 0.375
vt 0.6875 0.375
vt 0.65625 0.375
vt 0.625 0.375
vt 0.59375 0.375
vt 0.5625 0.375
vt 0.53125 0.375
vt 0.5 0.375
vt 0.09375 0.28125
vt 0.125 0.28125
vt 0.125 0.3125
vt 0.09375 0.3125
vt 0.0625 0.28125
vt 0.0625 0.3125
vt 0.09375 0.25
vt 0.125 0.25
vt 0.0625 0.25

# Normal
vn 0 0 -1

# Mesh description
g CAFAROOM2_mesh_0005

# Faces
f 1/1/1 2/2/1 3/3/1 4/4/1
f 5/5/1 6/1/1 7/4/1 8/6/1
f 9/7/1 10/8/1 11/9/1 12/10/1
f 13/11/1 14/7/1 15/10/1 16/12/1
f 17/13/1 18/11/1 19/12/1 20/14/1
f 21/15/1 22/13/1 23/14/1 24/16/1
f 25/17/1 26/15/1 27/16/1 28/18/1
f 29/19/1 30/17/1 31/18/1 32/20/1
f 33/21/1 34/19/1 35/20/1 36/22/1
f 37/23/1 38/21/1 39/22/1 40/24/1
f 41/25/1 42/23/1 43/24/1 44/26/1
f 45/27/1 46/25/1 47/26/1 48/28/1
f 49/29/1 50/27/1 51/28/1 52/30/1
f 53/31/1 54/29/1 55/30/1 56/32/1
f 57/33/1 58/34/1 59/2/1 60/1/1
f 61/35/1 62/33/1 63/1/1 64/5/1
f 65/36/1 66/37/1 67/8/1 68/7/1
f 69/38/1 70/36/1 71/7/1 72/11/1
f 73/39/1 74/38/1 75/11/1 76/13/1
f 77/40/1 78/39/1 79/13/1 80/15/1
f 81/41/1 82/40/1 83/15/1 84/17/1
f 85/42/1 86/41/1 87/17/1 88/19/1
f 89/43/1 90/42/1 91/19/1 92/21/1
f 93/44/1 94/43/1 95/21/1 96/23/1
f 97/45/1 98/44/1 99/23/1 100/25/1
f 101/46/1 102/45/1 103/25/1 104/27/1
f 105/47/1 106/46/1 107/27/1 108/29/1
f 109/48/1 110/47/1 111/29/1 112/31/1
f 113/49/1 114/50/1 115/34/1 116/33/1
f 117/51/1 118/49/1 119/33/1 120/35/1
f 121/52/1 122/53/1 123/50/1 124/49/1
f 125/9/1 126/52/1 127/49/1 128/51/1
f 129/54/1 130/55/1 131/40/1 132/41/1
f 133/56/1 134/54/1 135/41/1 136/42/1
f 137/57/1 138/56/1 139/42/1 140/43/1
f 141/58/1 142/57/1 143/43/1 144/44/1
f 145/59/1 146/58/1 147/44/1 148/45/1
f 149/60/1 150/59/1 151/45/1 152/46/1
f 153/61/1 154/60/1 155/46/1 156/47/1
f 157/62/1 158/61/1 159/47/1 160/48/1
f 161/63/1 162/64/1 163/55/1 164/54/1
f 165/65/1 166/63/1 167/54/1 168/56/1
f 169/66/1 170/65/1 171/56/1 172/57/1
f 173/67/1 174/66/1 175/57/1 176/58/1
f 177/68/1 178/67/1 179/58/1 180/59/1
f 181/69/1 182/68/1 183/59/1 184/60/1
f 185/70/1 186/69/1 187/60/1 188/61/1
f 189/71/1 190/70/1 191/61/1 192/62/1
f 193/72/1 194/73/1 195/74/1 196/75/1
f 197/76/1 198/72/1 199/75/1 200/77/1
f 201/72/1 202/73/1 203/74/1 204/75/1
f 205/76/1 206/72/1 207/75/1 208/77/1
f 209/78/1 210/79/1 211/64/1 212/63/1
f 213/80/1 214/78/1 215/63/1 216/65/1
f 217/81/1 218/80/1 219/65/1 220/66/1
f 221/82/1 222/81/1 223/66/1 224/67/1
f 225/83/1 226/82/1 227/67/1 228/68/1
f 229/84/1 230/83/1 231/68/1 232/69/1
f 233/85/1 234/84/1 235/69/1 236/70/1
f 237/86/1 238/85/1 239/70/1 240/71/1
f 241/87/1 242/88/1 243/73/1 244/72/1
f 245/89/1 246/87/1 247/72/1 248/76/1
f 249/87/1 250/88/1 251/73/1 252/72/1
f 253/89/1 254/87/1 255/72/1 256/76/1
f 257/90/1 258/91/1 259/79/1 260/78/1
f 261/92/1 262/90/1 263/78/1 264/80/1
f 265/93/1 266/92/1 267/80/1 268/81/1
f 269/94/1 270/93/1 271/81/1 272/82/1
f 273/95/1 274/94/1 275/82/1 276/83/1
f 277/96/1 278/95/1 279/83/1 280/84/1
f 281/97/1 282/96/1 283/84/1 284/85/1
f 285/98/1 286/97/1 287/85/1 288/86/1
f 289/99/1 290/100/1 291/101/1 292/102/1
f 293/103/1 294/99/1 295/102/1 296/104/1
f 297/99/1 298/100/1 299/101/1 300/102/1
f 301/103/1 302/99/1 303/102/1 304/104/1
f 305/99/1 306/100/1 307/101/1 308/102/1
f 309/103/1 310/99/1 311/102/1 312/104/1
f 313/99/1 314/100/1 315/101/1 316/102/1
f 317/103/1 318/99/1 319/102/1 320/104/1
f 321/105/1 322/106/1 323/100/1 324/99/1
f 325/107/1 326/105/1 327/99/1 328/103/1
f 329/105/1 330/106/1 331/100/1 332/99/1
f 333/107/1 334/105/1 335/99/1 336/103/1
f 337/105/1 338/106/1 339/100/1 340/99/1
f 341/107/1 342/105/1 343/99/1 344/103/1
f 345/105/1 346/106/1 347/100/1 348/99/1
f 349/107/1 350/105/1 351/99/1 352/103/1

