# Tiled2Unity generated file. Do not modify by hand.
# Wavefront file for 'CAFAROOM1_mesh_0003.obj'

# Vertices (Count = 144)
v -13 -4 0
v -14 -4 0
v -14 -3 0
v -13 -3 0
v -13 -5 0
v -14 -5 0
v -14 -4 0
v -13 -4 0
v -13 -6 0
v -14 -6 0
v -14 -5 0
v -13 -5 0
v -18 -11 0
v -19 -11 0
v -19 -10 0
v -18 -10 0
v -17 -11 0
v -18 -11 0
v -18 -10 0
v -17 -10 0
v -16 -11 0
v -17 -11 0
v -17 -10 0
v -16 -10 0
v -15 -11 0
v -16 -11 0
v -16 -10 0
v -15 -10 0
v -13 -11 0
v -14 -11 0
v -14 -10 0
v -13 -10 0
v -12 -11 0
v -13 -11 0
v -13 -10 0
v -12 -10 0
v -11 -11 0
v -12 -11 0
v -12 -10 0
v -11 -10 0
v -9 -11 0
v -10 -11 0
v -10 -10 0
v -9 -10 0
v -8 -11 0
v -9 -11 0
v -9 -10 0
v -8 -10 0
v -7 -11 0
v -8 -11 0
v -8 -10 0
v -7 -10 0
v -6 -11 0
v -7 -11 0
v -7 -10 0
v -6 -10 0
v -18 -12 0
v -19 -12 0
v -19 -11 0
v -18 -11 0
v -17 -12 0
v -18 -12 0
v -18 -11 0
v -17 -11 0
v -16 -12 0
v -17 -12 0
v -17 -11 0
v -16 -11 0
v -15 -12 0
v -16 -12 0
v -16 -11 0
v -15 -11 0
v -13 -12 0
v -14 -12 0
v -14 -11 0
v -13 -11 0
v -12 -12 0
v -13 -12 0
v -13 -11 0
v -12 -11 0
v -11 -12 0
v -12 -12 0
v -12 -11 0
v -11 -11 0
v -9 -12 0
v -10 -12 0
v -10 -11 0
v -9 -11 0
v -8 -12 0
v -9 -12 0
v -9 -11 0
v -8 -11 0
v -7 -12 0
v -8 -12 0
v -8 -11 0
v -7 -11 0
v -6 -12 0
v -7 -12 0
v -7 -11 0
v -6 -11 0
v -18 -13 0
v -19 -13 0
v -19 -12 0
v -18 -12 0
v -17 -13 0
v -18 -13 0
v -18 -12 0
v -17 -12 0
v -16 -13 0
v -17 -13 0
v -17 -12 0
v -16 -12 0
v -15 -13 0
v -16 -13 0
v -16 -12 0
v -15 -12 0
v -13 -13 0
v -14 -13 0
v -14 -12 0
v -13 -12 0
v -12 -13 0
v -13 -13 0
v -13 -12 0
v -12 -12 0
v -11 -13 0
v -12 -13 0
v -12 -12 0
v -11 -12 0
v -9 -13 0
v -10 -13 0
v -10 -12 0
v -9 -12 0
v -8 -13 0
v -9 -13 0
v -9 -12 0
v -8 -12 0
v -7 -13 0
v -8 -13 0
v -8 -12 0
v -7 -12 0
v -6 -13 0
v -7 -13 0
v -7 -12 0
v -6 -12 0

# Texture cooridinates (Count = 16)
vt 0.375 0.8
vt 0.4 0.8
vt 0.4 0.84
vt 0.375 0.84
vt 0.375 0.76
vt 0.4 0.76
vt 0.375 0.72
vt 0.4 0.72
vt 0.425 0.8
vt 0.45 0.8
vt 0.45 0.84
vt 0.425 0.84
vt 0.425 0.76
vt 0.45 0.76
vt 0.425 0.72
vt 0.45 0.72

# Normal
vn 0 0 -1

# Mesh description
g CAFAROOM1_mesh_0003

# Faces
f 1/1/1 2/2/1 3/3/1 4/4/1
f 5/5/1 6/6/1 7/2/1 8/1/1
f 9/7/1 10/8/1 11/6/1 12/5/1
f 13/9/1 14/10/1 15/11/1 16/12/1
f 17/9/1 18/10/1 19/11/1 20/12/1
f 21/9/1 22/10/1 23/11/1 24/12/1
f 25/9/1 26/10/1 27/11/1 28/12/1
f 29/9/1 30/10/1 31/11/1 32/12/1
f 33/9/1 34/10/1 35/11/1 36/12/1
f 37/9/1 38/10/1 39/11/1 40/12/1
f 41/9/1 42/10/1 43/11/1 44/12/1
f 45/9/1 46/10/1 47/11/1 48/12/1
f 49/9/1 50/10/1 51/11/1 52/12/1
f 53/9/1 54/10/1 55/11/1 56/12/1
f 57/13/1 58/14/1 59/10/1 60/9/1
f 61/13/1 62/14/1 63/10/1 64/9/1
f 65/13/1 66/14/1 67/10/1 68/9/1
f 69/13/1 70/14/1 71/10/1 72/9/1
f 73/13/1 74/14/1 75/10/1 76/9/1
f 77/13/1 78/14/1 79/10/1 80/9/1
f 81/13/1 82/14/1 83/10/1 84/9/1
f 85/13/1 86/14/1 87/10/1 88/9/1
f 89/13/1 90/14/1 91/10/1 92/9/1
f 93/13/1 94/14/1 95/10/1 96/9/1
f 97/13/1 98/14/1 99/10/1 100/9/1
f 101/15/1 102/16/1 103/14/1 104/13/1
f 105/15/1 106/16/1 107/14/1 108/13/1
f 109/15/1 110/16/1 111/14/1 112/13/1
f 113/15/1 114/16/1 115/14/1 116/13/1
f 117/15/1 118/16/1 119/14/1 120/13/1
f 121/15/1 122/16/1 123/14/1 124/13/1
f 125/15/1 126/16/1 127/14/1 128/13/1
f 129/15/1 130/16/1 131/14/1 132/13/1
f 133/15/1 134/16/1 135/14/1 136/13/1
f 137/15/1 138/16/1 139/14/1 140/13/1
f 141/15/1 142/16/1 143/14/1 144/13/1

