# Tiled2Unity generated file. Do not modify by hand.
# Wavefront file for 'CAFAROOM4_mesh_0004.obj'

# Vertices (Count = 64)
v -26 -2 0
v -27 -2 0
v -27 -1 0
v -26 -1 0
v -25 -2 0
v -26 -2 0
v -26 -1 0
v -25 -1 0
v -10 -2 0
v -11 -2 0
v -11 -1 0
v -10 -1 0
v -9 -2 0
v -10 -2 0
v -10 -1 0
v -9 -1 0
v -8 -2 0
v -9 -2 0
v -9 -1 0
v -8 -1 0
v -6 -2 0
v -7 -2 0
v -7 -1 0
v -6 -1 0
v -4 -2 0
v -5 -2 0
v -5 -1 0
v -4 -1 0
v -3 -2 0
v -4 -2 0
v -4 -1 0
v -3 -1 0
v -26 -3 0
v -27 -3 0
v -27 -2 0
v -26 -2 0
v -25 -3 0
v -26 -3 0
v -26 -2 0
v -25 -2 0
v -10 -3 0
v -11 -3 0
v -11 -2 0
v -10 -2 0
v -9 -3 0
v -10 -3 0
v -10 -2 0
v -9 -2 0
v -8 -3 0
v -9 -3 0
v -9 -2 0
v -8 -2 0
v -6 -3 0
v -7 -3 0
v -7 -2 0
v -6 -2 0
v -4 -3 0
v -5 -3 0
v -5 -2 0
v -4 -2 0
v -3 -3 0
v -4 -3 0
v -4 -2 0
v -3 -2 0

# Texture cooridinates (Count = 32)
vt 0.425 0.96
vt 0.45 0.96
vt 0.45 1
vt 0.425 1
vt 0.4 0.96
vt 0.4 1
vt 0.1 0.56
vt 0.125 0.56
vt 0.125 0.6
vt 0.1 0.6
vt 0.075 0.56
vt 0.075 0.6
vt 0.05 0.56
vt 0.05 0.6
vt 0.225 0.96
vt 0.25 0.96
vt 0.25 1
vt 0.225 1
vt 0.375 0.96
vt 0.375 1
vt 0.35 0.96
vt 0.35 1
vt 0.1 0.52
vt 0.125 0.52
vt 0.075 0.52
vt 0.05 0.52
vt 0.225 0.92
vt 0.25 0.92
vt 0.325 0.96
vt 0.325 1
vt 0.3 0.96
vt 0.3 1

# Normal
vn 0 0 -1

# Mesh description
g CAFAROOM4_mesh_0004

# Faces
f 1/1/1 2/2/1 3/3/1 4/4/1
f 5/5/1 6/1/1 7/4/1 8/6/1
f 9/7/1 10/8/1 11/9/1 12/10/1
f 13/11/1 14/7/1 15/10/1 16/12/1
f 17/13/1 18/11/1 19/12/1 20/14/1
f 21/15/1 22/16/1 23/17/1 24/18/1
f 25/19/1 26/5/1 27/6/1 28/20/1
f 29/21/1 30/19/1 31/20/1 32/22/1
f 33/1/1 34/2/1 35/3/1 36/4/1
f 37/5/1 38/1/1 39/4/1 40/6/1
f 41/23/1 42/24/1 43/8/1 44/7/1
f 45/25/1 46/23/1 47/7/1 48/11/1
f 49/26/1 50/25/1 51/11/1 52/13/1
f 53/27/1 54/28/1 55/16/1 56/15/1
f 57/29/1 58/21/1 59/22/1 60/30/1
f 61/31/1 62/29/1 63/30/1 64/32/1

