# Tiled2Unity generated file. Do not modify by hand.
# Wavefront file for 'CLAROOM4_mesh_0002.obj'

# Vertices (Count = 900)
v -19 -1 0
v -20 -1 0
v -20 0 0
v -19 0 0
v -18 -1 0
v -19 -1 0
v -19 0 0
v -18 0 0
v -17 -1 0
v -18 -1 0
v -18 0 0
v -17 0 0
v -16 -1 0
v -17 -1 0
v -17 0 0
v -16 0 0
v -15 -1 0
v -16 -1 0
v -16 0 0
v -15 0 0
v -14 -1 0
v -15 -1 0
v -15 0 0
v -14 0 0
v -13 -1 0
v -14 -1 0
v -14 0 0
v -13 0 0
v -12 -1 0
v -13 -1 0
v -13 0 0
v -12 0 0
v -11 -1 0
v -12 -1 0
v -12 0 0
v -11 0 0
v -10 -1 0
v -11 -1 0
v -11 0 0
v -10 0 0
v -9 -1 0
v -10 -1 0
v -10 0 0
v -9 0 0
v -8 -1 0
v -9 -1 0
v -9 0 0
v -8 0 0
v -7 -1 0
v -8 -1 0
v -8 0 0
v -7 0 0
v -6 -1 0
v -7 -1 0
v -7 0 0
v -6 0 0
v -5 -1 0
v -6 -1 0
v -6 0 0
v -5 0 0
v -4 -1 0
v -5 -1 0
v -5 0 0
v -4 0 0
v -3 -1 0
v -4 -1 0
v -4 0 0
v -3 0 0
v -2 -1 0
v -3 -1 0
v -3 0 0
v -2 0 0
v -1 -1 0
v -2 -1 0
v -2 0 0
v -1 0 0
v 0 -1 0
v -1 -1 0
v -1 0 0
v 0 0 0
v -19 -2 0
v -20 -2 0
v -20 -1 0
v -19 -1 0
v -18 -2 0
v -19 -2 0
v -19 -1 0
v -18 -1 0
v -17 -2 0
v -18 -2 0
v -18 -1 0
v -17 -1 0
v -16 -2 0
v -17 -2 0
v -17 -1 0
v -16 -1 0
v -15 -2 0
v -16 -2 0
v -16 -1 0
v -15 -1 0
v -14 -2 0
v -15 -2 0
v -15 -1 0
v -14 -1 0
v -13 -2 0
v -14 -2 0
v -14 -1 0
v -13 -1 0
v -12 -2 0
v -13 -2 0
v -13 -1 0
v -12 -1 0
v -11 -2 0
v -12 -2 0
v -12 -1 0
v -11 -1 0
v -10 -2 0
v -11 -2 0
v -11 -1 0
v -10 -1 0
v -9 -2 0
v -10 -2 0
v -10 -1 0
v -9 -1 0
v -8 -2 0
v -9 -2 0
v -9 -1 0
v -8 -1 0
v -7 -2 0
v -8 -2 0
v -8 -1 0
v -7 -1 0
v -6 -2 0
v -7 -2 0
v -7 -1 0
v -6 -1 0
v -5 -2 0
v -6 -2 0
v -6 -1 0
v -5 -1 0
v -4 -2 0
v -5 -2 0
v -5 -1 0
v -4 -1 0
v -3 -2 0
v -4 -2 0
v -4 -1 0
v -3 -1 0
v -2 -2 0
v -3 -2 0
v -3 -1 0
v -2 -1 0
v -1 -2 0
v -2 -2 0
v -2 -1 0
v -1 -1 0
v 0 -2 0
v -1 -2 0
v -1 -1 0
v 0 -1 0
v -19 -3 0
v -20 -3 0
v -20 -2 0
v -19 -2 0
v -18 -3 0
v -19 -3 0
v -19 -2 0
v -18 -2 0
v -17 -3 0
v -18 -3 0
v -18 -2 0
v -17 -2 0
v -16 -3 0
v -17 -3 0
v -17 -2 0
v -16 -2 0
v -15 -3 0
v -16 -3 0
v -16 -2 0
v -15 -2 0
v -14 -3 0
v -15 -3 0
v -15 -2 0
v -14 -2 0
v -13 -3 0
v -14 -3 0
v -14 -2 0
v -13 -2 0
v -12 -3 0
v -13 -3 0
v -13 -2 0
v -12 -2 0
v -11 -3 0
v -12 -3 0
v -12 -2 0
v -11 -2 0
v -10 -3 0
v -11 -3 0
v -11 -2 0
v -10 -2 0
v -9 -3 0
v -10 -3 0
v -10 -2 0
v -9 -2 0
v -8 -3 0
v -9 -3 0
v -9 -2 0
v -8 -2 0
v -7 -3 0
v -8 -3 0
v -8 -2 0
v -7 -2 0
v -6 -3 0
v -7 -3 0
v -7 -2 0
v -6 -2 0
v -5 -3 0
v -6 -3 0
v -6 -2 0
v -5 -2 0
v -4 -3 0
v -5 -3 0
v -5 -2 0
v -4 -2 0
v -3 -3 0
v -4 -3 0
v -4 -2 0
v -3 -2 0
v -2 -3 0
v -3 -3 0
v -3 -2 0
v -2 -2 0
v -1 -3 0
v -2 -3 0
v -2 -2 0
v -1 -2 0
v 0 -3 0
v -1 -3 0
v -1 -2 0
v 0 -2 0
v -19 -4 0
v -20 -4 0
v -20 -3 0
v -19 -3 0
v -18 -4 0
v -19 -4 0
v -19 -3 0
v -18 -3 0
v -3 -4 0
v -4 -4 0
v -4 -3 0
v -3 -3 0
v -1 -4 0
v -2 -4 0
v -2 -3 0
v -1 -3 0
v 0 -4 0
v -1 -4 0
v -1 -3 0
v 0 -3 0
v -19 -5 0
v -20 -5 0
v -20 -4 0
v -19 -4 0
v -18 -5 0
v -19 -5 0
v -19 -4 0
v -18 -4 0
v -17 -5 0
v -18 -5 0
v -18 -4 0
v -17 -4 0
v -1 -5 0
v -2 -5 0
v -2 -4 0
v -1 -4 0
v 0 -5 0
v -1 -5 0
v -1 -4 0
v 0 -4 0
v -19 -6 0
v -20 -6 0
v -20 -5 0
v -19 -5 0
v -18 -6 0
v -19 -6 0
v -19 -5 0
v -18 -5 0
v -15 -6 0
v -16 -6 0
v -16 -5 0
v -15 -5 0
v -14 -6 0
v -15 -6 0
v -15 -5 0
v -14 -5 0
v -13 -6 0
v -14 -6 0
v -14 -5 0
v -13 -5 0
v -12 -6 0
v -13 -6 0
v -13 -5 0
v -12 -5 0
v -11 -6 0
v -12 -6 0
v -12 -5 0
v -11 -5 0
v -10 -6 0
v -11 -6 0
v -11 -5 0
v -10 -5 0
v -9 -6 0
v -10 -6 0
v -10 -5 0
v -9 -5 0
v -8 -6 0
v -9 -6 0
v -9 -5 0
v -8 -5 0
v -7 -6 0
v -8 -6 0
v -8 -5 0
v -7 -5 0
v -6 -6 0
v -7 -6 0
v -7 -5 0
v -6 -5 0
v -5 -6 0
v -6 -6 0
v -6 -5 0
v -5 -5 0
v -4 -6 0
v -5 -6 0
v -5 -5 0
v -4 -5 0
v -1 -6 0
v -2 -6 0
v -2 -5 0
v -1 -5 0
v 0 -6 0
v -1 -6 0
v -1 -5 0
v 0 -5 0
v -19 -7 0
v -20 -7 0
v -20 -6 0
v -19 -6 0
v -18 -7 0
v -19 -7 0
v -19 -6 0
v -18 -6 0
v -4 -7 0
v -5 -7 0
v -5 -6 0
v -4 -6 0
v -1 -7 0
v -2 -7 0
v -2 -6 0
v -1 -6 0
v 0 -7 0
v -1 -7 0
v -1 -6 0
v 0 -6 0
v -19 -8 0
v -20 -8 0
v -20 -7 0
v -19 -7 0
v -18 -8 0
v -19 -8 0
v -19 -7 0
v -18 -7 0
v -5 -8 0
v -6 -8 0
v -6 -7 0
v -5 -7 0
v -4 -8 0
v -5 -8 0
v -5 -7 0
v -4 -7 0
v -1 -8 0
v -2 -8 0
v -2 -7 0
v -1 -7 0
v 0 -8 0
v -1 -8 0
v -1 -7 0
v 0 -7 0
v -19 -9 0
v -20 -9 0
v -20 -8 0
v -19 -8 0
v -18 -9 0
v -19 -9 0
v -19 -8 0
v -18 -8 0
v -17 -9 0
v -18 -9 0
v -18 -8 0
v -17 -8 0
v -15 -9 0
v -16 -9 0
v -16 -8 0
v -15 -8 0
v -14 -9 0
v -15 -9 0
v -15 -8 0
v -14 -8 0
v -13 -9 0
v -14 -9 0
v -14 -8 0
v -13 -8 0
v -12 -9 0
v -13 -9 0
v -13 -8 0
v -12 -8 0
v -11 -9 0
v -12 -9 0
v -12 -8 0
v -11 -8 0
v -10 -9 0
v -11 -9 0
v -11 -8 0
v -10 -8 0
v -7 -9 0
v -8 -9 0
v -8 -8 0
v -7 -8 0
v -4 -9 0
v -5 -9 0
v -5 -8 0
v -4 -8 0
v -1 -9 0
v -2 -9 0
v -2 -8 0
v -1 -8 0
v 0 -9 0
v -1 -9 0
v -1 -8 0
v 0 -8 0
v -19 -10 0
v -20 -10 0
v -20 -9 0
v -19 -9 0
v -18 -10 0
v -19 -10 0
v -19 -9 0
v -18 -9 0
v -16 -10 0
v -17 -10 0
v -17 -9 0
v -16 -9 0
v -10 -10 0
v -11 -10 0
v -11 -9 0
v -10 -9 0
v -7 -10 0
v -8 -10 0
v -8 -9 0
v -7 -9 0
v -4 -10 0
v -5 -10 0
v -5 -9 0
v -4 -9 0
v -1 -10 0
v -2 -10 0
v -2 -9 0
v -1 -9 0
v 0 -10 0
v -1 -10 0
v -1 -9 0
v 0 -9 0
v -19 -11 0
v -20 -11 0
v -20 -10 0
v -19 -10 0
v -18 -11 0
v -19 -11 0
v -19 -10 0
v -18 -10 0
v -13 -11 0
v -14 -11 0
v -14 -10 0
v -13 -10 0
v -10 -11 0
v -11 -11 0
v -11 -10 0
v -10 -10 0
v -7 -11 0
v -8 -11 0
v -8 -10 0
v -7 -10 0
v -4 -11 0
v -5 -11 0
v -5 -10 0
v -4 -10 0
v 0 -11 0
v -1 -11 0
v -1 -10 0
v 0 -10 0
v -19 -12 0
v -20 -12 0
v -20 -11 0
v -19 -11 0
v -18 -12 0
v -19 -12 0
v -19 -11 0
v -18 -11 0
v -15 -12 0
v -16 -12 0
v -16 -11 0
v -15 -11 0
v -13 -12 0
v -14 -12 0
v -14 -11 0
v -13 -11 0
v -11 -12 0
v -12 -12 0
v -12 -11 0
v -11 -11 0
v -10 -12 0
v -11 -12 0
v -11 -11 0
v -10 -11 0
v -9 -12 0
v -10 -12 0
v -10 -11 0
v -9 -11 0
v -8 -12 0
v -9 -12 0
v -9 -11 0
v -8 -11 0
v -7 -12 0
v -8 -12 0
v -8 -11 0
v -7 -11 0
v -4 -12 0
v -5 -12 0
v -5 -11 0
v -4 -11 0
v 0 -12 0
v -1 -12 0
v -1 -11 0
v 0 -11 0
v -19 -13 0
v -20 -13 0
v -20 -12 0
v -19 -12 0
v -18 -13 0
v -19 -13 0
v -19 -12 0
v -18 -12 0
v -11 -13 0
v -12 -13 0
v -12 -12 0
v -11 -12 0
v -7 -13 0
v -8 -13 0
v -8 -12 0
v -7 -12 0
v -4 -13 0
v -5 -13 0
v -5 -12 0
v -4 -12 0
v -3 -13 0
v -4 -13 0
v -4 -12 0
v -3 -12 0
v -2 -13 0
v -3 -13 0
v -3 -12 0
v -2 -12 0
v -1 -13 0
v -2 -13 0
v -2 -12 0
v -1 -12 0
v 0 -13 0
v -1 -13 0
v -1 -12 0
v 0 -12 0
v -19 -14 0
v -20 -14 0
v -20 -13 0
v -19 -13 0
v -18 -14 0
v -19 -14 0
v -19 -13 0
v -18 -13 0
v -14 -14 0
v -15 -14 0
v -15 -13 0
v -14 -13 0
v -7 -14 0
v -8 -14 0
v -8 -13 0
v -7 -13 0
v -5 -14 0
v -6 -14 0
v -6 -13 0
v -5 -13 0
v -1 -14 0
v -2 -14 0
v -2 -13 0
v -1 -13 0
v 0 -14 0
v -1 -14 0
v -1 -13 0
v 0 -13 0
v -19 -15 0
v -20 -15 0
v -20 -14 0
v -19 -14 0
v -18 -15 0
v -19 -15 0
v -19 -14 0
v -18 -14 0
v -14 -15 0
v -15 -15 0
v -15 -14 0
v -14 -14 0
v -12 -15 0
v -13 -15 0
v -13 -14 0
v -12 -14 0
v -11 -15 0
v -12 -15 0
v -12 -14 0
v -11 -14 0
v -10 -15 0
v -11 -15 0
v -11 -14 0
v -10 -14 0
v -9 -15 0
v -10 -15 0
v -10 -14 0
v -9 -14 0
v -8 -15 0
v -9 -15 0
v -9 -14 0
v -8 -14 0
v -7 -15 0
v -8 -15 0
v -8 -14 0
v -7 -14 0
v -1 -15 0
v -2 -15 0
v -2 -14 0
v -1 -14 0
v 0 -15 0
v -1 -15 0
v -1 -14 0
v 0 -14 0
v -19 -16 0
v -20 -16 0
v -20 -15 0
v -19 -15 0
v -18 -16 0
v -19 -16 0
v -19 -15 0
v -18 -15 0
v -15 -16 0
v -16 -16 0
v -16 -15 0
v -15 -15 0
v -14 -16 0
v -15 -16 0
v -15 -15 0
v -14 -15 0
v -10 -16 0
v -11 -16 0
v -11 -15 0
v -10 -15 0
v -4 -16 0
v -5 -16 0
v -5 -15 0
v -4 -15 0
v -3 -16 0
v -4 -16 0
v -4 -15 0
v -3 -15 0
v -1 -16 0
v -2 -16 0
v -2 -15 0
v -1 -15 0
v 0 -16 0
v -1 -16 0
v -1 -15 0
v 0 -15 0
v -19 -17 0
v -20 -17 0
v -20 -16 0
v -19 -16 0
v -18 -17 0
v -19 -17 0
v -19 -16 0
v -18 -16 0
v -15 -17 0
v -16 -17 0
v -16 -16 0
v -15 -16 0
v -14 -17 0
v -15 -17 0
v -15 -16 0
v -14 -16 0
v -4 -17 0
v -5 -17 0
v -5 -16 0
v -4 -16 0
v -1 -17 0
v -2 -17 0
v -2 -16 0
v -1 -16 0
v 0 -17 0
v -1 -17 0
v -1 -16 0
v 0 -16 0
v -19 -18 0
v -20 -18 0
v -20 -17 0
v -19 -17 0
v -18 -18 0
v -19 -18 0
v -19 -17 0
v -18 -17 0
v -6 -18 0
v -7 -18 0
v -7 -17 0
v -6 -17 0
v -4 -18 0
v -5 -18 0
v -5 -17 0
v -4 -17 0
v -1 -18 0
v -2 -18 0
v -2 -17 0
v -1 -17 0
v 0 -18 0
v -1 -18 0
v -1 -17 0
v 0 -17 0
v -19 -19 0
v -20 -19 0
v -20 -18 0
v -19 -18 0
v -18 -19 0
v -19 -19 0
v -19 -18 0
v -18 -18 0
v -17 -19 0
v -18 -19 0
v -18 -18 0
v -17 -18 0
v -16 -19 0
v -17 -19 0
v -17 -18 0
v -16 -18 0
v -15 -19 0
v -16 -19 0
v -16 -18 0
v -15 -18 0
v -14 -19 0
v -15 -19 0
v -15 -18 0
v -14 -18 0
v -13 -19 0
v -14 -19 0
v -14 -18 0
v -13 -18 0
v -12 -19 0
v -13 -19 0
v -13 -18 0
v -12 -18 0
v -11 -19 0
v -12 -19 0
v -12 -18 0
v -11 -18 0
v -10 -19 0
v -11 -19 0
v -11 -18 0
v -10 -18 0
v -9 -19 0
v -10 -19 0
v -10 -18 0
v -9 -18 0
v -8 -19 0
v -9 -19 0
v -9 -18 0
v -8 -18 0
v -7 -19 0
v -8 -19 0
v -8 -18 0
v -7 -18 0
v -6 -19 0
v -7 -19 0
v -7 -18 0
v -6 -18 0
v -5 -19 0
v -6 -19 0
v -6 -18 0
v -5 -18 0
v -4 -19 0
v -5 -19 0
v -5 -18 0
v -4 -18 0
v -3 -19 0
v -4 -19 0
v -4 -18 0
v -3 -18 0
v -2 -19 0
v -3 -19 0
v -3 -18 0
v -2 -18 0
v -1 -19 0
v -2 -19 0
v -2 -18 0
v -1 -18 0
v 0 -19 0
v -1 -19 0
v -1 -18 0
v 0 -18 0
v -19 -20 0
v -20 -20 0
v -20 -19 0
v -19 -19 0
v -18 -20 0
v -19 -20 0
v -19 -19 0
v -18 -19 0
v -17 -20 0
v -18 -20 0
v -18 -19 0
v -17 -19 0
v -16 -20 0
v -17 -20 0
v -17 -19 0
v -16 -19 0
v -15 -20 0
v -16 -20 0
v -16 -19 0
v -15 -19 0
v -14 -20 0
v -15 -20 0
v -15 -19 0
v -14 -19 0
v -13 -20 0
v -14 -20 0
v -14 -19 0
v -13 -19 0
v -12 -20 0
v -13 -20 0
v -13 -19 0
v -12 -19 0
v -11 -20 0
v -12 -20 0
v -12 -19 0
v -11 -19 0
v -10 -20 0
v -11 -20 0
v -11 -19 0
v -10 -19 0
v -9 -20 0
v -10 -20 0
v -10 -19 0
v -9 -19 0
v -8 -20 0
v -9 -20 0
v -9 -19 0
v -8 -19 0
v -7 -20 0
v -8 -20 0
v -8 -19 0
v -7 -19 0
v -6 -20 0
v -7 -20 0
v -7 -19 0
v -6 -19 0
v -5 -20 0
v -6 -20 0
v -6 -19 0
v -5 -19 0
v -4 -20 0
v -5 -20 0
v -5 -19 0
v -4 -19 0
v -3 -20 0
v -4 -20 0
v -4 -19 0
v -3 -19 0
v -2 -20 0
v -3 -20 0
v -3 -19 0
v -2 -19 0
v -1 -20 0
v -2 -20 0
v -2 -19 0
v -1 -19 0
v 0 -20 0
v -1 -20 0
v -1 -19 0
v 0 -19 0

# Texture cooridinates (Count = 24)
vt 0.05 0.92
vt 0.075 0.92
vt 0.075 0.96
vt 0.05 0.96
vt 0.125 0.96
vt 0.15 0.96
vt 0.15 1
vt 0.125 1
vt 0.05 0.88
vt 0.075 0.88
vt 0.1 0.96
vt 0.1 1
vt 0.025 0.92
vt 0.025 0.96
vt 0.125 0.84
vt 0.15 0.84
vt 0.15 0.88
vt 0.125 0.88
vt 0.1 0.92
vt 0.1 0.88
vt 0.075 1
vt 0.125 0.92
vt 0.15 0.92
vt 0.05 1

# Normal
vn 0 0 -1

# Mesh description
g CLAROOM4_mesh_0002

# Faces
f 1/1/1 2/2/1 3/3/1 4/4/1
f 5/1/1 6/2/1 7/3/1 8/4/1
f 9/1/1 10/2/1 11/3/1 12/4/1
f 13/1/1 14/2/1 15/3/1 16/4/1
f 17/1/1 18/2/1 19/3/1 20/4/1
f 21/1/1 22/2/1 23/3/1 24/4/1
f 25/1/1 26/2/1 27/3/1 28/4/1
f 29/1/1 30/2/1 31/3/1 32/4/1
f 33/1/1 34/2/1 35/3/1 36/4/1
f 37/1/1 38/2/1 39/3/1 40/4/1
f 41/1/1 42/2/1 43/3/1 44/4/1
f 45/1/1 46/2/1 47/3/1 48/4/1
f 49/1/1 50/2/1 51/3/1 52/4/1
f 53/1/1 54/2/1 55/3/1 56/4/1
f 57/1/1 58/2/1 59/3/1 60/4/1
f 61/1/1 62/2/1 63/3/1 64/4/1
f 65/1/1 66/2/1 67/3/1 68/4/1
f 69/1/1 70/2/1 71/3/1 72/4/1
f 73/1/1 74/2/1 75/3/1 76/4/1
f 77/1/1 78/2/1 79/3/1 80/4/1
f 81/1/1 82/2/1 83/3/1 84/4/1
f 85/1/1 86/2/1 87/3/1 88/4/1
f 89/1/1 90/2/1 91/3/1 92/4/1
f 93/1/1 94/2/1 95/3/1 96/4/1
f 97/1/1 98/2/1 99/3/1 100/4/1
f 101/1/1 102/2/1 103/3/1 104/4/1
f 105/1/1 106/2/1 107/3/1 108/4/1
f 109/1/1 110/2/1 111/3/1 112/4/1
f 113/1/1 114/2/1 115/3/1 116/4/1
f 117/1/1 118/2/1 119/3/1 120/4/1
f 121/1/1 122/2/1 123/3/1 124/4/1
f 125/1/1 126/2/1 127/3/1 128/4/1
f 129/1/1 130/2/1 131/3/1 132/4/1
f 133/1/1 134/2/1 135/3/1 136/4/1
f 137/1/1 138/2/1 139/3/1 140/4/1
f 141/1/1 142/2/1 143/3/1 144/4/1
f 145/1/1 146/2/1 147/3/1 148/4/1
f 149/1/1 150/2/1 151/3/1 152/4/1
f 153/1/1 154/2/1 155/3/1 156/4/1
f 157/1/1 158/2/1 159/3/1 160/4/1
f 161/1/1 162/2/1 163/3/1 164/4/1
f 165/5/1 166/6/1 167/7/1 168/8/1
f 169/9/1 170/10/1 171/2/1 172/1/1
f 173/9/1 174/10/1 175/2/1 176/1/1
f 177/9/1 178/10/1 179/2/1 180/1/1
f 181/9/1 182/10/1 183/2/1 184/1/1
f 185/9/1 186/10/1 187/2/1 188/1/1
f 189/9/1 190/10/1 191/2/1 192/1/1
f 193/9/1 194/10/1 195/2/1 196/1/1
f 197/9/1 198/10/1 199/2/1 200/1/1
f 201/9/1 202/10/1 203/2/1 204/1/1
f 205/9/1 206/10/1 207/2/1 208/1/1
f 209/9/1 210/10/1 211/2/1 212/1/1
f 213/9/1 214/10/1 215/2/1 216/1/1
f 217/9/1 218/10/1 219/2/1 220/1/1
f 221/9/1 222/10/1 223/2/1 224/1/1
f 225/9/1 226/10/1 227/2/1 228/1/1
f 229/9/1 230/10/1 231/2/1 232/1/1
f 233/11/1 234/5/1 235/8/1 236/12/1
f 237/1/1 238/2/1 239/3/1 240/4/1
f 241/1/1 242/2/1 243/3/1 244/4/1
f 245/13/1 246/1/1 247/4/1 248/14/1
f 249/15/1 250/16/1 251/17/1 252/18/1
f 253/2/1 254/19/1 255/11/1 256/3/1
f 257/1/1 258/2/1 259/3/1 260/4/1
f 261/1/1 262/2/1 263/3/1 264/4/1
f 265/13/1 266/1/1 267/4/1 268/14/1
f 269/15/1 270/16/1 271/17/1 272/18/1
f 273/2/1 274/19/1 275/11/1 276/3/1
f 277/1/1 278/2/1 279/3/1 280/4/1
f 281/1/1 282/2/1 283/3/1 284/4/1
f 285/13/1 286/1/1 287/4/1 288/14/1
f 289/15/1 290/16/1 291/17/1 292/18/1
f 293/15/1 294/16/1 295/17/1 296/18/1
f 297/15/1 298/16/1 299/17/1 300/18/1
f 301/15/1 302/16/1 303/17/1 304/18/1
f 305/15/1 306/16/1 307/17/1 308/18/1
f 309/15/1 310/16/1 311/17/1 312/18/1
f 313/15/1 314/16/1 315/17/1 316/18/1
f 317/15/1 318/16/1 319/17/1 320/18/1
f 321/15/1 322/16/1 323/17/1 324/18/1
f 325/15/1 326/16/1 327/17/1 328/18/1
f 329/15/1 330/16/1 331/17/1 332/18/1
f 333/15/1 334/16/1 335/17/1 336/18/1
f 337/2/1 338/19/1 339/11/1 340/3/1
f 341/1/1 342/2/1 343/3/1 344/4/1
f 345/1/1 346/2/1 347/3/1 348/4/1
f 349/13/1 350/1/1 351/4/1 352/14/1
f 353/15/1 354/16/1 355/17/1 356/18/1
f 357/2/1 358/19/1 359/11/1 360/3/1
f 361/1/1 362/2/1 363/3/1 364/4/1
f 365/1/1 366/2/1 367/3/1 368/4/1
f 369/13/1 370/1/1 371/4/1 372/14/1
f 373/15/1 374/16/1 375/17/1 376/18/1
f 377/15/1 378/16/1 379/17/1 380/18/1
f 381/2/1 382/19/1 383/11/1 384/3/1
f 385/1/1 386/2/1 387/3/1 388/4/1
f 389/1/1 390/2/1 391/3/1 392/4/1
f 393/13/1 394/1/1 395/4/1 396/14/1
f 397/15/1 398/16/1 399/17/1 400/18/1
f 401/15/1 402/16/1 403/17/1 404/18/1
f 405/15/1 406/16/1 407/17/1 408/18/1
f 409/15/1 410/16/1 411/17/1 412/18/1
f 413/15/1 414/16/1 415/17/1 416/18/1
f 417/15/1 418/16/1 419/17/1 420/18/1
f 421/15/1 422/16/1 423/17/1 424/18/1
f 425/15/1 426/16/1 427/17/1 428/18/1
f 429/15/1 430/16/1 431/17/1 432/18/1
f 433/2/1 434/19/1 435/11/1 436/3/1
f 437/1/1 438/2/1 439/3/1 440/4/1
f 441/1/1 442/2/1 443/3/1 444/4/1
f 445/13/1 446/1/1 447/4/1 448/14/1
f 449/15/1 450/16/1 451/17/1 452/18/1
f 453/15/1 454/16/1 455/17/1 456/18/1
f 457/15/1 458/16/1 459/17/1 460/18/1
f 461/15/1 462/16/1 463/17/1 464/18/1
f 465/10/1 466/20/1 467/19/1 468/2/1
f 469/1/1 470/2/1 471/3/1 472/4/1
f 473/1/1 474/2/1 475/3/1 476/4/1
f 477/13/1 478/1/1 479/4/1 480/14/1
f 481/15/1 482/16/1 483/17/1 484/18/1
f 485/15/1 486/16/1 487/17/1 488/18/1
f 489/15/1 490/16/1 491/17/1 492/18/1
f 493/15/1 494/16/1 495/17/1 496/18/1
f 497/1/1 498/2/1 499/3/1 500/4/1
f 501/1/1 502/2/1 503/3/1 504/4/1
f 505/13/1 506/1/1 507/4/1 508/14/1
f 509/15/1 510/16/1 511/17/1 512/18/1
f 513/15/1 514/16/1 515/17/1 516/18/1
f 517/15/1 518/16/1 519/17/1 520/18/1
f 521/15/1 522/16/1 523/17/1 524/18/1
f 525/15/1 526/16/1 527/17/1 528/18/1
f 529/15/1 530/16/1 531/17/1 532/18/1
f 533/15/1 534/16/1 535/17/1 536/18/1
f 537/15/1 538/16/1 539/17/1 540/18/1
f 541/1/1 542/2/1 543/3/1 544/4/1
f 545/1/1 546/2/1 547/3/1 548/4/1
f 549/13/1 550/1/1 551/4/1 552/14/1
f 553/15/1 554/16/1 555/17/1 556/18/1
f 557/15/1 558/16/1 559/17/1 560/18/1
f 561/15/1 562/16/1 563/17/1 564/18/1
f 565/15/1 566/16/1 567/17/1 568/18/1
f 569/15/1 570/16/1 571/17/1 572/18/1
f 573/3/1 574/11/1 575/12/1 576/21/1
f 577/1/1 578/2/1 579/3/1 580/4/1
f 581/1/1 582/2/1 583/3/1 584/4/1
f 585/13/1 586/1/1 587/4/1 588/14/1
f 589/15/1 590/16/1 591/17/1 592/18/1
f 593/15/1 594/16/1 595/17/1 596/18/1
f 597/15/1 598/16/1 599/17/1 600/18/1
f 601/2/1 602/19/1 603/11/1 604/3/1
f 605/1/1 606/2/1 607/3/1 608/4/1
f 609/1/1 610/2/1 611/3/1 612/4/1
f 613/13/1 614/1/1 615/4/1 616/14/1
f 617/15/1 618/16/1 619/17/1 620/18/1
f 621/15/1 622/16/1 623/17/1 624/18/1
f 625/15/1 626/16/1 627/17/1 628/18/1
f 629/15/1 630/16/1 631/17/1 632/18/1
f 633/15/1 634/16/1 635/17/1 636/18/1
f 637/15/1 638/16/1 639/17/1 640/18/1
f 641/15/1 642/16/1 643/17/1 644/18/1
f 645/2/1 646/19/1 647/11/1 648/3/1
f 649/1/1 650/2/1 651/3/1 652/4/1
f 653/1/1 654/2/1 655/3/1 656/4/1
f 657/13/1 658/1/1 659/4/1 660/14/1
f 661/15/1 662/16/1 663/17/1 664/18/1
f 665/15/1 666/16/1 667/17/1 668/18/1
f 669/15/1 670/16/1 671/17/1 672/18/1
f 673/15/1 674/16/1 675/17/1 676/18/1
f 677/15/1 678/16/1 679/17/1 680/18/1
f 681/2/1 682/19/1 683/11/1 684/3/1
f 685/1/1 686/2/1 687/3/1 688/4/1
f 689/1/1 690/2/1 691/3/1 692/4/1
f 693/13/1 694/1/1 695/4/1 696/14/1
f 697/15/1 698/16/1 699/17/1 700/18/1
f 701/15/1 702/16/1 703/17/1 704/18/1
f 705/15/1 706/16/1 707/17/1 708/18/1
f 709/2/1 710/19/1 711/11/1 712/3/1
f 713/1/1 714/2/1 715/3/1 716/4/1
f 717/1/1 718/2/1 719/3/1 720/4/1
f 721/13/1 722/1/1 723/4/1 724/14/1
f 725/15/1 726/16/1 727/17/1 728/18/1
f 729/15/1 730/16/1 731/17/1 732/18/1
f 733/2/1 734/19/1 735/11/1 736/3/1
f 737/1/1 738/2/1 739/3/1 740/4/1
f 741/1/1 742/2/1 743/3/1 744/4/1
f 745/22/1 746/23/1 747/6/1 748/5/1
f 749/4/1 750/3/1 751/21/1 752/24/1
f 753/4/1 754/3/1 755/21/1 756/24/1
f 757/4/1 758/3/1 759/21/1 760/24/1
f 761/4/1 762/3/1 763/21/1 764/24/1
f 765/4/1 766/3/1 767/21/1 768/24/1
f 769/4/1 770/3/1 771/21/1 772/24/1
f 773/4/1 774/3/1 775/21/1 776/24/1
f 777/4/1 778/3/1 779/21/1 780/24/1
f 781/4/1 782/3/1 783/21/1 784/24/1
f 785/4/1 786/3/1 787/21/1 788/24/1
f 789/4/1 790/3/1 791/21/1 792/24/1
f 793/4/1 794/3/1 795/21/1 796/24/1
f 797/4/1 798/3/1 799/21/1 800/24/1
f 801/4/1 802/3/1 803/21/1 804/24/1
f 805/4/1 806/3/1 807/21/1 808/24/1
f 809/4/1 810/3/1 811/21/1 812/24/1
f 813/19/1 814/22/1 815/5/1 816/11/1
f 817/1/1 818/2/1 819/3/1 820/4/1
f 821/1/1 822/2/1 823/3/1 824/4/1
f 825/1/1 826/2/1 827/3/1 828/4/1
f 829/1/1 830/2/1 831/3/1 832/4/1
f 833/1/1 834/2/1 835/3/1 836/4/1
f 837/1/1 838/2/1 839/3/1 840/4/1
f 841/1/1 842/2/1 843/3/1 844/4/1
f 845/1/1 846/2/1 847/3/1 848/4/1
f 849/1/1 850/2/1 851/3/1 852/4/1
f 853/1/1 854/2/1 855/3/1 856/4/1
f 857/1/1 858/2/1 859/3/1 860/4/1
f 861/1/1 862/2/1 863/3/1 864/4/1
f 865/1/1 866/2/1 867/3/1 868/4/1
f 869/1/1 870/2/1 871/3/1 872/4/1
f 873/1/1 874/2/1 875/3/1 876/4/1
f 877/1/1 878/2/1 879/3/1 880/4/1
f 881/1/1 882/2/1 883/3/1 884/4/1
f 885/1/1 886/2/1 887/3/1 888/4/1
f 889/1/1 890/2/1 891/3/1 892/4/1
f 893/1/1 894/2/1 895/3/1 896/4/1
f 897/1/1 898/2/1 899/3/1 900/4/1

